<svg width="20" height="20" viewBox="0 0 20 20" fill="none" xmlns="http://www.w3.org/2000/svg">
<path d="M4.25364 4.84437C4.25364 4.39514 4.61781 4.03096 5.06705 4.03096C5.51628 4.03096 5.88046 4.39514 5.88046 4.84437V15.1866C5.88046 15.6358 5.51628 16 5.06705 16C4.61781 16 4.25364 15.6358 4.25364 15.1866V4.84437Z" fill="white"/>
<path d="M14.0671 4.84437C14.0671 4.39514 14.4312 4.03096 14.8805 4.03096C15.3297 4.03096 15.6939 4.39514 15.6939 4.84437V15.1866C15.6939 15.6358 15.3297 16 14.8805 16C14.4312 16 14.0671 15.6358 14.0671 15.1866V4.84437Z" fill="white"/>
<path d="M1.85493 12.5803C1.38277 12.5803 1 12.1975 1 11.7253C1 11.2532 1.38277 10.8704 1.85493 10.8704L18.1451 10.8704C18.6172 10.8704 19 11.2532 19 11.7253C19 12.1975 18.6172 12.5803 18.1451 12.5803H1.85493Z" fill="white"/>
<path fill-rule="evenodd" clip-rule="evenodd" d="M2.58132 5.56069C3.69242 3.48409 6.53519 3.47868 7.65343 5.55105L8.86607 7.79838C9.35831 8.71062 10.6086 8.71149 11.102 7.79994L12.3069 5.57373C13.4275 3.50337 16.2695 3.51214 17.3785 5.58939L18.801 8.25393C19.0208 8.6657 18.8815 9.18682 18.4897 9.41787C18.0979 9.64893 17.6021 9.50243 17.3823 9.09066L15.9597 6.42612C15.4702 5.50913 14.2156 5.50526 13.721 6.4192L12.516 8.64541C11.3984 10.7104 8.56605 10.7084 7.45099 8.6419L6.23834 6.39456C5.74471 5.47973 4.48979 5.48212 3.99931 6.39882L2.55865 9.09135C2.33845 9.50291 1.84252 9.64891 1.45095 9.41747C1.05939 9.18603 0.920472 8.66478 1.14067 8.25323L2.58132 5.56069Z" fill="white"/>
</svg>
