<svg width="20" height="20" viewBox="0 0 20 20" fill="none" xmlns="http://www.w3.org/2000/svg">
<path d="M4.00051 9.32143C4.28161 9.32143 4.51744 9.23095 4.70801 9.05C4.89859 8.86905 4.99387 8.63571 4.99387 8.35V8L4.83665 6.18571L6.13017 7.55714L7.94538 9.38571C8.13119 9.57619 8.36464 9.67143 8.64574 9.67143C8.95066 9.67143 9.1984 9.57381 9.38897 9.37857C9.58431 9.18333 9.68198 8.93333 9.68198 8.62857C9.68198 8.49524 9.65578 8.37143 9.60337 8.25714C9.55096 8.1381 9.47711 8.03095 9.38183 7.93571L7.55947 6.12143L6.18734 4.82857L8.02399 4.98571H8.48137C8.76723 4.98571 9.00068 4.89286 9.18173 4.70714C9.36753 4.51667 9.46044 4.28095 9.46044 4C9.46044 3.70952 9.36753 3.47143 9.18173 3.28571C9.00068 3.09524 8.76723 3 8.48137 3H4.5365C4.05054 3 3.67177 3.13571 3.4002 3.40714C3.1334 3.67381 3 4.04762 3 4.52857V8.35C3 8.63095 3.09529 8.86429 3.28586 9.05C3.47643 9.23095 3.71465 9.32143 4.00051 9.32143ZM11.5186 17H15.4706C15.9518 17 16.3258 16.8643 16.5926 16.5929C16.8642 16.3262 17 15.9524 17 15.4714V11.65C17 11.369 16.9047 11.1381 16.7141 10.9571C16.5236 10.7714 16.2853 10.6786 15.9995 10.6786C15.7184 10.6786 15.4826 10.769 15.292 10.95C15.1014 11.131 15.0061 11.3643 15.0061 11.65V12.0071L15.1705 13.8143L13.8698 12.4429L12.0618 10.6214C11.8712 10.431 11.6354 10.3357 11.3543 10.3357C11.0493 10.3357 10.7992 10.4333 10.6039 10.6286C10.4133 10.819 10.318 11.0667 10.318 11.3714C10.318 11.5048 10.3442 11.631 10.3966 11.75C10.449 11.8643 10.5229 11.969 10.6182 12.0643L12.4405 13.8786L13.8198 15.1714L11.9832 15.0143H11.5186C11.2328 15.0143 10.9969 15.1071 10.8111 15.2929C10.6301 15.4833 10.5396 15.7214 10.5396 16.0071C10.5396 16.2929 10.6301 16.5286 10.8111 16.7143C10.9969 16.9048 11.2328 17 11.5186 17Z" fill="white"/>
</svg>
