<svg width="20" height="20" viewBox="0 0 20 20" fill="none" xmlns="http://www.w3.org/2000/svg">
<path d="M10 17C10.9575 17 11.8591 16.8165 12.7047 16.4494C13.5503 16.0868 14.2931 15.5832 14.9329 14.9386C15.5772 14.294 16.0828 13.5509 16.4497 12.7094C16.8166 11.8633 17 10.9591 17 9.99664C17 9.03869 16.8166 8.13893 16.4497 7.29736C16.0828 6.45132 15.5772 5.706 14.9329 5.06139C14.2931 4.41679 13.5481 3.91319 12.698 3.5506C11.8523 3.18353 10.9508 3 9.99329 3C9.03579 3 8.13423 3.18353 7.28859 3.5506C6.44295 3.91319 5.69799 4.41679 5.05369 5.06139C4.41387 5.706 3.91051 6.45132 3.54362 7.29736C3.18121 8.13893 3 9.03869 3 9.99664C3 10.9591 3.18121 11.8633 3.54362 12.7094C3.91051 13.5509 4.41611 14.294 5.0604 14.9386C5.7047 15.5832 6.44966 16.0868 7.2953 16.4494C8.14094 16.8165 9.04251 17 10 17ZM9.83893 11.3597C9.33781 11.3597 9.08725 11.1448 9.08725 10.7151C9.08725 10.7062 9.08725 10.6972 9.08725 10.6882C9.08725 10.6748 9.08725 10.6614 9.08725 10.648C9.08725 10.348 9.16555 10.1018 9.32215 9.90935C9.48322 9.71239 9.6868 9.52662 9.93289 9.35204C10.2237 9.15508 10.443 8.98945 10.5906 8.85516C10.7383 8.71639 10.8121 8.53957 10.8121 8.3247C10.8121 8.10983 10.7315 7.93301 10.5705 7.79424C10.4094 7.65548 10.2013 7.58609 9.94631 7.58609C9.81656 7.58609 9.69575 7.60624 9.58389 7.64652C9.47651 7.68681 9.37584 7.74724 9.28188 7.82782C9.18792 7.90392 9.10067 8.0024 9.02013 8.12326L8.92617 8.25755C8.85459 8.35156 8.76958 8.42542 8.67114 8.47914C8.57271 8.53285 8.45638 8.55971 8.32215 8.55971C8.1566 8.55971 8.01342 8.50376 7.89262 8.39185C7.77181 8.27994 7.71141 8.13445 7.71141 7.9554C7.71141 7.88825 7.71812 7.82334 7.73154 7.76067C7.74497 7.698 7.76286 7.63533 7.78523 7.57266C7.90604 7.23693 8.16331 6.95492 8.55705 6.72662C8.95526 6.49384 9.45638 6.37746 10.0604 6.37746C10.4899 6.37746 10.8814 6.45356 11.2349 6.60576C11.5928 6.75348 11.8792 6.96611 12.094 7.24364C12.3087 7.52118 12.4161 7.85468 12.4161 8.24412C12.4161 8.64253 12.3154 8.96259 12.1141 9.20432C11.9172 9.44157 11.6443 9.6721 11.2953 9.89592C11.0805 10.0347 10.9083 10.169 10.7785 10.2988C10.6532 10.4286 10.5817 10.5808 10.5638 10.7554C10.5593 10.7643 10.557 10.7778 10.557 10.7957C10.557 10.8091 10.5548 10.8225 10.5503 10.836C10.5369 10.9837 10.4653 11.109 10.3356 11.212C10.2103 11.3105 10.0447 11.3597 9.83893 11.3597ZM9.83221 13.5554C9.5906 13.5554 9.38255 13.4815 9.20805 13.3338C9.03803 13.1816 8.95302 12.9869 8.95302 12.7496C8.95302 12.5169 9.03803 12.3244 9.20805 12.1722C9.37808 12.02 9.58613 11.9439 9.83221 11.9439C10.0738 11.9439 10.2796 12.02 10.4497 12.1722C10.6197 12.3244 10.7047 12.5169 10.7047 12.7496C10.7047 12.9869 10.6197 13.1816 10.4497 13.3338C10.2796 13.4815 10.0738 13.5554 9.83221 13.5554Z" fill="white"/>
</svg>
