<svg width="20" height="20" viewBox="0 0 20 20" fill="none" xmlns="http://www.w3.org/2000/svg">
<path fill-rule="evenodd" clip-rule="evenodd" d="M10 3.6C10.0001 3.6 10.0001 3.6 10.0002 3.6C13.5348 3.6 16.4002 6.46538 16.4002 10H18.0001C18.0001 5.58172 14.4184 2 10.0001 2C10.0001 2 10 2 10 2V3.6Z" fill="#D9D9D9"/>
<path fill-rule="evenodd" clip-rule="evenodd" d="M16.3999 10C16.3999 13.5346 13.5345 16.4 9.9999 16.4L9.9999 18C9.99993 18 9.99997 18 10 18C14.4183 18 18 14.4183 18 10L16.3999 10Z" fill="#D9D9D9"/>
<path fill-rule="evenodd" clip-rule="evenodd" d="M3.6001 10C3.6001 13.5346 6.46548 16.4 10.0001 16.4L10.0001 18C10.0001 18 10 18 10 18C5.58172 18 2 14.4183 2 10L3.6001 10Z" fill="#D9D9D9"/>
</svg>
