<svg width="18" height="18" viewBox="0 0 18 18" fill="none" xmlns="http://www.w3.org/2000/svg">
<path d="M4.16955 7.33911C4.56943 7.33911 4.93315 7.24339 5.26071 7.05196C5.58827 6.85627 5.84989 6.59253 6.04558 6.26071C6.24126 5.9289 6.33911 5.56305 6.33911 5.16317C6.33911 4.76755 6.24126 4.40596 6.04558 4.0784C5.84989 3.75084 5.58827 3.48921 5.26071 3.29353C4.93315 3.09784 4.56943 3 4.16955 3C3.76967 3 3.40596 3.09784 3.0784 3.29353C2.75084 3.48921 2.48921 3.75084 2.29353 4.0784C2.09784 4.40596 2 4.76755 2 5.16317C2 5.56305 2.09784 5.9289 2.29353 6.26071C2.48921 6.59253 2.75084 6.85627 3.0784 7.05196C3.40596 7.24339 3.76967 7.33911 4.16955 7.33911ZM7.3856 5.76937C7.53449 5.76937 7.66424 5.7162 7.77484 5.60984C7.88545 5.49924 7.94075 5.36737 7.94075 5.21422C7.94075 5.06533 7.88545 4.93771 7.77484 4.83136C7.66424 4.72075 7.53449 4.66545 7.3856 4.66545C7.23671 4.66545 7.10696 4.72075 6.99635 4.83136C6.88575 4.93771 6.83045 5.06533 6.83045 5.21422C6.83045 5.36737 6.88362 5.49924 6.98997 5.60984C7.10058 5.7162 7.23245 5.76937 7.3856 5.76937ZM8.98724 5.76937C9.14038 5.76937 9.27013 5.7162 9.37648 5.60984C9.48709 5.49924 9.54239 5.36737 9.54239 5.21422C9.54239 5.06533 9.48709 4.93771 9.37648 4.83136C9.27013 4.72075 9.14038 4.66545 8.98724 4.66545C8.83835 4.66545 8.7086 4.72075 8.59799 4.83136C8.49164 4.93771 8.43847 5.06533 8.43847 5.21422C8.43847 5.36737 8.49164 5.49924 8.59799 5.60984C8.7086 5.7162 8.83835 5.76937 8.98724 5.76937ZM10.608 5.76937C10.7612 5.76937 10.8909 5.7162 10.9973 5.60984C11.1079 5.49924 11.1632 5.36737 11.1632 5.21422C11.1632 5.06533 11.1079 4.93771 10.9973 4.83136C10.8867 4.72075 10.7569 4.66545 10.608 4.66545C10.4549 4.66545 10.3251 4.72075 10.2188 4.83136C10.1124 4.93771 10.0593 5.06533 10.0593 5.21422C10.0593 5.36737 10.1124 5.49924 10.2188 5.60984C10.3251 5.7162 10.4549 5.76937 10.608 5.76937ZM13.8241 7.33911C14.2239 7.33911 14.5877 7.24339 14.9152 7.05196C15.247 6.85627 15.5108 6.59253 15.7065 6.26071C15.9022 5.9289 16 5.56305 16 5.16317C16 4.76755 15.9022 4.40596 15.7065 4.0784C15.5108 3.75084 15.247 3.48921 14.9152 3.29353C14.5877 3.09784 14.2239 3 13.8241 3C13.4284 3 13.0647 3.09784 12.7329 3.29353C12.4053 3.48921 12.1437 3.75084 11.948 4.0784C11.7566 4.40596 11.6609 4.76755 11.6609 5.16317C11.6609 5.56305 11.7566 5.9289 11.948 6.26071C12.1437 6.59253 12.4053 6.85627 12.7329 7.05196C13.0647 7.24339 13.4284 7.33911 13.8241 7.33911ZM12.165 8.66636C12.3181 8.66636 12.4479 8.61106 12.5542 8.50046C12.6648 8.38985 12.7201 8.2601 12.7201 8.11121C12.7201 7.95807 12.6648 7.82832 12.5542 7.72197C12.4479 7.61136 12.3181 7.55606 12.165 7.55606C12.0161 7.55606 11.8885 7.61136 11.7821 7.72197C11.6758 7.82832 11.6226 7.95807 11.6226 8.11121C11.6226 8.2601 11.6758 8.38985 11.7821 8.50046C11.8885 8.61106 12.0161 8.66636 12.165 8.66636ZM10.959 9.99362C11.1121 9.99362 11.2419 9.93832 11.3482 9.82771C11.4588 9.71711 11.5141 9.58523 11.5141 9.43209C11.5141 9.2832 11.4588 9.15558 11.3482 9.04923C11.2419 8.93862 11.1121 8.88332 10.959 8.88332C10.8143 8.88332 10.6867 8.93862 10.5761 9.04923C10.4655 9.15558 10.4102 9.2832 10.4102 9.43209C10.4102 9.58523 10.4634 9.71711 10.5697 9.82771C10.6803 9.93832 10.8101 9.99362 10.959 9.99362ZM9 14.4412C9.39988 14.4412 9.7636 14.3434 10.0912 14.1477C10.4187 13.9562 10.6803 13.6946 10.876 13.3628C11.0717 13.031 11.1696 12.6673 11.1696 12.2717C11.1696 11.8718 11.0717 11.5081 10.876 11.1805C10.6803 10.8487 10.4187 10.5871 10.0912 10.3956C9.7636 10.1999 9.39988 10.1021 9 10.1021C8.60012 10.1021 8.2364 10.1999 7.90884 10.3956C7.58128 10.5871 7.31966 10.8487 7.12397 11.1805C6.92829 11.5081 6.83045 11.8718 6.83045 12.2717C6.83045 12.6673 6.92829 13.031 7.12397 13.3628C7.31966 13.6946 7.58128 13.9562 7.90884 14.1477C8.2364 14.3434 8.60012 14.4412 9 14.4412ZM7.02826 9.99362C7.1814 9.99362 7.31115 9.93832 7.4175 9.82771C7.52385 9.71711 7.57703 9.58523 7.57703 9.43209C7.57703 9.2832 7.52385 9.15558 7.4175 9.04923C7.31115 8.93862 7.1814 8.88332 7.02826 8.88332C6.87511 8.88332 6.74324 8.93862 6.63263 9.04923C6.52628 9.15558 6.47311 9.2832 6.47311 9.43209C6.47311 9.58523 6.52628 9.71711 6.63263 9.82771C6.74324 9.93832 6.87511 9.99362 7.02826 9.99362ZM5.82224 8.66636C5.97113 8.66636 6.09875 8.61106 6.2051 8.50046C6.31571 8.38985 6.37101 8.2601 6.37101 8.11121C6.37101 7.95807 6.31571 7.82832 6.2051 7.72197C6.09875 7.61136 5.97113 7.55606 5.82224 7.55606C5.67335 7.55606 5.5436 7.61136 5.433 7.72197C5.32239 7.82832 5.26709 7.95807 5.26709 8.11121C5.26709 8.2601 5.32027 8.38985 5.42662 8.50046C5.53722 8.61106 5.6691 8.66636 5.82224 8.66636Z" fill="currentcolor"/>
</svg>
