<svg width="20" height="20" viewBox="0 0 20 20" fill="none" xmlns="http://www.w3.org/2000/svg">
<path d="M4.91155 7.11051C4.91155 8.67266 5.8841 9.69572 7.82919 10.1797L11.7374 11.1644C12.986 11.4807 13.6103 12.0605 13.6103 12.9039V13.4933H15.1039V12.9039C15.1039 11.3417 14.1314 10.3211 12.1863 9.84187L8.27805 8.85714C7.02948 8.54088 6.4052 7.95867 6.4052 7.11051V6.52111H4.91155V7.11051ZM7.97623 2.33783C7.82661 2.19886 7.64861 2.10782 7.44223 2.06469C7.23586 2.02156 6.99853 2 6.73024 2H4.58651C4.32338 2 4.08863 2.02156 3.88226 2.06469C3.68104 2.10782 3.50304 2.19886 3.34826 2.33783C3.19864 2.47679 3.10319 2.64211 3.06191 2.83378C3.02064 3.02066 3 3.2363 3 3.48068V5.4717C3 5.72087 3.02064 5.9413 3.06191 6.13297C3.10319 6.31986 3.19864 6.48278 3.34826 6.62174C3.50304 6.76071 3.68104 6.85175 3.88226 6.89488C4.08863 6.93321 4.32596 6.95238 4.59425 6.95238H6.73024C6.99853 6.95238 7.23586 6.93321 7.44223 6.89488C7.64861 6.85175 7.82661 6.76071 7.97623 6.62174C8.12069 6.48278 8.21356 6.31986 8.25484 6.13297C8.30127 5.9413 8.32449 5.72087 8.32449 5.4717V3.48068C8.32449 3.2363 8.30127 3.02066 8.25484 2.83378C8.21356 2.64211 8.12069 2.47679 7.97623 2.33783ZM16.6595 13.3854C16.5047 13.2465 16.3241 13.1578 16.1177 13.1195C15.9165 13.0764 15.6818 13.0548 15.4135 13.0548H13.2698C13.0066 13.0548 12.7719 13.0764 12.5655 13.1195C12.3591 13.1578 12.1811 13.2465 12.0315 13.3854C11.8819 13.5292 11.7864 13.6945 11.7452 13.8814C11.7039 14.0683 11.6833 14.2839 11.6833 14.5283V16.5193C11.6833 16.7637 11.7039 16.9817 11.7452 17.1734C11.7864 17.3699 11.8819 17.5352 12.0315 17.6694C12.1863 17.8035 12.3643 17.8922 12.5655 17.9353C12.7719 17.9784 13.0066 18 13.2698 18H15.4135C15.6818 18 15.9165 17.9784 16.1177 17.9353C16.3241 17.8922 16.5047 17.8035 16.6595 17.6694C16.8039 17.5352 16.8968 17.3699 16.9381 17.1734C16.9794 16.9817 17 16.7637 17 16.5193V14.5283C17 14.2839 16.9794 14.0683 16.9381 13.8814C16.8968 13.6897 16.8039 13.5244 16.6595 13.3854Z" fill="white"/>
</svg>
