<svg width="20" height="20" viewBox="0 0 20 20" fill="none" xmlns="http://www.w3.org/2000/svg">
<g clip-path="url(#clip0_643_17692)">
<path d="M1 6.01534L1 14.1745C1 15.8398 2.37001 17.1898 4.06 17.1898H15.94C17.63 17.1898 19 15.8398 19 14.1745V6.01534C19 4.35002 17.63 3.00001 15.94 3.00001L4.06 3.00001C2.37001 3.00001 1 4.35002 1 6.01534Z" fill="white"/>
<path d="M1 6.01534L1 14.1745C1 15.8398 2.37001 17.1898 4.06 17.1898H15.94C17.63 17.1898 19 15.8398 19 14.1745V6.01534C19 4.35002 17.63 3.00001 15.94 3.00001L4.06 3.00001C2.37001 3.00001 1 4.35002 1 6.01534Z" fill="white"/>
<path d="M5.49995 6.54745C5.49995 6.05765 5.09701 5.66058 4.59995 5.66058C4.10289 5.66058 3.69995 6.05765 3.69995 6.54745C3.69995 7.03725 4.10289 7.43431 4.59995 7.43431C5.09701 7.43431 5.49995 7.03725 5.49995 6.54745Z" fill="black"/>
<path d="M5.49995 6.54745C5.49995 6.05765 5.09701 5.66058 4.59995 5.66058C4.10289 5.66058 3.69995 6.05765 3.69995 6.54745C3.69995 7.03725 4.10289 7.43431 4.59995 7.43431C5.09701 7.43431 5.49995 7.03725 5.49995 6.54745Z" fill="black"/>
<path d="M5.49995 6.54745C5.49995 6.05765 5.09701 5.66058 4.59995 5.66058C4.10289 5.66058 3.69995 6.05765 3.69995 6.54745C3.69995 7.03725 4.10289 7.43431 4.59995 7.43431C5.09701 7.43431 5.49995 7.03725 5.49995 6.54745Z" fill="black"/>
<path d="M5.49995 13.6367C5.49995 13.1469 5.09701 12.7499 4.59995 12.7499C4.10289 12.7499 3.69995 13.1469 3.69995 13.6367C3.69995 14.1265 4.10289 14.5236 4.59995 14.5236C5.09701 14.5236 5.49995 14.1265 5.49995 13.6367Z" fill="black"/>
<path d="M16.3 10.0949C16.3 9.60513 15.8971 9.20807 15.4 9.20807C14.9029 9.20807 14.5 9.60513 14.5 10.0949C14.5 10.5847 14.9029 10.9818 15.4 10.9818C15.8971 10.9818 16.3 10.5847 16.3 10.0949Z" fill="black"/>
<path d="M16.3 10.0949C16.3 9.60513 15.8971 9.20807 15.4 9.20807C14.9029 9.20807 14.5 9.60513 14.5 10.0949C14.5 10.5847 14.9029 10.9818 15.4 10.9818C15.8971 10.9818 16.3 10.5847 16.3 10.0949Z" fill="black"/>
<path d="M15.4 5.66058H8.20005C7.70299 5.66058 7.30005 6.05765 7.30005 6.54745C7.30005 7.03725 7.70299 7.43431 8.20005 7.43431H15.4C15.8971 7.43431 16.3 7.03725 16.3 6.54745C16.3 6.05765 15.8971 5.66058 15.4 5.66058Z" fill="black"/>
<path d="M15.4 12.7499H8.20005C7.70299 12.7499 7.30005 13.1469 7.30005 13.6367C7.30005 14.1265 7.70299 14.5236 8.20005 14.5236H15.4C15.8971 14.5236 16.3 14.1265 16.3 13.6367C16.3 13.1469 15.8971 12.7499 15.4 12.7499Z" fill="black"/>
<path d="M11.8 9.20807H4.59995C4.10289 9.20807 3.69995 9.60513 3.69995 10.0949C3.69995 10.5847 4.10289 10.9818 4.59995 10.9818H11.8C12.297 10.9818 12.7 10.5847 12.7 10.0949C12.7 9.60513 12.297 9.20807 11.8 9.20807Z" fill="black"/>
</g>
<defs>
<clipPath id="clip0_643_17692">
<rect width="18" height="14.1898" fill="white" transform="translate(1 3)"/>
</clipPath>
</defs>
</svg>
