<svg width="20" height="20" viewBox="0 0 20 20" fill="none" xmlns="http://www.w3.org/2000/svg">
<path fill-rule="evenodd" clip-rule="evenodd" d="M15.2989 12.8804C15.2561 12.6445 15.285 12.4012 15.3818 12.1818C15.474 11.9667 15.6271 11.7833 15.8222 11.654C16.0173 11.5248 16.246 11.4555 16.48 11.4545H16.5455C16.9312 11.4545 17.3012 11.3013 17.574 11.0285C17.8468 10.7557 18 10.3858 18 10C18 9.61423 17.8468 9.24426 17.574 8.97148C17.3012 8.6987 16.9312 8.54545 16.5455 8.54545H16.4218C16.1878 8.54452 15.9591 8.47518 15.764 8.34596C15.5689 8.21674 15.4158 8.03329 15.3236 7.81818V7.76C15.2268 7.54064 15.1979 7.29731 15.2407 7.06139C15.2835 6.82547 15.396 6.60777 15.5636 6.43636L15.6073 6.39273C15.7425 6.25764 15.8498 6.09722 15.923 5.92064C15.9962 5.74406 16.0339 5.55479 16.0339 5.36364C16.0339 5.17249 15.9962 4.98321 15.923 4.80663C15.8498 4.63005 15.7425 4.46963 15.6073 4.33455C15.4722 4.19931 15.3118 4.09202 15.1352 4.01882C14.9586 3.94562 14.7693 3.90795 14.5782 3.90795C14.387 3.90795 14.1978 3.94562 14.0212 4.01882C13.8446 4.09202 13.6842 4.19931 13.5491 4.33455L13.5055 4.37818C13.3341 4.54585 13.1164 4.65832 12.8804 4.70109C12.6445 4.74387 12.4012 4.71499 12.1818 4.61818C11.9667 4.52599 11.7833 4.37291 11.654 4.17779C11.5248 3.98267 11.4555 3.75403 11.4545 3.52V3.45455C11.4545 3.06878 11.3013 2.69881 11.0285 2.42603C10.7557 2.15325 10.3858 2 10 2C9.61423 2 9.24426 2.15325 8.97148 2.42603C8.6987 2.69881 8.54545 3.06878 8.54545 3.45455V3.57818C8.54452 3.81221 8.47518 4.04085 8.34596 4.23597C8.21674 4.4311 8.03329 4.58417 7.81818 4.67636H7.76C7.54064 4.77317 7.29731 4.80205 7.06139 4.75928C6.82547 4.7165 6.60777 4.60403 6.43636 4.43636L6.39273 4.39273C6.25764 4.25749 6.09722 4.1502 5.92064 4.077C5.74406 4.00381 5.55479 3.96613 5.36364 3.96613C5.17249 3.96613 4.98321 4.00381 4.80663 4.077C4.63005 4.1502 4.46963 4.25749 4.33455 4.39273C4.19931 4.52782 4.09202 4.68824 4.01882 4.86481C3.94562 5.04139 3.90795 5.23067 3.90795 5.42182C3.90795 5.61297 3.94562 5.80224 4.01882 5.97882C4.09202 6.1554 4.19931 6.31582 4.33455 6.45091L4.37818 6.49455C4.54585 6.66595 4.65832 6.88365 4.70109 7.11957C4.74387 7.3555 4.71499 7.59882 4.61818 7.81818C4.53507 8.04417 4.38589 8.23993 4.19004 8.38001C3.99419 8.52009 3.76072 8.59801 3.52 8.60364H3.45455C3.06878 8.60364 2.69881 8.75688 2.42603 9.02966C2.15325 9.30244 2 9.67241 2 10.0582C2 10.444 2.15325 10.8139 2.42603 11.0867C2.69881 11.3595 3.06878 11.5127 3.45455 11.5127H3.57818C3.81221 11.5137 4.04085 11.583 4.23597 11.7122C4.4311 11.8414 4.58417 12.0249 4.67636 12.24C4.77317 12.4594 4.80205 12.7027 4.75928 12.9386C4.7165 13.1745 4.60403 13.3922 4.43636 13.5636L4.39273 13.6073C4.25749 13.7424 4.1502 13.9028 4.077 14.0794C4.00381 14.2559 3.96613 14.4452 3.96613 14.6364C3.96613 14.8275 4.00381 15.0168 4.077 15.1934C4.1502 15.3699 4.25749 15.5304 4.39273 15.6655C4.52782 15.8007 4.68824 15.908 4.86481 15.9812C5.04139 16.0544 5.23067 16.0921 5.42182 16.0921C5.61297 16.0921 5.80224 16.0544 5.97882 15.9812C6.1554 15.908 6.31582 15.8007 6.45091 15.6655L6.49455 15.6218C6.66595 15.4542 6.88365 15.3417 7.11957 15.2989C7.3555 15.2561 7.59882 15.285 7.81818 15.3818C8.04417 15.4649 8.23993 15.6141 8.38001 15.81C8.52009 16.0058 8.59801 16.2393 8.60364 16.48V16.5455C8.60364 16.9312 8.75688 17.3012 9.02966 17.574C9.30244 17.8468 9.67241 18 10.0582 18C10.444 18 10.8139 17.8468 11.0867 17.574C11.3595 17.3012 11.5127 16.9312 11.5127 16.5455V16.4218C11.5137 16.1878 11.583 15.9591 11.7122 15.764C11.8414 15.5689 12.0249 15.4158 12.24 15.3236C12.4594 15.2268 12.7027 15.1979 12.9386 15.2407C13.1745 15.2835 13.3922 15.396 13.5636 15.5636L13.6073 15.6073C13.7424 15.7425 13.9028 15.8498 14.0794 15.923C14.2559 15.9962 14.4452 16.0339 14.6364 16.0339C14.8275 16.0339 15.0168 15.9962 15.1934 15.923C15.3699 15.8498 15.5304 15.7425 15.6655 15.6073C15.8007 15.4722 15.908 15.3118 15.9812 15.1352C16.0544 14.9586 16.0921 14.7693 16.0921 14.5782C16.0921 14.387 16.0544 14.1978 15.9812 14.0212C15.908 13.8446 15.8007 13.6842 15.6655 13.5491L15.6218 13.5055C15.4542 13.3341 15.3417 13.1164 15.2989 12.8804ZM12.1818 10C12.1818 11.205 11.205 12.1818 10 12.1818C8.79503 12.1818 7.8182 11.205 7.8182 10C7.8182 8.79503 8.79503 7.8182 10 7.8182C11.205 7.8182 12.1818 8.79503 12.1818 10Z" fill="white"/>
</svg>
