<svg width="20" height="20" viewBox="0 0 20 20" fill="none" xmlns="http://www.w3.org/2000/svg">
<path d="M8.10285 8.89402L5.18976 12.0199C4.90845 12.3198 4.45234 12.3198 4.17103 12.0199C3.88971 11.72 3.88971 11.2338 4.17103 10.9339L7.08411 7.808C7.36543 7.50811 7.82153 7.50811 8.10285 7.808C8.38416 8.1079 8.38416 8.59412 8.10285 8.89402Z" fill="white"/>
<path fill-rule="evenodd" clip-rule="evenodd" d="M8.10285 8.89402L5.18976 12.0199C4.90845 12.3198 4.45234 12.3198 4.17103 12.0199C3.88971 11.72 3.88971 11.2338 4.17103 10.9339L7.08411 7.808C7.36543 7.50811 7.82153 7.50811 8.10285 7.808C8.38416 8.1079 8.38416 8.59412 8.10285 8.89402ZM7.18238 7.91242C7.40953 7.67046 7.77766 7.67052 8.00474 7.91259C8.23187 8.15472 8.23187 8.5473 8.00474 8.78943L5.09165 11.9153C4.86451 12.1573 4.49622 12.1574 4.26914 11.9153C4.04201 11.6732 4.04201 11.2806 4.26914 11.0385L7.18238 7.91242Z" fill="white"/>
<path d="M1.21099 8.89361L4.12407 12.0195C4.40539 12.3194 4.86149 12.3194 5.14281 12.0195C5.42412 11.7196 5.42412 11.2334 5.14281 10.9335L2.22972 7.80759C1.94841 7.5077 1.4923 7.5077 1.21099 7.80759C0.929671 8.10749 0.929671 8.59371 1.21099 8.89361Z" fill="white"/>
<path fill-rule="evenodd" clip-rule="evenodd" d="M1.21099 8.89361L4.12407 12.0195C4.40539 12.3194 4.86149 12.3194 5.14281 12.0195C5.42412 11.7196 5.42412 11.2334 5.14281 10.9335L2.22972 7.80759C1.94841 7.5077 1.4923 7.5077 1.21099 7.80759C0.929671 8.10749 0.929671 8.59371 1.21099 8.89361ZM2.13145 7.91201C1.90431 7.67005 1.53618 7.67011 1.3091 7.91218C1.08197 8.15431 1.08197 8.54689 1.3091 8.78902L4.22218 11.9149C4.44933 12.1569 4.81762 12.157 5.0447 11.9149C5.27183 11.6728 5.27183 11.2802 5.0447 11.0381L2.13145 7.91201Z" fill="white"/>
<path fill-rule="evenodd" clip-rule="evenodd" d="M3.90661 8.20154C3.90661 5.32881 6.09115 3 8.78592 3H13.1334C13.5293 3 13.8502 3.34215 13.8502 3.76421C13.8502 4.18627 13.5293 4.52842 13.1334 4.52842H8.78592C6.88298 4.52842 5.34034 6.17293 5.34034 8.20154V11.4556C5.34034 11.8777 5.01939 12.2198 4.62347 12.2198C4.22756 12.2198 3.90661 11.8777 3.90661 11.4556V8.20154Z" fill="white"/>
<path d="M11.8969 11.1063L14.81 7.98038C15.0913 7.68049 15.5474 7.68049 15.8287 7.98039C16.11 8.28028 16.11 8.7665 15.8287 9.0664L12.9156 12.1923C12.6343 12.4922 12.1782 12.4922 11.8969 12.1923C11.6156 11.8924 11.6156 11.4062 11.8969 11.1063Z" fill="white"/>
<path fill-rule="evenodd" clip-rule="evenodd" d="M11.8969 11.1063L14.81 7.98038C15.0913 7.68049 15.5474 7.68049 15.8287 7.98039C16.11 8.28028 16.11 8.7665 15.8287 9.0664L12.9156 12.1923C12.6343 12.4922 12.1782 12.4922 11.8969 12.1923C11.6156 11.8924 11.6156 11.4062 11.8969 11.1063ZM12.8174 12.0879C12.5902 12.3298 12.2221 12.3298 11.995 12.0877C11.7679 11.8455 11.7679 11.453 11.995 11.2108L14.9081 8.08497C15.1353 7.843 15.5035 7.8429 15.7306 8.08497C15.9578 8.32711 15.9578 8.71968 15.7306 8.96181L12.8174 12.0879Z" fill="white"/>
<path d="M18.789 11.1063L15.8759 7.98038C15.5946 7.68049 15.1385 7.68049 14.8572 7.98039C14.5759 8.28028 14.5759 8.7665 14.8572 9.0664L17.7703 12.1923C18.0516 12.4922 18.5077 12.4922 18.789 12.1923C19.0703 11.8924 19.0703 11.4062 18.789 11.1063Z" fill="white"/>
<path fill-rule="evenodd" clip-rule="evenodd" d="M18.789 11.1063L15.8759 7.98038C15.5946 7.68049 15.1385 7.68049 14.8572 7.98039C14.5759 8.28028 14.5759 8.7665 14.8572 9.0664L17.7703 12.1923C18.0516 12.4922 18.5077 12.4922 18.789 12.1923C19.0703 11.8924 19.0703 11.4062 18.789 11.1063ZM17.8685 12.0879C18.0957 12.3298 18.4638 12.3298 18.6909 12.0877C18.918 11.8455 18.918 11.453 18.6909 11.2108L15.7778 8.08497C15.5507 7.843 15.1824 7.8429 14.9553 8.08497C14.7282 8.32711 14.7282 8.71968 14.9553 8.96181L17.8685 12.0879Z" fill="white"/>
<path fill-rule="evenodd" clip-rule="evenodd" d="M16.0936 11.7985C16.0936 14.6712 13.909 17 11.2143 17H6.86682C6.47091 17 6.14996 16.6579 6.14996 16.2358C6.14996 15.8137 6.47091 15.4716 6.86682 15.4716H11.2143C13.1172 15.4716 14.6598 13.8271 14.6598 11.7985V8.54441C14.6598 8.12235 14.9808 7.7802 15.3767 7.7802C15.7726 7.7802 16.0936 8.12235 16.0936 8.54441V11.7985Z" fill="white"/>
<path d="M8.10285 8.89402L5.18976 12.0199C4.90845 12.3198 4.45234 12.3198 4.17103 12.0199C3.88971 11.72 3.88971 11.2338 4.17103 10.9339L7.08411 7.808C7.36543 7.50811 7.82153 7.50811 8.10285 7.808C8.38416 8.1079 8.38416 8.59412 8.10285 8.89402Z" fill="white"/>
<path fill-rule="evenodd" clip-rule="evenodd" d="M8.10285 8.89402L5.18976 12.0199C4.90845 12.3198 4.45234 12.3198 4.17103 12.0199C3.88971 11.72 3.88971 11.2338 4.17103 10.9339L7.08411 7.808C7.36543 7.50811 7.82153 7.50811 8.10285 7.808C8.38416 8.1079 8.38416 8.59412 8.10285 8.89402ZM7.18238 7.91242C7.40953 7.67046 7.77766 7.67052 8.00474 7.91259C8.23187 8.15472 8.23187 8.5473 8.00474 8.78943L5.09165 11.9153C4.86451 12.1573 4.49622 12.1574 4.26914 11.9153C4.04201 11.6732 4.04201 11.2806 4.26914 11.0385L7.18238 7.91242Z" fill="white"/>
<path d="M1.21099 8.89361L4.12407 12.0195C4.40539 12.3194 4.86149 12.3194 5.14281 12.0195C5.42412 11.7196 5.42412 11.2334 5.14281 10.9335L2.22972 7.80759C1.94841 7.5077 1.4923 7.5077 1.21099 7.80759C0.929671 8.10749 0.929671 8.59371 1.21099 8.89361Z" fill="white"/>
<path fill-rule="evenodd" clip-rule="evenodd" d="M1.21099 8.89361L4.12407 12.0195C4.40539 12.3194 4.86149 12.3194 5.14281 12.0195C5.42412 11.7196 5.42412 11.2334 5.14281 10.9335L2.22972 7.80759C1.94841 7.5077 1.4923 7.5077 1.21099 7.80759C0.929671 8.10749 0.929671 8.59371 1.21099 8.89361ZM2.13145 7.91201C1.90431 7.67005 1.53618 7.67011 1.3091 7.91218C1.08197 8.15431 1.08197 8.54689 1.3091 8.78902L4.22218 11.9149C4.44933 12.1569 4.81762 12.157 5.0447 11.9149C5.27183 11.6728 5.27183 11.2802 5.0447 11.0381L2.13145 7.91201Z" fill="white"/>
<path fill-rule="evenodd" clip-rule="evenodd" d="M3.90661 8.20154C3.90661 5.32881 6.09115 3 8.78592 3H13.1334C13.5293 3 13.8502 3.34215 13.8502 3.76421C13.8502 4.18627 13.5293 4.52842 13.1334 4.52842H8.78592C6.88298 4.52842 5.34034 6.17293 5.34034 8.20154V11.4556C5.34034 11.8777 5.01939 12.2198 4.62347 12.2198C4.22756 12.2198 3.90661 11.8777 3.90661 11.4556V8.20154Z" fill="white"/>
<path d="M11.8969 11.1063L14.81 7.98038C15.0913 7.68049 15.5474 7.68049 15.8287 7.98039C16.11 8.28028 16.11 8.7665 15.8287 9.0664L12.9156 12.1923C12.6343 12.4922 12.1782 12.4922 11.8969 12.1923C11.6156 11.8924 11.6156 11.4062 11.8969 11.1063Z" fill="white"/>
<path fill-rule="evenodd" clip-rule="evenodd" d="M11.8969 11.1063L14.81 7.98038C15.0913 7.68049 15.5474 7.68049 15.8287 7.98039C16.11 8.28028 16.11 8.7665 15.8287 9.0664L12.9156 12.1923C12.6343 12.4922 12.1782 12.4922 11.8969 12.1923C11.6156 11.8924 11.6156 11.4062 11.8969 11.1063ZM12.8174 12.0879C12.5902 12.3298 12.2221 12.3298 11.995 12.0877C11.7679 11.8455 11.7679 11.453 11.995 11.2108L14.9081 8.08497C15.1353 7.843 15.5035 7.8429 15.7306 8.08497C15.9578 8.32711 15.9578 8.71968 15.7306 8.96181L12.8174 12.0879Z" fill="white"/>
<path d="M18.789 11.1063L15.8759 7.98038C15.5946 7.68049 15.1385 7.68049 14.8572 7.98039C14.5759 8.28028 14.5759 8.7665 14.8572 9.0664L17.7703 12.1923C18.0516 12.4922 18.5077 12.4922 18.789 12.1923C19.0703 11.8924 19.0703 11.4062 18.789 11.1063Z" fill="white"/>
<path fill-rule="evenodd" clip-rule="evenodd" d="M18.789 11.1063L15.8759 7.98038C15.5946 7.68049 15.1385 7.68049 14.8572 7.98039C14.5759 8.28028 14.5759 8.7665 14.8572 9.0664L17.7703 12.1923C18.0516 12.4922 18.5077 12.4922 18.789 12.1923C19.0703 11.8924 19.0703 11.4062 18.789 11.1063ZM17.8685 12.0879C18.0957 12.3298 18.4638 12.3298 18.6909 12.0877C18.918 11.8455 18.918 11.453 18.6909 11.2108L15.7778 8.08497C15.5507 7.843 15.1824 7.8429 14.9553 8.08497C14.7282 8.32711 14.7282 8.71968 14.9553 8.96181L17.8685 12.0879Z" fill="white"/>
<path fill-rule="evenodd" clip-rule="evenodd" d="M16.0936 11.7985C16.0936 14.6712 13.909 17 11.2143 17H6.86682C6.47091 17 6.14996 16.6579 6.14996 16.2358C6.14996 15.8137 6.47091 15.4716 6.86682 15.4716H11.2143C13.1172 15.4716 14.6598 13.8271 14.6598 11.7985V8.54441C14.6598 8.12235 14.9808 7.7802 15.3767 7.7802C15.7726 7.7802 16.0936 8.12235 16.0936 8.54441V11.7985Z" fill="white"/>
<path d="M8.10285 8.89402L5.18976 12.0199C4.90845 12.3198 4.45234 12.3198 4.17103 12.0199C3.88971 11.72 3.88971 11.2338 4.17103 10.9339L7.08411 7.808C7.36543 7.50811 7.82153 7.50811 8.10285 7.808C8.38416 8.1079 8.38416 8.59412 8.10285 8.89402Z" fill="white"/>
<path fill-rule="evenodd" clip-rule="evenodd" d="M8.10285 8.89402L5.18976 12.0199C4.90845 12.3198 4.45234 12.3198 4.17103 12.0199C3.88971 11.72 3.88971 11.2338 4.17103 10.9339L7.08411 7.808C7.36543 7.50811 7.82153 7.50811 8.10285 7.808C8.38416 8.1079 8.38416 8.59412 8.10285 8.89402ZM7.18238 7.91242C7.40953 7.67046 7.77766 7.67052 8.00474 7.91259C8.23187 8.15472 8.23187 8.5473 8.00474 8.78943L5.09165 11.9153C4.86451 12.1573 4.49622 12.1574 4.26914 11.9153C4.04201 11.6732 4.04201 11.2806 4.26914 11.0385L7.18238 7.91242Z" fill="white"/>
<path d="M1.21099 8.89361L4.12407 12.0195C4.40539 12.3194 4.86149 12.3194 5.14281 12.0195C5.42412 11.7196 5.42412 11.2334 5.14281 10.9335L2.22972 7.80759C1.94841 7.5077 1.4923 7.5077 1.21099 7.80759C0.929671 8.10749 0.929671 8.59371 1.21099 8.89361Z" fill="white"/>
<path fill-rule="evenodd" clip-rule="evenodd" d="M1.21099 8.89361L4.12407 12.0195C4.40539 12.3194 4.86149 12.3194 5.14281 12.0195C5.42412 11.7196 5.42412 11.2334 5.14281 10.9335L2.22972 7.80759C1.94841 7.5077 1.4923 7.5077 1.21099 7.80759C0.929671 8.10749 0.929671 8.59371 1.21099 8.89361ZM2.13145 7.91201C1.90431 7.67005 1.53618 7.67011 1.3091 7.91218C1.08197 8.15431 1.08197 8.54689 1.3091 8.78902L4.22218 11.9149C4.44933 12.1569 4.81762 12.157 5.0447 11.9149C5.27183 11.6728 5.27183 11.2802 5.0447 11.0381L2.13145 7.91201Z" fill="white"/>
<path fill-rule="evenodd" clip-rule="evenodd" d="M3.90661 8.20154C3.90661 5.32881 6.09115 3 8.78592 3H13.1334C13.5293 3 13.8502 3.34215 13.8502 3.76421C13.8502 4.18627 13.5293 4.52842 13.1334 4.52842H8.78592C6.88298 4.52842 5.34034 6.17293 5.34034 8.20154V11.4556C5.34034 11.8777 5.01939 12.2198 4.62347 12.2198C4.22756 12.2198 3.90661 11.8777 3.90661 11.4556V8.20154Z" fill="white"/>
<path d="M11.8969 11.1063L14.81 7.98038C15.0913 7.68049 15.5474 7.68049 15.8287 7.98039C16.11 8.28028 16.11 8.7665 15.8287 9.0664L12.9156 12.1923C12.6343 12.4922 12.1782 12.4922 11.8969 12.1923C11.6156 11.8924 11.6156 11.4062 11.8969 11.1063Z" fill="white"/>
<path fill-rule="evenodd" clip-rule="evenodd" d="M11.8969 11.1063L14.81 7.98038C15.0913 7.68049 15.5474 7.68049 15.8287 7.98039C16.11 8.28028 16.11 8.7665 15.8287 9.0664L12.9156 12.1923C12.6343 12.4922 12.1782 12.4922 11.8969 12.1923C11.6156 11.8924 11.6156 11.4062 11.8969 11.1063ZM12.8174 12.0879C12.5902 12.3298 12.2221 12.3298 11.995 12.0877C11.7679 11.8455 11.7679 11.453 11.995 11.2108L14.9081 8.08497C15.1353 7.843 15.5035 7.8429 15.7306 8.08497C15.9578 8.32711 15.9578 8.71968 15.7306 8.96181L12.8174 12.0879Z" fill="white"/>
<path d="M18.789 11.1063L15.8759 7.98038C15.5946 7.68049 15.1385 7.68049 14.8572 7.98039C14.5759 8.28028 14.5759 8.7665 14.8572 9.0664L17.7703 12.1923C18.0516 12.4922 18.5077 12.4922 18.789 12.1923C19.0703 11.8924 19.0703 11.4062 18.789 11.1063Z" fill="white"/>
<path fill-rule="evenodd" clip-rule="evenodd" d="M18.789 11.1063L15.8759 7.98038C15.5946 7.68049 15.1385 7.68049 14.8572 7.98039C14.5759 8.28028 14.5759 8.7665 14.8572 9.0664L17.7703 12.1923C18.0516 12.4922 18.5077 12.4922 18.789 12.1923C19.0703 11.8924 19.0703 11.4062 18.789 11.1063ZM17.8685 12.0879C18.0957 12.3298 18.4638 12.3298 18.6909 12.0877C18.918 11.8455 18.918 11.453 18.6909 11.2108L15.7778 8.08497C15.5507 7.843 15.1824 7.8429 14.9553 8.08497C14.7282 8.32711 14.7282 8.71968 14.9553 8.96181L17.8685 12.0879Z" fill="white"/>
<path fill-rule="evenodd" clip-rule="evenodd" d="M16.0936 11.7985C16.0936 14.6712 13.909 17 11.2143 17H6.86682C6.47091 17 6.14996 16.6579 6.14996 16.2358C6.14996 15.8137 6.47091 15.4716 6.86682 15.4716H11.2143C13.1172 15.4716 14.6598 13.8271 14.6598 11.7985V8.54441C14.6598 8.12235 14.9808 7.7802 15.3767 7.7802C15.7726 7.7802 16.0936 8.12235 16.0936 8.54441V11.7985Z" fill="white"/>
</svg>
