<svg width="24" height="24" viewBox="0 0 24 24" fill="none" xmlns="http://www.w3.org/2000/svg">
<path fill-rule="evenodd" clip-rule="evenodd" d="M12 2C9.36674 2 6.83005 2.98396 4.95067 4.75277C3.06926 6.52353 2 8.9386 2 11.4706C2 11.7479 2.11513 12.0127 2.3179 12.2019L9.06437 18.4947C9.28822 17.6348 10.07 17 11 17H13C14.0605 17 14.9281 17.8253 14.9958 18.8687C15.072 18.8251 15.1437 18.7707 15.2087 18.7055L21.7087 12.1761C21.8953 11.9887 22 11.735 22 11.4706C22 8.93859 20.9307 6.52352 19.0493 4.75277C17.17 2.98397 14.6333 2 12 2ZM5.925 9.92952C4.92716 9.92952 4.26117 10.4888 4.06227 11.0939L9.85315 16.4955L8.06612 11.8283C8.02241 11.7141 8 11.5929 8 11.4707C8 11.1333 7.82486 10.7638 7.43724 10.4499C7.04916 10.1356 6.50296 9.92952 5.925 9.92952ZM8.69601 8.89572C8.78794 8.97017 8.87699 9.04911 8.96248 9.1323C9.70675 8.37644 10.8086 7.92952 12 7.92952C13.1906 7.92952 14.2918 8.37583 15.0361 9.13078C15.1207 9.04839 15.2088 8.97013 15.2999 8.89626C16.0465 8.2904 17.0384 7.92952 18.075 7.92952C18.4291 7.92952 18.7795 7.97399 19.1165 8.05854C18.7457 7.38424 18.2632 6.75939 17.6786 6.20918C16.1823 4.80091 14.1407 4 12 4C9.85937 4 7.8177 4.8009 6.3214 6.20917C5.7371 6.75911 5.25479 7.38362 4.88407 8.05754C5.22046 7.97364 5.57051 7.92952 5.925 7.92952C6.95804 7.92952 7.94934 8.29097 8.69601 8.89572ZM12 9.92952C10.7673 9.92952 10.1005 10.6362 10.0105 11.3133L12 16.5092L13.9895 11.3132C13.8995 10.6362 13.2328 9.92952 12 9.92952ZM15.9339 11.8282C15.9776 11.714 16 11.5928 16 11.4706C16 11.1311 16.1749 10.7619 16.5601 10.4493C16.946 10.1361 17.4916 9.92952 18.075 9.92952C19.0779 9.92952 19.7514 10.5023 19.9436 11.1144L14 16.5L15.9339 11.8282Z" fill="white"/>
<path fill-rule="evenodd" clip-rule="evenodd" d="M8 19C8 17.3431 9.34315 16 11 16H13C14.6569 16 16 17.3431 16 19C16 20.6569 14.6569 22 13 22H11C9.34315 22 8 20.6569 8 19ZM11 18C10.4477 18 10 18.4477 10 19C10 19.5523 10.4477 20 11 20H13C13.5523 20 14 19.5523 14 19C14 18.4477 13.5523 18 13 18H11Z" fill="white"/>
</svg>
