<svg width="20" height="21" viewBox="0 0 20 20" fill="none" xmlns="http://www.w3.org/2000/svg">
<path d="M13.5478 10.9968C13.5328 9.3521 14.8922 8.56188 14.9534 8.52304C14.1886 7.40418 12.9995 7.25181 12.5753 7.23388C11.564 7.13081 10.6005 7.82991 10.0866 7.82991C9.57275 7.82991 8.78103 7.24882 7.94151 7.26525C6.83759 7.28168 5.8203 7.9061 5.25116 8.895C4.10541 10.8818 4.95838 13.829 6.07574 15.4438C6.62248 16.2326 7.27228 17.1214 8.12824 17.0885C8.95282 17.0557 9.26353 16.5552 10.2584 16.5552C11.2533 16.5552 11.5341 17.0885 12.4035 17.0721C13.2893 17.0542 13.851 16.2654 14.3933 15.4737C15.0192 14.558 15.2776 13.6707 15.2925 13.6244C15.2731 13.6169 13.5657 12.9626 13.5478 10.9968Z" fill="black"/>
<path d="M11.9121 6.16581C12.3662 5.61609 12.6724 4.85126 12.5887 4.08942C11.9345 4.11631 11.1427 4.52561 10.6737 5.07533C10.2539 5.56082 9.88495 6.33909 9.98504 7.08599C10.7125 7.14276 11.4579 6.71404 11.9121 6.16581Z" fill="black"/>
</svg>
