<svg width="24" height="24" viewBox="0 0 24 24" fill="none" xmlns="http://www.w3.org/2000/svg">
<path d="M2 4C2 2.89543 2.89543 2 4 2H8C8.55228 2 9 2.44772 9 3C9 3.55228 8.55228 4 8 4H4V8C4 8.55228 3.55228 9 3 9C2.44772 9 2 8.55228 2 8V4Z" fill="white"/>
<path fill-rule="evenodd" clip-rule="evenodd" d="M14.7103 12.7149C15.204 12.1116 15.5002 11.3403 15.5002 10.4999C15.5002 8.5669 13.9332 6.9999 12.0002 6.9999C10.0672 6.9999 8.5002 8.5669 8.5002 10.4999C8.5002 11.3403 8.79641 12.1116 9.29012 12.7149C8.16758 13.3432 7.24365 14.3418 6.61553 15.5337C6.35805 16.0223 6.54539 16.6271 7.03398 16.8846C7.52257 17.1421 8.12738 16.9547 8.38487 16.4661C9.20465 14.9106 10.5641 13.9999 12.0002 13.9999C13.4363 13.9999 14.7958 14.9106 15.6155 16.4661C15.873 16.9547 16.4778 17.1421 16.9664 16.8846C17.455 16.6271 17.6424 16.0223 17.3849 15.5337C16.7568 14.3418 15.8328 13.3432 14.7103 12.7149ZM13.5002 10.4999C13.5002 11.3283 12.8286 11.9999 12.0002 11.9999C11.1718 11.9999 10.5002 11.3283 10.5002 10.4999C10.5002 9.67147 11.1718 8.9999 12.0002 8.9999C12.8286 8.9999 13.5002 9.67147 13.5002 10.4999Z" fill="white"/>
<path d="M20 22C21.1046 22 22 21.1046 22 20V16C22 15.4477 21.5523 15 21 15C20.4477 15 20 15.4477 20 16V20H16C15.4477 20 15 20.4477 15 21C15 21.5523 15.4477 22 16 22H20Z" fill="white"/>
<path d="M22 4C22 2.89543 21.1046 2 20 2H16C15.4477 2 15 2.44772 15 3C15 3.55228 15.4477 4 16 4H20V8C20 8.55228 20.4477 9 21 9C21.5523 9 22 8.55228 22 8V4Z" fill="white"/>
<path d="M4 22C2.89543 22 2 21.1046 2 20V16C2 15.4477 2.44772 15 3 15C3.55228 15 4 15.4477 4 16V20H8C8.55228 20 9 20.4477 9 21C9 21.5523 8.55228 22 8 22H4Z" fill="white"/>
</svg>
