<svg width="24" height="24" viewBox="0 0 24 24" fill="none" xmlns="http://www.w3.org/2000/svg">
<path d="M20 3C20.5523 3 21 3.44772 21 4V5C21 3.89543 20.1046 3 19 3H20ZM4 3H5C3.89543 3 3 3.89543 3 5V4C3 3.44772 3.44772 3 4 3ZM3 20V19C3 20.1046 3.89543 21 5 21H4C3.44772 21 3 20.5523 3 20ZM20 21H19C20.1046 21 21 20.1046 21 19V20C21 20.5523 20.5523 21 20 21Z" stroke="white" stroke-width="2"/>
<rect x="11" y="3" width="2" height="12" fill="white"/>
<rect x="13" y="8" width="2" height="9" transform="rotate(90 13 8)" fill="white"/>
<rect x="22" y="14" width="2" height="19" transform="rotate(90 22 14)" fill="white"/>
</svg>
