<svg width="20" height="20" viewBox="0 0 20 20" fill="none" xmlns="http://www.w3.org/2000/svg">
<path d="M15.8334 11.6667H17.5C17.721 11.6667 17.933 11.5789 18.0893 11.4226C18.2455 11.2664 18.3334 11.0544 18.3334 10.8334C18.3334 10.6124 18.2455 10.4004 18.0893 10.2441C17.933 10.0879 17.721 10 17.5 10H15.8334V9.16669C15.826 8.78277 15.7671 8.4016 15.6584 8.03335C16.4417 7.73304 17.1161 7.20328 17.5934 6.51338C18.0706 5.82348 18.3285 5.00558 18.3334 4.16669C18.3334 3.94567 18.2455 3.73371 18.0893 3.57743C17.933 3.42115 17.721 3.33335 17.5 3.33335C17.279 3.33335 17.067 3.42115 16.9108 3.57743C16.7545 3.73371 16.6667 3.94567 16.6667 4.16669C16.6659 4.70405 16.4921 5.22689 16.1709 5.65769C15.8497 6.08848 15.3982 6.4043 14.8834 6.55835C14.4724 6.03166 13.9408 5.61152 13.3334 5.33335C13.342 5.22241 13.342 5.11096 13.3334 5.00002C13.3334 4.11596 12.9822 3.26812 12.357 2.643C11.7319 2.01788 10.8841 1.66669 10 1.66669C9.11594 1.66669 8.26812 2.01788 7.643 2.643C7.01788 3.26812 6.66669 4.11596 6.66669 5.00002C6.65806 5.11096 6.65806 5.22241 6.66669 5.33335C6.0472 5.60695 5.50374 6.02742 5.08335 6.55835C4.57475 6.39841 4.1306 6.08005 3.81577 5.64978C3.50094 5.2195 3.3319 4.69985 3.33335 4.16669C3.33335 3.94567 3.24555 3.73371 3.08928 3.57743C2.933 3.42115 2.72104 3.33335 2.50002 3.33335C2.279 3.33335 2.06705 3.42115 1.91076 3.57743C1.75449 3.73371 1.66669 3.94567 1.66669 4.16669C1.6715 5.00558 1.9294 5.82348 2.40669 6.51338C2.88397 7.20328 3.55838 7.73304 4.34169 8.03335C4.23292 8.4016 4.17406 8.78277 4.16669 9.16669V10H2.50002C2.279 10 2.06705 10.0879 1.91076 10.2441C1.75449 10.4004 1.66669 10.6124 1.66669 10.8334C1.66669 11.0544 1.75449 11.2664 1.91076 11.4226C2.06705 11.5789 2.279 11.6667 2.50002 11.6667H4.16669V12.5C4.1674 12.8863 4.20649 13.2715 4.28335 13.65C3.51359 13.9585 2.85339 14.4897 2.38724 15.1755C1.92109 15.8614 1.6702 16.6708 1.66669 17.5C1.66669 17.721 1.75449 17.933 1.91076 18.0893C2.06705 18.2455 2.279 18.3334 2.50002 18.3334C2.72104 18.3334 2.933 18.2455 3.08928 18.0893C3.24555 17.933 3.33335 17.721 3.33335 17.5C3.3356 17.014 3.47948 16.5392 3.74736 16.1337C4.01525 15.7281 4.39554 15.4094 4.84169 15.2167C5.33728 16.1552 6.07953 16.9408 6.98849 17.4887C7.89745 18.0366 8.93869 18.3262 10 18.3262C11.0614 18.3262 12.1026 18.0366 13.0115 17.4887C13.9205 16.9408 14.6628 16.1552 15.1584 15.2167C15.6045 15.4094 15.9848 15.7281 16.2527 16.1337C16.5206 16.5392 16.6644 17.014 16.6667 17.5C16.6667 17.721 16.7545 17.933 16.9108 18.0893C17.067 18.2455 17.279 18.3334 17.5 18.3334C17.721 18.3334 17.933 18.2455 18.0893 18.0893C18.2455 17.933 18.3334 17.721 18.3334 17.5C18.3299 16.6708 18.0789 15.8614 17.6128 15.1755C17.1467 14.4897 16.4864 13.9585 15.7167 13.65C15.7935 13.2715 15.8326 12.8863 15.8334 12.5V11.6667ZM9.16669 16.5834C8.22555 16.3913 7.37969 15.8799 6.77226 15.1358C6.16484 14.3917 5.83315 13.4606 5.83335 12.5V9.16669C5.83335 8.50369 6.09675 7.86776 6.56559 7.39892C7.03443 6.93008 7.67031 6.66669 8.33335 6.66669H9.16669V16.5834ZM8.33335 5.00002C8.33335 4.558 8.50894 4.13407 8.82152 3.82151C9.1341 3.50895 9.55802 3.33335 10 3.33335C10.442 3.33335 10.8659 3.50895 11.1785 3.82151C11.4911 4.13407 11.6667 4.558 11.6667 5.00002H8.33335ZM14.1667 12.5C14.1669 13.4606 13.8352 14.3917 13.2278 15.1358C12.6204 15.8799 11.7745 16.3913 10.8334 16.5834V6.66669H11.6667C12.3297 6.66669 12.9656 6.93008 13.4344 7.39892C13.9033 7.86776 14.1667 8.50369 14.1667 9.16669V12.5Z" fill="black"/>
</svg>
