<svg width="24" height="24" viewBox="0 0 24 24" fill="none" xmlns="http://www.w3.org/2000/svg">
<path d="M2 11C2 10.4477 2.44772 10 3 10H21C21.5523 10 22 10.4477 22 11C22 11.5523 21.5523 12 21 12H3C2.44772 12 2 11.5523 2 11Z" fill="white"/>
<path d="M6 3C6 2.44772 6.44772 2 7 2C7.55228 2 8 2.44772 8 3V6C8 6.55228 7.55228 7 7 7C6.44772 7 6 6.55228 6 6V3Z" fill="white"/>
<path d="M16 3C16 2.44772 16.4477 2 17 2C17.5523 2 18 2.44772 18 3V6C18 6.55228 17.5523 7 17 7C16.4477 7 16 6.55228 16 6V3Z" fill="white"/>
<path fill-rule="evenodd" clip-rule="evenodd" d="M22 7C22 5.89543 21.1046 5 20 5H4C2.89543 5 2 5.89543 2 7V20C2 21.1046 2.89543 22 4 22H20C21.1046 22 22 21.1046 22 20V7ZM20 8C20 7.44772 19.5523 7 19 7H5C4.44772 7 4 7.44772 4 8V19C4 19.5523 4.44772 20 5 20H19C19.5523 20 20 19.5523 20 19V8Z" fill="white"/>
</svg>
