<svg width="24" height="24" viewBox="0 0 24 24" fill="none" xmlns="http://www.w3.org/2000/svg">
<path fill-rule="evenodd" clip-rule="evenodd" d="M7 2C6.44772 2 6 2.44772 6 3V5H4C2.89543 5 2 5.89543 2 7V20C2 21.1046 2.89543 22 4 22H20C21.1046 22 22 21.1046 22 20V7C22 5.89543 21.1046 5 20 5H18V3C18 2.44772 17.5523 2 17 2C16.4477 2 16 2.44772 16 3V5H8V3C8 2.44772 7.55228 2 7 2ZM20 8C20 7.44772 19.5523 7 19 7H5C4.44772 7 4 7.44772 4 8V10H20V8ZM19 20C19.5523 20 20 19.5523 20 19V12H4V19C4 19.5523 4.44772 20 5 20H19Z" fill="white"/>
</svg>
