<svg width="24" height="24" viewBox="0 0 24 24" fill="none" xmlns="http://www.w3.org/2000/svg">
<path fill-rule="evenodd" clip-rule="evenodd" d="M9.5887 6.28123L9.56683 6.29353V8.95025L12.0078 10.3233L14.4488 8.95025V6.29353L14.4278 6.2817L12.5073 7.3521C12.2063 7.51989 11.8401 7.52084 11.5381 7.35461L9.5887 6.28123ZM16.4488 5.70869C16.4488 5.34741 16.2539 5.01423 15.9391 4.83711L12.4981 2.90156C12.1937 2.73032 11.822 2.73032 11.5176 2.90156L8.07657 4.83711C7.76169 5.01423 7.56683 5.34741 7.56683 5.70869V9.5351C7.56683 9.89637 7.76169 10.2296 8.07657 10.4067L11.5176 12.3422C11.822 12.5135 12.1937 12.5135 12.4981 12.3422L15.9391 10.4067C16.2539 10.2296 16.4488 9.89637 16.4488 9.5351V5.70869ZM4.05475 15.1536L4.01562 15.1756V17.8323L6.45661 19.2054L8.8976 17.8323V15.1756L8.88688 15.1696L6.9839 16.2303C6.68285 16.3981 6.31662 16.399 6.01471 16.2328L4.05475 15.1536ZM10.8976 14.5908C10.8976 14.2295 10.7027 13.8963 10.3879 13.7192L6.94687 11.7836C6.64246 11.6124 6.27076 11.6124 5.96635 11.7836L2.52536 13.7192C2.21049 13.8963 2.01562 14.2295 2.01562 14.5908V18.4172C2.01562 18.7784 2.21049 19.1116 2.52536 19.2887L5.96635 21.2243C6.27076 21.3955 6.64246 21.3955 6.94687 21.2243L10.3879 19.2887C10.7027 19.1116 10.8976 18.7784 10.8976 18.4172V14.5908ZM17.559 19.2054L15.118 17.8323V15.1884L17.0147 16.2328C17.3166 16.399 17.6829 16.3981 17.9839 16.2303L19.9383 15.1409L20 15.1756V17.8323L17.559 19.2054ZM21.4903 13.7192C21.8051 13.8963 22 14.2295 22 14.5908V18.4172C22 18.7784 21.8051 19.1116 21.4903 19.2887L18.0493 21.2243C17.7449 21.3955 17.3732 21.3955 17.0688 21.2243L13.6278 19.2887C13.3129 19.1116 13.118 18.7784 13.118 18.4172V14.5908C13.118 14.2295 13.3129 13.8963 13.6278 13.7192L17.0688 11.7836C17.3732 11.6124 17.7449 11.6124 18.0493 11.7836L21.4903 13.7192Z" fill="white"/>
</svg>
