<svg width="24" height="24" viewBox="0 0 24 24" fill="none" xmlns="http://www.w3.org/2000/svg">
<path fill-rule="evenodd" clip-rule="evenodd" d="M4 16.5V18.5H20V16.5H4ZM3 14.5C2.44772 14.5 2 14.9477 2 15.5V18.5C2 19.6046 2.89543 20.5 4 20.5H20C21.1046 20.5 22 19.6046 22 18.5V15.5C22 14.9477 21.5523 14.5 21 14.5H3Z" fill="white"/>
<path fill-rule="evenodd" clip-rule="evenodd" d="M10.9571 7.79289C11.3476 8.18342 11.3476 8.81658 10.9571 9.20711L10.1642 10L10.9571 10.7929C11.3476 11.1834 11.3476 11.8166 10.9571 12.2071C10.5666 12.5976 9.93342 12.5976 9.54289 12.2071L7.33579 10L9.54289 7.79289C9.93342 7.40237 10.5666 7.40237 10.9571 7.79289Z" fill="white"/>
<path fill-rule="evenodd" clip-rule="evenodd" d="M13.0429 7.79289C12.6524 8.18342 12.6524 8.81658 13.0429 9.20711L13.8358 10L13.0429 10.7929C12.6524 11.1834 12.6524 11.8166 13.0429 12.2071C13.4334 12.5976 14.0666 12.5976 14.4571 12.2071L16.6642 10L14.4571 7.79289C14.0666 7.40237 13.4334 7.40237 13.0429 7.79289Z" fill="white"/>
<path d="M21 5.5C21 4.39543 20.1046 3.5 19 3.5H5C3.89543 3.5 3 4.39543 3 5.5L3.03125 13H5.03125L5 6.5C5 5.94772 5.44772 5.5 6 5.5H18C18.5523 5.5 19 5.94772 19 6.5V13.0312H21V5.5Z" fill="white"/>
</svg>
