<svg width="24" height="24" viewBox="0 0 24 24" fill="none" xmlns="http://www.w3.org/2000/svg">
<path fill-rule="evenodd" clip-rule="evenodd" d="M14.7101 7.715C15.2038 7.11165 15.5 6.34042 15.5 5.5C15.5 3.567 13.933 2 12 2C10.067 2 8.5 3.567 8.5 5.5C8.5 6.34042 8.79621 7.11165 9.28992 7.715C8.16738 8.34328 7.24345 9.34192 6.61533 10.5338C6.35784 11.0224 6.54519 11.6272 7.03378 11.8847C7.52237 12.1422 8.12718 11.9548 8.38467 11.4662C9.20445 9.91067 10.5639 9 12 9C13.4361 9 14.7956 9.91067 15.6153 11.4662C15.8728 11.9548 16.4776 12.1422 16.9662 11.8847C17.4548 11.6272 17.6422 11.0224 17.3847 10.5338C16.7566 9.34192 15.8326 8.34328 14.7101 7.715ZM13.5 5.5C13.5 6.32843 12.8284 7 12 7C11.1716 7 10.5 6.32843 10.5 5.5C10.5 4.67157 11.1716 4 12 4C12.8284 4 13.5 4.67157 13.5 5.5Z" fill="white"/>
<path fill-rule="evenodd" clip-rule="evenodd" d="M11 16.5C11 17.2692 10.7519 17.9805 10.3313 18.5581C10.9485 18.8166 11.5123 19.1586 12 19.5713C12.4877 19.1586 13.0516 18.8166 13.6688 18.5581C13.2482 17.9805 13 17.2692 13 16.5C13 14.567 14.567 13 16.5 13C18.433 13 20 14.567 20 16.5C20 17.2692 19.7519 17.9805 19.3313 18.5581C19.3928 18.5839 19.4538 18.6105 19.5142 18.6379C20.4207 19.049 21.2029 19.6441 21.7845 20.3799C22.127 20.8131 22.0534 21.442 21.6202 21.7845C21.1869 22.127 20.558 22.0534 20.2156 21.6201C19.4763 20.685 18.1206 20 16.5 20C14.8882 20 13.5384 20.6776 12.7965 21.605C12.7694 21.6407 12.7396 21.6748 12.7072 21.7072C12.625 21.7896 12.531 21.8551 12.4301 21.9031C12.1554 22.0341 11.8383 22.0306 11.57 21.9031C11.4691 21.8551 11.3751 21.7896 11.2929 21.7072C11.2605 21.6748 11.2307 21.6407 11.2035 21.605C10.4617 20.6776 9.11191 20 7.50004 20C5.87943 20 4.52379 20.685 3.78453 21.6201C3.44203 22.0534 2.81316 22.127 2.3799 21.7845C1.94664 21.442 1.87306 20.8131 2.21555 20.3799C2.83595 19.595 3.68453 18.9703 4.66881 18.5581C4.24819 17.9805 4.00004 17.2692 4.00004 16.5C4.00004 14.567 5.56704 13 7.50004 13C9.43304 13 11 14.567 11 16.5ZM7.50004 18C8.32847 18 9.00004 17.3284 9.00004 16.5C9.00004 15.6716 8.32847 15 7.50004 15C6.67161 15 6.00004 15.6716 6.00004 16.5C6.00004 17.3284 6.67161 18 7.50004 18ZM16.5 18C17.3285 18 18 17.3284 18 16.5C18 15.6716 17.3285 15 16.5 15C15.6716 15 15 15.6716 15 16.5C15 17.3284 15.6716 18 16.5 18Z" fill="white"/>
</svg>
