<svg width="24" height="24" viewBox="0 0 24 24" fill="none" xmlns="http://www.w3.org/2000/svg">
<path fill-rule="evenodd" clip-rule="evenodd" d="M12 7C12.8284 7 13.5 6.32843 13.5 5.5C13.5 4.67157 12.8284 4 12 4C11.1716 4 10.5 4.67157 10.5 5.5C10.5 6.32843 11.1716 7 12 7ZM12 9C13.933 9 15.5 7.433 15.5 5.5C15.5 3.567 13.933 2 12 2C10.067 2 8.5 3.567 8.5 5.5C8.5 7.433 10.067 9 12 9Z" fill="white"/>
<path fill-rule="evenodd" clip-rule="evenodd" d="M12 9C10.5639 9 9.20445 9.91067 8.38467 11.4662C8.12718 11.9548 7.52237 12.1422 7.03378 11.8847C6.54519 11.6272 6.35784 11.0224 6.61533 10.5338C7.69766 8.48004 9.65834 7 12 7C14.3417 7 16.3023 8.48004 17.3847 10.5338C17.6422 11.0224 17.4548 11.6272 16.9662 11.8847C16.4776 12.1422 15.8728 11.9548 15.6153 11.4662C14.7956 9.91067 13.4361 9 12 9Z" fill="white"/>
<path fill-rule="evenodd" clip-rule="evenodd" d="M7.50004 18C8.32847 18 9.00004 17.3284 9.00004 16.5C9.00004 15.6716 8.32847 15 7.50004 15C6.67161 15 6.00004 15.6716 6.00004 16.5C6.00004 17.3284 6.67161 18 7.50004 18ZM7.50004 20C9.43304 20 11 18.433 11 16.5C11 14.567 9.43304 13 7.50004 13C5.56704 13 4.00004 14.567 4.00004 16.5C4.00004 18.433 5.56704 20 7.50004 20Z" fill="white"/>
<path fill-rule="evenodd" clip-rule="evenodd" d="M16.5 18C17.3285 18 18 17.3284 18 16.5C18 15.6716 17.3285 15 16.5 15C15.6716 15 15 15.6716 15 16.5C15 17.3284 15.6716 18 16.5 18ZM16.5 20C18.433 20 20 18.433 20 16.5C20 14.567 18.433 13 16.5 13C14.567 13 13 14.567 13 16.5C13 18.433 14.567 20 16.5 20Z" fill="white"/>
<path fill-rule="evenodd" clip-rule="evenodd" d="M7.50004 20C5.87943 20 4.52379 20.685 3.78453 21.6201C3.44203 22.0534 2.81316 22.127 2.3799 21.7845C1.94664 21.442 1.87306 20.8131 2.21555 20.3799C3.3784 18.9088 5.34292 18 7.50004 18C9.65716 18 11.6217 18.9088 12.7845 20.3799C13.127 20.8131 13.0534 21.442 12.6202 21.7845C12.1869 22.127 11.558 22.0534 11.2156 21.6201C10.4763 20.685 9.12065 20 7.50004 20Z" fill="white"/>
<path fill-rule="evenodd" clip-rule="evenodd" d="M16.5 20C14.8794 20 13.5238 20.685 12.7845 21.6201C12.442 22.0534 11.8132 22.127 11.3799 21.7845C10.9466 21.442 10.8731 20.8131 11.2156 20.3799C12.3784 18.9088 14.3429 18 16.5 18C18.6572 18 20.6217 18.9088 21.7845 20.3799C22.127 20.8131 22.0534 21.442 21.6202 21.7845C21.1869 22.127 20.558 22.0534 20.2156 21.6201C19.4763 20.685 18.1206 20 16.5 20Z" fill="white"/>
</svg>
