<svg width="20" height="20" viewBox="0 0 20 20" fill="none" xmlns="http://www.w3.org/2000/svg">
<path fill-rule="evenodd" clip-rule="evenodd" d="M6.5972 9.99995C6.5972 10.7666 5.97574 11.388 5.20912 11.388C4.44251 11.388 3.82104 10.7666 3.82104 9.99995C3.82104 9.23334 4.44251 8.61188 5.20912 8.61188C5.97574 8.61188 6.5972 9.23334 6.5972 9.99995ZM11.8064 9.99995C11.8064 10.7666 11.185 11.388 10.4184 11.388C9.65174 11.388 9.03027 10.7666 9.03027 9.99995C9.03027 9.23334 9.65174 8.61188 10.4184 8.61188C11.185 8.61188 11.8064 9.23334 11.8064 9.99995ZM15.6276 11.388C16.3942 11.388 17.0157 10.7666 17.0157 9.99995C17.0157 9.23334 16.3942 8.61188 15.6276 8.61188C14.861 8.61188 14.2395 9.23334 14.2395 9.99995C14.2395 10.7666 14.861 11.388 15.6276 11.388Z" fill="black"/>
</svg>
