<svg width="24" height="24" viewBox="0 0 24 24" fill="none" xmlns="http://www.w3.org/2000/svg">
<path d="M4.5 5C4.5 4.44772 4.94772 4 5.5 4H19C19.5523 4 20 4.44772 20 5V19C20 19.5523 19.5523 20 19 20H5.5C4.94772 20 4.5 19.5523 4.5 19C4.5 18.4477 4.05228 18 3.5 18C2.94772 18 2.5 18.4477 2.5 19C2.5 20.6569 3.84315 22 5.5 22H19C20.6569 22 22 20.6569 22 19V5C22 3.34315 20.6569 2 19 2H5.5C3.84315 2 2.5 3.34315 2.5 5C2.5 5.55228 2.94772 6 3.5 6C4.05228 6 4.5 5.55228 4.5 5Z" fill="white"/>
<path d="M3 8C2.44772 8 2 8.44772 2 9C2 9.55228 2.44772 10 3 10H4C4.55228 10 5 9.55228 5 9C5 8.44772 4.55228 8 4 8H3Z" fill="white"/>
<path d="M2 15C2 14.4477 2.44772 14 3 14H4C4.55228 14 5 14.4477 5 15C5 15.5523 4.55228 16 4 16H3C2.44772 16 2 15.5523 2 15Z" fill="white"/>
<path d="M3 11C2.44772 11 2 11.4477 2 12C2 12.5523 2.44772 13 3 13H4C4.55228 13 5 12.5523 5 12C5 11.4477 4.55228 11 4 11H3Z" fill="white"/>
<path fill-rule="evenodd" clip-rule="evenodd" d="M14.0248 11.4813C14.6179 11.0242 15 10.3067 15 9.5C15 8.11929 13.8807 7 12.5 7C11.1193 7 10 8.11929 10 9.5C10 10.3067 10.3821 11.0242 10.9752 11.4813C9.38768 12.041 8.25 13.5543 8.25 15.3333C8.25 16.1157 8.88426 16.75 9.66667 16.75H15.3333C16.1157 16.75 16.75 16.1157 16.75 15.3333C16.75 13.5543 15.6123 12.041 14.0248 11.4813ZM12.3333 12.75C10.9345 12.75 9.79531 13.8618 9.75132 15.25H15.2487C15.2047 13.8618 14.0655 12.75 12.6667 12.75H12.3333ZM13.5 9.5C13.5 10.0523 13.0523 10.5 12.5 10.5C11.9477 10.5 11.5 10.0523 11.5 9.5C11.5 8.94772 11.9477 8.5 12.5 8.5C13.0523 8.5 13.5 8.94772 13.5 9.5Z" fill="white"/>
</svg>
