<svg width="24" height="24" viewBox="0 0 24 24" fill="none" xmlns="http://www.w3.org/2000/svg">
<path fill-rule="evenodd" clip-rule="evenodd" d="M4 2C2.89543 2 2 2.89543 2 4V20C2 21.1046 2.89543 22 4 22H16.1716C16.702 22 17.2107 21.7893 17.5858 21.4142L21.4142 17.5858C21.7893 17.2107 22 16.702 22 16.1716V4C22 2.89543 21.1046 2 20 2H4ZM5 4C4.44772 4 4 4.44772 4 5V19C4 19.5523 4.44772 20 5 20H16V16H20V5C20 4.44772 19.5523 4 19 4H5Z" fill="white"/>
<path d="M6 7C6 6.44772 6.44772 6 7 6H17C17.5523 6 18 6.44772 18 7C18 7.55228 17.5523 8 17 8H7C6.44772 8 6 7.55228 6 7Z" fill="white"/>
<path d="M6 11C6 10.4477 6.44772 10 7 10H12C12.5523 10 13 10.4477 13 11C13 11.5523 12.5523 12 12 12H7C6.44772 12 6 11.5523 6 11Z" fill="white"/>
</svg>
