<svg width="24" height="24" viewBox="0 0 24 24" fill="none" xmlns="http://www.w3.org/2000/svg">
<path fill-rule="evenodd" clip-rule="evenodd" d="M7 3.96721C5.34314 3.96721 4 5.28834 4 6.91803V14.7869C4 16.4165 5.34315 17.7377 7 17.7377H9.75C10.0648 17.7377 10.3611 17.8835 10.55 18.1311L12 20.0327L13.45 18.1311C13.6389 17.8835 13.9352 17.7377 14.25 17.7377H17C18.6568 17.7377 20 16.4165 20 14.7869V6.91803C20 5.28834 18.6568 3.96721 17 3.96721H7ZM2 6.91803C2 4.20188 4.23858 2 7 2H17C19.7614 2 22 4.20187 22 6.91803V14.7869C22 17.503 19.7614 19.7049 17 19.7049H14.75L13.6 21.213C12.8 22.2623 11.2 22.2623 10.4 21.213L9.25001 19.7049H7C4.23857 19.7049 2 17.503 2 14.7869V6.91803Z" fill="white"/>
<path d="M14.5799 11.3C15.0344 10.7319 15.2845 10.0275 15.2899 9.30001C15.2899 8.42745 14.9433 7.59062 14.3263 6.97363C13.7093 6.35663 12.8725 6.01001 11.9999 6.01001C11.1273 6.01001 10.2905 6.35663 9.67357 6.97363C9.05657 7.59062 8.70994 8.42745 8.70994 9.30001C8.71536 10.0275 8.96546 10.7319 9.41995 11.3C8.52857 11.8424 7.82924 12.6502 7.41994 13.61C7.36265 13.7318 7.33055 13.8639 7.32553 13.9984C7.32051 14.1329 7.34268 14.267 7.39073 14.3927C7.43878 14.5184 7.51171 14.6331 7.60515 14.73C7.69859 14.8268 7.81062 14.9038 7.93453 14.9563C8.05844 15.0089 8.19168 15.0358 8.32626 15.0357C8.46084 15.0355 8.59401 15.0081 8.71777 14.9552C8.84152 14.9023 8.95332 14.825 9.04649 14.7279C9.13965 14.6308 9.21226 14.5159 9.25995 14.39C9.48978 13.8527 9.87152 13.3943 10.3582 13.071C10.845 12.7477 11.4156 12.5735 11.9999 12.57C12.5859 12.5716 13.1587 12.7448 13.6474 13.0683C14.1361 13.3917 14.5194 13.8512 14.7499 14.39C14.8265 14.5707 14.9545 14.725 15.1181 14.8334C15.2817 14.9419 15.4736 14.9998 15.6699 15C15.8037 14.9975 15.9359 14.9704 16.0599 14.92C16.3038 14.8164 16.4965 14.6203 16.5959 14.3747C16.6953 14.129 16.6931 13.854 16.5899 13.61C16.178 12.6487 15.475 11.8408 14.5799 11.3ZM11.9999 10.57C11.7443 10.57 11.4945 10.4941 11.2822 10.3519C11.0698 10.2097 10.9045 10.0076 10.8072 9.77133C10.7098 9.53503 10.6849 9.27515 10.7355 9.02464C10.7861 8.77414 10.9099 8.54431 11.0913 8.3643C11.2727 8.1843 11.5035 8.06223 11.7544 8.01359C12.0053 7.96495 12.265 7.99193 12.5005 8.0911C12.7361 8.19027 12.9368 8.35717 13.0774 8.57062C13.2179 8.78407 13.2919 9.03446 13.2899 9.29001C13.2873 9.6304 13.1502 9.95596 12.9086 10.1957C12.6669 10.4355 12.3403 10.57 11.9999 10.57Z" fill="white"/>
</svg>
