<svg width="24" height="24" viewBox="0 0 24 24" fill="none" xmlns="http://www.w3.org/2000/svg">
<path d="M8.49996 12.75C8.08575 12.75 7.74996 12.4142 7.74996 12V11H6.74996C6.33575 11 5.99996 10.6642 5.99996 10.25C5.99996 9.83579 6.33575 9.5 6.74996 9.5H7.74996V8.5C7.74996 8.08579 8.08575 7.75 8.49996 7.75C8.91417 7.75 9.24996 8.08579 9.24996 8.5V9.5H10.25C10.6642 9.5 11 9.83579 11 10.25C11 10.6642 10.6642 11 10.25 11H9.24996V12C9.24996 12.4142 8.91417 12.75 8.49996 12.75Z" fill="white"/>
<path d="M14.7812 8.53125C14.7812 8.94546 15.117 9.28125 15.5312 9.28125C15.9454 9.28125 16.2812 8.94546 16.2812 8.53125V8.5C16.2812 8.08579 15.9454 7.75 15.5312 7.75C15.117 7.75 14.7812 8.08579 14.7812 8.5V8.53125Z" fill="white"/>
<path d="M15.5312 12.75C15.117 12.75 14.7812 12.4142 14.7812 12V11.9688C14.7812 11.5545 15.117 11.2188 15.5312 11.2188C15.9454 11.2188 16.2812 11.5545 16.2812 11.9688V12C16.2812 12.4142 15.9454 12.75 15.5312 12.75Z" fill="white"/>
<path d="M13.0312 10.25C13.0312 10.6642 13.367 11 13.7812 11C14.1954 11 14.5312 10.6642 14.5312 10.25V10.2188C14.5312 9.80454 14.1954 9.46875 13.7812 9.46875C13.367 9.46875 13.0312 9.80454 13.0312 10.2188V10.25Z" fill="white"/>
<path d="M17.2812 11C16.867 11 16.5312 10.6642 16.5312 10.25V10.2188C16.5312 9.80454 16.867 9.46875 17.2812 9.46875C17.6954 9.46875 18.0312 9.80454 18.0312 10.2188V10.25C18.0312 10.6642 17.6954 11 17.2812 11Z" fill="white"/>
<path fill-rule="evenodd" clip-rule="evenodd" d="M1.95568 16.5004L2.50706 9.05677C2.73915 5.9236 5.34891 3.5 8.49067 3.5H15.465C18.6068 3.5 21.2165 5.9236 21.4486 9.05677L22 16.5004C22.1957 19.1418 19.1224 20.7223 17.0876 19.0267L13.4556 16L10.5001 16L6.86804 19.0267C4.83333 20.7223 1.76002 19.1418 1.95568 16.5004ZM4.5016 9.20451L3.95021 16.6482C3.885 17.5286 4.90943 18.0555 5.58767 17.4903L9.21974 14.4636C9.57917 14.164 10.0322 14 10.5001 14H13.4556C13.9234 14 14.3765 14.164 14.7359 14.4636L18.368 17.4903C19.0462 18.0555 20.0707 17.5286 20.0055 16.6482L19.4541 9.20451C19.2994 7.11573 17.5595 5.5 15.465 5.5H8.49067C6.39617 5.5 4.65632 7.11573 4.5016 9.20451Z" fill="white"/>
</svg>
