<svg width="20" height="21" viewBox="0 0 20 20" fill="none" xmlns="http://www.w3.org/2000/svg">
<path fill-rule="evenodd" clip-rule="evenodd" d="M5.00095 6.71411L3.61709 3.54688H2.5L4.15791 7.01953H2.98116V7.70996H4.4751V8.37305H2.98116V9.06348H4.4751V10.5469H5.51144V9.06348H6.97174V8.37305H5.51144V7.71211L5.51247 7.70996H6.97174V7.01953H5.84209L7.5 3.54688H6.38291L5.00095 6.71411ZM9.74738 14.9464V14.1576C9.35516 14.1323 9.00849 14.0495 8.70735 13.9093C8.33989 13.7382 8.05227 13.4956 7.84449 13.1816C7.6367 12.8652 7.52187 12.4902 7.5 12.0566H8.51706C8.53675 12.3167 8.61549 12.5335 8.75328 12.707C8.89326 12.8781 9.07152 13.0058 9.28806 13.0902C9.43215 13.1442 9.58525 13.1804 9.74738 13.1989V10.8101L9.42913 10.7171C8.89108 10.5601 8.46457 10.3292 8.14961 10.0245C7.83683 9.71985 7.68045 9.31672 7.68045 8.81516C7.68045 8.40032 7.78543 8.03821 7.99541 7.72883C8.20538 7.41946 8.48972 7.17922 8.84843 7.00813C9.12146 6.87611 9.42111 6.79434 9.74738 6.76281V5.94641H10.2854V6.75511C10.6496 6.77888 10.9766 6.86205 11.2664 7.00461C11.6164 7.17571 11.892 7.41126 12.0932 7.71125C12.2944 8.00891 12.3994 8.3511 12.4081 8.73782H11.4304C11.3955 8.405 11.2511 8.14719 10.9974 7.96438C10.7998 7.82022 10.5625 7.73218 10.2854 7.70026V9.95296L10.5676 10.0316C10.7819 10.0878 11.0017 10.164 11.227 10.2601C11.4523 10.3562 11.6612 10.4827 11.8537 10.6398C12.0462 10.7968 12.2014 10.9913 12.3196 11.2234C12.4399 11.4554 12.5 11.7331 12.5 12.0566C12.5 12.4644 12.4016 12.8265 12.2047 13.1429C12.0101 13.4593 11.7268 13.7089 11.355 13.8917C11.051 14.0421 10.6945 14.1306 10.2854 14.1573V14.9464H9.74738ZM10.771 13.0691C10.6231 13.1328 10.4612 13.1754 10.2854 13.1968V10.9672C10.5011 11.0309 10.6957 11.1034 10.8694 11.1847C11.0619 11.2738 11.2139 11.3863 11.3255 11.5222C11.4392 11.6581 11.4961 11.8327 11.4961 12.046C11.4961 12.2804 11.4315 12.4855 11.3025 12.6613C11.1734 12.8347 10.9963 12.9706 10.771 13.0691ZM9.74738 7.70609V9.80083C9.66726 9.77554 9.58524 9.74698 9.50131 9.71516C9.35914 9.65891 9.22572 9.58977 9.10105 9.50774C8.97857 9.42336 8.87905 9.31907 8.80249 9.19485C8.72813 9.07063 8.69094 8.92297 8.69094 8.75188C8.69094 8.54797 8.74563 8.36633 8.85499 8.20696C8.96654 8.04524 9.12292 7.91868 9.32415 7.82727C9.45055 7.76838 9.59163 7.72799 9.74738 7.70609ZM17.4235 17.7916H12.5245V16.8947H12.8639C12.9899 16.888 13.0867 16.8261 13.1544 16.7093C13.222 16.5924 13.2675 16.4552 13.2908 16.2979C13.3142 16.1383 13.3235 15.9944 13.3188 15.8663L13.2919 15.0874H12.5V14.1905H13.2609L13.2173 12.9294C13.1987 12.4573 13.2897 12.0628 13.4903 11.7459C13.6932 11.4289 13.9627 11.1906 14.2986 11.031C14.6345 10.8714 14.9961 10.7916 15.3834 10.7916C15.7286 10.7916 16.0389 10.8467 16.3142 10.9568C16.5918 11.067 16.8251 11.2176 17.014 11.4087C17.2053 11.5975 17.3418 11.8133 17.4235 12.0561C17.5051 12.2989 17.5214 12.554 17.4724 12.8215L16.4612 12.6664C16.4845 12.4461 16.4483 12.2629 16.3527 12.1168C16.257 11.9707 16.1252 11.8605 15.9573 11.7863C15.7893 11.7121 15.6108 11.6751 15.4219 11.6751C15.2236 11.6751 15.0346 11.72 14.855 11.8099C14.6777 11.8998 14.5331 12.037 14.4211 12.2213C14.3114 12.4056 14.2566 12.6417 14.2566 12.9294L14.3052 14.1905H15.9538V15.0874H14.3397L14.3686 15.8393C14.3826 16.1293 14.3441 16.3889 14.2531 16.6182C14.2125 16.7196 14.1573 16.8117 14.0874 16.8947H17.4235V17.7916Z" fill="black"/>
</svg>
