<svg width="24" height="24" viewBox="0 0 24 24" fill="none" xmlns="http://www.w3.org/2000/svg">
<path fill-rule="evenodd" clip-rule="evenodd" d="M17.1831 18.17C17.1678 18.1648 17.1526 18.1596 17.1373 18.1543C16.5459 17.9479 15.9846 17.6481 15.4739 17.2619C14.5023 16.5274 13.7554 15.5132 13.3238 14.3427C12.8922 13.1722 12.7945 11.8956 13.0426 10.668C13.2907 9.44048 13.8739 8.31477 14.7214 7.42762C15.4051 6.70927 16.2348 6.17586 17.1392 5.86048C17.1539 5.85536 17.1686 5.8503 17.1833 5.84529C17.3256 5.79691 17.4698 5.75391 17.6154 5.71642C17.7966 5.6698 17.9801 5.6317 18.1655 5.60237C18.5168 5.54679 18.7969 5.25769 18.7969 4.90203C18.7969 4.68878 18.6958 4.48691 18.5186 4.36822C18.3206 4.23554 18.118 4.11172 17.9115 3.99692C17.7633 3.91452 17.613 3.83677 17.4609 3.76373C17.4297 3.74877 17.3985 3.73401 17.3672 3.71944C16.0299 3.09724 14.5551 2.83581 13.0797 2.97319C11.0549 3.16174 9.15785 4.08943 7.72017 5.59408C6.19779 7.19925 5.30292 9.34188 5.21098 11.6019C5.11905 13.862 5.83667 16.0766 7.22319 17.8114C8.60971 19.5463 10.5651 20.6764 12.7061 20.9803C14.2985 21.2062 15.9082 20.963 17.3599 20.2944C17.3921 20.2796 17.4243 20.2645 17.4563 20.2493C17.6103 20.176 17.7624 20.0979 17.9124 20.0151C18.118 19.9016 18.3197 19.7792 18.517 19.648C18.6951 19.5296 18.7969 19.3271 18.7969 19.1132C18.7969 18.7581 18.5175 18.4692 18.1668 18.4135C17.9829 18.3843 17.8007 18.3466 17.6207 18.3004C17.4733 18.2625 17.3273 18.219 17.1831 18.17ZM14.5052 19.0303C14.4252 18.9741 14.346 18.9165 14.2677 18.8573C12.9831 17.8861 12.0079 16.555 11.4473 15.0346C10.8869 13.5147 10.761 11.8614 11.0822 10.2718C11.4034 8.68259 12.1604 7.21357 13.2739 6.04744C13.6566 5.64555 14.0753 5.28639 14.5228 4.97394C14.1067 4.92894 13.6856 4.92542 13.2651 4.96458C11.7336 5.10719 10.2817 5.80958 9.16879 6.97304C7.98915 8.21815 7.28202 9.89618 7.20933 11.6832C7.13658 13.4717 7.70584 15.2118 8.78554 16.5628C9.86332 17.9114 11.3658 18.77 12.9871 19.0001C13.4933 19.0719 14.0026 19.0813 14.5052 19.0303Z" fill="white"/>
</svg>
