<svg width="24" height="24" viewBox="0 0 24 24" fill="none" xmlns="http://www.w3.org/2000/svg">
<path fill-rule="evenodd" clip-rule="evenodd" d="M5 4.5C5 3.11929 6.11929 2 7.5 2H16.5C17.8807 2 19 3.11927 19 4.5V19.5C19 20.8807 17.8807 22 16.5 22H7.5C6.11927 22 5 20.8807 5 19.5V4.5ZM7.5 4C7.22385 4 7 4.22385 7 4.5V19.5C7 19.7761 7.22387 20 7.5 20H16.5C16.7761 20 17 19.7761 17 19.5V4.5C17 4.22387 16.7761 4 16.5 4H7.5Z" fill="white"/>
<path fill-rule="evenodd" clip-rule="evenodd" d="M9 7C9 6.44772 9.44772 6 10 6L14 6C14.5523 6 15 6.44772 15 7C15 7.55229 14.5523 8 14 8L10 8C9.44772 8 9 7.55228 9 7Z" fill="white"/>
</svg>
