<svg width="20" height="21" viewBox="0 0 20 20" fill="none" xmlns="http://www.w3.org/2000/svg">
<path d="M14.8516 5.09526C13.9593 4.63484 13.0024 4.29562 12.0019 4.10134C11.9837 4.09759 11.9655 4.10696 11.9561 4.1257C11.8331 4.37184 11.6968 4.69294 11.6013 4.94532C10.5252 4.76416 9.45469 4.76416 8.40069 4.94532C8.30521 4.68733 8.16395 4.37184 8.04033 4.1257C8.03095 4.10759 8.01275 4.09822 7.99453 4.10134C6.99461 4.295 6.03774 4.63422 5.14488 5.09526C5.13715 5.09901 5.13052 5.10526 5.12613 5.11338C3.31115 8.1626 2.81395 11.1369 3.05786 14.0743C3.05896 14.0886 3.06613 14.1024 3.07607 14.1111C4.27354 15.1 5.4335 15.7004 6.57191 16.0983C6.59013 16.1046 6.60944 16.0971 6.62103 16.0802C6.89032 15.6667 7.13037 15.2306 7.33619 14.7721C7.34834 14.7452 7.33675 14.7134 7.31192 14.7027C6.93116 14.5403 6.5686 14.3423 6.21984 14.1174C6.19226 14.0993 6.19005 14.0549 6.21543 14.0337C6.28882 13.9718 6.36223 13.9075 6.43231 13.8425C6.44499 13.8306 6.46265 13.8281 6.47756 13.8356C8.76875 15.012 11.2492 15.012 13.5134 13.8356C13.5283 13.8275 13.546 13.83 13.5592 13.8419C13.6293 13.9068 13.7027 13.9718 13.7766 14.0337C13.802 14.0549 13.8003 14.0993 13.7728 14.1174C13.424 14.3466 13.0614 14.5403 12.6801 14.7021C12.6553 14.7127 12.6443 14.7452 12.6564 14.7721C12.8666 15.23 13.1067 15.666 13.371 16.0796C13.3821 16.0971 13.4019 16.1046 13.4201 16.0983C14.5641 15.7004 15.724 15.1 16.9215 14.1111C16.932 14.1024 16.9386 14.0893 16.9397 14.0749C17.2316 10.6789 16.4508 7.72906 14.8698 5.114C14.8659 5.10526 14.8593 5.09901 14.8516 5.09526ZM7.67835 12.2857C6.98854 12.2857 6.42016 11.5735 6.42016 10.6989C6.42016 9.82434 6.97752 9.11218 7.67835 9.11218C8.38468 9.11218 8.94755 9.83059 8.93651 10.6989C8.93651 11.5735 8.37915 12.2857 7.67835 12.2857ZM12.3303 12.2857C11.6405 12.2857 11.0721 11.5735 11.0721 10.6989C11.0721 9.82434 11.6294 9.11218 12.3303 9.11218C13.0366 9.11218 13.5995 9.83059 13.5885 10.6989C13.5885 11.5735 13.0366 12.2857 12.3303 12.2857Z" fill="black"/>
</svg>
