<svg width="24" height="24" viewBox="0 0 24 24" fill="none" xmlns="http://www.w3.org/2000/svg">
<path d="M12 10C10.8954 10 10 10.8954 10 12C10 13.1046 10.8954 14 12 14C13.1046 14 14 13.1046 14 12C14 10.8954 13.1046 10 12 10Z" fill="white"/>
<path fill-rule="evenodd" clip-rule="evenodd" d="M22 12C22 6.47715 17.5228 2 12 2C6.47715 2 2 6.47715 2 12C2 17.5228 6.47715 22 12 22C17.5228 22 22 17.5228 22 12ZM19.9618 11.2135C19.9871 11.4722 20 11.7346 20 12C20 12.2654 19.9871 12.5278 19.9618 12.7865C19.9018 12.8693 19.8314 12.9538 19.7494 13.0399C19.3826 13.4254 18.8164 13.8066 18.0594 14.1431C17.6165 14.3399 17.1198 14.5163 16.5782 14.6675C16.5922 14.5613 16.6054 14.4543 16.6178 14.3467C16.7044 13.5934 16.75 12.8069 16.75 12C16.75 11.0778 16.6905 10.1824 16.5782 9.33251C17.1198 9.48366 17.6165 9.66012 18.0594 9.85693C18.8164 10.1934 19.3826 10.5746 19.7494 10.9601C19.8314 11.0462 19.9018 11.1307 19.9618 11.2135ZM19.3421 15.1821C19.1273 15.2993 18.9023 15.4099 18.6686 15.5138C17.9657 15.8262 17.1634 16.0875 16.2881 16.2881C16.0875 17.1634 15.8262 17.9657 15.5138 18.6686C15.4099 18.9023 15.2993 19.1273 15.1821 19.3421C17.0419 18.535 18.535 17.0419 19.3421 15.1821ZM12.7865 19.9618C12.5278 19.9871 12.2654 20 12 20C11.7346 20 11.4722 19.9871 11.2135 19.9618C11.1307 19.9018 11.0462 19.8314 10.9601 19.7494C10.5746 19.3826 10.1934 18.8164 9.85693 18.0594C9.66012 17.6165 9.48366 17.1198 9.3325 16.5782C9.43874 16.5922 9.54568 16.6054 9.6533 16.6178C10.4066 16.7044 11.1931 16.75 12 16.75C12.9222 16.75 13.8176 16.6905 14.6675 16.5782C14.5163 17.1198 14.3399 17.6165 14.1431 18.0594C13.8066 18.8164 13.4254 19.3826 13.0399 19.7494C12.9538 19.8314 12.8693 19.9018 12.7865 19.9618ZM8.81789 19.3421C6.95811 18.535 5.46502 17.0419 4.65788 15.1821C4.87265 15.2993 5.09774 15.4099 5.33144 15.5138C6.0343 15.8262 6.83663 16.0875 7.71187 16.2881C7.91255 17.1634 8.17383 17.9657 8.48621 18.6686C8.59008 18.9023 8.70066 19.1273 8.81789 19.3421ZM4.03817 11.2135C4.01292 11.4722 4 11.7346 4 12C4 12.2654 4.01292 12.5278 4.03817 12.7865C4.09815 12.8693 4.16861 12.9538 4.25056 13.0399C4.61737 13.4254 5.18359 13.8066 5.94064 14.1431C6.38346 14.3399 6.88025 14.5163 7.42183 14.6675C7.30953 13.8176 7.25 12.9222 7.25 12C7.25 11.0778 7.30953 10.1824 7.42183 9.3325C6.88025 9.48366 6.38346 9.66012 5.94064 9.85693C5.18359 10.1934 4.61737 10.5746 4.25056 10.9601C4.16861 11.0462 4.09815 11.1307 4.03817 11.2135ZM4.65788 8.81789C4.87265 8.70066 5.09774 8.59008 5.33144 8.48621C6.0343 8.17383 6.83663 7.91255 7.71187 7.71187C7.91255 6.83663 8.17383 6.0343 8.48621 5.33144C8.59008 5.09774 8.70065 4.87265 8.81789 4.65788C6.95811 5.46503 5.46502 6.95811 4.65788 8.81789ZM15.1821 4.65788C17.0419 5.46502 18.535 6.95811 19.3421 8.81789C19.1273 8.70066 18.9023 8.59008 18.6686 8.48621C17.9657 8.17383 17.1634 7.91255 16.2881 7.71187C16.0875 6.83663 15.8262 6.0343 15.5138 5.33144C15.4099 5.09774 15.2993 4.87265 15.1821 4.65788ZM11.2135 4.03817C11.4722 4.01292 11.7346 4 12 4C12.2654 4 12.5278 4.01292 12.7865 4.03817C12.8693 4.09815 12.9538 4.16861 13.0399 4.25056C13.4254 4.61737 13.8066 5.18359 14.1431 5.94064C14.3399 6.38346 14.5163 6.88025 14.6675 7.42183C13.8176 7.30953 12.9222 7.25 12 7.25C11.0778 7.25 10.1824 7.30953 9.3325 7.42183C9.34195 7.38798 9.3515 7.35431 9.36114 7.32081C9.5058 6.81836 9.67243 6.35578 9.85693 5.94064C10.1934 5.18359 10.5746 4.61737 10.9601 4.25056C11.0462 4.16861 11.1307 4.09815 11.2135 4.03817ZM8.75 12C8.75 10.9339 8.83541 9.91965 8.98903 8.98903C9.10536 8.96983 9.22299 8.95169 9.34187 8.93465C10.174 8.81539 11.0672 8.75 12 8.75C13.0661 8.75 14.0803 8.83541 15.011 8.98903C15.1646 9.91965 15.25 10.9339 15.25 12C15.25 13.0661 15.1646 14.0803 15.011 15.011C14.0803 15.1646 13.0661 15.25 12 15.25C10.9339 15.25 9.91965 15.1646 8.98903 15.011C8.83541 14.0803 8.75 13.0661 8.75 12Z" fill="white"/>
</svg>
