<svg width="24" height="24" viewBox="0 0 24 24" fill="none" xmlns="http://www.w3.org/2000/svg">
<path fill-rule="evenodd" clip-rule="evenodd" d="M2.32544 21.6746C2.03849 21.3876 1.9413 21.0497 2.03387 20.661L3.14464 15.357L15.863 2.63869C16.2888 2.2129 16.8164 2 17.4458 2C18.0753 2 18.6029 2.2129 19.0287 2.63869L21.3613 4.97132C21.7871 5.39711 22 5.92473 22 6.55417C22 7.1836 21.7871 7.71122 21.3613 8.13702L8.64296 20.8554L3.33902 21.9661C2.95025 22.0587 2.61239 21.9615 2.32544 21.6746ZM4.27281 19.7272L7.64997 19.0199L16.3046 10.3653L13.6347 7.69538L4.98007 16.35L4.27281 19.7272ZM14.6954 6.63472L17.3653 9.30462L19.9471 6.7228C19.966 6.7039 19.9752 6.69126 19.9791 6.68546L19.981 6.68253C19.9834 6.67859 19.9847 6.67581 19.9857 6.67345C19.9868 6.67061 20 6.63832 20 6.55417C20 6.47002 19.9868 6.43761 19.9856 6.43477C19.9845 6.43186 19.9828 6.42844 19.9791 6.42288C19.9752 6.41707 19.966 6.40444 19.9471 6.38553L17.6145 4.05291C17.5956 4.034 17.5829 4.02477 17.5771 4.02088L17.5742 4.01899C17.5703 4.01655 17.5675 4.01528 17.5651 4.01433C17.5623 4.01318 17.53 4 17.4458 4C17.3616 4 17.3292 4.01323 17.3264 4.01437C17.3235 4.01555 17.3201 4.01715 17.3145 4.02088C17.3087 4.02477 17.2961 4.034 17.2772 4.05291L14.6954 6.63472Z" fill="white"/>
</svg>
