<svg width="24" height="24" viewBox="0 0 24 24" fill="none" xmlns="http://www.w3.org/2000/svg">
<path fill-rule="evenodd" clip-rule="evenodd" d="M11.9288 4C11.9288 3.44772 12.3765 3 12.9288 3H19.9999C20.5521 3 20.9999 3.44772 20.9999 4V11.0711C20.9999 11.6234 20.5521 12.0711 19.9999 12.0711C19.4476 12.0711 18.9999 11.6234 18.9999 11.0711V6.41424L8.70711 16.7071C8.70508 16.7091 8.70304 16.7112 8.701 16.7132L6.41419 19H11.0711C11.6234 19 12.0711 19.4477 12.0711 20C12.0711 20.5523 11.6234 21 11.0711 21H4C3.44772 21 3 20.5523 3 20V12.9289C3 12.3767 3.44772 11.9289 4 11.9289C4.55228 11.9289 5 12.3767 5 12.9289V17.5858L15.2928 7.2929C15.2948 7.29086 15.2968 7.28883 15.2989 7.28681L17.5857 5H12.9288C12.3765 5 11.9288 4.55228 11.9288 4Z" fill="white"/>
</svg>
