<svg width="24" height="24" viewBox="0 0 24 24" fill="none" xmlns="http://www.w3.org/2000/svg">
<path d="M21.8727 7.80775L20.8812 4.12403C20.7803 3.75821 20.6045 3.41532 20.3642 3.11527C20.124 2.81521 19.8239 2.56401 19.4817 2.37624C19.1394 2.18848 18.7617 2.06791 18.3705 2.02152C17.9792 1.97515 17.5822 2.00389 17.2027 2.10608L15.289 2.60105C15.1624 2.63307 15.0437 2.68885 14.9397 2.76516C14.8356 2.84147 14.7484 2.93679 14.6829 3.04564C14.6175 3.1545 14.5752 3.27471 14.5584 3.39934C14.5415 3.52399 14.5507 3.65059 14.5851 3.77185L14.8429 4.72371L4.31299 7.39844C4.0595 7.46324 3.84308 7.62183 3.71114 7.83949C3.57919 8.05714 3.54248 8.31613 3.60902 8.55972L3.86681 9.51158L2.87529 9.75907C2.61233 9.79062 2.37319 9.92118 2.21048 10.122C2.04779 10.3228 1.97485 10.5774 2.00772 10.8299C2.04059 11.0824 2.17657 11.3119 2.38576 11.4681C2.59495 11.6243 2.8602 11.6944 3.12317 11.6628C3.20879 11.6727 3.29534 11.6727 3.38097 11.6628L4.37248 11.4058L4.63028 12.3576C4.6986 12.598 4.86235 12.803 5.08637 12.9287C5.23652 13.0143 5.40753 13.0603 5.58213 13.062C5.6674 13.0765 5.75464 13.0765 5.83992 13.062L9.08218 12.0816V12.4814C9.08286 12.904 9.18463 13.3209 9.37963 13.6998L4.42206 18.4591C4.23535 18.6371 4.12994 18.8789 4.12901 19.1316C4.12807 19.3842 4.23171 19.6267 4.4171 19.806C4.60249 19.9852 4.85446 20.0865 5.11757 20.0873C5.38068 20.0882 5.63338 19.9887 5.82009 19.8107L10.7777 15.0514L11.0553 15.1561V21.0481C11.0553 21.3006 11.1598 21.5427 11.3457 21.7212C11.5316 21.8998 11.7838 22 12.0468 22C12.3097 22 12.562 21.8998 12.7479 21.7212C12.9339 21.5427 13.0383 21.3006 13.0383 21.0481V15.1656C13.1366 15.1334 13.2325 15.0952 13.3259 15.0514L18.2834 19.8107C18.4701 19.9887 18.7229 20.0882 18.9859 20.0873C19.2491 20.0865 19.501 19.9852 19.6864 19.806C19.8718 19.6267 19.9754 19.3842 19.9746 19.1316C19.9736 18.8789 19.8682 18.6371 19.6815 18.4591L14.7239 13.6998C14.9163 13.3196 15.0212 12.904 15.0313 12.4814V10.5776L16.3698 10.235L16.6177 11.1868C16.6758 11.3945 16.8054 11.5772 16.9854 11.7051C17.1655 11.833 17.3853 11.8986 17.6092 11.8912H17.867L19.7806 11.3962C20.1674 11.2988 20.5297 11.1275 20.846 10.8925C21.1622 10.6576 21.4258 10.3639 21.6212 10.0289C21.8164 9.6939 21.9393 9.32455 21.9826 8.94292C22.0258 8.56128 21.9884 8.1752 21.8727 7.80775ZM13.0482 12.4814C13.0472 12.7265 12.9478 12.9618 12.7706 13.1382C12.5868 13.3083 12.3418 13.4037 12.0865 13.4047C11.8264 13.4036 11.5771 13.3045 11.3924 13.1286C11.2093 12.9514 11.1059 12.7121 11.1049 12.4623V11.5105L13.0482 11.0536V12.4814ZM6.29602 10.8251L5.78043 8.98806L15.3585 6.52273L15.6163 7.47459L15.874 8.42646L6.29602 10.8251ZM19.8599 9.01661C19.7949 9.12586 19.708 9.22164 19.6042 9.29843C19.5004 9.37523 19.3817 9.43149 19.2551 9.46399L18.2636 9.71147L17.4902 6.95107L17.0143 5.11397L16.7565 4.16211L17.748 3.91463C17.8743 3.88158 18.0062 3.87286 18.136 3.88899C18.2659 3.90512 18.3911 3.94577 18.5044 4.0086C18.6179 4.07143 18.7171 4.1552 18.7966 4.25506C18.8762 4.35493 18.9343 4.46891 18.9676 4.59045L19.9591 8.27416C19.9957 8.39793 20.0058 8.52753 19.9887 8.65514C19.9717 8.78275 19.9279 8.90572 19.8599 9.01661Z" fill="white"/>
</svg>
