<svg width="24" height="24" viewBox="0 0 24 24" fill="none" xmlns="http://www.w3.org/2000/svg">
<path d="M6 7C6 6.44772 6.44772 6 7 6H8C8.55228 6 9 6.44772 9 7C9 7.55228 8.55228 8 8 8H7C6.44772 8 6 7.55228 6 7Z" fill="white"/>
<path fill-rule="evenodd" clip-rule="evenodd" d="M17.7071 2.29289C17.3166 1.90237 16.6834 1.90237 16.2929 2.29289C15.9024 2.68342 15.9024 3.31658 16.2929 3.70711L18.1293 5.54354C17.7419 5.90829 17.5 6.4259 17.5 7C17.5 8.10457 18.3954 9 19.5 9C19.6726 9 19.8402 8.97812 20 8.93699V18.5C20 19.3284 19.3284 20 18.5 20C17.6716 20 17 19.3284 17 18.5V15.9C17 13.481 15.2822 11.4633 13 11V4C13 2.89543 12.1046 2 11 2H4C2.89543 2 2 2.89543 2 4V20C2 21.1046 2.89543 22 4 22H11C12.1046 22 13 21.1046 13 20V13.0707C14.1652 13.4825 15 14.5938 15 15.9V18.5C15 20.433 16.567 22 18.5 22C20.433 22 22 20.433 22 18.5V7.00098L21.9999 6.98939C21.9986 6.8626 21.9733 6.73603 21.924 6.61703L21.5 6.12527L21.2304 5.81615L17.7071 2.29289ZM4 4H11V20H4V4Z" fill="white"/>
</svg>
