<svg width="18" height="18" viewBox="0 0 18 18" fill="none" xmlns="http://www.w3.org/2000/svg">
<path fill-rule="evenodd" clip-rule="evenodd" d="M12.9742 11.1603C12.9421 10.9834 12.9638 10.8009 13.0364 10.6364C13.1055 10.475 13.2203 10.3374 13.3667 10.2405C13.513 10.1436 13.6845 10.0916 13.86 10.0909H13.9091C14.1984 10.0909 14.4759 9.97597 14.6805 9.77139C14.8851 9.5668 15 9.28933 15 9C15 8.71067 14.8851 8.4332 14.6805 8.22861C14.4759 8.02403 14.1984 7.90909 13.9091 7.90909H13.8164C13.6408 7.90839 13.4694 7.85638 13.323 7.75947C13.1767 7.66255 13.0619 7.52497 12.9927 7.36364V7.32C12.9201 7.15548 12.8985 6.97299 12.9305 6.79604C12.9626 6.6191 13.047 6.45583 13.1727 6.32727L13.2055 6.29455C13.3069 6.19323 13.3873 6.07291 13.4422 5.94048C13.4971 5.80805 13.5254 5.66609 13.5254 5.52273C13.5254 5.37936 13.4971 5.23741 13.4422 5.10497C13.3873 4.97254 13.3069 4.85223 13.2055 4.75091C13.1041 4.64948 12.9838 4.56902 12.8514 4.51412C12.719 4.45922 12.577 4.43096 12.4336 4.43096C12.2903 4.43096 12.1483 4.45922 12.0159 4.51412C11.8834 4.56902 11.7631 4.64948 11.6618 4.75091L11.6291 4.78364C11.5005 4.90938 11.3373 4.99374 11.1603 5.02582C10.9834 5.0579 10.8009 5.03624 10.6364 4.96364C10.475 4.89449 10.3374 4.77969 10.2405 4.63334C10.1436 4.487 10.0916 4.31552 10.0909 4.14V4.09091C10.0909 3.80158 9.97597 3.52411 9.77139 3.31952C9.5668 3.11493 9.28933 3 9 3C8.71067 3 8.4332 3.11493 8.22861 3.31952C8.02403 3.52411 7.90909 3.80158 7.90909 4.09091V4.18364C7.90839 4.35916 7.85638 4.53064 7.75947 4.67698C7.66255 4.82332 7.52497 4.93813 7.36364 5.00727H7.32C7.15548 5.07988 6.97299 5.10154 6.79604 5.06946C6.6191 5.03737 6.45583 4.95302 6.32727 4.82727L6.29455 4.79455C6.19323 4.69312 6.07291 4.61265 5.94048 4.55775C5.80805 4.50285 5.66609 4.4746 5.52273 4.4746C5.37936 4.4746 5.23741 4.50285 5.10497 4.55775C4.97254 4.61265 4.85223 4.69312 4.75091 4.79455C4.64948 4.89586 4.56902 5.01618 4.51412 5.14861C4.45922 5.28104 4.43096 5.423 4.43096 5.56636C4.43096 5.70973 4.45922 5.85168 4.51412 5.98412C4.56902 6.11655 4.64948 6.23687 4.75091 6.33818L4.78364 6.37091C4.90938 6.49946 4.99374 6.66274 5.02582 6.83968C5.0579 7.01662 5.03624 7.19912 4.96364 7.36364C4.9013 7.53313 4.78941 7.67995 4.64253 7.78501C4.49564 7.89006 4.32054 7.9485 4.14 7.95273H4.09091C3.80158 7.95273 3.52411 8.06766 3.31952 8.27225C3.11493 8.47683 3 8.75431 3 9.04364C3 9.33296 3.11493 9.61044 3.31952 9.81503C3.52411 10.0196 3.80158 10.1345 4.09091 10.1345H4.18364C4.35916 10.1352 4.53064 10.1873 4.67698 10.2842C4.82332 10.3811 4.93813 10.5187 5.00727 10.68C5.07988 10.8445 5.10154 11.027 5.06946 11.204C5.03737 11.3809 4.95302 11.5442 4.82727 11.6727L4.79455 11.7055C4.69312 11.8068 4.61265 11.9271 4.55775 12.0595C4.50285 12.192 4.4746 12.3339 4.4746 12.4773C4.4746 12.6206 4.50285 12.7626 4.55775 12.895C4.61265 13.0275 4.69312 13.1478 4.79455 13.2491C4.89586 13.3505 5.01618 13.431 5.14861 13.4859C5.28104 13.5408 5.423 13.569 5.56636 13.569C5.70973 13.569 5.85168 13.5408 5.98412 13.4859C6.11655 13.431 6.23687 13.3505 6.33818 13.2491L6.37091 13.2164C6.49946 13.0906 6.66274 13.0063 6.83968 12.9742C7.01662 12.9421 7.19912 12.9638 7.36364 13.0364C7.53313 13.0987 7.67995 13.2106 7.78501 13.3575C7.89006 13.5044 7.9485 13.6795 7.95273 13.86V13.9091C7.95273 14.1984 8.06766 14.4759 8.27225 14.6805C8.47683 14.8851 8.75431 15 9.04364 15C9.33296 15 9.61044 14.8851 9.81503 14.6805C10.0196 14.4759 10.1345 14.1984 10.1345 13.9091V13.8164C10.1352 13.6408 10.1873 13.4694 10.2842 13.323C10.3811 13.1767 10.5187 13.0619 10.68 12.9927C10.8445 12.9201 11.027 12.8985 11.204 12.9305C11.3809 12.9626 11.5442 13.047 11.6727 13.1727L11.7055 13.2055C11.8068 13.3069 11.9271 13.3873 12.0595 13.4422C12.192 13.4971 12.3339 13.5254 12.4773 13.5254C12.6206 13.5254 12.7626 13.4971 12.895 13.4422C13.0275 13.3873 13.1478 13.3069 13.2491 13.2055C13.3505 13.1041 13.431 12.9838 13.4859 12.8514C13.5408 12.719 13.569 12.577 13.569 12.4336C13.569 12.2903 13.5408 12.1483 13.4859 12.0159C13.431 11.8834 13.3505 11.7631 13.2491 11.6618L13.2164 11.6291C13.0906 11.5005 13.0063 11.3373 12.9742 11.1603ZM10.6364 9.00001C10.6364 9.90375 9.90375 10.6364 9.00001 10.6364C8.09627 10.6364 7.36365 9.90375 7.36365 9.00001C7.36365 8.09627 8.09627 7.36365 9.00001 7.36365C9.90375 7.36365 10.6364 8.09627 10.6364 9.00001Z" fill="currentcolor"/>
</svg>
