<svg width="20" height="21" viewBox="0 0 20 20" fill="none" xmlns="http://www.w3.org/2000/svg">
<path fill-rule="evenodd" clip-rule="evenodd" d="M12.603 7.94049C11.9328 7.29591 11.0857 6.96549 10.1368 6.96549C8.45868 6.96549 7.03793 8.10841 6.5286 9.65216L6.52854 9.65212V9.65219C6.39987 10.0422 6.32481 10.4593 6.32481 10.8926C6.32481 11.3259 6.3945 11.743 6.52853 12.133H6.5286C7.03793 13.6767 8.45868 14.8196 10.1368 14.8196C11.0053 14.8196 11.7398 14.5813 12.3188 14.1913L12.3189 14.1914C12.9944 13.7309 13.4501 13.0539 13.6056 12.2522H10.1368V9.80928H16.1951C16.2594 10.2047 16.297 10.6109 16.297 11.0389C16.297 13.0159 15.6 14.6843 14.3883 15.8164H14.3882C13.3267 16.8076 11.8738 17.3926 10.1368 17.3926C7.62231 17.3926 5.45097 15.9301 4.39479 13.8067L4.39474 13.8068C3.95511 12.9293 3.70312 11.9434 3.70312 10.8926C3.70312 9.84177 3.95511 8.85594 4.39474 7.97844H4.39483L4.39479 7.97841C5.45097 5.85508 7.62231 4.39258 10.1368 4.39258C11.8738 4.39258 13.3268 5.03716 14.4366 6.08799L12.603 7.94049Z" fill="black"/>
</svg>
