<svg width="24" height="24" viewBox="0 0 24 24" fill="none" xmlns="http://www.w3.org/2000/svg">
<path d="M11.7559 10.1819V14.0546H17.0064C16.7758 15.3 16.084 16.3546 15.0462 17.0637L18.2125 19.5819C20.0573 17.8365 21.1217 15.2729 21.1217 12.2275C21.1217 11.5184 21.0596 10.8365 20.9442 10.182L11.7559 10.1819Z" fill="white"/>
<path d="M6.2884 13.9033L5.57426 14.4636L3.04651 16.4818C4.65183 19.7454 7.94204 22 11.7557 22C14.3898 22 16.5982 21.109 18.2124 19.5818L15.0462 17.0636C14.177 17.6636 13.0683 18.0273 11.7557 18.0273C9.21917 18.0273 7.06403 16.2728 6.29238 13.9091L6.2884 13.9033Z" fill="white"/>
<path d="M3.04648 7.51819C2.38133 8.86358 2 10.3818 2 11.9999C2 13.6181 2.38133 15.1363 3.04648 16.4817C3.04648 16.4907 6.29263 13.8998 6.29263 13.8998C6.09754 13.2999 5.98218 12.6635 5.98218 11.9998C5.98218 11.3361 6.09754 10.6998 6.29263 10.0998L3.04648 7.51819Z" fill="white"/>
<path d="M11.756 5.9818C13.1928 5.9818 14.4699 6.49088 15.4898 7.47268L18.2836 4.60912C16.5896 2.99097 14.3901 2 11.756 2C7.94221 2 4.65183 4.24545 3.04651 7.51818L6.29255 10.1C7.06414 7.73635 9.2194 5.9818 11.756 5.9818Z" fill="white"/>
</svg>
