<svg width="20" height="20" viewBox="0 0 20 20" fill="none" xmlns="http://www.w3.org/2000/svg">
<path d="M3 4.6C3 3.71634 3.71634 3 4.6 3H7C7.88366 3 8.6 3.71634 8.6 4.6V7C8.6 7.88366 7.88366 8.6 7 8.6H4.6C3.71634 8.6 3 7.88366 3 7V4.6Z" fill="white"/>
<path d="M3 12.9999C3 12.1162 3.71634 11.3999 4.6 11.3999H7C7.88366 11.3999 8.6 12.1162 8.6 12.9999V15.3999C8.6 16.2836 7.88366 16.9999 7 16.9999H4.6C3.71634 16.9999 3 16.2836 3 15.3999V12.9999Z" fill="white"/>
<path d="M11.3999 4.6C11.3999 3.71634 12.1162 3 12.9999 3H15.3999C16.2836 3 16.9999 3.71634 16.9999 4.6V7C16.9999 7.88366 16.2836 8.6 15.3999 8.6H12.9999C12.1162 8.6 11.3999 7.88366 11.3999 7V4.6Z" fill="white"/>
<path d="M11.3999 12.9999C11.3999 12.1162 12.1162 11.3999 12.9999 11.3999H15.3999C16.2836 11.3999 16.9999 12.1162 16.9999 12.9999V15.3999C16.9999 16.2836 16.2836 16.9999 15.3999 16.9999H12.9999C12.1162 16.9999 11.3999 16.2836 11.3999 15.3999V12.9999Z" fill="white"/>
</svg>
