<svg width="20" height="20" viewBox="0 0 20 20" fill="none" xmlns="http://www.w3.org/2000/svg">
<path fill-rule="evenodd" clip-rule="evenodd" d="M16.9183 10C16.9183 13.5899 14.0082 16.5 10.4183 16.5C6.82848 16.5 3.91833 13.5899 3.91833 10C3.91833 6.41015 6.82848 3.5 10.4183 3.5C14.0082 3.5 16.9183 6.41015 16.9183 10ZM18.4183 10C18.4183 14.4183 14.8366 18 10.4183 18C6.00006 18 2.41833 14.4183 2.41833 10C2.41833 5.58172 6.00006 2 10.4183 2C14.8366 2 18.4183 5.58172 18.4183 10ZM9.41833 11.4688V11.6016H10.8988V11.4688C10.9014 11.2135 10.934 10.9987 10.9965 10.8242C11.0616 10.6497 11.1592 10.4961 11.2894 10.3633C11.4222 10.2305 11.5915 10.1029 11.7972 9.98047C12.042 9.83464 12.2543 9.67188 12.434 9.49219C12.6136 9.3099 12.753 9.10156 12.8519 8.86719C12.9535 8.63021 13.0043 8.35938 13.0043 8.05469C13.0043 7.59896 12.891 7.20964 12.6644 6.88672C12.4379 6.5638 12.1254 6.31771 11.7269 6.14844C11.3285 5.97656 10.8702 5.89062 10.3519 5.89062C9.88057 5.89062 9.44958 5.97526 9.05896 6.14453C8.66833 6.3112 8.35453 6.5651 8.11755 6.90625C7.88057 7.24479 7.75557 7.67448 7.74255 8.19531H9.3363C9.34412 7.98177 9.3962 7.80339 9.49255 7.66016C9.58891 7.51432 9.71261 7.40495 9.86365 7.33203C10.0147 7.25651 10.1748 7.21875 10.3441 7.21875C10.5186 7.21875 10.6774 7.25521 10.8207 7.32812C10.9665 7.40104 11.0824 7.50521 11.1683 7.64062C11.2543 7.77604 11.2972 7.93359 11.2972 8.11328C11.2972 8.28255 11.2595 8.4362 11.184 8.57422C11.1084 8.70964 11.0069 8.83333 10.8793 8.94531C10.7517 9.05729 10.6071 9.16536 10.4457 9.26953C10.2295 9.40495 10.0446 9.55599 9.89099 9.72266C9.73735 9.88932 9.62016 10.1081 9.53943 10.3789C9.4613 10.6497 9.42094 11.013 9.41833 11.4688ZM9.5238 13.8281C9.7087 14.0104 9.93136 14.1016 10.1918 14.1016C10.3584 14.1016 10.5121 14.0599 10.6527 13.9766C10.7933 13.8906 10.9066 13.7773 10.9926 13.6367C11.0811 13.4935 11.1267 13.3359 11.1293 13.1641C11.1267 12.9089 11.0316 12.6901 10.8441 12.5078C10.6566 12.3255 10.4392 12.2344 10.1918 12.2344C9.93136 12.2344 9.7087 12.3255 9.5238 12.5078C9.34151 12.6901 9.25167 12.9089 9.25427 13.1641C9.25167 13.4219 9.34151 13.6432 9.5238 13.8281Z" fill="black"/>
</svg>
