<svg width="24" height="24" viewBox="0 0 24 24" fill="none" xmlns="http://www.w3.org/2000/svg">
<path fill-rule="evenodd" clip-rule="evenodd" d="M3 19V10.8771C3 10.0003 3.38353 9.16745 4.04973 8.59748L10.5495 3.03671C11.6726 2.07584 13.3282 2.07618 14.4509 3.03749L20.9512 8.60323C21.6168 9.17319 22 10.0057 22 10.882V19C22 20.6569 20.6569 22 19 22H6C4.34314 22 3 20.6569 3 19ZM5 19C5 19.5523 5.44772 20 6 20H19C19.5523 20 20 19.5523 20 19V10.882C20 10.5899 19.8723 10.3124 19.6504 10.1224L13.1501 4.55669C12.7759 4.23625 12.224 4.23614 11.8496 4.55643L5.34991 10.1172C5.12784 10.3072 5 10.5848 5 10.8771V19Z" fill="white"/>
<path d="M11 15C11 14.4477 11.4477 14 12 14H13C13.5523 14 14 14.4477 14 15V21C14 21.5523 13.5523 22 13 22H12C11.4477 22 11 21.5523 11 21V15Z" fill="white"/>
</svg>
