<svg width="20" height="20" viewBox="0 0 20 20" fill="none" xmlns="http://www.w3.org/2000/svg">
<path d="M6.54868 1.72495C5.66202 1.76678 5.05652 1.90828 4.52718 2.11628C3.97935 2.32978 3.51502 2.61628 3.05302 3.07995C2.59102 3.54362 2.30652 4.00828 2.09452 4.55695C1.88935 5.08745 1.75035 5.69345 1.71118 6.58062C1.67202 7.46778 1.66335 7.75295 1.66768 10.0159C1.67202 12.2789 1.68202 12.5626 1.72502 13.4516C1.76735 14.3381 1.90835 14.9434 2.11635 15.4729C2.33018 16.0207 2.61635 16.4849 3.08018 16.9471C3.54402 17.4092 4.00835 17.6931 4.55835 17.9054C5.08835 18.1103 5.69452 18.2499 6.58152 18.2888C7.46852 18.3276 7.75402 18.3366 10.0163 18.3322C12.2787 18.3279 12.5635 18.3179 13.4523 18.2757C14.3412 18.2336 14.9433 18.0916 15.473 17.8846C16.0208 17.6702 16.4853 17.3846 16.9472 16.9206C17.409 16.4566 17.6933 15.9916 17.9052 15.4426C18.1105 14.9126 18.25 14.3064 18.2885 13.4201C18.3273 12.5306 18.3365 12.2466 18.3322 9.98392C18.3278 7.72128 18.3177 7.43762 18.2755 6.54895C18.2333 5.66028 18.0922 5.05678 17.8843 4.52695C17.6702 3.97912 17.3843 3.51528 16.9207 3.05278C16.457 2.59028 15.9917 2.30612 15.4428 2.09478C14.9125 1.88962 14.3067 1.74978 13.4197 1.71145C12.5327 1.67312 12.2472 1.66328 9.984 1.66762C7.72085 1.67195 7.43752 1.68162 6.54868 1.72495ZM6.64602 16.7896C5.83352 16.7542 5.39235 16.6193 5.09835 16.5063C4.70902 16.3563 4.43168 16.1749 4.13868 15.8848C3.84568 15.5946 3.66568 15.3162 3.51368 14.9277C3.39952 14.6337 3.26202 14.1931 3.22402 13.3806C3.18268 12.5024 3.17402 12.2387 3.16918 10.0139C3.16435 7.78912 3.17285 7.52578 3.21135 6.64728C3.24602 5.83545 3.38185 5.39378 3.49468 5.09995C3.64468 4.71012 3.82535 4.43328 4.11618 4.14045C4.40702 3.84762 4.68452 3.66728 5.07335 3.51528C5.36702 3.40062 5.80768 3.26428 6.61985 3.22562C7.49868 3.18395 7.76202 3.17562 9.9865 3.17078C12.211 3.16595 12.475 3.17428 13.3542 3.21295C14.166 3.24828 14.6078 3.38278 14.9013 3.49628C15.2908 3.64628 15.568 3.82645 15.8608 4.11778C16.1537 4.40912 16.3342 4.68562 16.4862 5.07528C16.601 5.36812 16.7373 5.80862 16.7757 6.62128C16.8175 7.50012 16.827 7.76362 16.831 9.98792C16.835 12.2122 16.8272 12.4764 16.7887 13.3546C16.7532 14.1671 16.6185 14.6084 16.5053 14.9027C16.3553 15.2919 16.1745 15.5694 15.8835 15.8621C15.5925 16.1547 15.3153 16.3351 14.9263 16.4871C14.633 16.6016 14.1918 16.7382 13.3803 16.7769C12.5015 16.8182 12.2382 16.8269 10.0128 16.8317C7.78752 16.8366 7.52485 16.8276 6.64602 16.7896ZM13.4395 5.54612C13.4398 5.74391 13.4988 5.93717 13.609 6.10144C13.7192 6.26571 13.8756 6.39362 14.0584 6.46899C14.2413 6.54437 14.4424 6.56382 14.6363 6.52488C14.8302 6.48594 15.0083 6.39037 15.1479 6.25026C15.2875 6.11013 15.3824 5.93177 15.4207 5.7377C15.4589 5.54363 15.4387 5.34258 15.3627 5.15999C15.2866 4.9774 15.1582 4.82146 14.9934 4.71189C14.8287 4.60232 14.6353 4.54405 14.4375 4.54445C14.1723 4.54498 13.9183 4.6508 13.7311 4.83863C13.5439 5.02647 13.4391 5.28096 13.4395 5.54612ZM5.72118 10.0082C5.72585 12.3716 7.64518 14.2831 10.008 14.2786C12.3708 14.2741 14.2837 12.3549 14.2792 9.99158C14.2747 7.62828 12.3548 5.71628 9.99167 5.72095C7.62852 5.72562 5.71668 7.64528 5.72118 10.0082ZM7.22218 10.0052C7.22109 9.45592 7.38295 8.9185 7.68727 8.46108C7.9916 8.00367 8.42475 7.64677 8.93192 7.43552C9.43908 7.22426 9.9975 7.16814 10.5366 7.27426C11.0756 7.38037 11.5711 7.64396 11.9603 8.03168C12.3496 8.41942 12.6152 8.91383 12.7234 9.4525C12.8317 9.99108 12.7777 10.5497 12.5685 11.0577C12.3592 11.5657 12.0041 12.0002 11.5478 12.3064C11.0917 12.6126 10.5549 12.7765 10.0055 12.7776C9.64075 12.7784 9.27933 12.7072 8.942 12.5683C8.60467 12.4294 8.29804 12.2254 8.03957 11.968C7.78112 11.7106 7.57589 11.4047 7.43564 11.0679C7.29539 10.7312 7.22286 10.3701 7.22218 10.0052Z" fill="black"/>
</svg>
