<svg width="24" height="24" viewBox="0 0 24 24" fill="none" xmlns="http://www.w3.org/2000/svg">
<path fill-rule="evenodd" clip-rule="evenodd" d="M21 2C20.4477 2 20 2.44772 20 3V10.8125C20 12.4694 18.6569 13.8125 17 13.8125H5.41421L9.89461 9.33211C10.2851 8.94158 10.2851 8.30842 9.89461 7.91789C9.50408 7.52737 8.87092 7.52737 8.48039 7.91789L2.29289 14.1054C1.90237 14.4959 1.90237 15.1291 2.29289 15.5196L8.48039 21.7071C8.87092 22.0976 9.50408 22.0976 9.89461 21.7071C10.2851 21.3166 10.2851 20.6834 9.89461 20.2929L5.41421 15.8125H17C19.7614 15.8125 22 13.5739 22 10.8125V3C22 2.44772 21.5523 2 21 2Z" fill="white"/>
</svg>
