<svg width="24" height="24" viewBox="0 0 24 24" fill="none" xmlns="http://www.w3.org/2000/svg">
<path fill-rule="evenodd" clip-rule="evenodd" d="M22 4C22 2.89543 21.1046 2 20 2H4C2.89543 2 2 2.89543 2 4V20C2 21.1046 2.89543 22 4 22H20C21.1046 22 22 21.1046 22 20V4ZM20 5C20 4.44772 19.5523 4 19 4H5C4.44772 4 4 4.44772 4 5V19C4 19.5523 4.44772 20 5 20H19C19.5523 20 20 19.5523 20 19V5Z" fill="white"/>
<path fill-rule="evenodd" clip-rule="evenodd" d="M8 8V10H16V8H8ZM20 2C21.1046 2 22 2.89543 22 4V20C22 21.1046 21.1046 22 20 22H4C2.89543 22 2 21.1046 2 20V4C2 2.89543 2.89543 2 4 2H20ZM19 4C19.5523 4 20 4.44772 20 5V19C20 19.5523 19.5523 20 19 20H5C4.44772 20 4 19.5523 4 19V5C4 4.44772 4.44772 4 5 4H19ZM7 6C6.44772 6 6 6.44772 6 7V11C6 11.5523 6.44772 12 7 12H17C17.5523 12 18 11.5523 18 11V7C18 6.44772 17.5523 6 17 6H7Z" fill="white"/>
</svg>
