<svg width="24" height="24" viewBox="0 0 24 24" fill="none" xmlns="http://www.w3.org/2000/svg">
<path fill-rule="evenodd" clip-rule="evenodd" d="M11.9998 14C13.1044 14 13.9998 13.1046 13.9998 12C13.9998 10.8954 13.1044 10 11.9998 10C10.8952 10 9.99981 10.8954 9.99981 12C9.99981 13.1046 10.8952 14 11.9998 14ZM11.9998 16C14.2089 16 15.9998 14.2091 15.9998 12C15.9998 9.79086 14.2089 8 11.9998 8C9.79067 8 7.99981 9.79086 7.99981 12C7.99981 14.2091 9.79067 16 11.9998 16Z" fill="white"/>
<path fill-rule="evenodd" clip-rule="evenodd" d="M11.9998 2C12.5521 2 12.9998 2.44772 12.9998 3V5C12.9998 5.55228 12.5521 6 11.9998 6C11.4475 6 10.9998 5.55228 10.9998 5V3C10.9998 2.44772 11.4475 2 11.9998 2Z" fill="white"/>
<path fill-rule="evenodd" clip-rule="evenodd" d="M11.9998 18C12.5521 18 12.9998 18.4477 12.9998 19V21C12.9998 21.5523 12.5521 22 11.9998 22C11.4475 22 10.9998 21.5523 10.9998 21V19C10.9998 18.4477 11.4475 18 11.9998 18Z" fill="white"/>
<path fill-rule="evenodd" clip-rule="evenodd" d="M4.92874 4.92893C5.31926 4.53841 5.95243 4.53841 6.34295 4.92893L7.75717 6.34315C8.14769 6.73367 8.14769 7.36683 7.75717 7.75736C7.36664 8.14788 6.73348 8.14788 6.34295 7.75736L4.92874 6.34315C4.53822 5.95262 4.53822 5.31946 4.92874 4.92893Z" fill="white"/>
<path fill-rule="evenodd" clip-rule="evenodd" d="M16.2424 16.2426C16.633 15.8521 17.2661 15.8521 17.6567 16.2426L19.0709 17.6569C19.4614 18.0474 19.4614 18.6805 19.0709 19.0711C18.6804 19.4616 18.0472 19.4616 17.6567 19.0711L16.2424 17.6569C15.8519 17.2663 15.8519 16.6332 16.2424 16.2426Z" fill="white"/>
<path fill-rule="evenodd" clip-rule="evenodd" d="M2 11.9999C2 11.4477 2.44772 10.9999 3 10.9999H5C5.55228 10.9999 6 11.4477 6 11.9999C6 12.5522 5.55228 12.9999 5 12.9999H3C2.44772 12.9999 2 12.5522 2 11.9999Z" fill="white"/>
<path fill-rule="evenodd" clip-rule="evenodd" d="M18 11.9999C18 11.4477 18.4477 10.9999 19 10.9999H21C21.5523 10.9999 22 11.4477 22 11.9999C22 12.5522 21.5523 12.9999 21 12.9999H19C18.4477 12.9999 18 12.5522 18 11.9999Z" fill="white"/>
<path fill-rule="evenodd" clip-rule="evenodd" d="M4.92874 19.0711C4.53822 18.6805 4.53822 18.0474 4.92874 17.6569L6.34295 16.2426C6.73348 15.8521 7.36664 15.8521 7.75717 16.2426C8.14769 16.6332 8.14769 17.2663 7.75717 17.6569L6.34295 19.0711C5.95243 19.4616 5.31926 19.4616 4.92874 19.0711Z" fill="white"/>
<path fill-rule="evenodd" clip-rule="evenodd" d="M16.2424 7.75736C15.8519 7.36683 15.8519 6.73367 16.2424 6.34314L17.6567 4.92893C18.0472 4.53841 18.6804 4.53841 19.0709 4.92893C19.4614 5.31946 19.4614 5.95262 19.0709 6.34314L17.6567 7.75736C17.2661 8.14788 16.633 8.14788 16.2424 7.75736Z" fill="white"/>
</svg>
