<svg width="24" height="24" viewBox="0 0 24 24" fill="none" xmlns="http://www.w3.org/2000/svg">
<path fill-rule="evenodd" clip-rule="evenodd" d="M6.5 8.85506C7.94574 8.42479 9 7.08551 9 5.5C9 3.567 7.433 2 5.5 2C3.567 2 2 3.567 2 5.5C2 7.08551 3.05426 8.42479 4.5 8.85506V14.8783C4.5 17.9097 8.48322 19.0284 10.0614 16.4402L15.1462 8.10105C15.6723 7.23831 17 7.6112 17 8.62165V11.3823C17 11.9346 17.4477 12.3823 18 12.3823C18.5523 12.3823 19 11.9346 19 11.3823V8.62165C19 5.59023 15.0168 4.47164 13.4386 7.05984L8.3538 15.399C7.82774 16.2617 6.5 15.8888 6.5 14.8783V8.85506ZM7 5.5C7 6.32843 6.32843 7 5.5 7C4.67157 7 4 6.32843 4 5.5C4 4.67157 4.67157 4 5.5 4C6.32843 4 7 4.67157 7 5.5Z" fill="white"/>
<path d="M19 15C19 14.4477 18.5523 14 18 14C17.4477 14 17 14.4477 17 15V17H15C14.4477 17 14 17.4477 14 18C14 18.5523 14.4477 19 15 19H17V21C17 21.5523 17.4477 22 18 22C18.5523 22 19 21.5523 19 21V19H21C21.5523 19 22 18.5523 22 18C22 17.4477 21.5523 17 21 17H19V15Z" fill="white"/>
</svg>
