<svg width="24" height="24" viewBox="0 0 24 24" fill="none" xmlns="http://www.w3.org/2000/svg">
<path fill-rule="evenodd" clip-rule="evenodd" d="M15.6237 8.37625C16.0122 8.76475 16.0122 9.39463 15.6237 9.78313L9.36601 16.0408C8.97751 16.4293 8.34763 16.4293 7.95913 16.0408C7.57064 15.6523 7.57064 15.0224 7.95913 14.6339L14.2168 8.37625C14.6053 7.98776 15.2352 7.98776 15.6237 8.37625Z" fill="white"/>
<path d="M15.0512 17.5542C14.6627 17.1657 14.0328 17.1657 13.6443 17.5542L12.679 18.5195C10.6912 20.5073 7.46831 20.5073 5.48049 18.5195C3.49267 16.5317 3.49267 13.3088 5.48049 11.321L6.44577 10.3557C6.83427 9.9672 6.83427 9.33732 6.44577 8.94882C6.05728 8.56032 5.4274 8.56032 5.0389 8.94882L4.07361 9.91411C1.3088 12.6789 1.3088 17.1616 4.07361 19.9264C6.83843 22.6912 11.3211 22.6912 14.0859 19.9264L15.0512 18.9611C15.4397 18.5726 15.4397 17.9427 15.0512 17.5542Z" fill="white"/>
<path d="M18.3886 12.8099C18.0001 13.1984 18.0001 13.8283 18.3886 14.2168C18.7771 14.6053 19.407 14.6053 19.7955 14.2168L19.9264 14.0859C22.6912 11.3211 22.6912 6.83843 19.9264 4.07361C17.1616 1.3088 12.6789 1.30879 9.91411 4.07361L9.7832 4.20452C9.3947 4.59302 9.3947 5.2229 9.7832 5.6114C10.1717 5.99989 10.8016 5.99989 11.1901 5.6114L11.321 5.48049C13.3088 3.49267 16.5317 3.49267 18.5195 5.48049C20.5073 7.46831 20.5073 10.6912 18.5195 12.679L18.3886 12.8099Z" fill="white"/>
</svg>
