<svg width="24" height="24" viewBox="0 0 24 24" fill="none" xmlns="http://www.w3.org/2000/svg">
<path fill-rule="evenodd" clip-rule="evenodd" d="M9 5.5C9 7.08551 7.94574 8.42479 6.5 8.85506V14.8783C6.5 15.8888 7.82774 16.2617 8.3538 15.399L13.9386 7.05984C15.5168 4.47164 19.5 5.59023 19.5 8.62165V15.1449C20.9457 15.5752 22 16.9145 22 18.5C22 20.433 20.433 22 18.5 22C16.567 22 15 20.433 15 18.5C15 16.9145 16.0543 15.5752 17.5 15.1449V8.62165C17.5 7.6112 16.1723 7.23831 15.6462 8.10105L10.0614 16.4402C8.48322 19.0284 4.5 17.9097 4.5 14.8783V8.85506C3.05426 8.42479 2 7.08551 2 5.5C2 3.567 3.567 2 5.5 2C7.433 2 9 3.567 9 5.5ZM5.5 7C6.32843 7 7 6.32843 7 5.5C7 4.67157 6.32843 4 5.5 4C4.67157 4 4 4.67157 4 5.5C4 6.32843 4.67157 7 5.5 7ZM18.5 17C17.6716 17 17 17.6716 17 18.5C17 19.3284 17.6716 20 18.5 20C19.3284 20 20 19.3284 20 18.5C20 17.6716 19.3284 17 18.5 17Z" fill="white"/>
</svg>
