<svg width="24" height="24" viewBox="0 0 24 24" fill="none" xmlns="http://www.w3.org/2000/svg">
<path fill-rule="evenodd" clip-rule="evenodd" d="M9 5C9 4.44772 8.55228 4 8 4H5C4.44772 4 4 4.44772 4 5L4 8C4 8.55228 4.44772 9 5 9H8C8.55228 9 9 8.55228 9 8V5ZM4 2C2.89543 2 2 2.89543 2 4V9C2 10.1046 2.89543 11 4 11H9C10.1046 11 11 10.1046 11 9V4C11 2.89543 10.1046 2 9 2H4Z" fill="white"/>
<path d="M13 8.5C13 7.94772 13.4477 7.5 14 7.5H21C21.5523 7.5 22 7.94772 22 8.5C22 9.05228 21.5523 9.5 21 9.5H14C13.4477 9.5 13 9.05228 13 8.5Z" fill="white"/>
<path d="M13 4.5C13 3.94772 13.4477 3.5 14 3.5H21C21.5523 3.5 22 3.94772 22 4.5C22 5.05228 21.5523 5.5 21 5.5H14C13.4477 5.5 13 5.05228 13 4.5Z" fill="white"/>
<path fill-rule="evenodd" clip-rule="evenodd" d="M9 16C9 15.4477 8.55228 15 8 15H5C4.44772 15 4 15.4477 4 16L4 19C4 19.5523 4.44772 20 5 20H8C8.55228 20 9 19.5523 9 19V16ZM4 13C2.89543 13 2 13.8954 2 15V20C2 21.1046 2.89543 22 4 22H9C10.1046 22 11 21.1046 11 20V15C11 13.8954 10.1046 13 9 13H4Z" fill="white"/>
<path d="M13 19.5C13 18.9477 13.4477 18.5 14 18.5H21C21.5523 18.5 22 18.9477 22 19.5C22 20.0523 21.5523 20.5 21 20.5H14C13.4477 20.5 13 20.0523 13 19.5Z" fill="white"/>
<path d="M13 15.5C13 14.9477 13.4477 14.5 14 14.5H21C21.5523 14.5 22 14.9477 22 15.5C22 16.0523 21.5523 16.5 21 16.5H14C13.4477 16.5 13 16.0523 13 15.5Z" fill="white"/>
</svg>
