<svg width="24" height="24" viewBox="0 0 24 24" fill="none" xmlns="http://www.w3.org/2000/svg">
<path d="M13.5 15C13.5 15.5339 13.221 16.0027 12.8009 16.2685C12.8085 16.3133 12.8125 16.3593 12.8125 16.4062V17.6875C12.8125 18.1362 12.4487 18.5 12 18.5C11.5513 18.5 11.1875 18.1362 11.1875 17.6875V16.4062C11.1875 16.3593 11.1915 16.3133 11.1991 16.2685C10.779 16.0027 10.5 15.5339 10.5 15C10.5 14.1716 11.1716 13.5 12 13.5C12.8284 13.5 13.5 14.1716 13.5 15Z" fill="white"/>
<path fill-rule="evenodd" clip-rule="evenodd" d="M7 8C7 5.23858 9.23858 3 12 3C14.7614 3 17 5.23858 17 8V10C18.6569 10 20 11.3431 20 13V19C20 20.6569 18.6569 22 17 22H7C5.34315 22 4 20.6569 4 19V13C4 11.3431 5.34315 10 7 10V8ZM12 5C13.6569 5 15 6.34315 15 8V10H9V8C9 6.34315 10.3431 5 12 5ZM6 13C6 12.4477 6.44772 12 7 12H17C17.5523 12 18 12.4477 18 13V19C18 19.5523 17.5523 20 17 20H7C6.44772 20 6 19.5523 6 19V13Z" fill="white"/>
</svg>
