<svg width="24" height="24" viewBox="0 0 24 24" fill="none" xmlns="http://www.w3.org/2000/svg">
<path fill-rule="evenodd" clip-rule="evenodd" d="M4.39138 10.2598L12 17.8774L19.6086 10.2598L15.3453 5.70752H8.65464L4.39138 10.2598ZM7.4912 4.02396C7.68026 3.82208 7.9445 3.70752 8.2211 3.70752H15.7789C16.0555 3.70752 16.3197 3.82208 16.5088 4.02397L21.7295 9.59865C22.0981 9.99229 22.0882 10.6073 21.7071 10.9889L12.7075 19.9992C12.3169 20.3902 11.6831 20.3902 11.2924 19.9992L2.29284 10.9889C1.91173 10.6073 1.90183 9.99229 2.27047 9.59865L7.4912 4.02396Z" fill="white"/>
<path fill-rule="evenodd" clip-rule="evenodd" d="M7.99997 10.2076C10.5 6.70766 13.5 6.70764 16 10.2076C13.5 13.7076 10.5 13.7076 7.99997 10.2076ZM12 11.7075C12.8284 11.7075 13.5 11.0359 13.5 10.2075C13.5 9.37909 12.8284 8.70752 12 8.70752C11.1715 8.70752 10.5 9.37909 10.5 10.2075C10.5 11.0359 11.1715 11.7075 12 11.7075Z" fill="white"/>
<path fill-rule="evenodd" clip-rule="evenodd" d="M11.2924 19.9992L2.29284 10.9889C1.91173 10.6073 1.90183 9.99229 2.27047 9.59865L7.4912 4.02396C7.68026 3.82208 7.9445 3.70752 8.2211 3.70752H15.7789C16.0555 3.70752 16.3197 3.82208 16.5088 4.02397L21.7295 9.59865C22.0981 9.99229 22.0882 10.6073 21.7071 10.9889L12.7075 19.9992M12.7075 19.9992C12.3172 20.3893 11.684 20.39 11.2935 20.0002ZM11.2935 20.0002C11.2931 19.9998 11.2928 19.9995 11.2924 19.9992ZM4.39138 10.2598L8.65464 5.70752H15.3453L19.6086 10.2598L12 17.8774L4.39138 10.2598ZM15.4223 10.9443C14.3324 12.2031 13.1662 12.8326 12 12.8326C10.8338 12.8326 9.66759 12.2032 8.57767 10.9443C8.38251 10.7189 8.1898 10.4734 7.99997 10.2076C8.18979 9.94187 8.38248 9.69632 8.57762 9.47094C9.38726 8.53581 10.239 7.94801 11.1015 7.70752C11.4002 7.62426 11.7001 7.58264 12 7.58263C12.2999 7.58263 12.5998 7.62426 12.8984 7.70752C13.761 7.948 14.6127 8.53579 15.4223 9.47089C15.6175 9.69628 15.8102 9.94183 16 10.2076C15.8101 10.4733 15.6174 10.7189 15.4223 10.9443ZM13.494 10.3421C13.498 10.2978 13.5 10.2529 13.5 10.2075C13.5 10.1622 13.498 10.1173 13.494 10.073C13.426 9.30761 12.7831 8.70752 12 8.70752C11.2169 8.70752 10.5739 9.30762 10.5059 10.073C10.502 10.1173 10.5 10.1622 10.5 10.2075C10.5 10.2529 10.502 10.2978 10.5059 10.3422C10.574 11.1075 11.2169 11.7075 12 11.7075C12.783 11.7075 13.4259 11.1075 13.494 10.3421Z" fill="white"/>
</svg>
