<svg width="24" height="24" viewBox="0 0 24 24" fill="none" xmlns="http://www.w3.org/2000/svg">
<path d="M2.15997 4.12799L11.349 19.89C11.415 20.0033 11.5096 20.0973 11.6233 20.1626C11.737 20.228 11.8658 20.2624 11.997 20.2624C12.1281 20.2624 12.257 20.228 12.3707 20.1626C12.4844 20.0973 12.5789 20.0033 12.645 19.89L21.84 4.12799C21.9064 4.01423 21.9416 3.885 21.9422 3.75329C21.9428 3.62158 21.9087 3.49204 21.8433 3.3777C21.7779 3.26336 21.6836 3.16825 21.5697 3.10195C21.4559 3.03565 21.3267 3.00048 21.195 2.99999H2.80497C2.67301 2.99995 2.54337 3.03474 2.42914 3.10082C2.31492 3.16691 2.22015 3.26197 2.15442 3.3764C2.08868 3.49083 2.0543 3.62058 2.05475 3.75254C2.0552 3.8845 2.09046 4.01401 2.15697 4.12799H2.15997Z" fill="black"/>
</svg>
