<svg width="24" height="24" viewBox="0 0 24 24" fill="none" xmlns="http://www.w3.org/2000/svg">
<path d="M4 12C4 7.58172 7.58172 4 12 4C16.4183 4 20 7.58172 20 12C20 14.2715 19.0547 16.3204 17.5332 17.7779C17.1344 18.1599 17.1208 18.7929 17.5028 19.1918C17.8849 19.5906 18.5179 19.6042 18.9167 19.2221C20.8156 17.4031 22 14.839 22 12C22 6.47715 17.5228 2 12 2C6.47715 2 2 6.47715 2 12C2 14.839 3.18438 17.4031 5.08327 19.2221C5.48209 19.6042 6.11511 19.5906 6.49716 19.1918C6.87921 18.7929 6.86561 18.1599 6.46679 17.7779C4.94535 16.3204 4 14.2715 4 12Z" fill="white"/>
<path d="M12 8C9.79086 8 8 9.79086 8 12C8 13.1192 8.45831 14.1295 9.20004 14.8566C9.59443 15.2432 9.60072 15.8764 9.2141 16.2708C8.82748 16.6651 8.19434 16.6714 7.79996 16.2848C6.69032 15.197 6 13.6782 6 12C6 8.68629 8.68629 6 12 6C15.3137 6 18 8.68629 18 12C18 13.6782 17.3097 15.197 16.2 16.2848C15.8057 16.6714 15.1725 16.6651 14.7859 16.2708C14.3993 15.8764 14.4056 15.2432 14.8 14.8566C15.5417 14.1295 16 13.1192 16 12C16 9.79086 14.2091 8 12 8Z" fill="white"/>
<path d="M10 12C10 10.8954 10.8954 10 12 10C13.1046 10 14 10.8954 14 12C14 12.7532 13.5837 13.4091 12.9686 13.7502C12.9891 13.8301 13 13.9138 13 14V20H14C14.5523 20 15 20.4477 15 21C15 21.5523 14.5523 22 14 22H10C9.44772 22 9 21.5523 9 21C9 20.4477 9.44772 20 10 20H11V14C11 13.9138 11.0109 13.8301 11.0314 13.7502C10.4163 13.4091 10 12.7532 10 12Z" fill="white"/>
</svg>
