<svg width="24" height="24" viewBox="0 0 24 24" fill="none" xmlns="http://www.w3.org/2000/svg">
<path d="M18.4328 9.20609C17.821 7.80134 16.7653 6.63607 15.4278 5.88892C14.0902 5.14179 12.5445 4.85403 11.0277 5.06977C9.51093 5.2855 8.10676 5.99283 7.03048 7.08331C5.95422 8.17377 5.26527 9.58719 5.06925 11.1069C4.11558 11.3353 3.279 11.906 2.71836 12.7107C2.15773 13.5153 1.9121 14.4979 2.02811 15.4718C2.14412 16.4457 2.61369 17.343 3.34766 17.9934C4.08163 18.6439 5.02887 19.002 6.0095 19H17.0124C18.2121 18.9967 19.3706 18.5622 20.2766 17.7758C21.1828 16.9894 21.7759 15.9035 21.9482 14.716C22.1204 13.5286 21.8601 12.3188 21.2148 11.3073C20.5694 10.2959 19.5821 9.55015 18.4328 9.20609ZM17.0124 16.9992H6.0095C5.47892 16.9992 4.97009 16.7884 4.59491 16.4132C4.21974 16.0379 4.00897 15.529 4.00897 14.9984C4.00897 14.4677 4.21974 13.9588 4.59491 13.5836C4.97009 13.2084 5.47892 12.9976 6.0095 12.9976C6.27478 12.9976 6.52921 12.8922 6.71679 12.7046C6.90438 12.5169 7.00977 12.2625 7.00977 11.9972C7.01232 10.814 7.43416 9.67002 8.20036 8.7685C8.96654 7.86697 10.0274 7.26627 11.1946 7.07311C12.3618 6.87996 13.5597 7.10686 14.5753 7.71351C15.5911 8.32015 16.3589 9.26725 16.7423 10.3866C16.801 10.5566 16.9044 10.7077 17.0418 10.8239C17.1791 10.9401 17.3452 11.0171 17.5225 11.0468C18.2557 11.1821 18.9123 11.5856 19.3644 12.1785C19.8164 12.7715 20.0316 13.5115 19.9679 14.2545C19.9042 14.9974 19.5662 15.6901 19.0199 16.1975C18.4736 16.7048 17.758 16.9906 17.0124 16.9992Z" fill="white"/>
</svg>
