<svg width="20" height="21" viewBox="0 0 20 20" fill="none" xmlns="http://www.w3.org/2000/svg">
<path fill-rule="evenodd" clip-rule="evenodd" d="M13.2834 6.17518C11.47 4.36177 8.5299 4.36177 6.7165 6.17518C4.90309 7.98858 4.90309 10.9287 6.7165 12.7421L6.00939 13.4492C3.80546 11.2453 3.80546 7.672 6.00939 5.46807C8.21332 3.26414 11.7866 3.26414 13.9905 5.46807C16.1944 7.672 16.1944 11.2453 13.9905 13.4492L13.2834 12.7421C15.0968 10.9287 15.0968 7.98858 13.2834 6.17518ZM8.18621 7.64489C9.1879 6.64319 10.812 6.64319 11.8137 7.64489C12.8154 8.64658 12.8154 10.2707 11.8137 11.2723L12.5208 11.9795C13.913 10.5872 13.913 8.33 12.5208 6.93778C11.1286 5.54556 8.87132 5.54556 7.4791 6.93778C6.08688 8.33 6.08688 10.5872 7.4791 11.9795L8.18621 11.2723C7.18451 10.2707 7.18451 8.64658 8.18621 7.64489ZM10 10.9587C10.8284 10.9587 11.5 10.2871 11.5 9.45868C11.5 8.63025 10.8284 7.95868 10 7.95868C9.17157 7.95868 8.5 8.63025 8.5 9.45868C8.5 10.2871 9.17157 10.9587 10 10.9587ZM10 11.6259L8.5 17.6259H11.5L10 11.6259Z" fill="black"/>
</svg>
