<svg width="20" height="20" viewBox="0 0 20 20" fill="none" xmlns="http://www.w3.org/2000/svg">
<path fill-rule="evenodd" clip-rule="evenodd" d="M5.27948 7.68933C6.26037 7.68933 7.05554 6.89416 7.05554 5.91327C7.05554 4.93238 6.26037 4.13721 5.27948 4.13721C4.29859 4.13721 3.50342 4.93238 3.50342 5.91327C3.50342 6.89416 4.29859 7.68933 5.27948 7.68933ZM15.5573 7.68933C16.5382 7.68933 17.3334 6.89416 17.3334 5.91327C17.3334 4.93238 16.5382 4.13721 15.5573 4.13721C14.5764 4.13721 13.7812 4.93238 13.7812 5.91327C13.7812 6.89416 14.5764 7.68933 15.5573 7.68933ZM12.1945 14.7228C12.1945 15.7037 11.3993 16.4988 10.4184 16.4988C9.4375 16.4988 8.64233 15.7037 8.64233 14.7228C8.64233 13.7419 9.4375 12.9467 10.4184 12.9467C11.3993 12.9467 12.1945 13.7419 12.1945 14.7228ZM12.8955 5.16327H11.8955V6.66327H12.8955V5.16327ZM9.91846 5.16327H10.9184V6.66327H9.91846V5.16327ZM8.94149 5.16327H7.94153V6.66327H8.94149V5.16327ZM13.223 8.72931L13.723 7.86332L15.022 8.61332L14.5221 9.47931L13.223 8.72931ZM12.7345 9.57548L12.2345 10.4415L13.5335 11.1915L14.0335 10.3255L12.7345 9.57548ZM11.246 12.1535L11.746 11.2875L13.045 12.0375L12.545 12.9035L11.246 12.1535ZM7.11403 7.86332L7.61401 8.72931L6.31498 9.47931L5.815 8.61332L7.11403 7.86332ZM8.60254 10.4415L8.10256 9.57548L6.80352 10.3255L7.3035 11.1915L8.60254 10.4415ZM9.09108 11.2875L9.59106 12.1535L8.29203 12.9035L7.79205 12.0375L9.09108 11.2875Z" fill="black"/>
</svg>
