<svg width="24" height="24" viewBox="0 0 24 24" fill="none" xmlns="http://www.w3.org/2000/svg">
<path d="M11 3C11 2.44772 11.4477 2 12 2C12.5523 2 13 2.44772 13 3V11C13 11.5523 12.5523 12 12 12C11.4477 12 11 11.5523 11 11V3Z" fill="white"/>
<path fill-rule="evenodd" clip-rule="evenodd" d="M7.29113 4.2639C7.62893 4.70083 7.54857 5.32888 7.11164 5.66668C5.21701 7.13147 4 9.42338 4 12C4 16.4183 7.58172 20 12 20C16.4183 20 20 16.4183 20 12C20 9.42338 18.783 7.13147 16.8884 5.66668C16.4514 5.32888 16.3711 4.70083 16.7089 4.2639C17.0467 3.82697 17.6747 3.74661 18.1116 4.08441C20.4751 5.91163 22 8.77796 22 12C22 17.5228 17.5228 22 12 22C6.47715 22 2 17.5228 2 12C2 8.77796 3.52493 5.91163 5.88836 4.08441C6.32529 3.74661 6.95333 3.82697 7.29113 4.2639Z" fill="white"/>
</svg>
