<svg width="24" height="24" viewBox="0 0 24 24" fill="none" xmlns="http://www.w3.org/2000/svg">
<path fill-rule="evenodd" clip-rule="evenodd" d="M8.49995 13C10.9852 13 13 10.9853 13 8.5C13 6.01472 10.9852 4 8.49995 4C6.01467 4 3.99995 6.01472 3.99995 8.5C3.99995 10.9853 6.01467 13 8.49995 13ZM8.49995 15C12.0898 15 15 12.0899 15 8.5C15 4.91015 12.0898 2 8.49995 2C4.9101 2 1.99995 4.91015 1.99995 8.5C1.99995 12.0899 4.9101 15 8.49995 15Z" fill="white"/>
<path d="M6.52585 8.24393L8.19266 6.24375C8.35258 6.05184 8.64732 6.05184 8.80724 6.24375L10.4741 8.24393C10.5977 8.39226 10.5977 8.60774 10.4741 8.75607L8.80724 10.7563C8.64732 10.9482 8.35258 10.9482 8.19266 10.7563L6.52585 8.75607C6.40223 8.60774 6.40223 8.39226 6.52585 8.24393Z" fill="white"/>
<path fill-rule="evenodd" clip-rule="evenodd" d="M14.826 10C14.9398 9.51848 15 9.01627 15 8.5C15 8.33176 14.9936 8.16502 14.981 8H20C21.1045 8 22 8.89543 22 10V20C22 21.1046 21.1045 22 20 22H3.91417C2.13235 22 1.24002 19.8457 2.49995 18.5858L6.42422 14.6615C7.07605 14.881 7.77411 15 8.49995 15C8.64379 15 8.78653 14.9953 8.92804 14.9861L3.91417 20H8.08574L18.0857 10H14.826ZM10.9142 20L20 10.9142V20H10.9142Z" fill="white"/>
</svg>
