<svg width="24" height="24" viewBox="0 0 24 24" fill="none" xmlns="http://www.w3.org/2000/svg">
<path d="M12.3941 2C10.8122 1.99892 9.25792 2.41482 7.88798 3.2058C7.4097 3.48195 7.24584 4.09355 7.52199 4.57183C7.79815 5.05012 8.40974 5.21398 8.88803 4.93783C9.95349 4.32264 11.1624 3.99916 12.3927 4C13.6232 4.00083 14.8316 4.32595 15.8963 4.94259C16.961 5.55923 17.8443 6.4456 18.4573 7.51239C19.0703 8.57919 19.3913 9.78872 19.388 11.0191L19.388 11.0218V12.0218C19.388 12.0329 19.3882 12.0439 19.3885 12.055C19.4636 14.314 19.1735 16.5703 18.5294 18.7368C18.3721 19.2662 18.6736 19.8229 19.203 19.9803C19.7324 20.1377 20.2891 19.8361 20.4465 19.3067C21.1503 16.9392 21.4682 14.4739 21.388 12.0054V11.0231C21.392 9.44168 20.9793 7.88711 20.1914 6.51593C19.4033 5.14434 18.2675 4.00472 16.8986 3.2119C15.5297 2.41908 13.976 2.00107 12.3941 2Z" fill="white"/>
<path d="M8.8529 7.46444C9.79054 6.52677 11.0623 6 12.3884 6C13.7145 6 14.9862 6.52679 15.9239 7.46446C16.8616 8.40214 17.3884 9.67391 17.3884 11C17.3884 11.5523 16.9407 12 16.3884 12C15.8361 12 15.3884 11.5523 15.3884 11C15.3884 10.2043 15.0723 9.44129 14.5097 8.87868C13.9471 8.31607 13.1841 8 12.3884 8C11.5927 8 10.8297 8.31608 10.2671 8.87866C9.70448 9.44125 9.38838 10.2043 9.38838 11V12C9.38838 14.3801 8.6164 16.6959 7.1884 18.6C6.85703 19.0418 6.23023 19.1314 5.7884 18.8C5.34656 18.4686 5.25701 17.8418 5.58837 17.4C6.75677 15.8421 7.38838 13.9473 7.38838 12V11C7.38838 9.67395 7.91516 8.40214 8.8529 7.46444Z" fill="white"/>
<path d="M16.5045 14.0069C17.0531 14.0711 17.4457 14.5679 17.3815 15.1164C17.1232 17.3223 16.4801 19.4659 15.4815 21.4497C15.2331 21.943 14.6319 22.1416 14.1386 21.8933C13.6453 21.645 13.4467 21.0438 13.695 20.5505C14.5885 18.7755 15.1639 16.8575 15.395 14.8838C15.4593 14.3353 15.956 13.9427 16.5045 14.0069Z" fill="white"/>
<path d="M5.97067 6.21274C6.43998 6.50388 6.58441 7.12036 6.29326 7.58967C5.40517 9.02121 5.35778 10.3202 5.36925 11.7576C5.36998 11.8489 5.37105 11.9415 5.37213 12.0351C5.38771 13.3812 5.40607 14.9684 4.45207 16.523C4.16322 16.9937 3.54746 17.1412 3.07673 16.8523C2.60601 16.5635 2.45857 15.9477 2.74743 15.477C3.3919 14.4267 3.38299 13.382 3.3706 11.9283L3.36931 11.7736C3.35735 10.2735 3.38808 8.47879 4.59374 6.53533C4.88489 6.06602 5.50136 5.92159 5.97067 6.21274Z" fill="white"/>
<path d="M13.4111 10.958C13.3879 10.4062 12.9218 9.97769 12.37 10.0009C11.8182 10.0241 11.3897 10.4902 11.4129 11.042C11.5491 14.281 11.138 16.1942 10.6465 17.4734C10.3989 18.118 10.1214 18.6268 9.84752 19.0963C9.79933 19.1789 9.7493 19.2634 9.6984 19.3493C9.47545 19.7256 9.23558 20.1306 9.05798 20.5376C8.83709 21.0438 9.06838 21.6332 9.57457 21.8541C10.0808 22.0749 10.6702 21.8437 10.8911 21.3375C11.0147 21.0541 11.1747 20.7833 11.3897 20.4193C11.4474 20.3216 11.5092 20.217 11.5751 20.1039C11.8726 19.594 12.2103 18.9797 12.5135 18.1907C13.1236 16.6027 13.5562 14.4065 13.4111 10.958Z" fill="white"/>
</svg>
