<svg width="24" height="24" viewBox="0 0 24 24" fill="none" xmlns="http://www.w3.org/2000/svg">
<path fill-rule="evenodd" clip-rule="evenodd" d="M4.49508 10.2801C2.53716 10.7319 1.2103 8.33792 2.63114 6.91707L6.96032 2.5879C8.42477 1.12345 10.8764 2.57731 10.2938 4.56472L10.1291 5.12646L8.20986 4.56386L8.37453 4.00212L4.04536 8.33129L4.59259 8.205C5.3638 8.02703 6.16742 8.3206 6.64231 8.95379L10.0837 13.5423C10.4763 14.0657 10.5625 14.7116 10.428 15.2764C10.2019 16.2262 10.193 17.2168 10.4007 18.169L18.1105 10.4592C17.666 10.3622 17.2129 10.3125 16.7596 10.31C16.2416 10.3072 15.7236 10.3661 15.2176 10.4865C14.6527 10.621 14.0069 10.5348 13.4834 10.1422L8.9291 6.72646C8.2619 6.22607 7.97526 5.36418 8.20986 4.56386L10.1291 5.12646L14.6825 8.54149C14.6838 8.54207 14.687 8.54324 14.6928 8.5443C14.7055 8.54661 14.727 8.54744 14.7544 8.54093C15.4166 8.38326 16.0938 8.30635 16.7704 8.31004C17.4772 8.31388 18.1838 8.40568 18.8726 8.5856C19.6011 8.7759 20.066 9.34271 20.196 9.97714C20.3224 10.5938 20.1355 11.2626 19.6532 11.7449L10.6868 20.7113C10.5693 20.8288 10.4324 20.9098 10.2881 20.9564C9.83184 21.104 9.30219 20.9068 9.07693 20.4352C8.235 18.6725 8.03759 16.6817 8.48239 14.8132C8.48889 14.7859 8.48807 14.7644 8.48576 14.7517C8.4847 14.7458 8.48352 14.7426 8.48295 14.7413L5.04231 10.1538L4.49508 10.2801ZM10.8816 19.5732C10.8815 19.573 10.8817 19.5734 10.8816 19.5732V19.5732Z" fill="white"/>
<path fill-rule="evenodd" clip-rule="evenodd" d="M14.2082 14.6555C14.5988 14.265 15.2319 14.265 15.6225 14.6555L21.2696 20.3026C21.6601 20.6932 21.6601 21.3263 21.2696 21.7169C20.8791 22.1074 20.2459 22.1074 19.8554 21.7169L14.2082 16.0697C13.8177 15.6792 13.8177 15.046 14.2082 14.6555Z" fill="white"/>
</svg>
