<svg width="20" height="20" viewBox="0 0 20 20" fill="none" xmlns="http://www.w3.org/2000/svg">
<path d="M5.41203 13.1414L5.41205 13.1414C6.59187 12.2522 8.20701 11.6663 9.99983 11.6663C11.7925 11.6663 13.4079 12.2522 14.588 13.1414L14.588 13.1414C15.7765 14.0369 16.5 15.2173 16.5 16.4166C16.5 16.4386 16.4912 16.4599 16.4755 16.4756C16.4598 16.4913 16.4386 16.5 16.4167 16.5H3.58329C3.56139 16.5 3.54017 16.4913 3.52445 16.4756C3.50879 16.4599 3.5 16.4386 3.5 16.4166C3.5 15.2174 4.22345 14.0371 5.41203 13.1414ZM7.00085 6.50152C7.00085 4.85132 8.35219 3.5 10.0021 3.5C11.651 3.5 12.9976 4.85026 12.9976 6.50152C12.9976 8.15204 11.6517 9.49854 10.0021 9.49854C8.35128 9.49854 7.00085 8.15087 7.00085 6.50152Z" fill="white" stroke="white"/>
</svg>
