<svg width="20" height="21" viewBox="0 0 21 21" fill="none" xmlns="http://www.w3.org/2000/svg">
<path fill-rule="evenodd" clip-rule="evenodd" d="M6.41833 3.60059H3.91833V6.10059H6.41833V3.60059ZM6.41833 2.10059H7.91833V3.60059V6.10059V7.60059H6.41833H3.91833H2.41833V6.10059V3.60059V2.10059H3.91833H6.41833ZM6.41833 14.1006H3.91833V16.6006H6.41833V14.1006ZM6.41833 12.6006H7.91833V14.1006V16.6006V18.1006H6.41833H3.91833H2.41833V16.6006V14.1006V12.6006H3.91833H6.41833ZM14.4183 3.60059H16.9183V6.10059H14.4183V3.60059ZM18.4183 2.10059H16.9183H14.4183H12.9183V3.60059V6.10059V7.60059H14.4183H16.9183H18.4183V6.10059V3.60059V2.10059ZM16.9183 14.1006H14.4183V16.6006H16.9183V14.1006ZM16.9183 12.6006H18.4183V14.1006V16.6006V18.1006H16.9183H14.4183H12.9183V16.6006V14.1006V12.6006H14.4183H16.9183ZM9.66833 2.10059V9.35059H2.41833V10.8506H11.1683V2.10059H9.66833ZM11.1683 12.6006V18.1006H9.66833V12.6006H11.1683ZM12.9183 10.8506H18.4183V9.35059H12.9183V10.8506Z" fill="black"/>
</svg>
