<svg width="20" height="20" viewBox="0 0 20 20" fill="none" xmlns="http://www.w3.org/2000/svg">
<path d="M3.77276 6.50285L3.77276 3.01694C3.77276 2.53018 3.37591 2.13558 2.88638 2.13558C2.39685 2.13558 2 2.53018 2 3.01694L2 6.50285C2 6.98961 2.39685 7.3842 2.88638 7.3842C3.37591 7.3842 3.77276 6.98961 3.77276 6.50285Z" fill="white"/>
<path d="M14.4717 6.50285L14.4717 3.01694C14.4717 2.53018 14.0748 2.13558 13.5853 2.13558C13.0957 2.13558 12.6989 2.53018 12.6989 3.01694V6.50285C12.6989 6.98961 13.0957 7.3842 13.5853 7.3842C14.0748 7.3842 14.4717 6.98961 14.4717 6.50285Z" fill="white"/>
<path d="M5.52837 2.9945L5.52837 6.48041C5.52837 6.96717 5.92522 7.36176 6.41475 7.36176C6.90429 7.36176 7.30113 6.96717 7.30113 6.48041L7.30113 2.9945C7.30113 2.50774 6.90428 2.11314 6.41475 2.11314C5.92522 2.11314 5.52837 2.50774 5.52837 2.9945Z" fill="white"/>
<path d="M16.2272 2.9945L16.2272 6.48041C16.2272 6.96717 16.6241 7.36176 17.1136 7.36176C17.6031 7.36176 18 6.96717 18 6.48041V2.9945C18 2.50774 17.6031 2.11314 17.1136 2.11314C16.6241 2.11314 16.2272 2.50774 16.2272 2.9945Z" fill="white"/>
<path d="M16.2272 15.3303V17.1186C16.2272 17.6054 16.6241 18 17.1136 18C17.6031 18 18 17.6054 18 17.1186V15.3303C18 14.8436 17.6031 14.449 17.1136 14.449C16.6241 14.449 16.2272 14.8436 16.2272 15.3303Z" fill="white"/>
<path d="M18 11.7995L18 10.0112C18 9.52446 17.6032 9.12987 17.1136 9.12987C16.6241 9.12987 16.2272 9.52446 16.2272 10.0112L16.2272 11.7995C16.2272 12.2863 16.6241 12.6809 17.1136 12.6809C17.6032 12.6809 18 12.2863 18 11.7995Z" fill="white"/>
<path d="M14.4147 11.7995L14.4147 10.0112C14.4147 9.52446 14.0179 9.12987 13.5284 9.12987C13.0388 9.12987 12.642 9.52446 12.642 10.0112L12.642 11.7995C12.642 12.2863 13.0388 12.6809 13.5284 12.6809C14.0179 12.6809 14.4147 12.2863 14.4147 11.7995Z" fill="white"/>
<path d="M12.6989 15.3303V17.1186C12.6989 17.6054 13.0957 18 13.5853 18C14.0748 18 14.4717 17.6054 14.4717 17.1186V15.3303C14.4717 14.8436 14.0748 14.449 13.5853 14.449C13.0957 14.449 12.6989 14.8436 12.6989 15.3303Z" fill="white"/>
<path d="M6.41476 16.2032H2.90899C2.41946 16.2032 2.02261 16.5978 2.02261 17.0845C2.02261 17.5713 2.41946 17.9659 2.90899 17.9659H6.41476C6.9043 17.9659 7.30114 17.5713 7.30114 17.0845C7.30114 16.5978 6.9043 16.2032 6.41476 16.2032Z" fill="white"/>
<path d="M7.30113 17.1186V13.6327C7.30113 13.146 6.90429 12.7514 6.41475 12.7514C5.92522 12.7514 5.52837 13.146 5.52837 13.6327V17.1186C5.52837 17.6054 5.92522 18 6.41475 18C6.90429 18 7.30113 17.6054 7.30113 17.1186Z" fill="white"/>
<path d="M2.88643 14.4575L6.3922 14.4575C6.88174 14.4575 7.27858 14.0629 7.27858 13.5761C7.27858 13.0894 6.88174 12.6948 6.3922 12.6948L2.88643 12.6948C2.39689 12.6948 2.00005 13.0894 2.00005 13.5761C2.00005 14.0629 2.39689 14.4575 2.88643 14.4575Z" fill="white"/>
<path d="M6.41475 2.11314L2.90899 2.11319C2.41946 2.11319 2.02261 2.50778 2.02261 2.99454C2.02261 3.4813 2.41946 3.8759 2.90899 3.8759L6.41476 3.8759C6.9043 3.8759 7.30113 3.48126 7.30113 2.9945C7.30113 2.50774 6.90428 2.11314 6.41475 2.11314Z" fill="white"/>
<path d="M17.1136 14.449L13.6078 14.449C13.1183 14.449 12.7214 14.8435 12.7214 15.3303C12.7214 15.8171 13.1183 16.2117 13.6078 16.2117L17.1136 16.2117C17.6031 16.2117 18 15.8171 18 15.3303C18 14.8436 17.6031 14.449 17.1136 14.449Z" fill="white"/>
<path d="M17.1136 2.11314L13.6078 2.11319C13.1183 2.11319 12.7214 2.50778 12.7214 2.99454C12.7214 3.4813 13.1183 3.8759 13.6078 3.8759L17.1136 3.8759C17.6031 3.8759 18 3.48126 18 2.9945C18 2.50774 17.6031 2.11314 17.1136 2.11314Z" fill="white"/>
<path d="M13.6078 12.6809L17.1136 12.6809C17.6032 12.6809 18 12.2863 18 11.7995C18 11.3128 17.6032 10.9181 17.1136 10.9181L13.6078 10.9181C13.1183 10.9181 12.7215 11.3127 12.7215 11.7995C12.7215 12.2863 13.1183 12.6809 13.6078 12.6809Z" fill="white"/>
<path d="M9.11363 13.5762L9.11363 17.0621C9.11363 17.5488 9.51048 17.9434 10 17.9434C10.4895 17.9434 10.8864 17.5488 10.8864 17.0621L10.8864 13.5762C10.8864 13.0894 10.4895 12.6948 10 12.6948C9.51048 12.6948 9.11363 13.0894 9.11363 13.5762Z" fill="white"/>
<path d="M2.88638 7.3842L6.3922 7.38423C6.88174 7.38423 7.27858 6.98963 7.27858 6.50287C7.27858 6.01611 6.88174 5.62151 6.3922 5.62151L2.88643 5.62151C2.39689 5.62151 2 6.01609 2 6.50285C2 6.98961 2.39685 7.3842 2.88638 7.3842Z" fill="white"/>
<path d="M13.5853 7.3842L17.0911 7.38423C17.5806 7.38423 17.9774 6.98963 17.9774 6.50287C17.9774 6.01611 17.5806 5.62151 17.0911 5.62151L13.5853 5.62151C13.0957 5.62151 12.6989 6.01609 12.6989 6.50285C12.6989 6.98961 13.0957 7.3842 13.5853 7.3842Z" fill="white"/>
<path d="M2.00005 13.5761L2.00003 17.0621C2.00003 17.5489 2.39687 17.9435 2.88641 17.9435C3.37594 17.9435 3.77279 17.5489 3.77279 17.0621L3.77279 13.5762C3.77279 13.0895 3.37596 12.6948 2.88643 12.6948C2.39689 12.6948 2.00005 13.0894 2.00005 13.5761Z" fill="white"/>
<path d="M2.88642 11.0057H9.97745C10.467 11.0057 10.8638 10.6111 10.8638 10.1244C10.8638 9.6376 10.467 9.243 9.97745 9.243L2.88642 9.243C2.39688 9.243 2.00004 9.6376 2.00004 10.1244C2.00004 10.6111 2.39688 11.0057 2.88642 11.0057Z" fill="white"/>
<path d="M9.11363 2.88136L9.11363 10.102C9.11363 10.5887 9.51048 10.9833 10 10.9833C10.4895 10.9833 10.8864 10.5887 10.8864 10.102L10.8864 2.88136C10.8864 2.3946 10.4895 2 10 2C9.51048 2 9.11363 2.3946 9.11363 2.88136Z" fill="white"/>
</svg>
