<svg width="20" height="20" viewBox="0 0 20 20" fill="none" xmlns="http://www.w3.org/2000/svg">
<path fill-rule="evenodd" clip-rule="evenodd" d="M2 10.0464L3.97473 3L5.83932 5.01579C7.10913 4.013 8.71373 3.41357 10.4583 3.41357C14.5775 3.41357 17.9167 6.75278 17.9167 10.8719C17.9167 14.991 14.5775 18.3302 10.4583 18.3302C7.02258 18.3302 4.13155 16.0079 3.26508 12.8489C3.26109 12.8343 3.2529 12.8029 3.2529 12.8029L5.01459 12.449C5.01459 12.449 5.03404 12.5151 5.0442 12.548C5.7588 14.8595 7.91368 16.5378 10.4583 16.5378C13.5875 16.5378 16.1242 14.0011 16.1242 10.8719C16.1242 7.74272 13.5875 5.20601 10.4583 5.20601C9.18418 5.20601 8.00816 5.62621 7.06123 6.33678L9.1787 8.62595L2 10.0464Z" fill="black"/>
</svg>
