<svg width="24" height="24" viewBox="0 0 24 24" fill="none" xmlns="http://www.w3.org/2000/svg">
<path fill-rule="evenodd" clip-rule="evenodd" d="M13.126 8C13.5701 9.72523 15.1362 11 17 11C19.2091 11 21 9.20914 21 7C21 4.79086 19.2091 3 17 3C15.1362 3 13.5701 4.27477 13.126 6H9C7.34315 6 6 7.34315 6 9V13.126C4.27477 13.5701 3 15.1362 3 17C3 19.2091 4.79086 21 7 21C9.20914 21 11 19.2091 11 17C11 15.1362 9.72523 13.5701 8 13.126V9C8 8.44772 8.44772 8 9 8H13.126ZM17 9C18.1046 9 19 8.10457 19 7C19 5.89543 18.1046 5 17 5C15.8954 5 15 5.89543 15 7C15 8.10457 15.8954 9 17 9ZM7 15C5.89543 15 5 15.8954 5 17C5 18.1046 5.89543 19 7 19C8.10457 19 9 18.1046 9 17C9 15.8954 8.10457 15 7 15Z" fill="white"/>
</svg>
