<svg width="20" height="20" viewBox="0 0 20 20" fill="none" xmlns="http://www.w3.org/2000/svg">
<path d="M16.3648 2.63533C17.2119 3.48244 17.2119 4.85588 16.3648 5.70299C15.5177 6.5501 14.1443 6.5501 13.2971 5.70299C12.45 4.85588 12.45 3.48244 13.2971 2.63533C14.1443 1.78822 15.5177 1.78822 16.3648 2.63533Z" fill="black"/>
<path d="M6.78841 14.0076C7.63552 14.8547 7.63552 16.2281 6.78841 17.0752C5.9413 17.9223 4.56786 17.9223 3.72075 17.0752C2.87364 16.2281 2.87364 14.8547 3.72075 14.0076C4.56786 13.1605 5.9413 13.1605 6.78841 14.0076Z" fill="black"/>
<path d="M10.736 4.01475C9.20214 4.01475 10.1892 4.0147 8.65539 4.0147C5.89296 4.01471 5.15762 5.28883 5.15758 7.51252C5.15756 8.73958 5.15757 11.1859 5.15757 11.9528" stroke="black" stroke-width="1.5"/>
</svg>