<svg width="20" height="21" viewBox="0 0 20 20" fill="none" xmlns="http://www.w3.org/2000/svg">
<path fill-rule="evenodd" clip-rule="evenodd" d="M4.24841 4.09711H7.74927V7.59796H6.74866C6.74866 8.17753 6.93857 8.60222 7.21649 8.88013C7.4944 9.15805 7.91909 9.34796 8.49866 9.34796H11.4987C12.4191 9.34796 13.2444 9.65805 13.8415 10.2551C14.4386 10.8522 14.7487 11.6775 14.7487 12.598H15.7493V16.0991H12.2482V12.598H13.2487C13.2487 12.0184 13.0587 11.5937 12.7808 11.3158C12.5029 11.0379 12.0782 10.848 11.4987 10.848H8.49866C7.57822 10.848 6.75291 10.5379 6.15583 9.94079C5.55874 9.34371 5.24866 8.5184 5.24866 7.59796H4.24841V4.09711Z" fill="black"/>
</svg>
