<svg width="20" height="20" viewBox="0 0 20 20" fill="none" xmlns="http://www.w3.org/2000/svg">
<path d="M13.5058 9.08193H6.41474C5.9252 9.08193 5.52836 9.4802 5.52836 9.97148C5.52836 10.4628 5.9252 10.861 6.41474 10.861H13.5058C13.9953 10.861 14.3922 10.4628 14.3922 9.97148C14.3922 9.4802 13.9953 9.08193 13.5058 9.08193Z" fill="white"/>
<path d="M16.2272 13.5695V17.0878C16.2272 17.5791 16.6241 17.9773 17.1136 17.9773C17.6032 17.9773 18 17.5791 18 17.0878L18 13.5695C18 13.0782 17.6032 12.68 17.1136 12.68C16.6241 12.68 16.2272 13.0782 16.2272 13.5695Z" fill="white"/>
<path d="M16.2272 13.5695V17.0878C16.2272 17.5791 16.6241 17.9773 17.1136 17.9773C17.6032 17.9773 18 17.5791 18 17.0878L18 13.5695C18 13.0782 17.6032 12.68 17.1136 12.68C16.6241 12.68 16.2272 13.0782 16.2272 13.5695Z" fill="white"/>
<path d="M3.77276 6.43046L3.77276 2.91218C3.77276 2.4209 3.37592 2.02264 2.88638 2.02264C2.39685 2.02264 2 2.4209 2 2.91218L2 6.43046C2 6.92174 2.39685 7.32 2.88638 7.32C3.37592 7.32 3.77276 6.92174 3.77276 6.43046Z" fill="white"/>
<path d="M6.41474 16.2209H2.90896C2.41942 16.2209 2.02258 16.6192 2.02258 17.1104C2.02258 17.6017 2.41942 18 2.90896 18H6.41474C6.90427 18 7.30112 17.6017 7.30112 17.1104C7.30112 16.6192 6.90427 16.2209 6.41474 16.2209Z" fill="white"/>
<path d="M13.5853 3.77908L17.091 3.77908C17.5806 3.77908 17.9774 3.38082 17.9774 2.88954C17.9774 2.39826 17.5806 2 17.091 2L13.5853 2C13.0957 2 12.6989 2.39826 12.6989 2.88954C12.6989 3.38082 13.0957 3.77908 13.5853 3.77908Z" fill="white"/>
<path d="M13.5853 18L17.091 18C17.5806 18 17.9774 17.6017 17.9774 17.1105C17.9774 16.6192 17.5806 16.2209 17.091 16.2209H13.5853C13.0957 16.2209 12.6989 16.6192 12.6989 17.1105C12.6989 17.6017 13.0957 18 13.5853 18Z" fill="white"/>
<path d="M13.5853 18L17.091 18C17.5806 18 17.9774 17.6017 17.9774 17.1105C17.9774 16.6192 17.5806 16.2209 17.091 16.2209H13.5853C13.0957 16.2209 12.6989 16.6192 12.6989 17.1105C12.6989 17.6017 13.0957 18 13.5853 18Z" fill="white"/>
<path d="M6.41474 2L2.90896 2C2.41942 2 2.02258 2.39826 2.02258 2.88954C2.02258 3.38082 2.41942 3.77909 2.90896 3.77908L6.41474 3.77908C6.90427 3.77908 7.30112 3.38082 7.30112 2.88954C7.30112 2.39826 6.90427 2 6.41474 2Z" fill="white"/>
<path d="M2 13.5695L2 17.0878C2 17.5791 2.39685 17.9773 2.88638 17.9773C3.37592 17.9773 3.77276 17.5791 3.77276 17.0878L3.77276 13.5695C3.77276 13.0782 3.37592 12.68 2.88638 12.68C2.39685 12.68 2 13.0782 2 13.5695Z" fill="white"/>
<path d="M18 6.43048L18 2.9122C18 2.42092 17.6032 2.02266 17.1136 2.02266C16.6241 2.02266 16.2272 2.42092 16.2272 2.9122V6.43048C16.2272 6.92176 16.6241 7.32002 17.1136 7.32002C17.6032 7.32002 18 6.92176 18 6.43048Z" fill="white"/>
<path d="M9.07388 6.41331V13.5296C9.07388 14.0209 9.47073 14.4192 9.96026 14.4192C10.4498 14.4192 10.8466 14.0209 10.8466 13.5296V6.41331C10.8466 5.92203 10.4498 5.52377 9.96026 5.52377C9.47072 5.52377 9.07388 5.92203 9.07388 6.41331Z" fill="white"/>
</svg>
