<svg width="20" height="20" viewBox="0 0 20 20" fill="none" xmlns="http://www.w3.org/2000/svg">
<path fill-rule="evenodd" clip-rule="evenodd" d="M9.05263 6.47619C7.65739 6.47619 6.52632 7.58482 6.52632 8.95238C6.52632 10.3199 7.65739 11.4286 9.05263 11.4286C10.4479 11.4286 11.5789 10.3199 11.5789 8.95238C11.5789 7.58482 10.4479 6.47619 9.05263 6.47619ZM4 8.95238C4 6.21726 6.26214 4 9.05263 4C11.8431 4 14.1053 6.21726 14.1053 8.95238C14.1053 11.6875 11.8431 13.9048 9.05263 13.9048C6.26214 13.9048 4 11.6875 4 8.95238Z" fill="white"/>
<path fill-rule="evenodd" clip-rule="evenodd" d="M10.6858 11.7912C11.1791 11.3077 11.9788 11.3077 12.4721 11.7912L15.63 14.8864C16.1233 15.3699 16.1233 16.1539 15.63 16.6374C15.1367 17.1209 14.3369 17.1209 13.8437 16.6374L10.6858 13.5421C10.1925 13.0586 10.1925 12.2747 10.6858 11.7912Z" fill="white"/>
</svg>
