<svg width="24" height="24" viewBox="0 0 24 24" fill="none" xmlns="http://www.w3.org/2000/svg">
<path fill-rule="evenodd" clip-rule="evenodd" d="M16.0974 14.6795C18.4873 11.593 18.2659 7.13765 15.4331 4.3048C12.3601 1.23173 7.37777 1.23173 4.30476 4.3048C3.92063 4.68893 3.58452 5.1029 3.29643 5.53924C1.27976 8.59363 1.61587 12.7444 4.30476 15.4333C7.13768 18.2663 11.5932 18.4876 14.6797 16.0974L20.2886 21.7064C20.6801 22.0979 21.3149 22.0979 21.7064 21.7064C22.0979 21.3149 22.0979 20.6801 21.7064 20.2886L16.0974 14.6795ZM14.7668 6.64249C16.2696 8.91861 16.0191 12.0118 14.0154 14.0156C13.7291 14.3018 13.4206 14.5523 13.0955 14.767C10.8194 16.2698 7.72627 16.0193 5.72252 14.0156C3.43252 11.7255 3.43252 8.01262 5.72252 5.72258C8.01252 3.43254 11.7254 3.43254 14.0154 5.72258C14.3016 6.00884 14.5521 6.31733 14.7668 6.64249Z" fill="white"/>
</svg>
