<svg width="24" height="24" viewBox="0 0 24 24" fill="none" xmlns="http://www.w3.org/2000/svg">
<path fill-rule="evenodd" clip-rule="evenodd" d="M3 8.58574C3 9.38139 3.31607 10.1445 3.87868 10.7071L5.17157 12L3.87868 13.2928C3.31607 13.8555 3 14.6185 3 15.4142V19.8333C3 21.4186 4.6894 22.4323 6.08823 21.6862L20.7757 13.8529C22.2581 13.0623 22.2581 10.9376 20.7757 10.147L6.08824 2.31368C4.68942 1.56764 3 2.58128 3 4.16662V8.58574ZM5.29289 9.29285C5.10536 9.10531 5 8.85096 5 8.58574V4.16662C5 4.09113 5.08045 4.04286 5.14706 4.07839L19.8346 11.9117C19.9051 11.9494 19.9051 12.0505 19.8346 12.0882L5.14706 19.9215C5.08045 19.957 5 19.9088 5 19.8333V15.4142C5 15.149 5.10536 14.8946 5.29289 14.7071L7 13H11.5C12.0523 13 12.5 12.5522 12.5 12C12.5 11.4477 12.0523 11 11.5 11H7L5.29289 9.29285Z" fill="white"/>
</svg>
