<svg width="20" height="20" viewBox="0 0 20 20" fill="none" xmlns="http://www.w3.org/2000/svg">
<path d="M15.6595 2.13643L2.38839 11.004C2.00009 11.265 1.88338 11.8128 2.12772 12.2276C2.27954 12.4853 2.53503 12.631 2.79989 12.6418L2.80443 12.6458L2.80914 12.6498H5.75549C6.32231 12.6498 6.86931 12.4273 7.29218 12.0247L11.9259 7.613C11.9353 7.60407 11.9448 7.59545 11.9544 7.58713C12.1767 7.38401 12.5022 7.33793 12.7736 7.49757C13.1234 7.70337 13.2508 8.17312 13.0581 8.54679L11.4209 11.3536C10.8119 12.3976 11.0186 13.761 11.9052 14.547L15.0986 17.3783L15.392 17.6346L15.632 17.8625L15.712 17.9195L15.7875 17.9598C15.8082 17.9709 15.8299 17.9797 15.8522 17.9863C15.883 17.9954 15.9149 18 15.9469 18H16.1693C16.6281 18 17 17.6027 17 17.1127L17 2.89294C17 2.41353 16.6441 2.02292 16.1991 2.00618C16.017 1.98315 15.8267 2.02402 15.6595 2.13643Z" fill="white"/>
</svg>
