<svg width="24" height="24" viewBox="0 0 24 24" fill="none" xmlns="http://www.w3.org/2000/svg">
<path fill-rule="evenodd" clip-rule="evenodd" d="M5 8.58574C5 8.85096 5.10536 9.10531 5.29289 9.29285L3.87868 10.7071C3.31607 10.1445 3 9.38139 3 8.58574V4.16662C3 2.58128 4.68942 1.56764 6.08824 2.31368L20.7757 10.147C22.2581 10.9376 22.2581 13.0623 20.7757 13.8529L6.08823 21.6862C4.6894 22.4323 3 21.4186 3 19.8333V15.4142C3 14.6185 3.31607 13.8555 3.87868 13.2928L5.17157 12L3.87868 10.7071L5.29289 9.29285L7.29289 11.2928C7.68342 11.6834 7.68342 12.3165 7.29289 12.7071L5.29289 14.7071C5.10536 14.8946 5 15.149 5 15.4142V19.8333C5 19.9088 5.08045 19.957 5.14706 19.9215L19.8346 12.0882C19.9051 12.0505 19.9051 11.9494 19.8346 11.9117L5.14706 4.07839C5.08045 4.04286 5 4.09113 5 4.16662V8.58574Z" fill="white"/>
<path d="M6 12C6 11.4477 6.44772 11 7 11H11.5C12.0523 11 12.5 11.4477 12.5 12C12.5 12.5522 12.0523 13 11.5 13H7C6.44772 13 6 12.5522 6 12Z" fill="white"/>
</svg>
