<svg width="20" height="20" viewBox="0 0 20 20" fill="none" xmlns="http://www.w3.org/2000/svg">
<path fill-rule="evenodd" clip-rule="evenodd" d="M13.6158 4.92206C13.05 4.56504 12.4204 4.29996 11.7479 4.14782L11.4183 2.5H9.41833L9.08877 4.14782C8.41629 4.29996 7.78665 4.56504 7.22084 4.92207L5.82212 3.98959L4.40791 5.4038L5.34039 6.80253C4.98336 7.36833 4.71829 7.99796 4.56616 8.67044L2.91833 9V11L4.56616 11.3296C4.71829 12.002 4.98337 12.6317 5.34039 13.1975L4.40792 14.5962L5.82214 16.0104L7.22084 15.0779C7.78665 15.435 8.41629 15.7 9.08877 15.8522L9.41833 17.5H11.4183L11.7479 15.8522C12.4204 15.7 13.05 15.435 13.6158 15.0779L15.0145 16.0104L16.4287 14.5962L15.4963 13.1975C15.8533 12.6317 16.1184 12.002 16.2705 11.3296L17.9183 11V9L16.2705 8.67044C16.1184 7.99796 15.8533 7.36832 15.4963 6.80252L16.4287 5.40381L15.0145 3.98959L13.6158 4.92206ZM10.4183 5.5C7.93305 5.5 5.91833 7.51472 5.91833 10C5.91833 12.4853 7.93305 14.5 10.4183 14.5C12.9036 14.5 14.9183 12.4853 14.9183 10C14.9183 7.51472 12.9036 5.5 10.4183 5.5Z" fill="black"/>
</svg>
