<svg width="20" height="20" viewBox="0 0 20 20" fill="none" xmlns="http://www.w3.org/2000/svg">
<path fill-rule="evenodd" clip-rule="evenodd" d="M12.7752 5.20359C12.3586 4.96912 11.9083 4.78736 11.4335 4.66736L11 2.5H9L8.5572 4.71402C8.11258 4.84201 7.69108 5.02458 7.30042 5.25401L5.40378 3.98959L3.98957 5.4038L5.27282 7.32867C5.0613 7.70862 4.89351 8.11625 4.77625 8.54475L2.5 9V11L4.77625 11.4552C4.89351 11.8838 5.06131 12.2914 5.27282 12.6713L3.98959 14.5962L5.4038 16.0104L7.30043 14.746C7.69109 14.9754 8.11258 15.158 8.5572 15.286L9 17.5H11L11.4335 15.3326C11.9083 15.2126 12.3586 15.0309 12.7752 14.7964L14.5962 16.0104L16.0104 14.5962L14.8149 12.8029C15.0682 12.376 15.2655 11.9119 15.3964 11.4207L17.5 11V9L15.3964 8.57928C15.2655 8.08812 15.0682 7.62401 14.8149 7.19711L16.0104 5.40381L14.5962 3.98959L12.7752 5.20359ZM12.1858 7.89583C11.0237 6.73373 9.1396 6.73373 7.9775 7.89583C6.8154 9.05793 6.8154 10.9421 7.9775 12.1042C9.1396 13.2663 11.0237 13.2663 12.1858 12.1042C13.3479 10.9421 13.3479 9.05793 12.1858 7.89583Z" fill="black"/>
</svg>
