<svg width="24" height="24" viewBox="0 0 24 24" fill="none" xmlns="http://www.w3.org/2000/svg">
<path d="M12 22C9.68333 21.4167 7.77083 20.0875 6.2625 18.0125C4.75417 15.9375 4 13.6333 4 11.1V5.69299C4 5.27615 4.25857 4.90303 4.64888 4.75666L11.6489 2.13166C11.8753 2.04677 12.1247 2.04677 12.3511 2.13166L19.3511 4.75666C19.7414 4.90303 20 5.27615 20 5.69299V11.1C20 13.6333 19.2458 15.9375 17.7375 18.0125C16.2292 20.0875 14.3167 21.4167 12 22ZM12 19.9C13.6167 19.4 14.9667 18.4125 16.05 16.9375C16.9119 15.764 17.489 14.4823 17.7812 13.0926C17.903 12.5132 17.436 12 16.844 12H12V5.56799C12 4.86979 11.3026 4.38651 10.6489 4.63166L6.64888 6.13166C6.25857 6.27803 6 6.65115 6 7.06799V11.55C6 11.6667 6.01667 11.8167 6.05 12H12V19.9Z" fill="white"/>
</svg>
