<svg width="24" height="24" viewBox="0 0 24 24" fill="none" xmlns="http://www.w3.org/2000/svg">
<path fill-rule="evenodd" clip-rule="evenodd" d="M21 9C21 7.89543 20.1941 7 19.2 7H4.8C3.80589 7 3 7.89543 3 9V20C3 21.1046 3.80589 22 4.8 22H19.2C20.1941 22 21 21.1046 21 20V9ZM19.2 10C19.2 9.44772 18.7971 9 18.3 9H5.7C5.20294 9 4.8 9.44772 4.8 10V19C4.8 19.5523 5.20294 20 5.7 20H18.3C18.7971 20 19.2 19.5523 19.2 19V10Z" fill="white"/>
<path fill-rule="evenodd" clip-rule="evenodd" d="M9 7H15C15 5.34315 13.6569 4 12 4C10.3431 4 9 5.34315 9 7ZM12 2C9.23858 2 7 4.23858 7 7V9H17V7C17 4.23858 14.7614 2 12 2Z" fill="white"/>
<path fill-rule="evenodd" clip-rule="evenodd" d="M8 7C8.55228 7 9 7.44772 9 8V10.5C9 11.0523 8.55228 11.5 8 11.5C7.44772 11.5 7 11.0523 7 10.5V8C7 7.44772 7.44772 7 8 7Z" fill="white"/>
<path fill-rule="evenodd" clip-rule="evenodd" d="M16 7C16.5523 7 17 7.44772 17 8V10.5C17 11.0523 16.5523 11.5 16 11.5C15.4477 11.5 15 11.0523 15 10.5V8C15 7.44772 15.4477 7 16 7Z" fill="white"/>
</svg>
