<svg width="24" height="24" viewBox="0 0 24 24" fill="none" xmlns="http://www.w3.org/2000/svg">
<path fill-rule="evenodd" clip-rule="evenodd" d="M7 7C7 4.23858 9.23858 2 12 2C14.7614 2 17 4.23858 17 7H19.2C20.1941 7 21 7.89543 21 9V20C21 21.1046 20.1941 22 19.2 22H4.8C3.80589 22 3 21.1046 3 20V9C3 7.89543 3.80589 7 4.8 7H7ZM12 4C13.6569 4 15 5.34315 15 7H9C9 5.34315 10.3431 4 12 4ZM19.2 10C19.2 9.44772 18.7971 9 18.3 9H17V10.5C17 11.0523 16.5523 11.5 16 11.5C15.4477 11.5 15 11.0523 15 10.5V9H9V10.5C9 11.0523 8.55228 11.5 8 11.5C7.44772 11.5 7 11.0523 7 10.5V9H5.7C5.20294 9 4.8 9.44772 4.8 10V19C4.8 19.5523 5.20294 20 5.7 20H18.3C18.7971 20 19.2 19.5523 19.2 19V10Z" fill="white"/>
</svg>
