<svg width="24" height="24" viewBox="0 0 24 24" fill="none" xmlns="http://www.w3.org/2000/svg">
<path fill-rule="evenodd" clip-rule="evenodd" d="M10 4C10 3.44772 10.4477 3 11 3H17.5C19.1569 3 20.5 4.34315 20.5 6V18C20.5 19.6569 19.1569 21 17.5 21H11C10.4477 21 10 20.5523 10 20C10 19.4477 10.4477 19 11 19H17.5C18.0523 19 18.5 18.5523 18.5 18V6C18.5 5.44772 18.0523 5 17.5 5H11C10.4477 5 10 4.55228 10 4Z" fill="white"/>
<path fill-rule="evenodd" clip-rule="evenodd" d="M8.79289 8.29289C9.18342 7.90237 9.81658 7.90237 10.2071 8.29289L13.9142 12L10.2071 15.7071C9.81658 16.0976 9.18342 16.0976 8.79289 15.7071C8.40237 15.3166 8.40237 14.6834 8.79289 14.2929L10.0858 13H4C3.44772 13 3 12.5523 3 12C3 11.4477 3.44772 11 4 11H10.0858L8.79289 9.70711C8.40237 9.31658 8.40237 8.68342 8.79289 8.29289Z" fill="white"/>
</svg>
