<svg width="24" height="24" viewBox="0 0 24 24" fill="none" xmlns="http://www.w3.org/2000/svg">
<path fill-rule="evenodd" clip-rule="evenodd" d="M7 3.96721C5.34314 3.96721 4 5.28834 4 6.91803V14.7869C4 16.4165 5.34315 17.7377 7 17.7377H9.75C10.0648 17.7377 10.3611 17.8835 10.55 18.1311L12 20.0327L13.45 18.1311C13.6389 17.8835 13.9352 17.7377 14.25 17.7377H17C18.6568 17.7377 20 16.4165 20 14.7869V6.91803C20 5.28834 18.6568 3.96721 17 3.96721H7ZM2 6.91803C2 4.20188 4.23858 2 7 2H17C19.7614 2 22 4.20187 22 6.91803V14.7869C22 17.503 19.7614 19.7049 17 19.7049H14.75L13.6 21.213C12.8 22.2623 11.2 22.2623 10.4 21.213L9.25001 19.7049H7C4.23857 19.7049 2 17.503 2 14.7869V6.91803Z" fill="white"/>
<path d="M12 16C12.5523 16 13 15.5523 13 15C13 14.4477 12.5523 14 12 14C11.4477 14 11 14.4477 11 15C11 15.5523 11.4477 16 12 16Z" fill="white"/>
<path fill-rule="evenodd" clip-rule="evenodd" d="M12 8C11.4477 8 11 8.44772 11 9C11 9.55228 10.5523 10 10 10C9.44772 10 9 9.55228 9 9C9 7.34315 10.3431 6 12 6C13.6569 6 15 7.34315 15 9C15 9.86662 14.6312 10.6487 14.045 11.195C14.002 11.2351 13.9602 11.2739 13.9194 11.3117C13.6432 11.5678 13.4176 11.7771 13.2386 12.0033C13.0413 12.2526 13 12.4046 13 12.5C13 13.0523 12.5523 13.5 12 13.5C11.4477 13.5 11 13.0523 11 12.5C11 11.767 11.3373 11.183 11.6701 10.7624C11.9534 10.4044 12.3053 10.0795 12.571 9.83413C12.6098 9.7983 12.6468 9.76416 12.6815 9.73187C12.8788 9.54799 13 9.28893 13 9C13 8.44772 12.5523 8 12 8Z" fill="white"/>
</svg>
