<svg width="20" height="20" viewBox="0 0 20 20" fill="none" xmlns="http://www.w3.org/2000/svg">
<path d="M4.63341 10.75C4.60419 10.5136 4.58914 10.2729 4.58914 10.0286C4.58914 9.76459 4.60672 9.50469 4.64078 9.25H2.20197V10.75H4.63341Z" fill="black"/>
<path d="M5.81414 6.45644C6.12245 6.06047 6.48082 5.70539 6.87975 5.40073L5.13884 3.65982L4.07818 4.72048L5.81414 6.45644Z" fill="black"/>
<path d="M4.07817 15.2795L5.78919 13.5685C6.09478 13.9667 6.45068 14.3242 6.84741 14.6316L5.13883 16.3402L4.07817 15.2795Z" fill="black"/>
<path d="M9.66833 15.8015V18.2164H11.1683V15.799C10.9197 15.8314 10.6661 15.8481 10.4087 15.8481C10.1579 15.8481 9.91078 15.8323 9.66833 15.8015Z" fill="black"/>
<path d="M13.9808 14.6231L15.6979 16.3402L16.7585 15.2795L15.0366 13.5575C14.7319 13.9565 14.3768 14.3148 13.9808 14.6231Z" fill="black"/>
<path d="M16.1839 10.75H18.6347V9.25H16.1766C16.2106 9.50469 16.2282 9.7646 16.2282 10.0286C16.2282 10.2729 16.2132 10.5136 16.1839 10.75Z" fill="black"/>
<path d="M15.0117 6.46733L16.7585 4.72046L15.6979 3.6598L13.9486 5.40912C14.3468 5.7147 14.7043 6.07061 15.0117 6.46733Z" fill="black"/>
<path d="M11.1683 4.2582V1.78362H9.66833V4.25572C9.91078 4.22493 10.1579 4.20907 10.4087 4.20907C10.6661 4.20907 10.9197 4.22579 11.1683 4.2582Z" fill="black"/>
<path fill-rule="evenodd" clip-rule="evenodd" d="M10.4183 12.5041C11.8013 12.5041 12.9224 11.383 12.9224 9.99999C12.9224 8.61703 11.8013 7.49591 10.4183 7.49591C9.03533 7.49591 7.91422 8.61703 7.91422 9.99999C7.91422 11.383 9.03533 12.5041 10.4183 12.5041ZM10.4183 14.0041C12.6297 14.0041 14.4224 12.2114 14.4224 9.99999C14.4224 7.7886 12.6297 5.99591 10.4183 5.99591C8.20691 5.99591 6.41422 7.7886 6.41422 9.99999C6.41422 12.2114 8.20691 14.0041 10.4183 14.0041Z" fill="black"/>
</svg>
