<svg width="24" height="24" viewBox="0 0 24 24" fill="none" xmlns="http://www.w3.org/2000/svg">
<path d="M10.2637 6.97334C11.0341 7.74371 11.0341 8.99272 10.2637 9.76309C9.49336 10.5335 8.24435 10.5335 7.47398 9.76309C6.70362 8.99272 6.70362 7.74371 7.47398 6.97334C8.24435 6.20298 9.49336 6.20298 10.2637 6.97334Z" fill="white"/>
<path fill-rule="evenodd" clip-rule="evenodd" d="M3 4.47265C3 3.38318 3.88318 2.5 4.97265 2.5L11.947 2.5C12.4702 2.5 12.9719 2.70783 13.3419 3.07777L21.4222 11.1581C22.1926 11.9285 22.1926 13.1775 21.4222 13.9479L14.4479 20.9222C13.6775 21.6926 12.4285 21.6926 11.6581 20.9222L3.57778 12.8419C3.20783 12.4719 3 11.9702 3 11.447L3 4.47265ZM4.97265 4.47265L4.97265 11.447L13.053 19.5274L20.0274 12.553L11.947 4.47265H4.97265Z" fill="white"/>
</svg>
