<svg width="20" height="20" viewBox="0 0 20 20" fill="none" xmlns="http://www.w3.org/2000/svg">
<path d="M15.3841 5.0074C14.509 4.4219 13.8773 3.4855 13.6804 2.39381C13.6378 2.15782 13.6145 1.91517 13.6145 1.66667H10.8215L10.8169 13.1501C10.77 14.436 9.73842 15.4682 8.47367 15.4682C8.0806 15.4682 7.71036 15.3674 7.38459 15.1912C6.63733 14.7877 6.12604 13.9841 6.12604 13.0594C6.12604 11.7312 7.17927 10.6506 8.47367 10.6506C8.71534 10.6506 8.94692 10.6915 9.16642 10.7619V7.83666C8.93934 7.80494 8.70884 7.78518 8.47367 7.78518C5.63943 7.78546 3.33334 10.1514 3.33334 13.0594C3.33334 14.8437 4.20239 16.4227 5.52795 17.3774C6.36283 17.9788 7.37863 18.3333 8.47392 18.3333C11.3083 18.3333 13.6145 15.9674 13.6145 13.0594V7.23642C14.7098 8.04314 16.0518 8.51842 17.5 8.51842V5.65301C16.7199 5.65301 15.9933 5.41508 15.3841 5.0074Z" fill="black"/>
</svg>
