<svg width="24" height="24" viewBox="0 0 24 24" fill="none" xmlns="http://www.w3.org/2000/svg">
<path fill-rule="evenodd" clip-rule="evenodd" d="M12.45 4.09906C12.7961 4.26573 13.0161 4.6159 13.0161 5.00001V19C13.0161 19.3842 12.7961 19.7343 12.4499 19.901C12.1038 20.0677 11.6929 20.0213 11.3925 19.7818L7.29088 16.5102L3.00028 16.5114C2.73502 16.5115 2.48059 16.4062 2.29299 16.2186C2.1054 16.0311 2 15.7767 2 15.5114V8.48866C2 7.93637 2.44772 7.48866 3 7.48866H7.29085L11.3927 4.21813C11.693 3.97866 12.104 3.93238 12.45 4.09906ZM11.0161 7.07631L8.26414 9.27054C8.08704 9.41176 7.86723 9.48866 7.64072 9.48866H4V14.5111L7.64044 14.5101C7.86711 14.51 8.08708 14.587 8.26428 14.7283L11.0161 16.9232V7.07631ZM15.7839 9.02634C16.1694 8.63084 16.8025 8.62272 17.198 9.0082L18.75 10.5209L20.302 9.0082C20.6975 8.62272 21.3306 8.63084 21.7161 9.02634C22.1016 9.42185 22.0935 10.055 21.698 10.4404L20.1827 11.9173L21.698 13.3941C22.0935 13.7795 22.1016 14.4127 21.7161 14.8082C21.3307 15.2037 20.6975 15.2118 20.302 14.8263L18.75 13.3137L17.198 14.8263C16.8025 15.2118 16.1693 15.2037 15.7839 14.8082C15.3984 14.4127 15.4065 13.7795 15.802 13.3941L17.3173 11.9173L15.802 10.4404C15.4065 10.055 15.3984 9.42185 15.7839 9.02634Z" fill="white"/>
</svg>
