<svg width="20" height="20" viewBox="0 0 20 20" fill="none" xmlns="http://www.w3.org/2000/svg">
<path d="M11.0515 4.05155C11.0515 3.47079 10.5808 3 10 3C9.41925 3 8.94845 3.47079 8.94845 4.05155V8.94845H4.05155C3.47079 8.94845 3 9.41925 3 10C3 10.5808 3.47079 11.0515 4.05155 11.0515H8.94845V15.9485C8.94845 16.5292 9.41925 17 10 17C10.5808 17 11.0515 16.5292 11.0515 15.9485V11.0515H15.9485C16.5292 11.0515 17 10.5808 17 10C17 9.41925 16.5292 8.94845 15.9485 8.94845H11.0515V4.05155Z" fill="white"/>
</svg>
