<svg width="20" height="20" viewBox="0 0 20 20" fill="none" xmlns="http://www.w3.org/2000/svg">
<path fill-rule="evenodd" clip-rule="evenodd" d="M10 1.59933C6.19708 1.59933 3.11422 4.6822 3.11422 8.48512C3.11415 8.54269 3.13211 8.60077 3.16929 8.65038L7.24569 14.081V18.4006H12.7543V14.081L16.8307 8.65038C16.8679 8.60077 16.8858 8.54269 16.8858 8.48512C16.8858 4.6822 13.8029 1.59933 10 1.59933ZM10 6.5571C8.93519 6.5571 8.07198 7.4203 8.07198 8.48512H8.07743C8.42239 10.2098 9.17377 13.9937 9.17377 13.9937H10.8262C10.8262 13.9937 11.5776 10.2098 11.9226 8.48512H11.928C11.928 7.4203 11.0648 6.5571 10 6.5571ZM7.86541 13.9937L3.66508 8.38613C3.66508 7.32132 4.52829 6.5571 5.5931 6.5571C6.65791 6.5571 7.52112 7.4203 7.52112 8.48512C7.52112 8.48512 8.27244 12.269 8.6174 13.9937H7.86541ZM12.1346 13.9937L16.3349 8.38613C16.3349 7.32132 15.4717 6.5571 14.4069 6.5571C13.3421 6.5571 12.4789 7.4203 12.4789 8.48512C12.4789 8.48512 11.7276 12.269 11.3826 13.9937H12.1346Z" fill="black"/>
</svg>
