<svg width="24" height="24" viewBox="0 0 24 24" fill="none" xmlns="http://www.w3.org/2000/svg">
<path fill-rule="evenodd" clip-rule="evenodd" d="M2 17C2 15.8954 2.89543 15 4 15H8C9.10457 15 10 15.8954 10 17V20C10 21.1046 9.10457 22 8 22H4C2.89543 22 2 21.1046 2 20V17ZM8 17H4V20H8V17Z" fill="white"/>
<path fill-rule="evenodd" clip-rule="evenodd" d="M8 11C8 9.89543 8.89543 9 10 9H14C15.1046 9 16 9.89543 16 11V22H8V11ZM14 11H10V20H14V11Z" fill="white"/>
<path fill-rule="evenodd" clip-rule="evenodd" d="M14 4C14 2.89543 14.8954 2 16 2H20C21.1046 2 22 2.89543 22 4V20C22 21.1046 21.1046 22 20 22H14V4ZM20 4L16 4V20H20V4Z" fill="white"/>
</svg>
