<svg width="24" height="24" viewBox="0 0 24 24" fill="none" xmlns="http://www.w3.org/2000/svg">
<path d="M17.0275 12.6267C17.0064 10.0964 18.9327 8.88071 19.0195 8.82096C17.9357 7.09963 16.2506 6.86522 15.6495 6.83764C14.2164 6.67907 12.851 7.75461 12.1228 7.75461C11.3946 7.75461 10.2727 6.86062 9.083 6.8859C7.51865 6.91118 6.07708 7.87181 5.27056 9.3932C3.64694 12.4498 4.85566 16.984 6.43906 19.4684C7.21382 20.6818 8.13465 22.0492 9.34761 21.9986C10.5161 21.9481 10.9564 21.1782 12.3662 21.1782C13.776 21.1782 14.174 21.9986 15.406 21.9734C16.6613 21.9458 17.4572 20.7323 18.2257 19.5143C19.1126 18.1055 19.4788 16.7404 19.5 16.6692C19.4725 16.6577 17.0529 15.6511 17.0275 12.6267Z" fill="white"/>
<path d="M14.7096 5.19445C15.3531 4.34873 15.7871 3.17206 15.6685 2C14.7413 2.04137 13.6194 2.67106 12.9547 3.51679C12.3599 4.26369 11.837 5.46104 11.9788 6.61012C13.0097 6.69745 14.0661 6.03788 14.7096 5.19445Z" fill="white"/>
</svg>
