<svg width="24" height="24" viewBox="0 0 24 24" fill="none" xmlns="http://www.w3.org/2000/svg">
<path fill-rule="evenodd" clip-rule="evenodd" d="M11.4187 2.18628C11.7665 1.93791 12.2336 1.93791 12.5813 2.18628L12.9675 2.46221C12.9675 2.4622 12.9675 2.46221 12.9675 2.46221C14.7719 3.75107 16.9886 4.32844 19.1926 4.08356L19.8896 4.00612C20.1723 3.97471 20.455 4.06517 20.6669 4.25487C20.8789 4.44458 21 4.71556 21 5V12.0557C21 15.4647 19.074 18.581 16.0249 20.1055C16.0249 20.1055 16.0249 20.1055 16.0249 20.1055L12.4472 21.8944C12.1657 22.0352 11.8343 22.0352 11.5528 21.8944L7.97509 20.1055C4.92602 18.581 3 15.4647 3 12.0557V5C3 4.71556 3.12113 4.44457 3.33308 4.25487C3.54502 4.06517 3.82772 3.97471 4.11043 4.00612L4.80742 4.08356C7.0113 4.32844 9.22802 3.75108 11.0324 2.46222C11.0324 2.46222 11.0325 2.46221 11.0324 2.46222L11.4187 2.18628ZM19 6.10938C16.5227 6.29039 14.0547 5.62744 12 4.22576C9.94524 5.62743 7.47723 6.29039 5 6.10938V12.0557C5 14.7071 6.49802 17.131 8.86949 18.3167L12 19.882L15.1305 18.3167C17.502 17.131 19 14.7071 19 12.0557V6.10938ZM15.7071 9.29289C16.0976 9.68342 16.0976 10.3166 15.7071 10.7071L11.7071 14.7071C11.3166 15.0976 10.6834 15.0976 10.2929 14.7071L8.29289 12.7071C7.90237 12.3166 7.90237 11.6834 8.29289 11.2929C8.68342 10.9024 9.31658 10.9024 9.70711 11.2929L11 12.5858L14.2929 9.29289C14.6834 8.90237 15.3166 8.90237 15.7071 9.29289Z" fill="white"/>
</svg>
