<svg width="24" height="24" viewBox="0 0 24 24" fill="none" xmlns="http://www.w3.org/2000/svg">
<path fill-rule="evenodd" clip-rule="evenodd" d="M12.0002 11.9999C12.8286 11.9999 13.5002 11.3283 13.5002 10.4999C13.5002 9.67147 12.8286 8.9999 12.0002 8.9999C11.1718 8.9999 10.5002 9.67147 10.5002 10.4999C10.5002 11.3283 11.1718 11.9999 12.0002 11.9999ZM12.0002 13.9999C13.9332 13.9999 15.5002 12.4329 15.5002 10.4999C15.5002 8.5669 13.9332 6.9999 12.0002 6.9999C10.0672 6.9999 8.5002 8.5669 8.5002 10.4999C8.5002 12.4329 10.0672 13.9999 12.0002 13.9999Z" fill="white"/>
<path fill-rule="evenodd" clip-rule="evenodd" d="M12.0002 13.9999C10.5641 13.9999 9.20465 14.9106 8.38487 16.4661C8.12738 16.9547 7.52257 17.1421 7.03398 16.8846C6.54539 16.6271 6.35805 16.0223 6.61553 15.5337C7.69786 13.4799 9.65854 11.9999 12.0002 11.9999C14.3419 11.9999 16.3025 13.4799 17.3849 15.5337C17.6424 16.0223 17.455 16.6271 16.9664 16.8846C16.4778 17.1421 15.873 16.9547 15.6155 16.4661C14.7958 14.9106 13.4363 13.9999 12.0002 13.9999Z" fill="white"/>
<path fill-rule="evenodd" clip-rule="evenodd" d="M2 4C2 2.89543 2.89543 2 4 2H8C8.55228 2 9 2.44772 9 3C9 3.55228 8.55228 4 8 4H4V8C4 8.55228 3.55228 9 3 9C2.44772 9 2 8.55228 2 8V4Z" fill="white"/>
<path fill-rule="evenodd" clip-rule="evenodd" d="M22 20C22 21.1046 21.1046 22 20 22H16C15.4477 22 15 21.5523 15 21C15 20.4477 15.4477 20 16 20H20V16C20 15.4477 20.4477 15 21 15C21.5523 15 22 15.4477 22 16V20Z" fill="white"/>
<path fill-rule="evenodd" clip-rule="evenodd" d="M22 4C22 2.89543 21.1046 2 20 2H16C15.4477 2 15 2.44772 15 3C15 3.55228 15.4477 4 16 4H20V8C20 8.55228 20.4477 9 21 9C21.5523 9 22 8.55228 22 8V4Z" fill="white"/>
<path fill-rule="evenodd" clip-rule="evenodd" d="M2 20C2 21.1046 2.89543 22 4 22H8C8.55228 22 9 21.5523 9 21C9 20.4477 8.55228 20 8 20H4V16C4 15.4477 3.55228 15 3 15C2.44772 15 2 15.4477 2 16V20Z" fill="white"/>
</svg>
