<svg width="20" height="20" viewBox="0 0 20 20" fill="none" xmlns="http://www.w3.org/2000/svg">
<path fill-rule="evenodd" clip-rule="evenodd" d="M12.7131 7.45656V9.74225C12.7131 10.3801 13.0297 10.6966 13.3651 11.0321L13.3656 11.0326L13.3683 11.0353C13.7209 11.3888 14.0847 11.7535 14.0847 12.4849C14.0847 12.5486 14.0339 12.5993 13.9704 12.5993H3.91316C3.84998 12.5993 3.79883 12.5484 3.79883 12.4849C3.79883 11.7534 4.16281 11.3885 4.51546 11.0349L4.51793 11.0325C4.85345 10.697 5.17023 10.3802 5.17023 9.74196V7.45627C5.17023 5.69272 6.38893 4.21199 8.02743 3.80151V3.1135C8.02743 2.60877 8.43698 2.19922 8.94171 2.19922C9.44645 2.19922 9.856 2.60877 9.856 3.1135V3.80151C11.4944 4.21237 12.7131 5.69286 12.7131 7.45656ZM10.7702 13.1706C10.7702 14.1804 9.95138 14.9992 8.9416 14.9992C7.93167 14.9992 7.11311 14.1805 7.11311 13.1706H10.7702ZM9.15839 7.70452C9.70044 7.85525 10.07 7.99784 10.2634 8.13175C10.578 8.34966 10.7378 8.67608 10.7383 9.10551C10.7383 9.72791 10.5363 10.1701 10.13 10.4321C9.9061 10.5773 9.58334 10.6718 9.15885 10.719V11.4H8.82696V10.719C8.14643 10.6741 7.68283 10.4344 7.44133 9.99764C7.30742 9.76108 7.24023 9.44197 7.24023 9.0397H7.86316C7.88043 9.35934 7.9308 9.59453 8.01389 9.74115C8.15876 10.0059 8.43069 10.1543 8.82703 10.1856V8.27654C8.31809 8.18029 7.94396 8.01914 7.70155 7.79484C7.46089 7.57053 7.33968 7.25865 7.33968 6.86185C7.33968 6.50637 7.46956 6.18719 7.73016 5.90163C7.9903 5.61608 8.35621 5.47083 8.82658 5.46626V5H9.15847V5.45812C9.62382 5.49221 9.98158 5.62932 10.229 5.8699C10.4791 6.11095 10.609 6.43014 10.6208 6.82602H10.0061C9.99109 6.64851 9.94339 6.49458 9.86349 6.36835C9.71634 6.13134 9.48116 6.00648 9.15839 5.99469V7.70452ZM8.20182 7.36266C8.35613 7.49429 8.56408 7.5856 8.8265 7.63642L8.82658 5.98837C8.5169 5.99887 8.29762 6.09375 8.1669 6.26761C8.03611 6.44421 7.97075 6.62766 7.97075 6.8197C7.97075 7.05032 8.04744 7.2324 8.20182 7.36266ZM9.15786 10.2028C9.55922 10.1842 9.83344 10.039 9.98645 9.76473C10.0654 9.62359 10.1045 9.46236 10.1044 9.27899C10.1044 8.98575 9.99725 8.76327 9.78162 8.61072C9.65859 8.5217 9.45118 8.43861 9.15786 8.35872V10.2028Z" fill="black"/>
</svg>
