<svg width="20" height="20" viewBox="0 0 20 20" fill="none" xmlns="http://www.w3.org/2000/svg">
<path fill-rule="evenodd" clip-rule="evenodd" d="M13.9143 9.25734V11.543C13.9143 12.1809 14.2309 12.4974 14.5663 12.8329L14.5695 12.8361C14.9221 13.1896 15.2859 13.5543 15.2859 14.2857C15.2859 14.3494 15.2351 14.4001 15.1716 14.4001H5.11433C5.05115 14.4001 5 14.3492 5 14.2857C5 13.5542 5.36398 13.1893 5.71663 12.8357L5.7191 12.8333C6.05462 12.4978 6.3714 12.181 6.3714 11.5427V9.25705C6.3714 7.4935 7.5901 6.01277 9.2286 5.60229V4.91428C9.2286 4.40955 9.63815 4 10.1429 4C10.6476 4 11.0572 4.40955 11.0572 4.91428V5.60229C12.6956 6.01315 13.9143 7.49364 13.9143 9.25734ZM11.9714 14.9714C11.9714 15.9812 11.1525 16.8 10.1428 16.8C9.13284 16.8 8.31428 15.9813 8.31428 14.9714H11.9714ZM10.3596 9.5053C10.9016 9.65603 11.2712 9.79862 11.4646 9.93253C11.7792 10.1504 11.939 10.4769 11.9395 10.9063C11.9395 11.5287 11.7375 11.9709 11.3312 12.2329C11.1073 12.3781 10.7845 12.4726 10.36 12.5198V13.2008H10.0281V12.5198C9.3476 12.4749 8.884 12.2352 8.6425 11.7984C8.50859 11.5619 8.4414 11.2427 8.4414 10.8405H9.06433C9.0816 11.1601 9.13197 11.3953 9.21506 11.5419C9.35993 11.8067 9.63186 11.9551 10.0282 11.9864V10.0773C9.51926 9.98107 9.14513 9.81992 8.90272 9.59562C8.66206 9.37131 8.54085 9.05943 8.54085 8.66263C8.54085 8.30715 8.67073 7.98797 8.93133 7.70241C9.19147 7.41686 9.55738 7.27161 10.0278 7.26704V6.80078H10.3596V7.2589C10.825 7.29299 11.1828 7.4301 11.4302 7.67068C11.6803 7.91173 11.8102 8.23092 11.822 8.6268H11.2073C11.1923 8.44929 11.1446 8.29536 11.0647 8.16913C10.9175 7.93212 10.6823 7.80726 10.3596 7.79547V9.5053ZM9.40299 9.16344C9.5573 9.29507 9.76525 9.38638 10.0277 9.4372L10.0278 7.78915C9.71807 7.79965 9.49879 7.89453 9.36807 8.06839C9.23728 8.24499 9.17192 8.42844 9.17192 8.62048C9.17192 8.8511 9.24861 9.03318 9.40299 9.16344ZM10.359 12.0036C10.7604 11.985 11.0346 11.8398 11.1876 11.5655C11.2666 11.4244 11.3057 11.2631 11.3056 11.0798C11.3056 10.7865 11.1984 10.564 10.9828 10.4115C10.8598 10.3225 10.6523 10.2394 10.359 10.1595V12.0036Z" fill="black"/>
</svg>
