<svg width="24" height="24" viewBox="0 0 24 24" fill="none" xmlns="http://www.w3.org/2000/svg">
<path fill-rule="evenodd" clip-rule="evenodd" d="M6 8C6 6.89543 6.89543 6 8 6H15.5C16.0523 6 16.5 6.44772 16.5 7C16.5 7.55228 16.0523 8 15.5 8H8V9H15C16.6569 9 18 10.3431 18 12V15C18 16.6569 16.6569 18 15 18H9C7.34315 18 6 16.6569 6 15V10.5C6 10.3393 6.03789 10.1875 6.10522 10.053C6.03732 9.88188 6 9.6953 6 9.5V8ZM8 11V15C8 15.5523 8.44772 16 9 16H15C15.5523 16 16 15.5523 16 15V12C16 11.4477 15.5523 11 15 11H8Z" fill="white"/>
<path d="M15 13C15 13.5523 14.5523 14 14 14C13.4477 14 13 13.5523 13 13C13 12.4477 13.4477 12 14 12C14.5523 12 15 12.4477 15 13Z" fill="white"/>
<path d="M6 9H8V11H6V9Z" fill="white"/>
<path fill-rule="evenodd" clip-rule="evenodd" d="M6 8C6 6.89543 6.89543 6 8 6H16C16.5523 6 17 6.44772 17 7C17 7.55228 16.5523 8 16 8H8.5C8.22386 8 8 8.22386 8 8.5C8 8.77614 8.22386 9 8.5 9H16C17.1046 9 18 9.89543 18 11V16C18 17.1046 17.1046 18 16 18H8C6.89543 18 6 17.1046 6 16V8ZM16 12C16 11.4477 15.5523 11 15 11H9C8.44772 11 8 11.4477 8 12V15C8 15.5523 8.44772 16 9 16H15C15.5523 16 16 15.5523 16 15V12Z" fill="white"/>
<path fill-rule="evenodd" clip-rule="evenodd" d="M6 8C6 6.89543 6.89543 6 8 6H16C16.5523 6 17 6.44772 17 7C17 7.55228 16.5523 8 16 8H8.5C8.22386 8 8 8.22386 8 8.5C8 8.77614 8.22386 9 8.5 9H16C17.1046 9 18 9.89543 18 11V16C18 17.1046 17.1046 18 16 18H8C6.89543 18 6 17.1046 6 16V8ZM16 12C16 11.4477 15.5523 11 15 11H9C8.44772 11 8 11.4477 8 12V15C8 15.5523 8.44772 16 9 16H15C15.5523 16 16 15.5523 16 15V12Z" fill="white"/>
<path fill-rule="evenodd" clip-rule="evenodd" d="M6 8C6 6.89543 6.89543 6 8 6H16C16.5523 6 17 6.44772 17 7C17 7.55228 16.5523 8 16 8H8.5C8.22386 8 8 8.22386 8 8.5C8 8.77614 8.22386 9 8.5 9H16C17.1046 9 18 9.89543 18 11V16C18 17.1046 17.1046 18 16 18H8C6.89543 18 6 17.1046 6 16V8ZM16 12C16 11.4477 15.5523 11 15 11H9C8.44772 11 8 11.4477 8 12V15C8 15.5523 8.44772 16 9 16H15C15.5523 16 16 15.5523 16 15V12Z" fill="white"/>
<path fill-rule="evenodd" clip-rule="evenodd" d="M6 8C6 6.89543 6.89543 6 8 6H16C16.5523 6 17 6.44772 17 7C17 7.55228 16.5523 8 16 8H8.5C8.22386 8 8 8.22386 8 8.5C8 8.77614 8.22386 9 8.5 9H16C17.1046 9 18 9.89543 18 11V16C18 17.1046 17.1046 18 16 18H8C6.89543 18 6 17.1046 6 16V8ZM16 12C16 11.4477 15.5523 11 15 11H9C8.44772 11 8 11.4477 8 12V15C8 15.5523 8.44772 16 9 16H15C15.5523 16 16 15.5523 16 15V12Z" fill="white"/>
<path fill-rule="evenodd" clip-rule="evenodd" d="M22 4C22 2.89543 21.1046 2 20 2H4C2.89543 2 2 2.89543 2 4V20C2 21.1046 2.89543 22 4 22H20C21.1046 22 22 21.1046 22 20V4ZM20 5C20 4.44772 19.5523 4 19 4H5C4.44772 4 4 4.44772 4 5V19C4 19.5523 4.44772 20 5 20H19C19.5523 20 20 19.5523 20 19V5Z" fill="white"/>
</svg>
