<svg width="24" height="24" viewBox="0 0 24 24" fill="none" xmlns="http://www.w3.org/2000/svg">
<path fill-rule="evenodd" clip-rule="evenodd" d="M6.78262 4C5.79355 4 5 4.79665 5 5.76923V14.9057C5.53154 14.6222 6.13864 14.4615 6.78262 14.4615H7.52175V4H6.78262ZM9.52175 4V14.4615H19V4.38461C19 4.17671 18.8294 4 18.6087 4H9.52175ZM19 16.4615H6.78262C5.79354 16.4615 5 17.2582 5 18.2307C5 19.2034 5.79357 20 6.78262 20H18.6087C18.8294 20 19 19.8233 19 19.6154V16.4615ZM3 18.2307V5.76923C3 3.683 4.69808 2 6.78262 2H18.6087C19.9249 2 21 3.06311 21 4.38461V19.6154C21 20.9368 19.9249 22 18.6087 22H6.78262C4.69807 22 3 20.317 3 18.2307ZM11.0541 7.15384C11.0541 6.60156 11.5018 6.15384 12.0541 6.15384H15.8696C16.4219 6.15384 16.8696 6.60156 16.8696 7.15384C16.8696 7.70613 16.4219 8.15384 15.8696 8.15384H12.0541C11.5018 8.15384 11.0541 7.70613 11.0541 7.15384ZM11.0541 11.3077C11.0541 10.7554 11.5018 10.3077 12.0541 10.3077H15.8696C16.4219 10.3077 16.8696 10.7554 16.8696 11.3077C16.8696 11.8599 16.4219 12.3077 15.8696 12.3077H12.0541C11.5018 12.3077 11.0541 11.8599 11.0541 11.3077Z" fill="white"/>
</svg>
