<svg width="24" height="24" viewBox="0 0 24 24" fill="none" xmlns="http://www.w3.org/2000/svg">
<path fill-rule="evenodd" clip-rule="evenodd" d="M6 17H2V15H6V10.1904C4.94461 11.2032 3.54809 11.8633 2 11.9811V9.97254C4.24998 9.72381 6 7.81628 6 5.5V4C6 3.44772 6.44772 3 7 3C7.55228 3 8 3.44772 8 4V5.75C8 8.09721 9.90279 10 12.25 10C14.5972 10 16.5 8.09721 16.5 5.75V4C16.5 3.44772 16.9477 3 17.5 3C18.0523 3 18.5 3.44772 18.5 4V5.5C18.5 7.64159 19.996 9.43376 22 9.88849V11.9236C20.6519 11.7154 19.4405 11.093 18.5 10.1904V15H22V17H18.5V20C18.5 20.5523 18.0523 21 17.5 21C16.9477 21 16.5 20.5523 16.5 20V17H8V20C8 20.5523 7.55228 21 7 21C6.44772 21 6 20.5523 6 20V17ZM16.5 10.3326V15H8V10.3326C9.1152 11.3674 10.6087 12 12.25 12C13.8913 12 15.3848 11.3674 16.5 10.3326Z" fill="white"/>
</svg>
