<svg width="18" height="18" viewBox="0 0 18 18" fill="none" xmlns="http://www.w3.org/2000/svg">
<rect x="4.71143" y="4.02582" width="1.35569" height="9.9742" rx="0.677843" fill="currentcolor"/>
<rect x="12.8892" y="4.02582" width="1.35569" height="9.9742" rx="0.677843" fill="currentcolor"/>
<rect x="2" y="11.1502" width="1.42488" height="15" rx="0.712442" transform="rotate(-90 2 11.1502)" fill="currentcolor"/>
<path fill-rule="evenodd" clip-rule="evenodd" d="M3.31771 5.30058C4.24362 3.57008 6.6126 3.56556 7.54446 5.29254L8.555 7.16532C8.9652 7.92552 10.0071 7.92624 10.4183 7.16662L11.4224 5.31144C12.3562 3.58614 14.7245 3.59345 15.6487 5.32449L16.8341 7.54495C17.0173 7.88809 16.9012 8.32235 16.5747 8.51489C16.2482 8.70744 15.835 8.58536 15.6518 8.24222L14.4664 6.02176C14.0584 5.25761 13.013 5.25438 12.6007 6.016L11.5966 7.87118C10.6652 9.59197 8.30498 9.59033 7.37576 7.86825L6.36522 5.99546C5.95386 5.23311 4.9081 5.2351 4.49936 5.99901L3.29882 8.2428C3.11532 8.58576 2.70204 8.70743 2.37573 8.51456C2.04943 8.32169 1.93367 7.88732 2.11717 7.54436L3.31771 5.30058Z" fill="currentcolor"/>
</svg>
