<svg width="20" height="20" viewBox="0 0 20 20" fill="none" xmlns="http://www.w3.org/2000/svg">
<path fill-rule="evenodd" clip-rule="evenodd" d="M5.66821 7.89813C4.93973 8.82718 3.87585 9.60251 2.41821 9.60251V8.10251C3.46794 8.10251 4.26592 7.42771 4.84378 6.44881C5.42646 5.46175 5.66821 4.34748 5.66821 3.87421H7.16821C7.16821 4.34748 7.40997 5.46175 7.99265 6.44881C8.57051 7.42771 9.36848 8.10251 10.4182 8.10251C11.4679 8.10251 12.2659 7.42771 12.8438 6.44881C13.4265 5.46175 13.6682 4.34748 13.6682 3.87421H15.1682C15.1682 4.34748 15.41 5.46175 15.9926 6.44881C16.5705 7.42771 17.3685 8.10251 18.4182 8.10251V9.60251C16.9606 9.60251 15.8967 8.82718 15.1682 7.89813V11.1705H18.4182V12.6705H15.1682V16.1257H13.6682V12.6705H7.16821V16.1257H5.66821V12.6705H2.41821V11.1705H5.66821V7.89813ZM7.16821 7.89813V11.1705H13.6682V7.89813C12.9397 8.82718 11.8758 9.60251 10.4182 9.60251C8.96058 9.60251 7.89669 8.82718 7.16821 7.89813Z" fill="black"/>
</svg>
