<svg width="20" height="20" viewBox="0 0 20 20" fill="none" xmlns="http://www.w3.org/2000/svg">
<path fill-rule="evenodd" clip-rule="evenodd" d="M15.5738 0.973914C16.0183 1.09303 16.2822 1.54998 16.163 1.99454L14.1851 9.3764C14.8371 9.82396 15.2434 10.5615 15.2692 11.3559C16.1803 11.9222 16.6552 13.0368 16.3632 14.1264L15.5005 17.3461C15.2859 18.147 14.6407 18.6442 13.9499 18.8762C13.2571 19.1089 12.4366 19.1134 11.6337 18.8982C11.4202 18.841 11.2382 18.7013 11.1277 18.5099C11.0171 18.3185 10.9872 18.091 11.0444 17.8776L11.0729 17.7712C11.057 17.7746 11.0409 17.7779 11.0247 17.7813C10.0003 17.9909 8.55301 18.0728 6.80407 17.6041C6.47851 17.5169 6.23755 17.2421 6.19356 16.908C6.14965 16.5745 6.31055 16.2473 6.60133 16.0785L6.60027 16.0791C6.60027 16.0791 6.60072 16.0789 6.60243 16.0779L6.62275 16.0654C6.6422 16.0532 6.67299 16.0335 6.71181 16.0069C6.79041 15.9531 6.89684 15.8747 7.00692 15.778C7.25157 15.563 7.40811 15.3498 7.45112 15.1893L8.09815 12.7746L8.31385 11.9696C8.60584 10.8798 9.57444 10.1522 10.6465 10.1173C11.0661 9.44224 11.7867 9.00662 12.5752 8.94504L14.5532 1.56317C14.6723 1.11862 15.1292 0.854796 15.5738 0.973914ZM9.92374 12.4009L14.7533 13.6951C14.8725 13.2505 14.6086 12.7935 14.1641 12.6744C13.9506 12.6172 13.7686 12.4775 13.6581 12.2861C13.5476 12.0947 13.5176 11.8672 13.5748 11.6537C13.694 11.2092 13.4301 10.7523 12.9856 10.6332C12.5411 10.5141 12.0841 10.7779 11.965 11.2224C11.9078 11.4359 11.7681 11.618 11.5767 11.7285C11.3853 11.839 11.1578 11.8689 10.9443 11.8117C10.4998 11.6926 10.0429 11.9564 9.92374 12.4009ZM14.322 15.3049L9.49237 14.0108L9.061 15.6207C8.99793 15.8561 8.89633 16.07 8.77718 16.2605C9.54741 16.3182 10.1928 16.2503 10.6906 16.1484C11.0927 16.0661 11.4005 15.9613 11.6011 15.8807C11.7013 15.8405 11.7745 15.8065 11.819 15.7846C11.8413 15.7736 11.8563 15.7658 11.8639 15.7617L11.8692 15.7588C12.1603 15.5935 12.5222 15.6183 12.7881 15.8223C13.0555 16.0275 13.1729 16.3736 13.0857 16.6991L12.9015 17.3864C13.0974 17.3779 13.2725 17.3456 13.4193 17.2963C13.7554 17.1834 13.8626 17.0195 13.8907 16.9148L14.322 15.3049Z" fill="black"/>
<path d="M6.33847 5.35719C6.40078 5.1888 6.63896 5.1888 6.70127 5.35719C7.01471 6.20426 7.68257 6.87212 8.52965 7.18557C8.69804 7.24788 8.69804 7.48606 8.52965 7.54837C7.68257 7.86181 7.01471 8.52971 6.70127 9.37679C6.63895 9.54512 6.40078 9.54512 6.33847 9.37679C6.02502 8.52971 5.35716 7.86181 4.51008 7.54837C4.34169 7.48606 4.34169 7.24788 4.51008 7.18557C5.35716 6.87212 6.02502 6.20426 6.33847 5.35719Z" fill="black"/>
<path fill-rule="evenodd" clip-rule="evenodd" d="M6.99431 5.94717C6.98268 5.92894 6.97124 5.91057 6.95999 5.89208C6.88667 5.7716 6.8213 5.64563 6.76458 5.51486C6.7421 5.46305 6.72098 5.41047 6.70127 5.35719C6.63896 5.1888 6.40078 5.1888 6.33847 5.35719C6.31876 5.41047 6.29764 5.46304 6.27517 5.51486C6.21845 5.64562 6.15307 5.7716 6.07975 5.89208C6.0685 5.91057 6.05705 5.92893 6.04543 5.94716C5.80299 6.32732 5.48021 6.6501 5.10006 6.89253C5.08183 6.90415 5.06346 6.9156 5.04497 6.92685C4.92449 7.00017 4.79852 7.06554 4.66776 7.12226C4.61594 7.14474 4.56336 7.16586 4.51008 7.18557C4.34169 7.24788 4.34169 7.48606 4.51008 7.54837C4.56336 7.56808 4.61593 7.5892 4.66775 7.61167C4.79851 7.66839 4.92449 7.73377 5.04497 7.80709C5.06346 7.81834 5.08182 7.82979 5.10005 7.84141C5.48021 8.08385 5.80299 8.40664 6.04543 8.78681C6.05705 8.80504 6.06849 8.8234 6.07975 8.84189C6.15306 8.96235 6.21842 9.08829 6.27513 9.21903C6.2976 9.27085 6.31876 9.32351 6.33847 9.37679C6.40078 9.54512 6.63895 9.54512 6.70127 9.37679C6.72098 9.32351 6.7421 9.27094 6.76457 9.21912C6.82129 9.08837 6.88668 8.96235 6.96 8.84188C6.97125 8.82339 6.98269 8.80503 6.99431 8.78681C7.23674 8.40664 7.55952 8.08385 7.93968 7.84141C7.95791 7.82979 7.97627 7.81834 7.99477 7.80709C8.11524 7.73377 8.24121 7.6684 8.37197 7.61168C8.42379 7.5892 8.47637 7.56808 8.52965 7.54837C8.69804 7.48606 8.69804 7.24788 8.52965 7.18557C8.47637 7.16586 8.4238 7.14474 8.37198 7.12226C8.24122 7.06555 8.11524 7.00017 7.99476 6.92685C7.97627 6.9156 7.95791 6.90415 7.93968 6.89253C7.55952 6.6501 7.23674 6.32732 6.99431 5.94717ZM7.17054 7.36697C6.92893 7.17633 6.71051 6.95791 6.51987 6.7163C6.32922 6.95791 6.1108 7.17633 5.86919 7.36697C6.1108 7.55762 6.32922 7.77605 6.51987 8.01766C6.71051 7.77605 6.92893 7.55762 7.17054 7.36697Z" fill="black"/>
</svg>
