<svg width="24" height="24" viewBox="0 0 24 24" fill="none" xmlns="http://www.w3.org/2000/svg">
<path fill-rule="evenodd" clip-rule="evenodd" d="M6.45661 13.8026L4.01562 15.1756V17.8323L6.45661 19.2054L8.8976 17.8323V15.1756L6.45661 13.8026ZM10.3879 13.7192C10.7027 13.8963 10.8976 14.2295 10.8976 14.5908V18.4172C10.8976 18.7784 10.7027 19.1116 10.3879 19.2887L6.94687 21.2243C6.64246 21.3955 6.27076 21.3955 5.96635 21.2243L2.52536 19.2887C2.21049 19.1116 2.01562 18.7784 2.01562 18.4172V14.5908C2.01562 14.2295 2.21049 13.8963 2.52536 13.7192L5.96635 11.7836C6.27076 11.6124 6.64246 11.6124 6.94687 11.7836L10.3879 13.7192Z" fill="white"/>
<path fill-rule="evenodd" clip-rule="evenodd" d="M12.0078 4.92048L9.56683 6.29353V8.95025L12.0078 10.3233L14.4488 8.95025V6.29353L12.0078 4.92048ZM15.9391 4.83711C16.2539 5.01423 16.4488 5.34741 16.4488 5.70869V9.5351C16.4488 9.89637 16.2539 10.2296 15.9391 10.4067L12.4981 12.3422C12.1937 12.5135 11.822 12.5135 11.5176 12.3422L8.07657 10.4067C7.76169 10.2296 7.56683 9.89637 7.56683 9.5351V5.70869C7.56683 5.34741 7.76169 5.01423 8.07657 4.83711L11.5176 2.90156C11.822 2.73032 12.1937 2.73032 12.4981 2.90156L15.9391 4.83711Z" fill="white"/>
<path fill-rule="evenodd" clip-rule="evenodd" d="M17.559 13.8026L15.118 15.1756V17.8323L17.559 19.2054L20 17.8323V15.1756L17.559 13.8026ZM21.4903 13.7192C21.8051 13.8963 22 14.2295 22 14.5908V18.4172C22 18.7784 21.8051 19.1116 21.4903 19.2887L18.0493 21.2243C17.7449 21.3955 17.3732 21.3955 17.0688 21.2243L13.6278 19.2887C13.3129 19.1116 13.118 18.7784 13.118 18.4172V14.5908C13.118 14.2295 13.3129 13.8963 13.6278 13.7192L17.0688 11.7836C17.3732 11.6124 17.7449 11.6124 18.0493 11.7836L21.4903 13.7192Z" fill="white"/>
<path d="M6.01471 16.2328L2.64062 14.375L6.5 12L10.3125 14.375L6.9839 16.2303C6.68285 16.3981 6.31662 16.399 6.01471 16.2328Z" fill="white"/>
<path d="M17.0147 16.2328L13.6406 14.375L17.5 12L21.3125 14.375L17.9839 16.2303C17.6829 16.3981 17.3166 16.399 17.0147 16.2328Z" fill="white"/>
<path d="M11.5381 7.35461L8.16406 5.49681L12.0234 3.12181L15.8359 5.49681L12.5073 7.3521C12.2063 7.51989 11.8401 7.52084 11.5381 7.35461Z" fill="white"/>
</svg>
