<svg width="24" height="24" viewBox="0 0 24 24" fill="none" xmlns="http://www.w3.org/2000/svg">
<path fill-rule="evenodd" clip-rule="evenodd" d="M12 3C12.2818 3 12.5504 3.11885 12.7399 3.32733L17.7399 8.82733C18.1115 9.23598 18.0813 9.86843 17.6727 10.2399C17.264 10.6114 16.6316 10.5813 16.2601 10.1727L12 5.48661L7.73995 10.1727C7.36844 10.5813 6.73599 10.6114 6.32733 10.2399C5.91868 9.86843 5.88856 9.23598 6.26007 8.82733L11.2601 3.32733C11.4496 3.11885 11.7183 3 12 3ZM6.32733 13.7601C6.73599 13.3886 7.36844 13.4187 7.73995 13.8273L12 18.5134L16.2601 13.8273C16.6316 13.4187 17.264 13.3886 17.6727 13.7601C18.0813 14.1316 18.1115 14.764 17.7399 15.1727L12.7399 20.6727C12.5504 20.8811 12.2818 21 12 21C11.7183 21 11.4496 20.8811 11.2601 20.6727L6.26007 15.1727C5.88856 14.764 5.91868 14.1316 6.32733 13.7601Z" fill="white"/>
</svg>
