<svg width="24" height="24" viewBox="0 0 24 24" fill="none" xmlns="http://www.w3.org/2000/svg">
<path fill-rule="evenodd" clip-rule="evenodd" d="M7.91889 5.25061C8.29843 4.77618 8.87306 4.5 9.48063 4.5H20C21.1046 4.5 22 5.39543 22 6.5V17.5C22 18.6046 21.1046 19.5 20 19.5H9.43455C8.88019 19.5 8.35069 19.2699 7.97244 18.8646L2.0791 12.5503L7.91889 5.25061ZM20 6.5L9.48063 6.5L4.7209 12.4497L9.43455 17.5H20V6.5Z" fill="white"/>
<path fill-rule="evenodd" clip-rule="evenodd" d="M11.293 8.79289C11.6835 8.40237 12.3167 8.40237 12.7072 8.79289L17.7072 13.7929C18.0977 14.1834 18.0977 14.8166 17.7072 15.2071C17.3167 15.5976 16.6835 15.5976 16.293 15.2071L11.293 10.2071C10.9025 9.81658 10.9025 9.18342 11.293 8.79289Z" fill="white"/>
<path fill-rule="evenodd" clip-rule="evenodd" d="M17.7072 8.79289C17.3167 8.40237 16.6835 8.40237 16.293 8.79289L11.293 13.7929C10.9025 14.1834 10.9025 14.8166 11.293 15.2071C11.6835 15.5976 12.3167 15.5976 12.7072 15.2071L17.7072 10.2071C18.0977 9.81658 18.0977 9.18342 17.7072 8.79289Z" fill="white"/>
</svg>
