<svg width="20" height="20" viewBox="0 0 20 20" fill="none" xmlns="http://www.w3.org/2000/svg">
<path d="M6.64775 10.7667C8.24017 10.7667 9.53109 9.47577 9.53109 7.88334C9.53109 6.29092 8.24017 5 6.64775 5C5.05532 5 3.7644 6.29092 3.7644 7.88334C3.7644 9.47577 5.05532 10.7667 6.64775 10.7667Z" fill="white"/>
<path d="M16.2413 7.88389C16.2413 9.47632 14.9504 10.7672 13.358 10.7672C11.7655 10.7672 10.4746 9.47632 10.4746 7.88389C10.4746 6.29146 11.7655 5.00055 13.358 5.00055C14.9504 5.00055 16.2413 6.29146 16.2413 7.88389Z" fill="white"/>
<path d="M13.358 11.748C16.1857 11.748 18.4809 13.6229 18.5057 15.9435H8.21021C8.235 13.6229 10.5302 11.748 13.358 11.748Z" fill="white"/>
<path d="M9.05526 12.238C8.33685 11.9248 7.5175 11.7475 6.64777 11.7475C3.82003 11.7475 1.5248 13.6223 1.5 15.9429H7.21026L7.21037 15.9328C7.22639 14.4336 7.94676 13.1519 9.05526 12.238Z" fill="white"/>
</svg>
