<svg width="24" height="24" viewBox="0 0 24 24" fill="none" xmlns="http://www.w3.org/2000/svg">
<path fill-rule="evenodd" clip-rule="evenodd" d="M20 12V20H12V12H20ZM21 10C21.5523 10 22 10.4477 22 11V21C22 21.5523 21.5523 22 21 22H11C10.4477 22 10 21.5523 10 21V11C10 10.4477 10.4477 10 11 10H21Z" fill="white"/>
<path d="M8 8V20H7C6.44772 20 6 19.5523 6 19V7C6 6.44772 6.44772 6 7 6H19C19.5523 6 20 6.44772 20 7V8H8Z" fill="white"/>
<path d="M4 4V16H3C2.44772 16 2 15.5523 2 15V3C2 2.44772 2.44772 2 3 2H15C15.5523 2 16 2.44772 16 3V4H4Z" fill="white"/>
</svg>
