<svg width="24" height="24" viewBox="0 0 24 24" fill="none" xmlns="http://www.w3.org/2000/svg">
<path d="M2.50038 8.91976L11.5 14.0208C11.652 14.1069 11.8245 14.1522 12 14.1522C12.1755 14.1522 12.348 14.1069 12.5 14.0208L21.4996 8.91976C21.6507 8.83416 21.7764 8.71125 21.8641 8.56325C21.9518 8.41525 21.9985 8.24731 21.9996 8.07612C22.0003 7.90326 21.9544 7.73329 21.8666 7.58342C21.7788 7.43356 21.6522 7.3091 21.4996 7.22268L12.5 2.13143C12.348 2.04533 12.1755 2 12 2C11.8245 2 11.652 2.04533 11.5 2.13143L2.50038 7.22268C2.34778 7.3091 2.22117 7.43356 2.13337 7.58342C2.04557 7.73329 1.9997 7.90326 2.0004 8.07612C2.00145 8.24731 2.04816 8.41525 2.13587 8.56325C2.22358 8.71125 2.34925 8.83416 2.50038 8.91976ZM12 4.15223L18.9997 8.07612L12 12L5.00028 8.07612L12 4.15223ZM20.4997 11.1858L12 15.9239L3.50034 11.1465C3.38621 11.0817 3.26013 11.0396 3.12936 11.0228C2.99858 11.006 2.8657 11.0146 2.73836 11.0483C2.61103 11.0821 2.49175 11.1402 2.38742 11.2193C2.28307 11.2985 2.19572 11.3972 2.1304 11.5095C2.00002 11.7348 1.96576 12.0014 2.03507 12.2514C2.10439 12.5013 2.27166 12.7142 2.50038 12.8436L11.5 17.9447C11.652 18.0308 11.8245 18.0761 12 18.0761C12.1755 18.0761 12.348 18.0308 12.5 17.9447L21.4996 12.8436C21.7283 12.7142 21.8956 12.5013 21.9649 12.2514C22.0342 12.0014 22 11.7348 21.8696 11.5095C21.8043 11.3972 21.7169 11.2985 21.6126 11.2193C21.5082 11.1402 21.3889 11.0821 21.2617 11.0483C21.1344 11.0146 21.0015 11.006 20.8707 11.0228C20.7399 11.0396 20.6138 11.0817 20.4997 11.1465V11.1858ZM20.4997 15.1097L12 19.8477L3.50034 15.0704C3.38621 15.0056 3.26013 14.9635 3.12936 14.9467C2.99858 14.9298 2.8657 14.9385 2.73836 14.9722C2.61103 15.006 2.49175 15.0641 2.38742 15.1432C2.28307 15.2224 2.19572 15.3211 2.1304 15.4334C2.00002 15.6587 1.96576 15.9253 2.03507 16.1753C2.10439 16.4252 2.27166 16.6381 2.50038 16.7675L11.5 21.8686C11.652 21.9547 11.8245 22 12 22C12.1755 22 12.348 21.9547 12.5 21.8686L21.4996 16.7675C21.7283 16.6381 21.8956 16.4252 21.9649 16.1753C22.0342 15.9253 22 15.6587 21.8696 15.4334C21.8043 15.3211 21.7169 15.2224 21.6126 15.1432C21.5082 15.0641 21.3889 15.006 21.2617 14.9722C21.1344 14.9385 21.0015 14.9298 20.8707 14.9467C20.7399 14.9635 20.6138 15.0056 20.4997 15.0704V15.1097Z" fill="white"/>
</svg>
