<svg width="24" height="24" viewBox="0 0 24 24" fill="none" xmlns="http://www.w3.org/2000/svg">
<path fill-rule="evenodd" clip-rule="evenodd" d="M7 10.5C7 8.84317 8.34317 7.5 10 7.5C11.6568 7.5 13 8.84317 13 10.5C13 11.1753 12.7769 11.7985 12.4003 12.2999C13.3717 13.0297 14 14.1915 14 15.5C14 16.0523 13.5523 16.5 13 16.5C12.4477 16.5 12 16.0523 12 15.5C12 14.3954 11.1046 13.5 10 13.5C8.89543 13.5 8 14.3954 8 15.5C8 16.0523 7.55228 16.5 7 16.5C6.44772 16.5 6 16.0523 6 15.5C6 14.1915 6.62833 13.0297 7.59973 12.2999C7.22315 11.7985 7 11.1753 7 10.5ZM10 11.5C10.5523 11.5 11 11.0523 11 10.5C11 9.94773 10.5523 9.5 10 9.5C9.44773 9.5 9 9.94773 9 10.5C9 11.0523 9.44773 11.5 10 11.5Z" fill="white"/>
<path d="M15 10C15 9.44772 15.4477 9 16 9H17C17.5523 9 18 9.44772 18 10C18 10.5523 17.5523 11 17 11H16C15.4477 11 15 10.5523 15 10Z" fill="white"/>
<path d="M16 13C15.4477 13 15 13.4477 15 14C15 14.5523 15.4477 15 16 15H17C17.5523 15 18 14.5523 18 14C18 13.4477 17.5523 13 17 13H16Z" fill="white"/>
<path fill-rule="evenodd" clip-rule="evenodd" d="M2 4C2 3.44772 2.44772 3 3 3H21C21.5523 3 22 3.44772 22 4V20C22 20.5523 21.5523 21 21 21H3C2.44772 21 2 20.5523 2 20V4ZM4 5V19H20V5H4Z" fill="white"/>
</svg>
