<svg width="24" height="24" viewBox="0 0 24 24" fill="none" xmlns="http://www.w3.org/2000/svg">
<path fill-rule="evenodd" clip-rule="evenodd" d="M4 2C2.89543 2 2 2.89543 2 4V20C2 21.1046 2.89543 22 4 22H16.1716C16.702 22 17.2107 21.7893 17.5858 21.4142L21.4142 17.5858C21.7893 17.2107 22 16.702 22 16.1716V4C22 2.89543 21.1046 2 20 2H4ZM5 4C4.44772 4 4 4.44772 4 5V19C4 19.5523 4.44772 20 5 20H16V16H20V5C20 4.44772 19.5523 4 19 4H5Z" fill="white"/>
<path d="M10 7.5C10 8.60457 9.10457 9.5 8 9.5C6.89543 9.5 6 8.60457 6 7.5C6 6.39543 6.89543 5.5 8 5.5C9.10457 5.5 10 6.39543 10 7.5Z" fill="white"/>
<path d="M16 9.5C16 10.6046 15.1046 11.5 14 11.5C12.8954 11.5 12 10.6046 12 9.5C12 8.39543 12.8954 7.5 14 7.5C15.1046 7.5 16 8.39543 16 9.5Z" fill="white"/>
<path fill-rule="evenodd" clip-rule="evenodd" d="M8 8.75C8.41421 8.75 8.75 9.08579 8.75 9.5V14.9594L13.0791 13.5164C13.1811 13.4824 13.25 13.3868 13.25 13.2792V10.1875C13.25 9.77329 13.5858 9.4375 14 9.4375C14.4142 9.4375 14.75 9.77329 14.75 10.1875V13.2792C14.75 14.0325 14.268 14.7012 13.5534 14.9394L8.75 16.5406V20C8.75 20.4142 8.41421 20.75 8 20.75C7.58579 20.75 7.25 20.4142 7.25 20V9.5C7.25 9.08579 7.58579 8.75 8 8.75Z" fill="white"/>
</svg>
