<svg width="24" height="24" viewBox="0 0 24 24" fill="none" xmlns="http://www.w3.org/2000/svg">
<path fill-rule="evenodd" clip-rule="evenodd" d="M2 4C2 2.89543 2.89543 2 4 2H20C21.1046 2 22 2.89543 22 4V16.1716C22 16.702 21.7893 17.2107 21.4142 17.5858L17.5858 21.4142C17.2107 21.7893 16.702 22 16.1716 22H4C2.89543 22 2 21.1046 2 20V4ZM4 5C4 4.44772 4.44772 4 5 4H19C19.5523 4 20 4.44772 20 5V16H16V20H8.75V16.5406L13.5534 14.9394C14.268 14.7012 14.75 14.0325 14.75 13.2792V11.3546C15.483 11.0579 16 10.3393 16 9.5C16 8.39543 15.1046 7.5 14 7.5C12.8954 7.5 12 8.39543 12 9.5C12 10.3393 12.517 11.0579 13.25 11.3546V13.2792C13.25 13.3868 13.1811 13.4824 13.0791 13.5164L8.75 14.9594V9.5C8.75 9.4521 8.74551 9.40526 8.73693 9.35986C9.4768 9.06645 10 8.34433 10 7.5C10 6.39543 9.10457 5.5 8 5.5C6.89543 5.5 6 6.39543 6 7.5C6 8.34433 6.5232 9.06645 7.26307 9.35986C7.25449 9.40526 7.25 9.4521 7.25 9.5V20H5C4.44772 20 4 19.5523 4 19V5Z" fill="white"/>
</svg>
