<svg width="20" height="20" viewBox="0 0 20 20" fill="none" xmlns="http://www.w3.org/2000/svg">
<path d="M9.52831 7.89823C9.52831 9.49888 8.23784 10.7965 6.64596 10.7965C5.05408 10.7965 3.76361 9.49888 3.76361 7.89823C3.76361 6.29758 5.05408 5 6.64596 5C8.23784 5 9.52831 6.29758 9.52831 7.89823Z" fill="black"/>
<path d="M9.05266 12.2754C8.3345 11.9606 7.51543 11.7823 6.646 11.7823C3.81924 11.7823 1.52479 13.6669 1.5 15.9994H7.2083L7.20841 15.9892C7.22442 14.4823 7.94454 13.194 9.05266 12.2754Z" fill="black"/>
<path d="M16.2363 7.89879C16.2363 9.49943 14.9458 10.797 13.354 10.797C11.7621 10.797 10.4716 9.49943 10.4716 7.89879C10.4716 6.29814 11.7621 5.00055 13.354 5.00055C14.9458 5.00055 16.2363 6.29814 16.2363 7.89879Z" fill="black"/>
<path fill-rule="evenodd" clip-rule="evenodd" d="M18.5 16L8.20801 15.9994C8.2328 13.6669 10.5272 11.7829 13.354 11.7829C16.1808 11.7829 18.4752 13.6674 18.5 16Z" fill="black"/>
</svg>