<svg width="24" height="24" viewBox="0 0 24 24" fill="none" xmlns="http://www.w3.org/2000/svg">
<path d="M6.00001 2.99988V7.99995C6.00001 8.26517 6.10537 8.51952 6.2929 8.70706C6.48044 8.89459 6.73479 8.99995 7.00001 8.99995H9.86501L11.232 10.641C11.3259 10.7535 11.4433 10.8441 11.576 10.9062C11.7087 10.9683 11.8535 11.0006 12 11.0006C12.1465 11.0006 12.2913 10.9683 12.424 10.9062C12.5567 10.8441 12.6741 10.7535 12.768 10.641L14.135 8.99995H17C17.2652 8.99995 17.5196 8.89459 17.7071 8.70706C17.8946 8.51952 18 8.26517 18 7.99995V2.99988C18 2.73466 17.8946 2.48031 17.7071 2.29277C17.5196 2.10524 17.2652 1.99988 17 1.99988H7.00001C6.73479 1.99988 6.48044 2.10524 6.2929 2.29277C6.10537 2.48031 6.00001 2.73466 6.00001 2.99988ZM8.00001 3.99988H16V6.99995H13.667C13.5203 6.99974 13.3754 7.03179 13.2425 7.09383C13.1096 7.15587 12.992 7.24638 12.898 7.35895L12 8.43795L11.1 7.35895C11.0062 7.24664 10.8889 7.15628 10.7564 7.09425C10.6239 7.03222 10.4793 7.00003 10.333 6.99995H8.00001V3.99988Z" fill="white"/>
<path fill-rule="evenodd" clip-rule="evenodd" d="M7.50001 16C8.32844 16 9.00001 15.3284 9.00001 14.5C9.00001 13.6715 8.32844 13 7.50001 13C6.67158 13 6.00001 13.6715 6.00001 14.5C6.00001 15.3284 6.67158 16 7.50001 16ZM7.50001 18C9.433 18 11 16.433 11 14.5C11 12.567 9.433 11 7.50001 11C5.56701 11 4.00001 12.567 4.00001 14.5C4.00001 16.433 5.56701 18 7.50001 18Z" fill="white"/>
<path fill-rule="evenodd" clip-rule="evenodd" d="M2.01694 20.8167C2.51779 18.13 4.72996 16 7.50001 16C10.2701 16 12.4822 18.13 12.9831 20.8167C13.0376 21.109 12.9592 21.4103 12.7692 21.639C12.5792 21.8677 12.2973 22 12 22H3.00001C2.70271 22 2.42082 21.8677 2.23083 21.639C2.04085 21.4103 1.96246 21.109 2.01694 20.8167ZM4.3878 20H10.6122C9.97843 18.7794 8.79266 18 7.50001 18C6.20736 18 5.02159 18.7794 4.3878 20Z" fill="white"/>
<path fill-rule="evenodd" clip-rule="evenodd" d="M11.0169 20.8167C11.5178 18.13 13.73 16 16.5 16C19.2701 16 21.4822 18.13 21.9831 20.8167C22.0376 21.109 21.9592 21.4103 21.7692 21.639C21.5792 21.8677 21.2973 22 21 22H12C11.7027 22 11.4208 21.8677 11.2308 21.639C11.0408 21.4103 10.9625 21.109 11.0169 20.8167ZM13.3878 20H19.6122C18.9784 18.7794 17.7927 18 16.5 18C15.2074 18 14.0216 18.7794 13.3878 20Z" fill="white"/>
<path fill-rule="evenodd" clip-rule="evenodd" d="M16.5 16C17.3284 16 18 15.3284 18 14.5C18 13.6715 17.3284 13 16.5 13C15.6716 13 15 13.6715 15 14.5C15 15.3284 15.6716 16 16.5 16ZM16.5 18C18.433 18 20 16.433 20 14.5C20 12.567 18.433 11 16.5 11C14.567 11 13 12.567 13 14.5C13 16.433 14.567 18 16.5 18Z" fill="white"/>
</svg>
