<svg width="24" height="24" viewBox="0 0 24 24" fill="none" xmlns="http://www.w3.org/2000/svg">
<path fill-rule="evenodd" clip-rule="evenodd" d="M5.5 4C4.94772 4 4.5 4.44772 4.5 5C4.5 5.55228 4.05228 6 3.5 6C2.94772 6 2.5 5.55228 2.5 5C2.5 3.34315 3.84315 2 5.5 2H19C20.6569 2 22 3.34315 22 5V19C22 20.6569 20.6569 22 19 22H5.5C3.84315 22 2.5 20.6569 2.5 19C2.5 18.4477 2.94772 18 3.5 18C4.05228 18 4.5 18.4477 4.5 19C4.5 19.5523 4.94772 20 5.5 20H19C19.5523 20 20 19.5523 20 19V5C20 4.44772 19.5523 4 19 4H5.5Z" fill="white"/>
<path fill-rule="evenodd" clip-rule="evenodd" d="M2 9C2 8.44772 2.44772 8 3 8H4C4.55228 8 5 8.44772 5 9C5 9.55228 4.55228 10 4 10H3C2.44772 10 2 9.55228 2 9Z" fill="white"/>
<path fill-rule="evenodd" clip-rule="evenodd" d="M2 15C2 14.4477 2.44772 14 3 14H4C4.55228 14 5 14.4477 5 15C5 15.5523 4.55228 16 4 16H3C2.44772 16 2 15.5523 2 15Z" fill="white"/>
<path fill-rule="evenodd" clip-rule="evenodd" d="M2 12C2 11.4477 2.44772 11 3 11H4C4.55228 11 5 11.4477 5 12C5 12.5523 4.55228 13 4 13H3C2.44772 13 2 12.5523 2 12Z" fill="white"/>
<path fill-rule="evenodd" clip-rule="evenodd" d="M9.75132 15.25H15.2487C15.2047 13.8618 14.0655 12.75 12.6667 12.75H12.3333C10.9345 12.75 9.79531 13.8618 9.75132 15.25ZM8.25 15.3333C8.25 13.0782 10.0782 11.25 12.3333 11.25H12.6667C14.9218 11.25 16.75 13.0782 16.75 15.3333C16.75 16.1157 16.1157 16.75 15.3333 16.75H9.66667C8.88426 16.75 8.25 16.1157 8.25 15.3333Z" fill="white"/>
<path fill-rule="evenodd" clip-rule="evenodd" d="M12.5 10.5C13.0523 10.5 13.5 10.0523 13.5 9.5C13.5 8.94772 13.0523 8.5 12.5 8.5C11.9477 8.5 11.5 8.94772 11.5 9.5C11.5 10.0523 11.9477 10.5 12.5 10.5ZM12.5 12C13.8807 12 15 10.8807 15 9.5C15 8.11929 13.8807 7 12.5 7C11.1193 7 10 8.11929 10 9.5C10 10.8807 11.1193 12 12.5 12Z" fill="white"/>
</svg>
