<svg width="20" height="20" viewBox="0 0 20 20" fill="none" xmlns="http://www.w3.org/2000/svg">
<path d="M16.625 7H16V9H16.625C16.7187 9 16.8125 9.0625 16.875 9.125C16.9375 9.1875 17 9.28125 17 9.375V10.625C17 10.75 16.9375 10.8438 16.875 10.9062C16.8125 10.9688 16.7187 11 16.625 11H16V13H16.625C16.7187 13 16.8125 13.0625 16.875 13.125C16.9375 13.1875 17 13.2812 17 13.375V14.625C17 14.75 16.9375 14.8438 16.875 14.9062C16.8125 14.9688 16.7187 15 16.625 15H16V16.5C16 16.9375 15.8438 17.2812 15.5625 17.5625C15.25 17.875 14.9062 18 14.5 18H4.5C4.0625 18 3.71875 17.875 3.4375 17.5625C3.125 17.2812 3 16.9375 3 16.5V3.5C3 3.09375 3.125 2.75 3.4375 2.4375C3.71875 2.15625 4.0625 2 4.5 2H14.5C14.9062 2 15.25 2.15625 15.5625 2.4375C15.8438 2.75 16 3.09375 16 3.5V5H16.625C16.7187 5 16.8125 5.0625 16.875 5.125C16.9375 5.1875 17 5.28125 17 5.375V6.625C17 6.75 16.9375 6.84375 16.875 6.90625C16.8125 6.96875 16.7187 7 16.625 7ZM14.3125 16.5C14.3438 16.5 14.375 16.5 14.4375 16.4375C14.4687 16.4062 14.5 16.375 14.5 16.3125V3.6875C14.5 3.65625 14.4687 3.625 14.4375 3.5625C14.375 3.53125 14.3438 3.5 14.3125 3.5H4.6875C4.625 3.5 4.59375 3.53125 4.5625 3.5625C4.5 3.625 4.5 3.65625 4.5 3.6875V16.3125C4.5 16.375 4.5 16.4062 4.5625 16.4375C4.59375 16.5 4.625 16.5 4.6875 16.5H14.3125ZM7 8.5C7 9.1875 7.21875 9.78125 7.71875 10.2812C8.21875 10.7812 8.8125 11 9.5 11C10.1875 11 10.75 10.7812 11.25 10.2812C11.75 9.78125 12 9.1875 12 8.5C12 7.8125 11.75 7.25 11.25 6.75C10.75 6.25 10.1875 6 9.5 6C8.8125 6 8.21875 6.25 7.71875 6.75C7.21875 7.25 7 7.8125 7 8.5ZM13.5 12.6562C13.5 12.3438 13.375 12.0312 13.1875 11.75C12.9687 11.5 12.6875 11.3125 12.375 11.2188L11.25 10.9375C10.6875 11.3438 10.0625 11.5312 9.40625 11.5C8.78125 11.5 8.21875 11.3125 7.75 10.9375L6.625 11.2188C6.28125 11.3125 6 11.5 5.8125 11.75C5.59375 12.0312 5.5 12.3438 5.5 12.6562V13.25C5.5 13.4688 5.5625 13.6562 5.71875 13.7812C5.84375 13.9375 6.03125 14 6.25 14H12.75C12.9375 14 13.125 13.9375 13.2812 13.7812C13.4062 13.6562 13.5 13.4688 13.5 13.25V12.6562Z" fill="white"/>
</svg>
