<svg width="24" height="24" viewBox="0 0 24 24" fill="none" xmlns="http://www.w3.org/2000/svg">
<path d="M14.6682 6.02738C14.4386 5.36749 14.097 4.76003 13.6661 4.22776C14.0833 4.08026 14.5322 4 14.9999 4C17.209 4 18.9999 5.79086 18.9999 8C18.9999 10.2091 17.209 12 14.9999 12C14.5322 12 14.0833 11.9197 13.6661 11.7722C14.097 11.24 14.4386 10.6325 14.6682 9.97262C14.7761 9.99063 14.8869 10 14.9999 10C16.1044 10 16.9999 9.10457 16.9999 8C16.9999 6.89543 16.1044 6 14.9999 6C14.8869 6 14.7761 6.00937 14.6682 6.02738Z" fill="white"/>
<path d="M17.0013 15.1264C16.5557 14.3227 15.9757 13.6038 15.2916 13H15.9999C19.3136 13 21.9999 15.6863 21.9999 19C21.9999 20.1046 21.1044 21 19.9999 21H17.4649C17.8052 20.4117 18 19.7286 18 19H19.9999C19.9999 17.1367 18.7258 15.5709 17.0013 15.1264Z" fill="white"/>
<path fill-rule="evenodd" clip-rule="evenodd" d="M9 6C7.89543 6 7 6.89543 7 8C7 9.10457 7.89543 10 9 10C10.1046 10 11 9.10457 11 8C11 6.89543 10.1046 6 9 6ZM5 8C5 5.79086 6.79086 4 9 4C11.2091 4 13 5.79086 13 8C13 10.2091 11.2091 12 9 12C6.79086 12 5 10.2091 5 8Z" fill="white"/>
<path fill-rule="evenodd" clip-rule="evenodd" d="M8 15C5.79086 15 4 16.7909 4 19H14C14 16.7909 12.2091 15 10 15H8ZM2 19C2 15.6863 4.68629 13 8 13H10C13.3137 13 16 15.6863 16 19C16 20.1046 15.1046 21 14 21H4C2.89543 21 2 20.1046 2 19Z" fill="white"/>
</svg>
