<svg width="20" height="20" viewBox="0 0 20 20" fill="none" xmlns="http://www.w3.org/2000/svg">
<circle cx="6.19241" cy="7.73289" r="2.88334" fill="black"/>
<path fill-rule="evenodd" clip-rule="evenodd" d="M8.59994 12.0875C7.88153 11.7744 7.06218 11.597 6.19245 11.597C3.36471 11.597 1.06948 13.4719 1.04468 15.7925H6.75494L6.75505 15.7823C6.77107 14.2831 7.49144 13.0015 8.59994 12.0875ZM9.548 12.6198C10.6346 13.3885 11.3267 14.5239 11.3402 15.7925H7.755C7.75873 15.4479 7.81252 15.1132 7.91066 14.793C8.1739 13.9342 8.75626 13.1797 9.548 12.6198Z" fill="black"/>
<circle cx="12.9027" cy="7.73344" r="2.88334" fill="black"/>
<path fill-rule="evenodd" clip-rule="evenodd" d="M18.0505 15.793H7.75499C7.77979 13.4725 10.075 11.5976 12.9028 11.5976C15.7305 11.5976 18.0257 13.4725 18.0505 15.793Z" fill="black"/>
</svg>