<svg width="24" height="24" viewBox="0 0 24 24" fill="none" xmlns="http://www.w3.org/2000/svg">
<path fill-rule="evenodd" clip-rule="evenodd" d="M9 6C7.89543 6 7 6.89543 7 8C7 9.10457 7.89543 10 9 10C10.1046 10 11 9.10457 11 8C11 6.89543 10.1046 6 9 6ZM5 8C5 5.79086 6.79086 4 9 4C11.2091 4 13 5.79086 13 8C13 10.2091 11.2091 12 9 12C6.79086 12 5 10.2091 5 8Z" fill="white"/>
<path d="M17 12H15C14.7167 12 14.4792 11.9042 14.2875 11.7125C14.0958 11.5208 14 11.2833 14 11C14 10.7167 14.0958 10.4792 14.2875 10.2875C14.4792 10.0958 14.7167 10 15 10H17V8C17 7.71667 17.0958 7.47917 17.2875 7.2875C17.4792 7.09583 17.7167 7 18 7C18.2833 7 18.5208 7.09583 18.7125 7.2875C18.9042 7.47917 19 7.71667 19 8V10H21C21.2833 10 21.5208 10.0958 21.7125 10.2875C21.9042 10.4792 22 10.7167 22 11C22 11.2833 21.9042 11.5208 21.7125 11.7125C21.5208 11.9042 21.2833 12 21 12H19V14C19 14.2833 18.9042 14.5208 18.7125 14.7125C18.5208 14.9042 18.2833 15 18 15C17.7167 15 17.4792 14.9042 17.2875 14.7125C17.0958 14.5208 17 14.2833 17 14V12Z" fill="white"/>
<path fill-rule="evenodd" clip-rule="evenodd" d="M8 15C5.79086 15 4 16.7909 4 19H14C14 16.7909 12.2091 15 10 15H8ZM2 19C2 15.6863 4.68629 13 8 13H10C13.3137 13 16 15.6863 16 19C16 20.1046 15.1046 21 14 21H4C2.89543 21 2 20.1046 2 19Z" fill="white"/>
</svg>
