<svg width="20" height="20" viewBox="0 0 20 20" fill="none" xmlns="http://www.w3.org/2000/svg">
<path fill-rule="evenodd" clip-rule="evenodd" d="M6.31724 17H7L7 9.39599C6.55852 9.2031 6.25 8.76258 6.25 8.25C6.25 7.55964 6.80964 7 7.5 7C8.19036 7 8.75 7.55964 8.75 8.25C8.75 8.76258 8.44148 9.2031 8 9.39599L8 14.4244L10.7331 13.3995V12.3884C10.3007 12.1918 10 11.756 10 11.25C10 10.5596 10.5596 10 11.25 10C11.9404 10 12.5 10.5596 12.5 11.25C12.5 11.7691 12.1836 12.2143 11.7331 12.4032V14.0925L8 15.4924L8 17H13.6828L16 17V14.8294V8.14587L10.4552 8.14587V3H6.31724H4V5.17706V14.8294V17L6.31724 17ZM15.931 7.15688L11.5103 3.06422L11.5661 7.15688L15.931 7.15688Z" fill="black"/>
</svg>
