<svg width="24" height="24" viewBox="0 0 24 24" fill="none" xmlns="http://www.w3.org/2000/svg">
<path d="M21.424 3.09438C21.2517 3.01371 21.06 2.98385 20.8714 3.00829C20.6828 3.03273 20.505 3.11047 20.359 3.23238L16.144 7.57938L12.781 3.37938C12.6838 3.26781 12.5637 3.17836 12.429 3.11707C12.2943 3.05578 12.148 3.02407 12 3.02407C11.852 3.02407 11.7057 3.05578 11.571 3.11707C11.4363 3.17836 11.3162 3.26781 11.219 3.37938L7.856 7.57938L3.64 3.23238C3.494 3.11077 3.31637 3.03328 3.12792 3.00897C2.93946 2.98467 2.74799 3.01455 2.57591 3.09514C2.40383 3.17572 2.25827 3.30367 2.15627 3.46399C2.05428 3.62431 2.00007 3.81037 2 4.00038V18.0004C2 18.796 2.31607 19.5591 2.87868 20.1217C3.44129 20.6843 4.20435 21.0004 5 21.0004H19C19.7956 21.0004 20.5587 20.6843 21.1213 20.1217C21.6839 19.5591 22 18.796 22 18.0004V4.00038C22.0001 3.81023 21.9459 3.624 21.8439 3.46353C21.7419 3.30306 21.5962 3.17501 21.424 3.09438ZM20 18.0004C20 18.2656 19.8946 18.52 19.7071 18.7075C19.5196 18.895 19.2652 19.0004 19 19.0004H5C4.73478 19.0004 4.48043 18.895 4.29289 18.7075C4.10536 18.52 4 18.2656 4 18.0004V17.0004H20V18.0004ZM20 15.0004H4V6.13538L7.36 9.76838C7.46214 9.85355 7.58025 9.91749 7.7074 9.95646C7.83456 9.99542 7.96821 10.0086 8.10053 9.99532C8.23286 9.982 8.36119 9.94243 8.47804 9.8789C8.59488 9.81538 8.69788 9.72919 8.781 9.62538L12 5.60038L15.219 9.62438C15.3021 9.72834 15.4052 9.81466 15.5221 9.87827C15.639 9.94188 15.7675 9.98151 15.8999 9.99483C16.0324 10.0081 16.1662 9.99489 16.2934 9.95583C16.4207 9.91678 16.5388 9.85271 16.641 9.76738L20 6.13538V15.0004Z" fill="white"/>
</svg>
