<svg width="24" height="24" viewBox="0 0 24 24" fill="none" xmlns="http://www.w3.org/2000/svg">
<path d="M11.888 14.8517C12.0575 14.4552 11.9538 13.9947 11.6306 13.7092L10.3298 12.56L10.3597 12.53C12.0997 10.59 13.3398 8.36 14.0697 6H15.9998C16.552 6 16.9998 5.55228 16.9998 5C16.9998 4.44772 16.552 4 15.9998 4H9.99975V3C9.99975 2.44772 9.55203 2 8.99975 2C8.44747 2 7.99975 2.44772 7.99975 3V4L2.94108 4.00836C2.39201 4.00927 1.94739 4.45463 1.94739 5.00369C1.94739 5.55378 2.39361 5.99956 2.9437 5.99903L12.1698 5.99C11.4998 7.92 10.4398 9.75 8.99975 11.35C8.20097 10.4653 7.52023 9.50689 6.95752 8.50002C6.78763 8.19605 6.47073 8 6.1225 8C5.44965 8 5.00416 8.69254 5.32971 9.28139C5.96984 10.4392 6.75248 11.54 7.66975 12.56L3.29668 16.8729C2.90154 17.2626 2.89977 17.9 3.29221 18.2925C3.68273 18.683 4.31633 18.6834 4.70686 18.2929L8.99975 14L10.2528 15.2188C10.756 15.7082 11.5936 15.5404 11.8696 14.895L11.888 14.8517Z" fill="white"/>
<path d="M17.7433 10.6489C17.5969 10.2586 17.2238 10 16.807 10H16.193C15.7761 10 15.403 10.2586 15.2567 10.6489L11.4742 20.7355C11.2447 21.3474 11.697 22 12.3504 22C12.741 22 13.0906 21.7574 13.2272 21.3915L13.8772 19.6502C14.0232 19.2592 14.3967 19 14.8141 19H18.1781C18.5944 19 18.9671 19.2579 19.1139 19.6475L19.7715 21.3934C19.909 21.7584 20.2582 22 20.6482 22C21.3023 22 21.755 21.3467 21.5253 20.7343L17.7433 10.6489ZM15.3125 17C15.1032 17 14.9582 16.791 15.0316 16.5949L16.219 13.421C16.3162 13.1612 16.6838 13.1612 16.781 13.421L17.9684 16.5949C18.0418 16.791 17.8968 17 17.6874 17H15.3125Z" fill="white"/>
</svg>
