<svg width="24" height="24" viewBox="0 0 24 24" fill="none" xmlns="http://www.w3.org/2000/svg">
<path fill-rule="evenodd" clip-rule="evenodd" d="M20.9261 2L21 2.00001C21.5523 2.00001 22 2.44772 22 3.00001L22 3.07392C22.0001 4.60657 22.0002 6.0578 21.5608 7.52265C21.1396 8.92658 20.3397 10.2785 18.9074 11.7908L19.3073 13.7902C19.72 15.8538 19.0741 17.9872 17.586 19.4753L16.3467 20.7146C15.3795 21.6818 13.7555 21.4543 13.0913 20.2586L11.1939 16.8434L7.15665 12.8061L3.7415 10.9088C2.54575 10.2446 2.31833 8.62043 3.28548 7.65327L4.52474 6.41401C6.01282 4.92593 8.14614 4.28002 10.2097 4.69273L12.2092 5.09263C13.7216 3.66033 15.0734 2.86042 16.4774 2.43924C17.9422 1.99978 19.3935 1.99989 20.9261 2ZM10.702 6.8308L9.81749 6.65389C8.40963 6.37232 6.95419 6.81299 5.93895 7.82822L4.6997 9.06748C4.68985 9.07733 4.68663 9.08453 4.68493 9.08983C4.68272 9.09668 4.68149 9.10619 4.68304 9.11723C4.68459 9.12828 4.68838 9.13707 4.69237 9.14304C4.69545 9.14765 4.70051 9.15368 4.71267 9.16043L7.51991 10.72L10.702 6.8308ZM9.11175 11.9328L12.0832 14.9043C12.0977 14.893 12.1123 14.8816 12.1271 14.87C12.5783 14.5177 13.1918 14.036 13.8419 13.5175C15.1652 12.4622 16.5699 11.31 17.1164 10.7635C18.6217 9.25819 19.3078 8.07247 19.6451 6.94795C19.9165 6.04352 19.9804 5.13052 19.9954 4.00458C18.8695 4.01959 17.9565 4.08356 17.0521 4.35489C15.9363 4.68964 14.7602 5.3677 13.2714 6.84881L9.11175 11.9328ZM13.2905 16.4991L14.8396 19.2873C14.8463 19.2995 14.8524 19.3046 14.857 19.3077C14.863 19.3117 14.8718 19.3155 14.8828 19.317C14.8938 19.3186 14.9033 19.3173 14.9102 19.3151C14.9154 19.3134 14.9226 19.3102 14.9325 19.3004L16.1718 18.0611C17.1871 17.0458 17.6277 15.5903 17.3461 14.1825L17.1845 13.3742C16.5346 13.9201 15.7807 14.5295 15.0889 15.0812C14.4319 15.6051 13.8127 16.0913 13.358 16.4464C13.3351 16.4643 13.3126 16.4818 13.2905 16.4991ZM16.9424 7.05813C17.3329 7.44865 17.3329 8.08181 16.9424 8.47234L15.8836 9.53116C15.4931 9.92169 14.8599 9.92169 14.4694 9.53116C14.0789 9.14064 14.0789 8.50747 14.4694 8.11695L15.5282 7.05813C15.9187 6.6676 16.5519 6.6676 16.9424 7.05813ZM2.7378 17.2121C3.02925 15.7548 4.30878 14.7059 5.7949 14.7059H6.17649C7.89831 14.7059 9.29413 16.1017 9.29413 17.8235V18.2051C9.29413 19.6913 8.24516 20.9708 6.78794 21.2623L3.19612 21.9806C2.86826 22.0462 2.52932 21.9435 2.2929 21.7071C2.05648 21.4707 1.95386 21.1317 2.01944 20.8039L2.7378 17.2121ZM5.7949 16.7059C5.26214 16.7059 4.80344 17.0819 4.69896 17.6044L4.27477 19.7253L6.39564 19.3011C6.91808 19.1966 7.29413 18.7379 7.29413 18.2051V17.8235C7.29413 17.2063 6.79376 16.7059 6.17649 16.7059H5.7949Z" fill="white"/>
</svg>
