<svg width="20" height="20" viewBox="0 0 20 20" fill="none" xmlns="http://www.w3.org/2000/svg">
<path fill-rule="evenodd" clip-rule="evenodd" d="M10.1055 13.2317C9.70961 13.5668 9.12351 13.5414 8.75674 13.1746L6.82537 11.2432C6.45859 10.8765 6.4332 10.2903 6.76828 9.89437L6.79764 9.85968C7.13871 9.45683 7.59183 8.92339 8.08335 8.34963L8.38614 7.99687C8.50833 7.8547 8.63193 7.71124 8.75583 7.56776C9.72501 6.44578 10.7145 5.32328 11.2222 4.81559C13.0379 2.99988 14.9106 1.77618 17.3537 1.80595C17.8171 1.8116 18.1884 2.18288 18.194 2.64629C18.2238 5.08932 17.0001 6.96205 15.1844 8.77776C14.6767 9.28544 13.5542 10.2749 12.4322 11.2441C12.0533 11.5714 11.6744 11.8964 11.3193 12.1998C10.857 12.5947 10.435 12.9529 10.1055 13.2317ZM15.1814 6.73089C14.6534 7.25899 13.7972 7.25899 13.2691 6.73089C12.7409 6.2028 12.7409 5.34658 13.2691 4.81849C13.7972 4.29039 14.6534 4.29039 15.1814 4.81849C15.7096 5.34658 15.7096 6.2028 15.1814 6.73089Z" fill="white"/>
<path d="M2.78493 13.821C2.62872 13.9772 2.62872 14.2304 2.78493 14.3866C2.94114 14.5429 3.19441 14.5429 3.35062 14.3866L5.50255 12.2347C5.65876 12.0785 5.65876 11.8252 5.50255 11.669C5.34634 11.5128 5.09307 11.5128 4.93686 11.669L2.78493 13.821Z" fill="white"/>
<path d="M2.20738 17.2269C2.05117 17.3831 2.05117 17.6364 2.20738 17.7926C2.36359 17.9488 2.61685 17.9488 2.77306 17.7926L6.91673 13.6489C7.07294 13.4927 7.07294 13.2395 6.91673 13.0833C6.76052 12.927 6.50726 12.927 6.35105 13.0833L2.20738 17.2269Z" fill="white"/>
<path d="M5.61336 17.2151C5.45715 17.0589 5.45715 16.8056 5.61336 16.6494L7.76529 14.4975C7.9215 14.3413 8.17477 14.3413 8.33098 14.4975C8.48719 14.6537 8.48719 14.907 8.33098 15.0632L6.17905 17.2151C6.02284 17.3713 5.76957 17.3713 5.61336 17.2151Z" fill="white"/>
<path d="M2.00522 9.90178C3.60442 8.30259 5.61616 7.45999 7.46542 7.4401C7.49731 7.43975 7.51433 7.47706 7.49356 7.50126C6.93552 8.15137 6.41519 8.76378 6.0344 9.21355C5.84397 9.43849 5.68839 9.62287 5.58029 9.7511L5.41141 9.95175C5.41037 9.95298 5.40868 9.95353 5.40712 9.95311C4.29372 9.65568 3.13481 9.67375 2.07639 10.0131C2.00945 10.0346 1.95551 9.95148 2.00522 9.90178Z" fill="white"/>
<path d="M10.0469 14.5928C10.0466 14.592 10.0467 14.5912 10.0469 14.5905C10.0471 14.5897 10.0476 14.5891 10.0482 14.5886L10.049 14.5879L10.2489 14.4197C10.3771 14.3116 10.5615 14.156 10.7864 13.9655C11.2362 13.5848 11.8486 13.0644 12.4987 12.5064C12.5229 12.4856 12.5602 12.5027 12.5599 12.5346C12.54 14.3838 11.6974 16.3956 10.0982 17.9947C10.0485 18.0444 9.96539 17.9905 9.98685 17.9236C10.3263 16.8651 10.3443 15.7062 10.0469 14.5928Z" fill="white"/>
</svg>
