<svg width="20" height="20" viewBox="0 0 20 20" fill="none" xmlns="http://www.w3.org/2000/svg">
<path d="M14.8516 4.99473C13.9593 4.53432 13.0024 4.1951 12.0019 4.00081C11.9837 3.99707 11.9655 4.00644 11.9561 4.02518C11.8331 4.27131 11.6968 4.59241 11.6013 4.84479C10.5252 4.66363 9.45469 4.66363 8.40069 4.84479C8.30521 4.5868 8.16395 4.27131 8.04033 4.02518C8.03095 4.00706 8.01275 3.99769 7.99453 4.00081C6.99461 4.19448 6.03774 4.53369 5.14488 4.99473C5.13715 4.99848 5.13052 5.00473 5.12613 5.01285C3.31115 8.06208 2.81395 11.0364 3.05786 13.9738C3.05896 13.9881 3.06613 14.0019 3.07607 14.0106C4.27354 14.9995 5.4335 15.5999 6.57191 15.9978C6.59013 16.0041 6.60944 15.9966 6.62103 15.9797C6.89032 15.5662 7.13037 15.1301 7.33619 14.6715C7.34834 14.6447 7.33675 14.6128 7.31192 14.6022C6.93116 14.4398 6.5686 14.2417 6.21984 14.0169C6.19226 13.9987 6.19005 13.9544 6.21543 13.9331C6.28882 13.8713 6.36223 13.8069 6.43231 13.742C6.44499 13.7301 6.46265 13.7276 6.47756 13.7351C8.76875 14.9114 11.2492 14.9114 13.5134 13.7351C13.5283 13.727 13.546 13.7295 13.5592 13.7414C13.6293 13.8063 13.7027 13.8713 13.7766 13.9331C13.802 13.9544 13.8003 13.9987 13.7728 14.0169C13.424 14.2461 13.0614 14.4398 12.6801 14.6016C12.6553 14.6122 12.6443 14.6447 12.6564 14.6715C12.8666 15.1295 13.1067 15.5655 13.371 15.9791C13.3821 15.9966 13.4019 16.0041 13.4201 15.9978C14.5641 15.5999 15.724 14.9995 16.9215 14.0106C16.932 14.0019 16.9386 13.9887 16.9397 13.9744C17.2316 10.5784 16.4508 7.62853 14.8698 5.01347C14.8659 5.00473 14.8593 4.99848 14.8516 4.99473ZM7.67835 12.1852C6.98854 12.1852 6.42016 11.473 6.42016 10.5984C6.42016 9.72381 6.97752 9.01165 7.67835 9.01165C8.38468 9.01165 8.94755 9.73006 8.93651 10.5984C8.93651 11.473 8.37915 12.1852 7.67835 12.1852ZM12.3303 12.1852C11.6405 12.1852 11.0721 11.473 11.0721 10.5984C11.0721 9.72381 11.6294 9.01165 12.3303 9.01165C13.0366 9.01165 13.5995 9.73006 13.5885 10.5984C13.5885 11.473 13.0366 12.1852 12.3303 12.1852Z" fill="white"/>
</svg>
