<svg width="24" height="24" viewBox="0 0 24 24" fill="none" xmlns="http://www.w3.org/2000/svg">
<path d="M18.9311 4.84938C17.6554 4.19224 16.2882 3.70654 14.8597 3.4294C14.834 3.42511 14.8068 3.43797 14.794 3.46511C14.6183 3.81654 14.4225 4.2751 14.2868 4.63652C12.774 4.37782 11.2283 4.37782 9.71547 4.63652C9.56413 4.23754 9.39248 3.84656 9.20119 3.46511C9.1957 3.45276 9.18628 3.44256 9.1744 3.4361C9.16252 3.42964 9.14883 3.42729 9.13548 3.4294C7.70693 3.70654 6.3398 4.19082 5.06411 4.84938C5.05255 4.85484 5.04304 4.86385 5.03696 4.87509C2.44414 9.23217 1.73415 13.4807 2.08272 17.6763C2.08427 17.6966 2.09346 17.7155 2.10843 17.7292C3.58771 18.9698 5.27988 19.9315 7.10265 20.5677C7.12836 20.5777 7.15551 20.5677 7.17265 20.542C7.55836 19.952 7.90121 19.3278 8.19406 18.6735C8.21121 18.6349 8.19406 18.5892 8.15978 18.5735C7.61705 18.3396 7.09518 18.06 6.5998 17.7378C6.5598 17.7121 6.55694 17.6492 6.59266 17.6192C6.69837 17.5306 6.80265 17.4378 6.90265 17.3449C6.91136 17.3368 6.92236 17.3317 6.93414 17.3301C6.94592 17.3286 6.95788 17.3308 6.96837 17.3363C10.2397 19.0163 13.784 19.0163 17.0182 17.3363C17.0287 17.3308 17.0407 17.3286 17.0525 17.3301C17.0642 17.3317 17.0752 17.3368 17.0839 17.3449C17.1839 17.4378 17.2897 17.5306 17.3954 17.6192C17.4311 17.6478 17.4282 17.7121 17.3896 17.7378C16.8911 18.0663 16.3725 18.342 15.8282 18.5735C15.7925 18.5878 15.7768 18.6349 15.794 18.6735C16.094 19.3278 16.4368 19.9506 16.8154 20.542C16.8311 20.5663 16.8582 20.5777 16.8868 20.5677C18.7121 19.9333 20.4064 18.9714 21.8867 17.7292C21.8945 17.7229 21.9009 17.7151 21.9055 17.7063C21.9102 17.6974 21.913 17.6877 21.9139 17.6778C22.331 12.8264 21.2139 8.61218 18.9568 4.87652C18.9517 4.86471 18.9426 4.8551 18.9311 4.84938ZM8.68263 15.1207C7.69693 15.1207 6.88551 14.1035 6.88551 12.855C6.88551 11.605 7.68264 10.5879 8.68263 10.5879C9.69261 10.5879 10.4969 11.615 10.4812 12.855C10.4812 14.1035 9.68404 15.1221 8.68263 15.1221V15.1207ZM15.3282 15.1207C14.3425 15.1207 13.5311 14.1035 13.5311 12.855C13.5311 11.605 14.3268 10.5879 15.3282 10.5879C16.3382 10.5879 17.1425 11.615 17.1254 12.855C17.1254 14.1035 16.3382 15.1221 15.3282 15.1221V15.1207Z" fill="white"/>
</svg>
