<svg width="24" height="24" viewBox="0 0 24 24" fill="none" xmlns="http://www.w3.org/2000/svg">
<path fill-rule="evenodd" clip-rule="evenodd" d="M4.01863 5.02755C4.00317 5.04266 4 5.05558 4 5.06668V16.2667C4 16.2784 4.00343 16.2914 4.01859 16.3063C4.0341 16.3214 4.05758 16.3334 4.09036 16.3334H7.23753C8.5397 16.3334 9.7961 16.7982 10.7735 17.6393V6.55429L10.1704 5.96486C9.541 5.34965 8.68248 5 7.78269 5H4.09131C4.0584 5 4.03448 5.01205 4.01863 5.02755ZM11.9031 4.60833C11.8607 4.60284 11.8174 4.60001 11.7735 4.60001C11.7296 4.60001 11.6863 4.60284 11.6438 4.60834L11.5683 4.53457C11.5683 4.53455 11.5684 4.53459 11.5683 4.53457C10.5605 3.5495 9.19833 3 7.78269 3H4.09131C2.95795 3 2 3.90388 2 5.06668V16.2667C2 17.4284 2.95584 18.3334 4.09036 18.3334H7.23753C8.13724 18.3334 8.99522 18.6828 9.62474 19.2982L11.0745 20.7152C11.4631 21.095 12.0839 21.0949 12.4725 20.7151L13.9221 19.2982C14.5515 18.683 15.41 18.3334 16.3099 18.3334H19.9087C21.0421 18.3334 22 17.4295 22 16.2667V5.06668C22 3.90391 21.0421 3 19.9087 3H15.7642C14.3485 3 12.9864 3.54947 11.9786 4.53455C11.9786 4.53455 11.9786 4.53455 11.9786 4.53455L11.9031 4.60833ZM12.7735 6.55426V17.6392C13.751 16.7981 15.0079 16.3334 16.3099 16.3334H19.9087C19.9416 16.3334 19.9655 16.3213 19.9814 16.3058C19.9968 16.2908 20 16.2778 20 16.2667V5.06668C20 5.05558 19.9968 5.04265 19.9814 5.02754C19.9655 5.01204 19.9416 5 19.9087 5H15.7642C14.8644 5 14.006 5.34958 13.3766 5.96481L12.7735 6.55426Z" fill="white"/>
</svg>
