<svg width="18" height="18" viewBox="0 0 18 18" fill="none" xmlns="http://www.w3.org/2000/svg">
<path d="M6.83008 11.2207C6.70117 11.2207 6.59375 11.1797 6.50781 11.0977C6.42578 11.0156 6.38477 10.9102 6.38477 10.7812C6.38477 10.6602 6.42578 10.5586 6.50781 10.4766C6.59375 10.3906 6.70117 10.3477 6.83008 10.3477H11.377C11.502 10.3477 11.6074 10.3906 11.6934 10.4766C11.7793 10.5586 11.8223 10.6602 11.8223 10.7812C11.8223 10.9102 11.7793 11.0156 11.6934 11.0977C11.6074 11.1797 11.502 11.2207 11.377 11.2207H6.83008ZM6.83008 13.4062C6.70117 13.4062 6.59375 13.3652 6.50781 13.2832C6.42578 13.1973 6.38477 13.0938 6.38477 12.9727C6.38477 12.8477 6.42578 12.7441 6.50781 12.6621C6.59375 12.5762 6.70117 12.5332 6.83008 12.5332H11.377C11.502 12.5332 11.6074 12.5762 11.6934 12.6621C11.7793 12.7441 11.8223 12.8477 11.8223 12.9727C11.8223 13.0938 11.7793 13.1973 11.6934 13.2832C11.6074 13.3652 11.502 13.4062 11.377 13.4062H6.83008ZM5.96875 15.7734H12.2266C12.8672 15.7734 13.3555 15.6055 13.6914 15.2695C14.0273 14.9336 14.1953 14.4414 14.1953 13.793V8.60742H9.70703C8.99219 8.60742 8.63477 8.24805 8.63477 7.5293V3H5.96875C5.32422 3 4.83398 3.16992 4.49805 3.50977C4.16602 3.84961 4 4.3418 4 4.98633V13.793C4 14.4414 4.16602 14.9336 4.49805 15.2695C4.83398 15.6055 5.32422 15.7734 5.96875 15.7734ZM9.87695 7.70508H14.1367C14.1172 7.56836 14.0586 7.42969 13.9609 7.28906C13.8633 7.14844 13.7344 6.99609 13.5742 6.83203L10.3926 3.61523C10.2402 3.45898 10.0938 3.33203 9.95312 3.23438C9.8125 3.13281 9.67188 3.07422 9.53125 3.05859V7.36523C9.53125 7.5918 9.64648 7.70508 9.87695 7.70508Z" fill="currentcolor"/>
</svg>
