<svg width="20" height="20" viewBox="0 0 20 20" fill="none" xmlns="http://www.w3.org/2000/svg">
<path d="M7.33103 12.0101C7.17931 12.0101 7.05287 11.9651 6.95172 11.8752C6.85517 11.7853 6.8069 11.6697 6.8069 11.5284C6.8069 11.3957 6.85517 11.2844 6.95172 11.1945C7.05287 11.1003 7.17931 11.0532 7.33103 11.0532H12.6828C12.8299 11.0532 12.954 11.1003 13.0552 11.1945C13.1563 11.2844 13.2069 11.3957 13.2069 11.5284C13.2069 11.6697 13.1563 11.7853 13.0552 11.8752C12.954 11.9651 12.8299 12.0101 12.6828 12.0101H7.33103ZM7.33103 14.4055C7.17931 14.4055 7.05287 14.3606 6.95172 14.2706C6.85517 14.1765 6.8069 14.063 6.8069 13.9303C6.8069 13.7933 6.85517 13.6798 6.95172 13.5899C7.05287 13.4957 7.17931 13.4486 7.33103 13.4486H12.6828C12.8299 13.4486 12.954 13.4957 13.0552 13.5899C13.1563 13.6798 13.2069 13.7933 13.2069 13.9303C13.2069 14.063 13.1563 14.1765 13.0552 14.2706C12.954 14.3606 12.8299 14.4055 12.6828 14.4055H7.33103ZM6.31724 17H13.6828C14.4368 17 15.0115 16.8159 15.4069 16.4477C15.8023 16.0795 16 15.5401 16 14.8294V9.14587H10.7172C9.87586 9.14587 9.45517 8.75199 9.45517 7.96422V3H6.31724C5.55862 3 4.98161 3.18624 4.58621 3.55872C4.1954 3.93119 4 4.47064 4 5.17706V14.8294C4 15.5401 4.1954 16.0795 4.58621 16.4477C4.98161 16.8159 5.55862 17 6.31724 17ZM10.9172 8.15688H15.931C15.908 8.00703 15.8391 7.85505 15.7241 7.70092C15.6092 7.54679 15.4575 7.37982 15.269 7.2L11.5241 3.67431C11.3448 3.50306 11.1724 3.36391 11.0069 3.25688C10.8414 3.14557 10.6759 3.08135 10.5103 3.06422V7.7844C10.5103 8.03272 10.646 8.15688 10.9172 8.15688Z" fill="white"/>
</svg>
