<svg width="24" height="24" viewBox="0 0 24 24" fill="none" xmlns="http://www.w3.org/2000/svg">
<path fill-rule="evenodd" clip-rule="evenodd" d="M15.7071 11.7929C16.0976 12.1834 16.0976 12.8166 15.7071 13.2071L12 16.9142L8.29289 13.2071C7.90237 12.8166 7.90237 12.1834 8.29289 11.7929C8.68342 11.4024 9.31658 11.4024 9.70711 11.7929L11 13.0858V4C11 3.44772 11.4477 3 12 3C12.5523 3 13 3.44772 13 4V13.0858L14.2929 11.7929C14.6834 11.4024 15.3166 11.4024 15.7071 11.7929Z" fill="white"/>
<path fill-rule="evenodd" clip-rule="evenodd" d="M3 15C3.55228 15 4 15.4477 4 16V19C4 19.5523 4.44772 20 5 20H19C19.5523 20 20 19.5523 20 19V16C20 15.4477 20.4477 15 21 15C21.5523 15 22 15.4477 22 16V19C22 20.6569 20.6569 22 19 22H5C3.34315 22 2 20.6569 2 19V16C2 15.4477 2.44772 15 3 15Z" fill="white"/>
</svg>
