<svg width="20" height="20" viewBox="0 0 20 20" fill="none" xmlns="http://www.w3.org/2000/svg">
<path d="M7.57196 7.0138C8.36624 7.0138 9.01013 6.3699 9.01013 5.57562C9.01013 4.78134 8.36624 4.13745 7.57196 4.13745C6.77768 4.13745 6.13379 4.78134 6.13379 5.57562C6.13379 6.3699 6.77768 7.0138 7.57196 7.0138Z" fill="white"/>
<path d="M7.57196 11.9391C8.36624 11.9391 9.01013 11.2952 9.01013 10.5009C9.01013 9.70664 8.36624 9.06274 7.57196 9.06274C6.77768 9.06274 6.13379 9.70664 6.13379 10.5009C6.13379 11.2952 6.77768 11.9391 7.57196 11.9391Z" fill="white"/>
<path d="M7.57196 16.8641C8.36624 16.8641 9.01013 16.2202 9.01013 15.426C9.01013 14.6317 8.36624 13.9878 7.57196 13.9878C6.77768 13.9878 6.13379 14.6317 6.13379 15.426C6.13379 16.2202 6.77768 16.8641 7.57196 16.8641Z" fill="white"/>
<path d="M12.8908 7.0138C13.6851 7.0138 14.329 6.3699 14.329 5.57562C14.329 4.78134 13.6851 4.13745 12.8908 4.13745C12.0965 4.13745 11.4526 4.78134 11.4526 5.57562C11.4526 6.3699 12.0965 7.0138 12.8908 7.0138Z" fill="white"/>
<path d="M12.8908 11.9391C13.6851 11.9391 14.329 11.2952 14.329 10.5009C14.329 9.70664 13.6851 9.06274 12.8908 9.06274C12.0965 9.06274 11.4526 9.70664 11.4526 10.5009C11.4526 11.2952 12.0965 11.9391 12.8908 11.9391Z" fill="white"/>
<path d="M12.8908 16.8641C13.6851 16.8641 14.329 16.2202 14.329 15.426C14.329 14.6317 13.6851 13.9878 12.8908 13.9878C12.0965 13.9878 11.4526 14.6317 11.4526 15.426C11.4526 16.2202 12.0965 16.8641 12.8908 16.8641Z" fill="white"/>
</svg>
