<svg width="24" height="24" viewBox="0 0 24 24" fill="none" xmlns="http://www.w3.org/2000/svg">
<path fill-rule="evenodd" clip-rule="evenodd" d="M10 12C10 10.8954 10.8954 10 12 10C13.1046 10 14 10.8954 14 12C14 13.1046 13.1046 14 12 14C10.8954 14 10 13.1046 10 12Z" fill="white"/>
<path fill-rule="evenodd" clip-rule="evenodd" d="M9.85693 5.94064C9.18483 7.45286 8.75 9.59454 8.75 12C8.75 14.4055 9.18483 16.5471 9.85693 18.0594C10.1934 18.8164 10.5746 19.3826 10.9601 19.7494C11.3416 20.1126 11.6918 20.25 12 20.25C12.3082 20.25 12.6584 20.1126 13.0399 19.7494C13.4254 19.3826 13.8066 18.8164 14.1431 18.0594C14.8152 16.5471 15.25 14.4055 15.25 12C15.25 9.59454 14.8152 7.45286 14.1431 5.94064C13.8066 5.18359 13.4254 4.61737 13.0399 4.25056C12.6584 3.88743 12.3082 3.75 12 3.75C11.6918 3.75 11.3416 3.88743 10.9601 4.25056C10.5746 4.61737 10.1934 5.18359 9.85693 5.94064ZM9.92598 3.16397C10.5015 2.61625 11.2037 2.25 12 2.25C12.7963 2.25 13.4985 2.61625 14.074 3.16397C14.6457 3.70801 15.1264 4.45981 15.5138 5.33144C16.2894 7.07658 16.75 9.4349 16.75 12C16.75 14.5651 16.2894 16.9234 15.5138 18.6686C15.1264 19.5402 14.6457 20.292 14.074 20.836C13.4985 21.3838 12.7963 21.75 12 21.75C11.2037 21.75 10.5015 21.3838 9.92598 20.836C9.35431 20.292 8.8736 19.5402 8.48621 18.6686C7.7106 16.9234 7.25 14.5651 7.25 12C7.25 9.4349 7.7106 7.07658 8.48621 5.33144C8.8736 4.45981 9.35431 3.70801 9.92598 3.16397Z" fill="white"/>
<path fill-rule="evenodd" clip-rule="evenodd" d="M18.0594 9.85693C16.5471 9.18483 14.4055 8.75 12 8.75C9.59454 8.75 7.45286 9.18483 5.94064 9.85693C5.18359 10.1934 4.61737 10.5746 4.25056 10.9601C3.88743 11.3416 3.75 11.6918 3.75 12C3.75 12.3082 3.88743 12.6584 4.25056 13.0399C4.61737 13.4254 5.18359 13.8066 5.94064 14.1431C7.45286 14.8152 9.59454 15.25 12 15.25C14.4055 15.25 16.5471 14.8152 18.0594 14.1431C18.8164 13.8066 19.3826 13.4254 19.7494 13.0399C20.1126 12.6584 20.25 12.3082 20.25 12C20.25 11.6918 20.1126 11.3416 19.7494 10.9601C19.3826 10.5746 18.8164 10.1934 18.0594 9.85693ZM20.836 9.92598C21.3838 10.5015 21.75 11.2037 21.75 12C21.75 12.7963 21.3838 13.4985 20.836 14.074C20.292 14.6457 19.5402 15.1264 18.6686 15.5138C16.9234 16.2894 14.5651 16.75 12 16.75C9.4349 16.75 7.07658 16.2894 5.33144 15.5138C4.45981 15.1264 3.70801 14.6457 3.16397 14.074C2.61625 13.4985 2.25 12.7963 2.25 12C2.25 11.2037 2.61625 10.5015 3.16397 9.92598C3.70801 9.35431 4.45981 8.8736 5.33144 8.48621C7.07658 7.7106 9.4349 7.25 12 7.25C14.5651 7.25 16.9234 7.7106 18.6686 8.48621C19.5402 8.8736 20.292 9.35431 20.836 9.92598Z" fill="white"/>
<path fill-rule="evenodd" clip-rule="evenodd" d="M20 12C20 7.58172 16.4183 4 12 4C7.58172 4 4 7.58172 4 12C4 16.4183 7.58172 20 12 20C16.4183 20 20 16.4183 20 12ZM12 2C17.5228 2 22 6.47715 22 12C22 17.5228 17.5228 22 12 22C6.47715 22 2 17.5228 2 12C2 6.47715 6.47715 2 12 2Z" fill="white"/>
</svg>
