<svg width="24" height="24" viewBox="0 0 24 24" fill="none" xmlns="http://www.w3.org/2000/svg">
<path fill-rule="evenodd" clip-rule="evenodd" d="M2.03387 20.661C1.9413 21.0497 2.03849 21.3876 2.32544 21.6746C2.61239 21.9615 2.95025 22.0587 3.33902 21.9661L8.64296 20.8554L21.3613 8.13702C21.7871 7.71122 22 7.1836 22 6.55417C22 5.92473 21.7871 5.39711 21.3613 4.97132L19.0287 2.63869C18.6029 2.2129 18.0753 2 17.4458 2C16.8164 2 16.2888 2.2129 15.863 2.63869L3.14464 15.357L2.03387 20.661ZM7.64997 19.0199L4.27281 19.7272L4.98007 16.35L17.2772 4.05291C17.2961 4.034 17.3087 4.02477 17.3145 4.02088C17.3201 4.01715 17.3235 4.01555 17.3264 4.01437C17.3292 4.01323 17.3616 4 17.4458 4C17.53 4 17.5623 4.01318 17.5651 4.01433C17.568 4.0155 17.5716 4.01715 17.5771 4.02088C17.5829 4.02477 17.5956 4.034 17.6145 4.05291L19.9471 6.38553C19.966 6.40444 19.9752 6.41707 19.9791 6.42288C19.9828 6.42844 19.9845 6.43186 19.9856 6.43477C19.9868 6.43761 20 6.47002 20 6.55417C20 6.63832 19.9868 6.67061 19.9857 6.67345C19.9845 6.67636 19.9828 6.6799 19.9791 6.68546C19.9752 6.69126 19.966 6.7039 19.9471 6.7228L7.64997 19.0199Z" fill="white"/>
<path fill-rule="evenodd" clip-rule="evenodd" d="M13.4697 6.46967C13.7626 6.17678 14.2374 6.17678 14.5303 6.46967L17.5303 9.46967C17.8232 9.76256 17.8232 10.2374 17.5303 10.5303C17.2374 10.8232 16.7626 10.8232 16.4697 10.5303L13.4697 7.53033C13.1768 7.23744 13.1768 6.76256 13.4697 6.46967Z" fill="white"/>
</svg>
