<svg width="20" height="20" viewBox="0 0 20 20" fill="none" xmlns="http://www.w3.org/2000/svg">
<path fill-rule="evenodd" clip-rule="evenodd" d="M6.59744 9.99995C6.59744 10.7666 5.97598 11.388 5.20937 11.388C4.44275 11.388 3.82129 10.7666 3.82129 9.99995C3.82129 9.23334 4.44275 8.61188 5.20937 8.61188C5.97598 8.61188 6.59744 9.23334 6.59744 9.99995ZM11.8067 9.99995C11.8067 10.7666 11.1852 11.388 10.4186 11.388C9.65198 11.388 9.03052 10.7666 9.03052 9.99995C9.03052 9.23334 9.65198 8.61188 10.4186 8.61188C11.1852 8.61188 11.8067 9.23334 11.8067 9.99995ZM15.6278 11.388C16.3944 11.388 17.0159 10.7666 17.0159 9.99995C17.0159 9.23334 16.3944 8.61188 15.6278 8.61188C14.8612 8.61188 14.2397 9.23334 14.2397 9.99995C14.2397 10.7666 14.8612 11.388 15.6278 11.388Z" fill="white"/>
</svg>
