<svg width="24" height="24" viewBox="0 0 24 24" fill="none" xmlns="http://www.w3.org/2000/svg">
<path fill-rule="evenodd" clip-rule="evenodd" d="M18.1594 9.86091C16.7698 8.36439 14.7637 7 12 7C9.23628 7 7.23019 8.36439 5.84058 9.8609C5.14637 10.6085 4.63408 11.3624 4.29671 11.9292C4.28244 11.9532 4.26851 11.9768 4.25491 12C4.26851 12.0232 4.28244 12.0468 4.29671 12.0708C4.63408 12.6376 5.14638 13.3915 5.84059 14.1391C7.23022 15.6356 9.2363 17 12 17C14.7637 17 16.7698 15.6356 18.1594 14.1391C18.8536 13.3915 19.3659 12.6376 19.7033 12.0708C19.7176 12.0468 19.7315 12.0232 19.7451 12C19.7315 11.9768 19.7176 11.9532 19.7033 11.9292C19.3659 11.3624 18.8536 10.6085 18.1594 9.86091ZM22 12C22 12 19 5 12 5C4.99998 5 2 12 2 12C2 12 5.00002 19 12 19C19 19 22 12 22 12ZM20.1637 11.2074L20.1648 11.205C20.1652 11.2042 20.1648 11.205 20.1637 11.2074ZM20.1648 12.7951L20.1638 12.7927C20.1648 12.7951 20.1652 12.7958 20.1648 12.7951ZM3.83518 12.795C3.83485 12.7958 3.83521 12.795 3.83627 12.7926L3.83518 12.795ZM3.83621 11.2073L3.83518 11.2049C3.83502 11.2046 3.83503 11.2046 3.83518 11.2049C3.83535 11.2053 3.83565 11.2061 3.83621 11.2073Z" fill="white"/>
<path fill-rule="evenodd" clip-rule="evenodd" d="M12 13.5C12.8284 13.5 13.5 12.8284 13.5 12C13.5 11.1716 12.8284 10.5 12 10.5C11.1716 10.5 10.5 11.1716 10.5 12C10.5 12.8284 11.1716 13.5 12 13.5ZM12 15C13.6569 15 15 13.6569 15 12C15 10.3431 13.6569 9 12 9C10.3431 9 9 10.3431 9 12C9 13.6569 10.3431 15 12 15Z" fill="white"/>
</svg>
