<svg width="24" height="24" viewBox="0 0 24 24" fill="none" xmlns="http://www.w3.org/2000/svg">
<path fill-rule="evenodd" clip-rule="evenodd" d="M13.2151 21.9999C13.2149 22 13.2147 22 13.2145 22H13.2151L13.2151 21.9999ZM13.2152 21.9994C18.1635 21.395 22.0014 17.1663 22.0014 12.0351C22.0014 6.49072 17.5258 2 12 2C6.47417 2 1.99854 6.49072 1.99854 12.0351C1.99854 16.7416 5.229 20.6904 9.58462 21.7742L9.5847 21.7739V15.1008H7.51941V12.035H9.5847V10.7154C9.5847 7.29846 11.1249 5.71793 14.4654 5.71793C15.0955 5.71793 16.1906 5.84337 16.6357 5.96881V8.74853C16.4007 8.72345 15.9856 8.71341 15.4805 8.71341C13.8403 8.71341 13.2102 9.33559 13.2102 10.9563V12.0401H16.4807L15.9206 15.1058H13.2152V21.9994Z" fill="white"/>
</svg>
