<svg width="24" height="24" viewBox="0 0 24 24" fill="none" xmlns="http://www.w3.org/2000/svg">
<path fill-rule="evenodd" clip-rule="evenodd" d="M6 18.7631L10.2785 15.4619C11.2905 14.6811 12.7095 14.6811 13.7215 15.4619L18 18.7631V5.08627C18 4.55394 17.5316 4 16.8 4H7.2C6.46842 4 6 4.55394 6 5.08627V18.7631ZM4 5.08627V21.227C4 21.8739 4.77595 22.2336 5.29976 21.8295L11.5002 17.0454C11.7924 16.8199 12.2076 16.8199 12.4998 17.0454L18.7002 21.8295C19.2241 22.2336 20 21.8739 20 21.227V5.08627C20 3.38177 18.5673 2 16.8 2H7.2C5.43269 2 4 3.38177 4 5.08627Z" fill="white"/>
</svg>
