<svg width="24" height="24" viewBox="0 0 24 24" fill="none" xmlns="http://www.w3.org/2000/svg">
<path fill-rule="evenodd" clip-rule="evenodd" d="M7 2C7.55228 2 8 2.44772 8 3V11.126C9.72523 11.5701 11 13.1362 11 15C11 16.8638 9.72523 18.4299 8 18.874V21C8 21.5523 7.55228 22 7 22C6.44772 22 6 21.5523 6 21V18.874C4.27477 18.4299 3 16.8638 3 15C3 13.1362 4.27477 11.5701 6 11.126V3C6 2.44772 6.44772 2 7 2ZM9 15C9 16.1046 8.10457 17 7 17C5.89543 17 5 16.1046 5 15C5 13.8954 5.89543 13 7 13C8.10457 13 9 13.8954 9 15Z" fill="white"/>
<path fill-rule="evenodd" clip-rule="evenodd" d="M18 13.874C19.7252 13.4299 21 11.8638 21 10C21 8.13616 19.7252 6.57006 18 6.12602V3C18 2.44772 17.5523 2 17 2C16.4477 2 16 2.44772 16 3V6.12602C14.2748 6.57006 13 8.13616 13 10C13 11.8638 14.2748 13.4299 16 13.874V21C16 21.5523 16.4477 22 17 22C17.5523 22 18 21.5523 18 21V13.874ZM19 10C19 11.1046 18.1046 12 17 12C15.8954 12 15 11.1046 15 10C15 8.89543 15.8954 8 17 8C18.1046 8 19 8.89543 19 10Z" fill="white"/>
</svg>
