<svg width="20" height="20" viewBox="0 0 20 20" fill="none" xmlns="http://www.w3.org/2000/svg">
<path d="M7 4C7 3.44772 6.55228 3 6 3C5.44772 3 5 3.44772 5 4V9.17071C5.31278 9.06015 5.64936 9 6 9C6.35064 9 6.68722 9.06015 7 9.17071V4Z" fill="black"/>
<path d="M7 14.8293C6.68722 14.9398 6.35064 15 6 15C5.64936 15 5.31278 14.9398 5 14.8293V17C5 17.5523 5.44772 18 6 18C6.55228 18 7 17.5523 7 17V14.8293Z" fill="black"/>
<path fill-rule="evenodd" clip-rule="evenodd" d="M6 13C6.55228 13 7 12.5523 7 12C7 11.4477 6.55228 11 6 11C5.44772 11 5 11.4477 5 12C5 12.5523 5.44772 13 6 13ZM6 15C7.65685 15 9 13.6569 9 12C9 10.3431 7.65685 9 6 9C4.34315 9 3 10.3431 3 12C3 13.6569 4.34315 15 6 15Z" fill="black"/>
<path d="M15 4C15 3.44772 14.5523 3 14 3C13.4477 3 13 3.44772 13 4V5.17071C13.3128 5.06015 13.6494 5 14 5C14.3506 5 14.6872 5.06015 15 5.17071V4Z" fill="black"/>
<path d="M15 10.8293C14.6872 10.9398 14.3506 11 14 11C13.6494 11 13.3128 10.9398 13 10.8293V17C13 17.5523 13.4477 18 14 18C14.5523 18 15 17.5523 15 17V10.8293Z" fill="black"/>
<path fill-rule="evenodd" clip-rule="evenodd" d="M14 9C14.5523 9 15 8.55228 15 8C15 7.44772 14.5523 7 14 7C13.4477 7 13 7.44772 13 8C13 8.55228 13.4477 9 14 9ZM14 11C15.6569 11 17 9.65685 17 8C17 6.34315 15.6569 5 14 5C12.3431 5 11 6.34315 11 8C11 9.65685 12.3431 11 14 11Z" fill="black"/>
</svg>
