<svg width="24" height="24" viewBox="0 0 24 24" fill="none" xmlns="http://www.w3.org/2000/svg">
<path fill-rule="evenodd" clip-rule="evenodd" d="M17.2539 4.01562L9.93313 11.3363L12.6793 14.0825L20 6.76178V4.01562H17.2539ZM14.0935 15.4967L21.4199 8.17031C21.7913 7.79887 22 7.29509 22 6.76981V3.99623C22 2.90237 21.1133 2.01563 20.0194 2.01563L17.2458 2.01562C16.7205 2.01562 16.2168 2.22429 15.8453 2.59573L8.51891 9.92213L7.83923 9.24245C7.06576 8.46898 5.81171 8.46898 5.03823 9.24245L4.07999 10.2007C3.54952 10.7312 3.36429 11.5158 3.60152 12.2275L4.60122 15.2266L2.61136 17.2165C1.83788 17.99 1.83788 19.244 2.61136 20.0175L3.99814 21.4043C4.77162 22.1777 6.02567 22.1777 6.79914 21.4043L8.78901 19.4144L11.7881 20.4141C12.4998 20.6513 13.2845 20.4661 13.8149 19.9356L14.7732 18.9774C15.5466 18.2039 15.5466 16.9499 14.7732 16.1764L14.0935 15.4967ZM6.43873 10.6704L5.50268 11.6064L6.50238 14.6055C6.7396 15.3172 6.55438 16.1019 6.02391 16.6324L4.03928 18.617L5.39864 19.9763L7.38327 17.9917C7.91374 17.4612 8.69839 17.276 9.41009 17.5132L12.4092 18.513L13.3452 17.5769L6.43873 10.6704Z" fill="white"/>
</svg>
