<svg width="24" height="24" viewBox="0 0 24 24" fill="none" xmlns="http://www.w3.org/2000/svg">
<path d="M12.9686 5.75025C13.5837 5.40913 14 4.75319 14 4C14 2.89543 13.1046 2 12 2C10.8954 2 10 2.89543 10 4C10 4.75319 10.4163 5.40913 11.0314 5.75025C11.0109 5.83008 11 5.91376 11 6V12C11 12.5523 11.4477 13 12 13C12.5523 13 13 12.5523 13 12V6C13 5.91376 12.9891 5.83008 12.9686 5.75025Z" fill="white"/>
<path fill-rule="evenodd" clip-rule="evenodd" d="M3.18772 10.3222L9 7.73901V9.92764L4.81307 11.7885L12.0251 15.3945L19.1869 12.2115L15 10.118V7.88196L20.8944 10.8292C21.572 11.168 22 11.8605 22 12.618V15.882C22 16.6395 21.572 17.332 20.8944 17.6708L12.8944 21.6708C12.3314 21.9523 11.6686 21.9523 11.1056 21.6708L3.10557 17.6708C2.428 17.332 2 16.6395 2 15.882V12.1499C2 11.3595 2.46547 10.6432 3.18772 10.3222ZM20 14.0388L12.8374 17.2221C12.2913 17.4649 11.6652 17.4506 11.1307 17.1834L4 13.618L4 15.882L12 19.882L20 15.882V14.0388Z" fill="white"/>
</svg>
