<svg width="24" height="24" viewBox="0 0 24 24" fill="none" xmlns="http://www.w3.org/2000/svg">
<path fill-rule="evenodd" clip-rule="evenodd" d="M7.66898 9.68217C7.60026 9.88472 7.45388 10.0444 7.26821 10.1194L2.84296 11.9059C2.25238 12.1444 2.25238 13.0556 2.84296 13.2941L7.26821 15.0806C7.45387 15.1556 7.60026 15.3153 7.66897 15.5178L9.30666 20.3454C9.52523 20.9896 10.3605 20.9896 10.5791 20.3454L12.2168 15.5178C12.2855 15.3153 12.4319 15.1556 12.6176 15.0806L17.0428 13.2941C17.6334 13.0556 17.6334 12.1444 17.0428 11.9059L12.6176 10.1194C12.4319 10.0444 12.2855 9.88472 12.2168 9.68217L10.5791 4.85463C10.3605 4.21036 9.52523 4.21036 9.30666 4.85463L7.66898 9.68217ZM9.94288 9.20476L9.56296 10.3247C9.32165 11.036 8.78307 11.6646 8.01694 11.9739L6.46621 12.6L8.01693 13.2261C8.78307 13.5354 9.32165 14.164 9.56296 14.8753L9.94288 15.9952L10.3228 14.8753C10.5641 14.164 11.1027 13.5354 11.8688 13.2261L13.4196 12.6L11.8688 11.9739C11.1027 11.6646 10.5641 11.036 10.3228 10.3247L9.94288 9.20476ZM17.0119 4.87329C16.944 5.05661 16.7995 5.20114 16.6162 5.26899L15.1802 5.8004C14.5971 6.0162 14.5971 6.84094 15.1802 7.05674L16.6162 7.58816C16.7995 7.656 16.944 7.80053 17.0119 7.98385L17.5433 9.41981C17.7591 10.0029 18.5838 10.0029 18.7996 9.41981L19.331 7.98385C19.3989 7.80053 19.5434 7.656 19.7267 7.58816L21.1627 7.05674C21.7458 6.84094 21.7458 6.0162 21.1627 5.8004L19.7267 5.26899C19.5434 5.20114 19.3989 5.05661 19.331 4.87329L18.7996 3.43733C18.5838 2.85422 17.7591 2.85422 17.5433 3.43733L17.0119 4.87329ZM16.3919 17.687C16.0218 17.824 16.0218 18.3474 16.3919 18.4844L17.717 18.9748C17.7508 18.9873 17.7825 19.0039 17.8116 19.0241C17.8535 19.0531 17.8898 19.0894 17.9188 19.1313C17.9389 19.1603 17.9556 19.1921 17.9681 19.2259L18.4585 20.551C18.5954 20.9211 19.1189 20.9211 19.2559 20.551L19.7462 19.2259C19.7588 19.1921 19.7754 19.1603 19.7956 19.1313C19.8246 19.0894 19.8609 19.0531 19.9027 19.0241C19.9318 19.0039 19.9635 18.9873 19.9974 18.9748L21.3225 18.4844C21.6925 18.3474 21.6925 17.824 21.3225 17.687L19.9974 17.1966C19.9635 17.1841 19.9318 17.1675 19.9027 17.1473C19.8609 17.1183 19.8246 17.082 19.7956 17.0402C19.7754 17.0111 19.7588 16.9793 19.7462 16.9455L19.2559 15.6204C19.1189 15.2503 18.5954 15.2503 18.4585 15.6204L17.9681 16.9455C17.9556 16.9793 17.9389 17.0111 17.9188 17.0402C17.8898 17.082 17.8535 17.1183 17.8116 17.1473C17.7825 17.1675 17.7508 17.1841 17.717 17.1966L16.3919 17.687Z" fill="white"/>
</svg>
