<svg width="24" height="24" viewBox="0 0 24 24" fill="none" xmlns="http://www.w3.org/2000/svg">
<path fill-rule="evenodd" clip-rule="evenodd" d="M11.1307 17.1834L2.55279 12.8944L3.44721 11.1056L12.0251 15.3945L20.5939 11.5862L21.4061 13.4138L12.8374 17.2221C12.2913 17.4649 11.6652 17.4506 11.1307 17.1834Z" fill="white"/>
<path d="M9 7.73901L3.18772 10.3222C2.46547 10.6432 2 11.3595 2 12.1499V15.882C2 16.6395 2.428 17.332 3.10557 17.6708L11.1056 21.6708C11.6686 21.9523 12.3314 21.9523 12.8944 21.6708L20.8944 17.6708C21.572 17.332 22 16.6395 22 15.882V12.618C22 11.8605 21.572 11.168 20.8944 10.8292L15 7.88196V10.118L20 12.618V15.882L12 19.882L4 15.882L4 12.1499L9 9.92764V7.73901Z" fill="white"/>
<path d="M11 6C11 5.44772 11.4477 5 12 5C12.5523 5 13 5.44772 13 6V12C13 12.5523 12.5523 13 12 13C11.4477 13 11 12.5523 11 12V6Z" fill="white"/>
<path d="M14 4C14 5.10457 13.1046 6 12 6C10.8954 6 10 5.10457 10 4C10 2.89543 10.8954 2 12 2C13.1046 2 14 2.89543 14 4Z" fill="white"/>
</svg>
