<svg width="24" height="24" viewBox="0 0 24 24" fill="none" xmlns="http://www.w3.org/2000/svg">
<path fill-rule="evenodd" clip-rule="evenodd" d="M4 4.00291C4 2.89949 4.89269 2 6 2H18C19.1073 2 20 2.8995 20 4.00291V19.9971C20 21.1005 19.1073 22 18 22H6C4.89271 22 4 21.1005 4 19.9971V4.00291ZM6.00007 4.00112L6 4.00291V19.9971L6.00008 19.9989C5.99997 19.9987 6.00012 19.999 6.00008 19.9989C6.00021 19.9991 6.00061 19.9997 6.00085 20H17.9992C17.9995 19.9996 17.9998 19.9992 17.9999 19.999L18 19.9971V4.00291L17.9999 4.00112C17.9999 4.00109 17.9999 4.00114 17.9999 4.00112M17.9991 4C17.9995 4.00038 17.9998 4.00091 17.9999 4.00112L17.9991 4ZM17.9991 4H6.00086C6.00046 4.00042 6.0002 4.00092 6.00007 4.00112" fill="white"/>
<path fill-rule="evenodd" clip-rule="evenodd" d="M7.59375 15.5C7.59375 14.9477 8.04147 14.5 8.59375 14.5H11.4688C12.021 14.5 12.4688 14.9477 12.4688 15.5C12.4688 16.0523 12.021 16.5 11.4688 16.5H8.59375C8.04147 16.5 7.59375 16.0523 7.59375 15.5Z" fill="white"/>
<path fill-rule="evenodd" clip-rule="evenodd" d="M10 13C10.5523 13 11 13.4477 11 14V17C11 17.5523 10.5523 18 10 18C9.44772 18 9 17.5523 9 17V14C9 13.4477 9.44772 13 10 13Z" fill="white"/>
<path fill-rule="evenodd" clip-rule="evenodd" d="M8 6.76923C8 6.3444 8.35817 6 8.8 6H15.2C15.6418 6 16 6.3444 16 6.76923V10.2308C16 10.6556 15.6418 11 15.2 11H8.8C8.35817 11 8 10.6556 8 10.2308V6.76923ZM9.6 7.53846V9.46154H14.4V7.53846H9.6Z" fill="white"/>
<path d="M15 15C15.5523 15 16 14.5523 16 14C16 13.4477 15.5523 13 15 13C14.4477 13 14 13.4477 14 14C14 14.5523 14.4477 15 15 15Z" fill="white"/>
<path d="M15 18C15.5523 18 16 17.5523 16 17C16 16.4477 15.5523 16 15 16C14.4477 16 14 16.4477 14 17C14 17.5523 14.4477 18 15 18Z" fill="white"/>
</svg>
