<svg width="24" height="24" viewBox="0 0 24 24" fill="none" xmlns="http://www.w3.org/2000/svg">
<path fill-rule="evenodd" clip-rule="evenodd" d="M11 4H4V20H11V4ZM4 2C2.89543 2 2 2.89543 2 4V20C2 21.1046 2.89543 22 4 22H11C12.1046 22 13 21.1046 13 20V4C13 2.89543 12.1046 2 11 2H4Z" fill="white"/>
<path fill-rule="evenodd" clip-rule="evenodd" d="M21 6C21.5523 6 22 6.44772 22 7V18.5C22 20.433 20.433 22 18.5 22C16.567 22 15 20.433 15 18.5V15.9C15 14.2431 13.6569 12.9 12 12.9C11.4477 12.9 11 12.4523 11 11.9C11 11.3477 11.4477 10.9 12 10.9C14.7614 10.9 17 13.1386 17 15.9V18.5C17 19.3284 17.6716 20 18.5 20C19.3284 20 20 19.3284 20 18.5V7C20 6.44772 20.4477 6 21 6Z" fill="white"/>
<path d="M17.5 7C17.5 5.89543 18.3954 5 19.5 5C20.6046 5 21.5 5.89543 21.5 7C21.5 8.10457 20.6046 9 19.5 9C18.3954 9 17.5 8.10457 17.5 7Z" fill="white"/>
<path fill-rule="evenodd" clip-rule="evenodd" d="M16.2929 2.29289C16.6834 1.90237 17.3166 1.90237 17.7071 2.29289L21.7071 6.29289C22.0976 6.68342 22.0976 7.31658 21.7071 7.70711C21.3166 8.09763 20.6834 8.09763 20.2929 7.70711L16.2929 3.70711C15.9024 3.31658 15.9024 2.68342 16.2929 2.29289Z" fill="white"/>
<path d="M6 7C6 6.44772 6.44772 6 7 6H8C8.55228 6 9 6.44772 9 7C9 7.55228 8.55228 8 8 8H7C6.44772 8 6 7.55228 6 7Z" fill="white"/>
</svg>
