<svg width="20" height="20" viewBox="0 0 20 20" fill="none" xmlns="http://www.w3.org/2000/svg">
<path fill-rule="evenodd" clip-rule="evenodd" d="M4.50933 3C3.67575 3 3 3.69193 3 4.54546L3 16.6001C3 17.0553 3.3604 17.4243 3.80498 17.4243H10.0435C10.4881 17.4243 10.8485 17.0553 10.8485 16.6001V10.5939C12.024 10.594 12.9768 11.5309 12.9768 12.6868L12.9768 15.0221C12.9768 16.1145 13.8775 17.0001 14.9884 17.0001C16.0994 17.0001 17 16.1145 17 15.0221V8.23912C17 7.40653 16.6636 6.60805 16.0649 6.01933L13.6415 3.63637L13.0909 4.17778L14.9363 5.99239C14.1817 6.1251 13.6062 6.82419 13.6062 7.66668C13.6062 8.60389 14.3184 9.36366 15.1971 9.36366C15.5872 9.36366 15.9446 9.21385 16.2213 8.96522V15.0221C16.2213 15.6916 15.6693 16.2344 14.9884 16.2344C14.3075 16.2344 13.7555 15.6916 13.7555 15.0221V12.6868C13.7555 11.1081 12.454 9.82829 10.8485 9.82827V4.54546C10.8485 3.69193 10.1728 3 9.33919 3H4.50933ZM5.31525 4.4849C4.85662 4.4849 4.48482 4.85252 4.48482 5.30601L4.48482 6.84561C4.48482 7.2991 4.85662 7.66673 5.31525 7.66673H8.53319C8.99182 7.66673 9.36362 7.2991 9.36362 6.84561V5.30601C9.36362 4.85252 8.99182 4.4849 8.53319 4.4849L5.31525 4.4849ZM15.1971 8.44729C14.7929 8.44729 14.4652 8.0978 14.4652 7.66668C14.4652 7.23556 14.7929 6.88607 15.1971 6.88607C15.6012 6.88607 15.9289 7.23556 15.9289 7.66668C15.9289 8.0978 15.6012 8.44729 15.1971 8.44729Z" fill="black"/>
</svg>
