<svg width="24" height="24" viewBox="0 0 24 24" fill="none" xmlns="http://www.w3.org/2000/svg">
<path fill-rule="evenodd" clip-rule="evenodd" d="M12.5832 2.84214C13.7036 1.72519 15.5288 1.71563 16.6521 2.83548C17.7775 3.95721 17.7675 5.78207 16.6456 6.90058C16.4708 7.07483 16.2552 7.22152 16.0401 7.34369H20.2997C21.2358 7.34369 22 8.10112 22 9.04187V12.5328C22 13.4735 21.2358 14.231 20.2997 14.231H19.9937V20.3018C19.9937 20.9091 19.638 21.3461 19.3258 21.5871C19.0082 21.8322 18.5855 22 18.1456 22H5.65008C4.71392 22 3.94971 21.2426 3.94971 20.3018V14.231H3.70037C2.76418 14.231 2 13.4736 2 12.5328V9.04187C2 8.10106 2.76421 7.34369 3.70037 7.34369H7.90049C7.68615 7.22126 7.47212 7.07466 7.29757 6.90066C6.17544 5.78202 6.16577 3.95714 7.29089 2.83553C8.41433 1.71559 10.2395 1.72533 11.3599 2.84219C11.6221 3.10362 11.8222 3.45643 11.9705 3.76255C12.1199 3.45529 12.3205 3.10406 12.5832 2.84214ZM10.7795 6.31651C10.7073 6.07036 10.6229 5.79966 10.5301 5.53124C10.4185 5.20873 10.3005 4.9068 10.1836 4.66164C10.1254 4.53958 10.0722 4.44167 10.0257 4.36746C10.0028 4.33089 9.98374 4.30364 9.96897 4.28428C9.95503 4.26601 9.94773 4.25846 9.94773 4.25846C9.60119 3.91301 9.03908 3.91681 8.70289 4.25195C8.36848 4.58532 8.36471 5.14045 8.70957 5.48424C8.70957 5.48424 8.71773 5.49227 8.73819 5.50783C8.75829 5.52311 8.78618 5.54255 8.82321 5.56568C8.89834 5.61262 8.99696 5.666 9.11942 5.72414C9.36546 5.84095 9.66773 5.95815 9.99042 6.06873C10.2602 6.1612 10.5322 6.24496 10.7795 6.31651ZM10.9716 9.34369H4V12.231H10.9716V9.34369ZM10.9716 14.231H5.94971V20H10.9716V14.231ZM12.9716 20V14.231H17.9937V20H12.9716ZM12.9716 12.231V9.34369H20V12.231H12.9716ZM13.1626 6.31552C13.4109 6.24326 13.6842 6.15862 13.9553 6.06541C14.279 5.95412 14.5821 5.83645 14.8283 5.71976C14.9509 5.66166 15.0493 5.60852 15.124 5.56206C15.1607 5.53917 15.1882 5.5201 15.2077 5.50532C15.2261 5.49134 15.2337 5.48402 15.2337 5.48402C15.5785 5.14022 15.5746 4.58527 15.2402 4.25193C14.904 3.9168 14.3417 3.91309 13.9952 4.25852C13.9952 4.25852 13.9872 4.2666 13.9717 4.28692C13.9564 4.30689 13.9369 4.33461 13.9138 4.37144C13.8668 4.44616 13.8134 4.5443 13.7551 4.66624C13.6381 4.91124 13.5206 5.21232 13.4097 5.53384C13.3176 5.80103 13.2341 6.07036 13.1626 6.31552Z" fill="white"/>
</svg>
