<svg width="20" height="21" viewBox="0 0 20 20" fill="none" xmlns="http://www.w3.org/2000/svg">
<path fill-rule="evenodd" clip-rule="evenodd" d="M9.5 10.5746V12.3165C8.61647 12.3543 7.83009 12.4917 7.13348 12.7005C6.94371 12.0825 6.81599 11.3769 6.77831 10.5746H9.5ZM7.49539 13.6363C8.08335 13.4668 8.74893 13.3527 9.5 13.3175V15.9901C8.80303 15.5332 8.03828 14.7805 7.49539 13.6363ZM5.77729 10.5746C5.81699 11.5041 5.96673 12.325 6.19337 13.0466C5.64189 13.2905 5.16038 13.5814 4.74344 13.8987C4.05348 12.952 3.61308 11.8117 3.51895 10.5746H5.77729ZM6.55234 13.9815C6.11131 14.1805 5.72694 14.4122 5.39385 14.6607C6.19289 15.4632 7.20027 16.0581 8.32801 16.3575C7.66786 15.7942 7.0276 15.0154 6.55234 13.9815ZM12.5047 13.6364C11.9167 13.4668 11.2511 13.3528 10.5 13.3175V15.9902C11.197 15.5333 11.9618 14.7806 12.5047 13.6364ZM10.5 12.3165C11.3836 12.3543 12.17 12.4917 12.8666 12.7005C13.0564 12.0825 13.1841 11.377 13.2218 10.5746H10.5V12.3165ZM11.6722 16.3574C12.3323 15.7942 12.9725 15.0154 13.4478 13.9816C13.8887 14.1806 14.2731 14.4123 14.6061 14.6608C13.8071 15.4632 12.7998 16.0581 11.6722 16.3574ZM13.8067 13.0467C14.3582 13.2906 14.8396 13.5814 15.2565 13.8987C15.9465 12.952 16.3869 11.8117 16.481 10.5746H14.2228C14.1831 11.5041 14.0334 12.3251 13.8067 13.0467ZM13.2218 9.57465H10.5V7.83299C11.3836 7.7952 12.1701 7.65781 12.8668 7.44896C13.0565 8.06695 13.1842 8.77243 13.2218 9.57465ZM12.505 6.51309C11.9169 6.68272 11.2512 6.79677 10.5 6.832V4.15879C11.1971 4.61568 11.962 5.36858 12.505 6.51309ZM13.448 6.16788C12.9728 5.1339 12.3325 4.35499 11.6723 3.79168C12.8001 4.09108 13.8074 4.68603 14.6064 5.48857C14.2733 5.7371 13.889 5.96882 13.448 6.16788ZM13.8069 7.10278C14.3584 6.85888 14.8399 6.56797 15.2568 6.25062C15.9467 7.19738 16.387 8.33762 16.4811 9.57465H14.2229C14.1832 8.64529 14.0335 7.82433 13.8069 7.10278ZM9.5 6.832V4.15887C8.80292 4.61578 8.03804 5.36866 7.49514 6.51313C8.08316 6.68275 8.74883 6.79678 9.5 6.832ZM9.5 7.83299C8.6164 7.79521 7.82996 7.65783 7.13331 7.44901C6.94361 8.06699 6.81594 8.77245 6.77829 9.57465H9.5V7.83299ZM6.1932 7.10285C5.96663 7.82438 5.81694 8.64532 5.77727 9.57465H3.51894C3.61301 8.33763 4.05334 7.1974 4.74321 6.25064C5.16016 6.56801 5.64169 6.85894 6.1932 7.10285ZM6.55211 6.16794C6.11105 5.96888 5.72666 5.73714 5.39357 5.48859C6.19261 4.686 7.20003 4.09102 8.32783 3.79163C7.66764 4.35496 7.02735 5.13391 6.55211 6.16794ZM10 18.0745C14.4183 18.0745 18 14.4928 18 10.0745C18 5.65625 14.4183 2.07452 10 2.07452C5.58172 2.07452 2 5.65625 2 10.0745C2 14.4928 5.58172 18.0745 10 18.0745Z" fill="black"/>
</svg>
