<svg width="20" height="20" viewBox="0 0 20 20" fill="none" xmlns="http://www.w3.org/2000/svg">
<g clip-path="url(#clip0_140_4)">
<path fill-rule="evenodd" clip-rule="evenodd" d="M7.49951 2.49986H2.49955V7.49983H7.49951V2.49986ZM2.49955 0.833191C1.57907 0.833191 0.832886 1.57938 0.832886 2.49986V7.49983C0.832886 8.42033 1.57907 9.16655 2.49955 9.16655H7.49951C8.42001 9.16655 9.16623 8.42033 9.16623 7.49983V2.49986C9.16623 1.57938 8.42001 0.833191 7.49951 0.833191H2.49955Z" fill="black"/>
<path fill-rule="evenodd" clip-rule="evenodd" d="M7.49951 12.4998H2.49955V17.4998H7.49951V12.4998ZM2.49955 10.8332C1.57907 10.8332 0.832886 11.5794 0.832886 12.4998V17.4998C0.832886 18.4203 1.57907 19.1665 2.49955 19.1665H7.49951C8.42001 19.1665 9.16623 18.4203 9.16623 17.4998V12.4998C9.16623 11.5794 8.42001 10.8332 7.49951 10.8332H2.49955Z" fill="black"/>
<path fill-rule="evenodd" clip-rule="evenodd" d="M17.4996 2.49986H12.4996V7.49983H17.4996V2.49986ZM12.4996 0.833191C11.5791 0.833191 10.8329 1.57938 10.8329 2.49986V7.49983C10.8329 8.42033 11.5791 9.16655 12.4996 9.16655H17.4996C18.42 9.16655 19.1662 8.42033 19.1662 7.49983V2.49986C19.1662 1.57938 18.42 0.833191 17.4996 0.833191H12.4996Z" fill="black"/>
<path fill-rule="evenodd" clip-rule="evenodd" d="M17.4996 12.4998H12.4996V17.4998H17.4996V12.4998ZM12.4996 10.8332C11.5791 10.8332 10.8329 11.5794 10.8329 12.4998V17.4998C10.8329 18.4203 11.5791 19.1665 12.4996 19.1665H17.4996C18.42 19.1665 19.1662 18.4203 19.1662 17.4998V12.4998C19.1662 11.5794 18.42 10.8332 17.4996 10.8332H12.4996Z" fill="black"/>
</g>
<defs>
<clipPath id="clip0_140_4">
<rect width="20" height="20" fill="white"/>
</clipPath>
</defs>
</svg>
