<svg width="24" height="24" viewBox="0 0 24 24" fill="none" xmlns="http://www.w3.org/2000/svg">
<path d="M15.6115 3.86662C15.8332 3.86664 16.0665 3.8791 16.2912 3.90276H16.299C17.8732 4.0804 19.3152 4.85102 20.3517 6.07561L20.5412 6.30901C21.4557 7.49661 21.9245 8.97211 21.8586 10.476C21.7969 12.0742 21.1377 13.5917 20.0119 14.728L19.9943 14.7455L19.9748 14.7631L13.9543 20.2485L13.9523 20.2514L13.9377 20.2651C12.8021 21.311 11.055 21.3116 9.91815 20.268L3.88593 14.7729L3.84882 14.7377C2.71897 13.5974 2.05953 12.0734 2.00214 10.4692L1.99823 10.1694C2.01165 8.67291 2.53537 7.22624 3.508 6.07659C4.53225 4.86191 5.98218 4.08491 7.56073 3.90373L7.56561 3.90276C9.11591 3.73217 10.6731 4.15379 11.926 5.08244L11.9299 5.0844L11.9348 5.08244C13.0119 4.28007 14.2915 3.86662 15.6115 3.86662ZM15.6115 5.86662C14.7124 5.86662 13.8511 6.14669 13.1242 6.68987L13.1174 6.69573L11.9308 7.56584L10.7443 6.69573L10.7385 6.69182C9.89004 6.06157 8.83492 5.77544 7.78436 5.89104L7.78339 5.89006C6.71325 6.01421 5.73069 6.54277 5.03632 7.36662L5.03534 7.36858C4.32707 8.20571 3.96047 9.28002 4.00116 10.3959C4.04025 11.4933 4.48996 12.5364 5.25995 13.3188L11.2648 18.7905L11.2687 18.7944C11.6378 19.1342 12.2041 19.1352 12.5754 18.7992L12.5793 18.7963L12.5959 18.7807L18.5998 13.309C19.3683 12.5285 19.8183 11.4898 19.8596 10.3949V10.3891C19.9049 9.35718 19.5837 8.34461 18.9562 7.52971L18.8264 7.36858C18.1183 6.53177 17.1423 6.0113 16.0803 5.89006C15.9287 5.87418 15.766 5.86664 15.6115 5.86662Z" fill="currentColor"/>
</svg>
