<svg width="24" height="24" viewBox="0 0 24 24" fill="none" xmlns="http://www.w3.org/2000/svg">
<path d="M20.19 4.86573C19.1226 3.78928 17.7128 3.13704 16.215 3.02668C14.7173 2.91632 13.2301 3.35512 12.0219 4.2639C10.7482 3.29857 9.16305 2.86085 7.58543 3.03887C6.00779 3.2169 4.55496 3.99744 3.51946 5.22333C2.48397 6.44922 1.94276 8.02939 2.0048 9.64563C2.06684 11.2619 2.72752 12.7941 3.85382 13.9338L9.85975 20.105C10.4228 20.6781 11.1861 21 11.9819 21C12.7777 21 13.5409 20.6781 14.104 20.105L20.1099 13.9338C20.7014 13.3449 21.1728 12.6426 21.4972 11.8675C21.8215 11.0923 21.9923 10.2594 21.9997 9.41675C22.0072 8.57407 21.8511 7.7382 21.5405 6.95719C21.23 6.17617 20.7709 5.46539 20.19 4.86573ZM18.7786 12.4751L12.7726 18.5954C12.6796 18.691 12.5688 18.7669 12.4469 18.8187C12.3249 18.8705 12.1941 18.8971 12.0619 18.8971C11.9298 18.8971 11.799 18.8705 11.677 18.8187C11.5549 18.7669 11.4442 18.691 11.3512 18.5954L5.3453 12.4751C4.56027 11.6575 4.1207 10.559 4.1207 9.41509C4.1207 8.27115 4.56027 7.17269 5.3453 6.35498C6.14524 5.55015 7.22412 5.09888 8.34826 5.09888C9.47239 5.09888 10.5513 5.55015 11.3512 6.35498C11.4442 6.45059 11.5549 6.52647 11.677 6.57825C11.799 6.63004 11.9298 6.6567 12.0619 6.6567C12.1941 6.6567 12.3249 6.63004 12.4469 6.57825C12.5688 6.52647 12.6796 6.45059 12.7726 6.35498C13.5942 5.68877 14.6277 5.35404 15.6759 5.4146C16.7241 5.47516 17.7139 5.92678 18.4564 6.68333C19.1988 7.43988 19.6419 8.44843 19.7014 9.51664C19.7608 10.5848 19.4323 11.638 18.7786 12.4751Z" fill="white"/>
</svg>
