<svg width="24" height="24" viewBox="0 0 24 24" fill="none" xmlns="http://www.w3.org/2000/svg">
<path d="M13.35 19.67C12.59 20.37 11.42 20.37 10.66 19.67L4.57998 14.13C3.6191 13.1603 3.05858 11.8643 3.00998 10.5C2.95998 9.13 3.40998 7.8 4.28998 6.76C5.15676 5.73161 6.3838 5.07337 7.71998 4.92C9.03212 4.77552 10.3503 5.13276 11.41 5.92L12.01 6.36L12.61 5.92C13.52 5.24 14.6 4.89 15.72 4.89C15.91 4.89 16.11 4.9 16.3 4.92C17.63 5.07 18.85 5.72 19.73 6.76C20.6127 7.80083 21.0699 9.13658 21.01 10.5C20.9587 11.8608 20.3984 13.1527 19.44 14.12L13.36 19.66L13.35 19.67Z" fill="currentColor"/>
</svg>
