<svg width="24" height="24" viewBox="0 0 24 24" fill="none" xmlns="http://www.w3.org/2000/svg">
<path d="M2.69012 2.78399C3.07906 2.39194 3.7121 2.38925 4.10419 2.77813L20.1042 18.6512C20.4962 19.0401 20.4989 19.6732 20.11 20.0652C19.7211 20.4573 19.0881 20.4599 18.696 20.0711L16.5739 17.9656C16.5593 17.9805 16.5456 17.9964 16.53 18.0106L14.0134 20.2772L14.0143 20.2781C12.8724 21.3214 11.1172 21.3215 9.97528 20.2781L3.89911 14.7859L3.88055 14.7684L3.862 14.7498C2.72151 13.6065 2.07152 12.089 2.00067 10.4871L1.99481 10.1863C1.99961 8.68497 2.53877 7.23092 3.5202 6.08282L3.52606 6.07501L3.5329 6.06719C3.68188 5.8997 3.85595 5.71546 4.0495 5.54083L2.69598 4.19805C2.30394 3.80912 2.30124 3.17608 2.69012 2.78399ZM5.41864 6.99884C5.29556 7.1066 5.16799 7.23694 5.0329 7.38848C4.36329 8.17527 3.99823 9.16904 3.99481 10.1922L3.99872 10.3982C4.04759 11.5054 4.49168 12.5391 5.25946 13.3182L11.321 18.7977L11.3249 18.8016C11.7029 19.1468 12.2878 19.1469 12.6657 18.8016L12.6706 18.7967L15.154 16.5574L5.46844 6.94903C5.45206 6.9655 5.43638 6.9833 5.41864 6.99884ZM12.0065 5.09356C13.2687 4.16327 14.8383 3.7424 16.3991 3.9129H16.403C17.9895 4.09354 19.4482 4.86916 20.4802 6.08282C21.5224 7.30481 22.0699 8.87144 21.9987 10.4861C21.9279 12.0903 21.2774 13.5982 20.1384 14.74L20.1179 14.7606L20.0964 14.7791L19.487 15.325C19.0754 15.6932 18.4431 15.6575 18.0749 15.2459C17.7067 14.8343 17.7414 14.202 18.153 13.8338L18.737 13.3113C19.5083 12.5305 19.9518 11.5049 20.0007 10.3982C20.0494 9.29487 19.6773 8.22205 18.9597 7.38067L18.9577 7.37969C18.2572 6.5552 17.2646 6.02467 16.1813 5.9002C15.1179 5.78408 14.0501 6.07226 13.1931 6.70391L13.1882 6.70782L12.5886 7.14434L11.9997 7.57208L10.8122 6.70782L10.8054 6.70294C10.2586 6.29825 9.62003 6.03082 8.94501 5.92462C8.39943 5.83883 8.02621 5.32664 8.112 4.78106C8.19783 4.23552 8.71 3.86324 9.25555 3.94903C10.2455 4.10473 11.1829 4.49635 11.988 5.09063L11.9997 5.09844L12.0065 5.09356Z" fill="currentColor"/>
</svg>
