<svg width="24" height="24" viewBox="0 0 24 24" fill="none" xmlns="http://www.w3.org/2000/svg">
<path fill-rule="evenodd" clip-rule="evenodd" d="M12 20C16.4183 20 20 16.4183 20 12C20 7.58172 16.4183 4 12 4C7.58172 4 4 7.58172 4 12C4 16.4183 7.58172 20 12 20ZM12 22C17.5228 22 22 17.5228 22 12C22 6.47715 17.5228 2 12 2C6.47715 2 2 6.47715 2 12C2 17.5228 6.47715 22 12 22Z" fill="white"/>
<path d="M13 17C13 17.5523 12.5523 18 12 18C11.4477 18 11 17.5523 11 17C11 16.4477 11.4477 16 12 16C12.5523 16 13 16.4477 13 17Z" fill="white"/>
<path fill-rule="evenodd" clip-rule="evenodd" d="M12 8C10.7958 8 10 8.89745 10 9.66667C10 10.219 9.55228 10.6667 9 10.6667C8.44772 10.6667 8 10.219 8 9.66667C8 7.60366 9.8905 6 12 6C14.1096 6 16 7.60368 16 9.66667C16 10.0909 15.9478 10.5594 15.7129 10.974C15.2674 11.7604 14.5278 12.3303 14.0108 12.7287C13.9128 12.8043 13.8227 12.8737 13.7442 12.9372C13.1612 13.4089 13 13.6662 13 14C13 14.5523 12.5523 15 12 15C11.4477 15 11 14.5523 11 14C11 12.6769 11.8519 11.8956 12.4862 11.3824C12.6321 11.2643 12.7679 11.1578 12.8941 11.0588C13.3915 10.6686 13.7396 10.3956 13.9686 9.99552C13.9706 9.98966 13.975 9.97512 13.9799 9.94921C13.9904 9.89418 14 9.80475 14 9.66667C14 8.89742 13.2042 8 12 8Z" fill="white"/>
</svg>
