<svg width="24" height="24" viewBox="0 0 24 24" fill="none" xmlns="http://www.w3.org/2000/svg">
<path fill-rule="evenodd" clip-rule="evenodd" d="M4 9.5C4 5.35787 7.35787 2 11.5 2H12.5C16.6422 2 20 5.35787 20 9.5V17C20 17.068 19.9931 17.1358 19.9793 17.2024L19.4351 19.8349C19.4271 19.8734 19.4169 19.9114 19.4045 19.9487C18.9962 21.1737 17.8497 22 16.5585 22H13C12.4477 22 12 21.5523 12 21C12 20.4477 12.4477 20 13 20H16.5585C16.9725 20 17.3418 19.7451 17.4905 19.3623L17.7721 18H17C15.3431 18 14 16.6569 14 15V13C14 11.3431 15.3431 10 17 10H18V9.5C18 6.46243 15.5376 4 12.5 4H11.5C8.46243 4 6 6.46243 6 9.5V10H7C8.65685 10 10 11.3431 10 13V15C10 16.6569 8.65685 18 7 18H5C4.44772 18 4 17.5523 4 17V9.5ZM6 12V16H7C7.55229 16 8 15.5523 8 15V13C8 12.4477 7.55229 12 7 12H6ZM18 12H17C16.4477 12 16 12.4477 16 13V15C16 15.5523 16.4477 16 17 16H18V12Z" fill="white"/>
</svg>
