<svg width="24" height="24" viewBox="0 0 24 24" fill="none" xmlns="http://www.w3.org/2000/svg">
<path fill-rule="evenodd" clip-rule="evenodd" d="M21.7071 2.29289C22.0976 2.68342 22.0976 3.31658 21.7071 3.70711L3.70711 21.7071C3.31658 22.0976 2.68342 22.0976 2.29289 21.7071C1.90237 21.3166 1.90237 20.6834 2.29289 20.2929L5.7826 16.8032C3.17877 14.7504 2 12 2 12C2 12 4.99998 5 12 5C13.7428 5 15.2377 5.43393 16.5001 6.08571L20.2929 2.29289C20.6834 1.90237 21.3166 1.90237 21.7071 2.29289ZM13.2934 9.29237C12.9018 9.10495 12.4631 9 12 9C10.3431 9 9 10.3431 9 12C9 12.4631 9.10495 12.9018 9.29237 13.2934L7.2083 15.3775C6.69827 14.9958 6.24352 14.573 5.84059 14.1391C5.14638 13.3915 4.63408 12.6376 4.29671 12.0708L4.25491 12L4.29671 11.9292C4.63408 11.3624 5.14637 10.6085 5.84058 9.8609C7.23019 8.36439 9.23628 7 12 7C13.1198 7 14.1153 7.22401 14.9957 7.59005L13.2934 9.29237Z" fill="white"/>
<path d="M12 19C11.1197 19 10.3027 18.8893 9.54695 18.6957L11.2747 16.968C11.5105 16.989 11.7522 17 12 17C14.7637 17 16.7698 15.6356 18.1594 14.1391C18.8536 13.3915 19.3659 12.6376 19.7033 12.0708L19.7451 12L19.7033 11.9292C19.3834 11.3918 18.9062 10.686 18.2657 9.97699L19.6815 8.56122C21.2674 10.2906 22 12 22 12C22 12 19 19 12 19Z" fill="white"/>
</svg>
