<svg width="24" height="24" viewBox="0 0 24 24" fill="none" xmlns="http://www.w3.org/2000/svg">
<path fill-rule="evenodd" clip-rule="evenodd" d="M9.54695 18.6957C10.3027 18.8893 11.1197 19 12 19C19 19 22 12 22 12C22 12 21.2674 10.2906 19.6815 8.56122L18.2657 9.97699C18.9062 10.686 19.3834 11.3918 19.7033 11.9292L19.7451 12L19.7033 12.0708C19.3659 12.6376 18.8536 13.3915 18.1594 14.1391C16.7698 15.6356 14.7637 17 12 17C11.7522 17 11.5105 16.989 11.2747 16.968L9.54695 18.6957ZM20.1648 11.205C20.1648 11.205 20.1648 11.205 20.1637 11.2074L20.1648 11.205ZM20.1648 12.7951C20.1648 12.7951 20.1648 12.795 20.1637 12.7926L20.1648 12.7951Z" fill="white"/>
<path fill-rule="evenodd" clip-rule="evenodd" d="M16.7917 8.62253C16.2555 8.22126 15.6582 7.86547 14.9958 7.59007C14.1153 7.22402 13.1199 7 12 7C9.23628 7 7.23019 8.36439 5.84058 9.8609C5.14637 10.6085 4.63408 11.3624 4.29671 11.9292L4.25491 12L4.29671 12.0708C4.63408 12.6376 5.14638 13.3915 5.84059 14.1391C6.24354 14.573 6.69832 14.9959 7.20837 15.3775C7.74459 15.7788 8.3419 16.1346 9.0043 16.41L7.49996 17.9143C6.87032 17.5892 6.29853 17.2099 5.78267 16.8033C3.17879 14.7505 2 12 2 12C2 12 4.99998 5 12 5C13.7429 5 15.2377 5.43394 16.5001 6.08573C17.1298 6.41083 17.7016 6.79014 18.2174 7.19683L16.7917 8.62253ZM3.83627 12.7926C3.83521 12.795 3.83518 12.795 3.83518 12.795L3.83627 12.7926Z" fill="white"/>
<path fill-rule="evenodd" clip-rule="evenodd" d="M21.7071 2.29289C22.0976 2.68342 22.0976 3.31658 21.7071 3.70711L3.70711 21.7071C3.31658 22.0976 2.68342 22.0976 2.29289 21.7071C1.90237 21.3166 1.90237 20.6834 2.29289 20.2929L20.2929 2.29289C20.6834 1.90237 21.3166 1.90237 21.7071 2.29289Z" fill="white"/>
<path fill-rule="evenodd" clip-rule="evenodd" d="M14.7076 10.7066C14.412 10.0889 13.9112 9.58804 13.2935 9.2924C12.9018 9.10496 12.4632 9 12 9C10.3431 9 9 10.3431 9 12C9 12.4632 9.10497 12.9018 9.29241 13.2935C9.58805 13.9112 10.0889 14.412 10.7066 14.7076L14.7076 10.7066ZM13 12C13 12.5523 12.5523 13 12 13C11.4477 13 11 12.5523 11 12C11 11.728 11.1086 11.4813 11.2849 11.301C11.2902 11.2956 11.2956 11.2902 11.301 11.2849C11.4813 11.1086 11.728 11 12 11C12.5523 11 13 11.4477 13 12Z" fill="white"/>
</svg>
