<svg width="20" height="20" viewBox="0 0 20 20" fill="none" xmlns="http://www.w3.org/2000/svg">
<path d="M11.4249 5.18884C10.9592 5.12817 10.4834 5.09692 10 5.09692C6.43628 5.09692 3.28415 6.7998 1.55539 9.39319L1.27811 9.8092L1.55539 10.2252C2.69617 11.9365 4.45673 13.2601 6.54639 13.9624L7.28973 12.6256C5.56277 12.1038 4.10059 11.0989 3.10266 9.8092C4.5903 7.88672 7.10968 6.59692 10 6.59692C10.2123 6.59692 10.4225 6.60388 10.6306 6.61755L11.4249 5.18884Z" fill="black"/>
<path d="M10.1787 7.43018C10.1197 7.42578 10.0601 7.42358 10 7.42358C8.6825 7.42358 7.61447 8.49158 7.61447 9.80908C7.61447 10.3353 7.78485 10.8218 8.07343 11.2162L10.1787 7.43018Z" fill="black"/>
<path fill-rule="evenodd" clip-rule="evenodd" d="M5.97858 17.0413L6.85254 17.5272L8.57504 14.4296C9.04077 14.4901 9.5166 14.5215 10 14.5215C13.5637 14.5215 16.7159 12.8186 18.4446 10.2252L18.7219 9.8092L18.4446 9.39319C17.3038 7.68188 15.5432 6.35828 13.4536 5.65588L14.9534 2.95874L14.0794 2.47278L5.97858 17.0413ZM12.7102 6.9928L11.9266 8.4021C12.2152 8.79651 12.3856 9.28296 12.3856 9.80908C12.3856 11.1267 11.3175 12.1947 10 12.1947C9.93991 12.1947 9.88034 12.1925 9.82138 12.1881L9.36945 13.0009C9.57745 13.0145 9.78772 13.0215 10 13.0215C12.8903 13.0215 15.4097 11.7317 16.8973 9.8092C15.8994 8.51953 14.4372 7.51465 12.7102 6.9928Z" fill="black"/>
</svg>
