<svg xmlns="http://www.w3.org/2000/svg" width="20" height="20" viewBox="0 0 20 20" fill="none">
<path d="M11.5059 14.123V10.5488C11.5059 10.4082 11.4629 10.2969 11.377 10.2148C11.2949 10.1289 11.1836 10.0859 11.043 10.0859H8.81055C8.66992 10.0859 8.55664 10.1289 8.4707 10.2148C8.38477 10.2969 8.3418 10.4082 8.3418 10.5488V14.123H11.5059ZM4.50977 14.2871V10.1387L9.54883 5.9082C9.80273 5.69727 10.0547 5.69727 10.3047 5.9082L15.3379 10.1387V14.2871C15.3379 14.7363 15.1992 15.0898 14.9219 15.3477C14.6484 15.6094 14.2773 15.7402 13.8086 15.7402H6.04492C5.57227 15.7402 5.19727 15.6094 4.91992 15.3477C4.64648 15.0898 4.50977 14.7363 4.50977 14.2871ZM2.49414 8.95508C2.49414 8.72461 2.5957 8.52344 2.79883 8.35156L8.9043 3.22461C9.2168 2.96289 9.55859 2.83203 9.92969 2.83203C10.3047 2.83203 10.6465 2.96289 10.9551 3.22461L17.0547 8.3457C17.2539 8.51367 17.3535 8.7207 17.3535 8.9668C17.3535 9.18555 17.2812 9.35938 17.1367 9.48828C16.9961 9.61719 16.8145 9.68164 16.5918 9.68164C16.4824 9.68164 16.377 9.6582 16.2754 9.61133C16.1738 9.56055 16.0781 9.49805 15.9883 9.42383L10.2578 4.61328C10.1523 4.52344 10.043 4.47852 9.92969 4.47852C9.82031 4.47852 9.71289 4.52344 9.60742 4.61328L3.86523 9.42383C3.77539 9.49805 3.67969 9.56055 3.57812 9.61133C3.47656 9.6582 3.37109 9.68164 3.26172 9.68164C3.02734 9.68164 2.83984 9.61328 2.69922 9.47656C2.5625 9.33594 2.49414 9.16211 2.49414 8.95508ZM13.4102 5.77344V4.39062C13.4102 4.25391 13.4512 4.14453 13.5332 4.0625C13.6191 3.98047 13.7305 3.93945 13.8672 3.93945H14.9453C15.082 3.93945 15.1914 3.98047 15.2734 4.0625C15.3555 4.14453 15.3965 4.25391 15.3965 4.39062V7.43164L13.4102 5.77344Z" fill="black" />
</svg>
