<svg width="24" height="24" viewBox="0 0 24 24" fill="none" xmlns="http://www.w3.org/2000/svg">
<path fill-rule="evenodd" clip-rule="evenodd" d="M4.04974 8.59748C3.38353 9.16745 3 10.0003 3 10.8771V19C3 20.6569 4.34314 22 6 22H19C20.6569 22 22 20.6569 22 19V10.882C22 10.0057 21.6168 9.17319 20.9512 8.60323L14.4509 3.03749C13.3282 2.07618 11.6726 2.07584 10.5495 3.03671L4.04974 8.59748ZM13 14C13.5523 14 14 14.4477 14 15V20H19C19.5523 20 20 19.5523 20 19V10.882C20 10.5899 19.8723 10.3124 19.6504 10.1224L13.1501 4.55669C12.7759 4.23625 12.224 4.23614 11.8496 4.55643L5.34991 10.1172C5.12784 10.3072 5 10.5848 5 10.8771V19C5 19.5523 5.44771 20 6 20H11V15C11 14.4477 11.4477 14 12 14H13Z" fill="white"/>
</svg>
