<svg width="24" height="24" viewBox="0 0 24 24" fill="none" xmlns="http://www.w3.org/2000/svg">
<path fill-rule="evenodd" clip-rule="evenodd" d="M3.5 3.5V20.5H20.5V3.5H3.5ZM3 2C2.44772 2 2 2.44772 2 3V21C2 21.5523 2.44772 22 3 22H21C21.5523 22 22 21.5523 22 21V3C22 2.44772 21.5523 2 21 2H3Z" fill="white"/>
<path fill-rule="evenodd" clip-rule="evenodd" d="M21 3H3V21H21V3ZM7.75 3.75C8.02614 3.75 8.25 3.97386 8.25 4.25V7.75C8.25 8.02614 8.02614 8.25 7.75 8.25H4.25C3.97386 8.25 3.75 8.02614 3.75 7.75V4.25C3.75 3.97386 3.97386 3.75 4.25 3.75H7.75ZM20.25 4.25C20.25 3.97386 20.0261 3.75 19.75 3.75H16.25C15.9739 3.75 15.75 3.97386 15.75 4.25V7.75C15.75 8.02614 15.9739 8.25 16.25 8.25H19.75C20.0261 8.25 20.25 8.02614 20.25 7.75V4.25ZM20.25 10.25C20.25 9.97386 20.0261 9.75 19.75 9.75H16.25C15.9739 9.75 15.75 9.97386 15.75 10.25L15.75 13.75C15.75 14.0261 15.9739 14.25 16.25 14.25H19.75C20.0261 14.25 20.25 14.0261 20.25 13.75V10.25ZM19.75 15.75C20.0261 15.75 20.25 15.9739 20.25 16.25V19.75C20.25 20.0261 20.0261 20.25 19.75 20.25H16.25C15.9739 20.25 15.75 20.0261 15.75 19.75V16.25C15.75 15.9739 15.9739 15.75 16.25 15.75H19.75ZM13.75 15.75C14.0261 15.75 14.25 15.9739 14.25 16.25V19.75C14.25 20.0261 14.0261 20.25 13.75 20.25H10.25C9.97386 20.25 9.75 20.0261 9.75 19.75V16.25C9.75 15.9739 9.97386 15.75 10.25 15.75H13.75ZM14.25 10.25C14.25 9.97386 14.0261 9.75 13.75 9.75H10.25C9.97386 9.75 9.75 9.97386 9.75 10.25L9.75 13.75C9.75 14.0261 9.97386 14.25 10.25 14.25H13.75C14.0261 14.25 14.25 14.0261 14.25 13.75L14.25 10.25ZM13.75 3.75C14.0261 3.75 14.25 3.97386 14.25 4.25V7.75C14.25 8.02614 14.0261 8.25 13.75 8.25H10.25C9.97386 8.25 9.75 8.02614 9.75 7.75V4.25C9.75 3.97386 9.97386 3.75 10.25 3.75H13.75ZM8.25 10.25C8.25 9.97386 8.02614 9.75 7.75 9.75H4.25C3.97386 9.75 3.75 9.97386 3.75 10.25V13.75C3.75 14.0261 3.97386 14.25 4.25 14.25H7.75C8.02614 14.25 8.25 14.0261 8.25 13.75L8.25 10.25ZM7.75 15.75C8.02614 15.75 8.25 15.9739 8.25 16.25V19.75C8.25 20.0261 8.02614 20.25 7.75 20.25H4.25C3.97386 20.25 3.75 20.0261 3.75 19.75V16.25C3.75 15.9739 3.97386 15.75 4.25 15.75H7.75Z" fill="white"/>
<path d="M11 5.1C11 5.04477 11.0448 5 11.1 5H12.9C12.9552 5 13 5.04477 13 5.1V6.9C13 6.95523 12.9552 7 12.9 7H11.1C11.0448 7 11 6.95523 11 6.9V5.1Z" fill="white"/>
<path d="M5 17.1C5 17.0448 5.04477 17 5.1 17H6.9C6.95523 17 7 17.0448 7 17.1V18.9C7 18.9552 6.95523 19 6.9 19H5.1C5.04477 19 5 18.9552 5 18.9V17.1Z" fill="white"/>
<path d="M17 11.1C17 11.0448 17.0448 11 17.1 11H18.9C18.9552 11 19 11.0448 19 11.1V12.9C19 12.9552 18.9552 13 18.9 13H17.1C17.0448 13 17 12.9552 17 12.9V11.1Z" fill="white"/>
</svg>
