<svg width="24" height="24" viewBox="0 0 24 24" fill="none" xmlns="http://www.w3.org/2000/svg">
<path fill-rule="evenodd" clip-rule="evenodd" d="M20.929 1.628L22.929 6.628C22.9759 6.74643 23 6.87264 23 7V22C23 22.2652 22.8946 22.5196 22.7071 22.7071C22.5196 22.8946 22.2652 23 22 23H2C1.73478 23 1.48043 22.8946 1.29289 22.7071C1.10536 22.5196 1 22.2652 1 22V7C1.00005 6.87264 1.02414 6.74643 1.071 6.628L3.071 1.628C3.14535 1.44247 3.2736 1.28347 3.43919 1.17153C3.60479 1.05959 3.80012 0.999847 4 1H20C20.1999 0.999847 20.3952 1.05959 20.5608 1.17153C20.7264 1.28347 20.8546 1.44247 20.929 1.628ZM20.523 6L19.323 3H4.677L3.477 6H20.523ZM12 10C13.3062 10 14.4175 10.8348 14.8293 12H21V8H3V12H9.17071C9.58254 10.8348 10.6938 10 12 10ZM12 16C10.6938 16 9.58254 15.1652 9.17071 14H3V21H21V14H14.8293C14.4175 15.1652 13.3062 16 12 16ZM13 13C13 13.5523 12.5523 14 12 14C11.4477 14 11 13.5523 11 13C11 12.4477 11.4477 12 12 12C12.5523 12 13 12.4477 13 13Z" fill="white"/>
</svg>
