<svg width="24" height="24" viewBox="0 0 24 24" fill="none" xmlns="http://www.w3.org/2000/svg">
<path d="M22.929 6.628L20.929 1.628C20.8546 1.44247 20.7264 1.28347 20.5608 1.17153C20.3952 1.05959 20.1999 0.999847 20 1H4C3.80012 0.999847 3.60479 1.05959 3.43919 1.17153C3.2736 1.28347 3.14535 1.44247 3.071 1.628L1.071 6.628C1.02414 6.74643 1.00005 6.87264 1 7V22C1 22.2652 1.10536 22.5196 1.29289 22.7071C1.48043 22.8946 1.73478 23 2 23H22C22.2652 23 22.5196 22.8946 22.7071 22.7071C22.8946 22.5196 23 22.2652 23 22V7C23 6.87264 22.9759 6.74643 22.929 6.628ZM4.677 3H19.323L20.523 6H3.477L4.677 3ZM3 21V8H21V21H3Z" fill="white"/>
<path fill-rule="evenodd" clip-rule="evenodd" d="M12 14C12.5523 14 13 13.5523 13 13C13 12.4477 12.5523 12 12 12C11.4477 12 11 12.4477 11 13C11 13.5523 11.4477 14 12 14ZM12 16C13.6569 16 15 14.6569 15 13C15 11.3431 13.6569 10 12 10C10.3431 10 9 11.3431 9 13C9 14.6569 10.3431 16 12 16Z" fill="white"/>
<path d="M3 12H10V14H3V12Z" fill="white"/>
<path d="M14 12H21V14H14V12Z" fill="white"/>
</svg>
