<svg viewBox="0 0 20 20" fill="none" xmlns="http://www.w3.org/2000/svg">
<path d="M9.21387 1.58789C9.8291 1.58789 10.4056 1.7041 10.9434 1.93652C11.4857 2.16439 11.9619 2.4834 12.3721 2.89355C12.7822 3.29915 13.1012 3.77311 13.3291 4.31543C13.5615 4.85319 13.6777 5.42969 13.6777 6.04492C13.6777 6.97005 13.402 7.80859 12.8506 8.56055C12.3037 9.30794 11.5176 9.89811 10.4922 10.3311L12.1875 12.0332C12.2832 12.1335 12.3311 12.2451 12.3311 12.3682C12.3356 12.4912 12.29 12.6006 12.1943 12.6963L10.4512 14.4326L11.7021 15.6699C11.7933 15.7656 11.8389 15.875 11.8389 15.998C11.8434 16.1257 11.7979 16.2373 11.7021 16.333L9.54199 18.4932C9.45085 18.5843 9.34375 18.6253 9.2207 18.6162C9.09766 18.6071 8.99967 18.5661 8.92676 18.4932L7.74414 17.3379C7.67122 17.265 7.61654 17.1852 7.58008 17.0986C7.54818 17.0166 7.53223 16.9255 7.53223 16.8252V10.1943C6.96257 9.96191 6.4681 9.63835 6.04883 9.22363C5.63411 8.80892 5.31283 8.32812 5.08496 7.78125C4.8571 7.23438 4.74316 6.6556 4.74316 6.04492C4.74316 5.42513 4.8571 4.84635 5.08496 4.30859C5.31738 3.76628 5.63639 3.29232 6.04199 2.88672C6.45215 2.47656 6.92611 2.15755 7.46387 1.92969C8.00618 1.70182 8.58952 1.58789 9.21387 1.58789ZM9.21387 5.7373C9.54199 5.7373 9.82454 5.62109 10.0615 5.38867C10.2985 5.15169 10.417 4.86686 10.417 4.53418C10.417 4.20605 10.2985 3.9235 10.0615 3.68652C9.82454 3.44954 9.54199 3.33105 9.21387 3.33105C8.87663 3.33105 8.5918 3.44954 8.35938 3.68652C8.12695 3.91895 8.01074 4.2015 8.01074 4.53418C8.01074 4.86686 8.12695 5.15169 8.35938 5.38867C8.59635 5.62109 8.88118 5.7373 9.21387 5.7373Z" fill="currentColor"/>
</svg>
