<svg width="24" height="24" viewBox="0 0 24 24" fill="none" xmlns="http://www.w3.org/2000/svg">
<path d="M7.99902 6C4.68502 6 1.99902 8.68601 1.99902 12.0001C1.99902 15.3141 4.68502 18.0001 7.99902 18.0001C10.122 18.0001 12.027 16.903 13.187 15.001L16.374 15.0001L17.093 16.4381C17.262 16.7761 17.62 17.0001 17.999 17.0001H20.999C21.551 17.0001 21.999 16.5521 21.999 16.0001V10.0001C21.999 9.44801 21.551 9.00001 20.999 9.00001L13.184 8.99201C12.101 7.15701 10.122 6 7.99902 6ZM7.99902 8.00001C9.59202 8.00001 11.017 8.95601 11.655 10.406C11.815 10.769 12.165 11.0001 12.561 11.0001H19.999V15.0001H18.624L17.905 13.562C17.736 13.2241 17.378 13.0001 16.999 13.0001H12.561C12.165 13.0001 11.815 13.2311 11.655 13.5941C11.017 15.0441 9.59202 16.0001 7.99902 16.0001C5.79002 16.0001 3.99902 14.2091 3.99902 12.0001C3.99902 9.79101 5.79002 8.00001 7.99902 8.00001ZM7.99902 11.0001C7.74302 11.0001 7.47603 11.086 7.28003 11.281C6.89003 11.672 6.89003 12.3281 7.28003 12.7191C7.67103 13.1091 8.32702 13.1091 8.71802 12.7191C9.10802 12.3281 9.10802 11.672 8.71802 11.281C8.52202 11.086 8.25502 11.0001 7.99902 11.0001Z" fill="white"/>
</svg>
