<svg width="24" height="24" viewBox="0 0 24 24" fill="none" xmlns="http://www.w3.org/2000/svg">
<path d="M7 9.5C6.44772 9.5 6 9.94772 6 10.5C6 11.0523 6.44772 11.5 7 11.5H17C17.5523 11.5 18 11.0523 18 10.5C18 9.94772 17.5523 9.5 17 9.5H7Z" fill="white"/>
<path d="M7 13C6.44772 13 6 13.4477 6 14C6 14.5523 6.44772 15 7 15H12C12.5523 15 13 14.5523 13 14C13 13.4477 12.5523 13 12 13H7Z" fill="white"/>
<path d="M15 13C14.4477 13 14 13.4477 14 14C14 14.5523 14.4477 15 15 15H17C17.5523 15 18 14.5523 18 14C18 13.4477 17.5523 13 17 13H15Z" fill="white"/>
<path d="M7 16.5C6.44772 16.5 6 16.9477 6 17.5C6 18.0523 6.44772 18.5 7 18.5H9C9.55228 18.5 10 18.0523 10 17.5C10 16.9477 9.55228 16.5 9 16.5H7Z" fill="white"/>
<path d="M12 16.5C11.4477 16.5 11 16.9477 11 17.5C11 18.0523 11.4477 18.5 12 18.5H17C17.5523 18.5 18 18.0523 18 17.5C18 16.9477 17.5523 16.5 17 16.5H12Z" fill="white"/>
<path fill-rule="evenodd" clip-rule="evenodd" d="M10 2C7.79086 2 6 3.79086 6 6H5C3.34315 6 2 7.34315 2 9V19C2 20.6569 3.34315 22 5 22H19C20.6569 22 22 20.6569 22 19V9C22 7.34315 20.6569 6 19 6H18C18 3.79086 16.2091 2 14 2H10ZM10 4C8.89543 4 8 4.89543 8 6H16C16 4.89543 15.1046 4 14 4H10ZM20 9C20 8.44771 19.5523 8 19 8H5C4.44772 8 4 8.44772 4 9V19C4 19.5523 4.44772 20 5 20H19C19.5523 20 20 19.5523 20 19V9Z" fill="white"/>
</svg>
