<svg width="24" height="24" viewBox="0 0 24 24" fill="none" xmlns="http://www.w3.org/2000/svg">
<path fill-rule="evenodd" clip-rule="evenodd" d="M5 7C5 5.89543 5.89543 5 7 5H8.11111C8.6634 5 9.11111 5.44772 9.11111 6C9.11111 6.55228 8.6634 7 8.11111 7H7V8.11111C7 8.66339 6.55228 9.11111 6 9.11111C5.44772 9.11111 5 8.66339 5 8.11111V7ZM9.88889 6C9.88889 5.44772 10.3366 5 10.8889 5H13.1111C13.6634 5 14.1111 5.44772 14.1111 6C14.1111 6.55228 13.6634 7 13.1111 7H10.8889C10.3366 7 9.88889 6.55228 9.88889 6ZM14.8889 6C14.8889 5.44772 15.3366 5 15.8889 5H17C18.1046 5 19 5.89543 19 7V8.11111C19 8.6634 18.5523 9.11111 18 9.11111C17.4477 9.11111 17 8.6634 17 8.11111V7H15.8889C15.3366 7 14.8889 6.55228 14.8889 6ZM6 9.88889C6.55228 9.88889 7 10.3366 7 10.8889V13.1111C7 13.6634 6.55228 14.1111 6 14.1111C5.44772 14.1111 5 13.6634 5 13.1111V10.8889C5 10.3366 5.44772 9.88889 6 9.88889ZM18 9.88889C18.5523 9.88889 19 10.3366 19 10.8889V13.1111C19 13.6634 18.5523 14.1111 18 14.1111C17.4477 14.1111 17 13.6634 17 13.1111V10.8889C17 10.3366 17.4477 9.88889 18 9.88889ZM6 14.8889C6.55228 14.8889 7 15.3366 7 15.8889V17H8.11111C8.66339 17 9.11111 17.4477 9.11111 18C9.11111 18.5523 8.66339 19 8.11111 19H7C5.89543 19 5 18.1046 5 17V15.8889C5 15.3366 5.44772 14.8889 6 14.8889ZM18 14.8889C18.5523 14.8889 19 15.3366 19 15.8889V17C19 18.1046 18.1046 19 17 19H15.8889C15.3366 19 14.8889 18.5523 14.8889 18C14.8889 17.4477 15.3366 17 15.8889 17H17V15.8889C17 15.3366 17.4477 14.8889 18 14.8889ZM9.88889 18C9.88889 17.4477 10.3366 17 10.8889 17H13.1111C13.6634 17 14.1111 17.4477 14.1111 18C14.1111 18.5523 13.6634 19 13.1111 19H10.8889C10.3366 19 9.88889 18.5523 9.88889 18Z" fill="white"/>
<path fill-rule="evenodd" clip-rule="evenodd" d="M10 10V14H14V10H10ZM9 8C8.44772 8 8 8.44772 8 9V15C8 15.5523 8.44772 16 9 16H15C15.5523 16 16 15.5523 16 15V9C16 8.44772 15.5523 8 15 8H9Z" fill="white"/>
<path fill-rule="evenodd" clip-rule="evenodd" d="M3.96219 3.96219C4.38163 3.84329 4.68889 3.45753 4.68889 3C4.68889 2.44772 4.24117 2 3.68889 2H3.2C2.53725 2 2 2.53726 2 3.2V3.68889C2 4.24118 2.44772 4.68889 3 4.68889C3.45753 4.68889 3.84329 4.38163 3.96219 3.96219ZM10.5111 3C10.5111 2.44772 10.9588 2 11.5111 2H12.4889C13.0412 2 13.4889 2.44772 13.4889 3C13.4889 3.55228 13.0412 4 12.4889 4H11.5111C10.9588 4 10.5111 3.55228 10.5111 3ZM19.3111 3C19.3111 2.44772 19.7588 2 20.3111 2H20.8C21.4627 2 22 2.53725 22 3.2V3.68889C22 4.24117 21.5523 4.68889 21 4.68889C20.5425 4.68889 20.1567 4.38163 20.0378 3.96219C19.6184 3.84329 19.3111 3.45753 19.3111 3ZM3 10.5111C3.55228 10.5111 4 10.9588 4 11.5111V12.4889C4 13.0412 3.55228 13.4889 3 13.4889C2.44772 13.4889 2 13.0412 2 12.4889V11.5111C2 10.9588 2.44772 10.5111 3 10.5111ZM21 10.5111C21.5523 10.5111 22 10.9588 22 11.5111V12.4889C22 13.0412 21.5523 13.4889 21 13.4889C20.4477 13.4889 20 13.0412 20 12.4889V11.5111C20 10.9588 20.4477 10.5111 21 10.5111ZM21 19.3111C21.5523 19.3111 22 19.7588 22 20.3111V20.8C22 21.4627 21.4627 22 20.8 22H20.3111C19.7588 22 19.3111 21.5523 19.3111 21C19.3111 20.5425 19.6184 20.1567 20.0378 20.0378C20.1567 19.6184 20.5425 19.3111 21 19.3111ZM3.96219 20.0378C3.84329 19.6184 3.45753 19.3111 3 19.3111C2.44772 19.3111 2 19.7588 2 20.3111V20.8C2 21.4627 2.53726 22 3.2 22H3.68889C4.24118 22 4.68889 21.5523 4.68889 21C4.68889 20.5425 4.38163 20.1567 3.96219 20.0378ZM10.5111 21C10.5111 20.4477 10.9588 20 11.5111 20H12.4889C13.0412 20 13.4889 20.4477 13.4889 21C13.4889 21.5523 13.0412 22 12.4889 22H11.5111C10.9588 22 10.5111 21.5523 10.5111 21Z" fill="white"/>
</svg>
