<svg width="24" height="24" viewBox="0 0 24 24" fill="none" xmlns="http://www.w3.org/2000/svg">
<path fill-rule="evenodd" clip-rule="evenodd" d="M5.5 7C6.32843 7 7 6.32843 7 5.5C7 4.67157 6.32843 4 5.5 4C4.67157 4 4 4.67157 4 5.5C4 6.32843 4.67157 7 5.5 7ZM5.5 9C7.433 9 9 7.433 9 5.5C9 3.567 7.433 2 5.5 2C3.567 2 2 3.567 2 5.5C2 7.433 3.567 9 5.5 9Z" fill="white"/>
<path fill-rule="evenodd" clip-rule="evenodd" d="M18 14C18.5523 14 19 14.4477 19 15V21C19 21.5523 18.5523 22 18 22C17.4477 22 17 21.5523 17 21V15C17 14.4477 17.4477 14 18 14Z" fill="white"/>
<path fill-rule="evenodd" clip-rule="evenodd" d="M22 18C22 18.5523 21.5523 19 21 19H15C14.4477 19 14 18.5523 14 18C14 17.4477 14.4477 17 15 17H21C21.5523 17 22 17.4477 22 18Z" fill="white"/>
<path fill-rule="evenodd" clip-rule="evenodd" d="M17 8.62165C17 7.6112 15.6723 7.23831 15.1462 8.10105L10.0614 16.4402C8.48322 19.0284 4.5 17.9097 4.5 14.8783V8.41179C4.5 7.85951 4.94772 7.41179 5.5 7.41179C6.05228 7.41179 6.5 7.85951 6.5 8.41179V14.8783C6.5 15.8888 7.82774 16.2617 8.3538 15.399L13.4386 7.05984C15.0168 4.47164 19 5.59023 19 8.62165V11.3823C19 11.9346 18.5523 12.3823 18 12.3823C17.4477 12.3823 17 11.9346 17 11.3823V8.62165Z" fill="white"/>
</svg>
