<svg width="24" height="24" viewBox="0 0 24 24" fill="none" xmlns="http://www.w3.org/2000/svg">
<path fill-rule="evenodd" clip-rule="evenodd" d="M4 13C4 11.3431 5.34315 10 7 10H17C18.6569 10 20 11.3431 20 13V19C20 20.6569 18.6569 22 17 22H7C5.34315 22 4 20.6569 4 19V13ZM7 12C6.44772 12 6 12.4477 6 13V19C6 19.5523 6.44772 20 7 20H17C17.5523 20 18 19.5523 18 19V13C18 12.4477 17.5523 12 17 12H7Z" fill="white"/>
<path fill-rule="evenodd" clip-rule="evenodd" d="M7 8C7 5.23858 9.23858 3 12 3C14.7614 3 17 5.23858 17 8V10.9375C17 11.5243 16.5243 12 15.9375 12H8.0625C7.4757 12 7 11.5243 7 10.9375V8ZM12 5C10.3431 5 9 6.34315 9 8V10H15V8C15 6.34315 13.6569 5 12 5Z" fill="white"/>
<path fill-rule="evenodd" clip-rule="evenodd" d="M12.8009 16.2685C13.221 16.0027 13.5 15.5339 13.5 15C13.5 14.1716 12.8284 13.5 12 13.5C11.1716 13.5 10.5 14.1716 10.5 15C10.5 15.5339 10.779 16.0027 11.1991 16.2685C11.1915 16.3133 11.1875 16.3593 11.1875 16.4062V17.6875C11.1875 18.1362 11.5513 18.5 12 18.5C12.4487 18.5 12.8125 18.1362 12.8125 17.6875V16.4062C12.8125 16.3593 12.8085 16.3133 12.8009 16.2685Z" fill="white"/>
</svg>
