<svg xmlns="http://www.w3.org/2000/svg" width="13" height="12" viewBox="0 0 13 12" fill="none">
  <path
    fill-rule="evenodd"
    clip-rule="evenodd"
    d="M8.82807 5.24497V3.52873C8.82807 2.24258 7.78549 1.19995 6.49934 1.19995C5.21319 1.19995 4.17057 2.24258 4.17057 3.52873L4.17057 5.24497H3.9832C3.32046 5.24497 2.7832 5.78223 2.7832 6.44497V9.49529C2.7832 10.158 3.32046 10.6953 3.9832 10.6953H9.01546C9.6782 10.6953 10.2155 10.158 10.2155 9.49529V6.44497C10.2155 5.78223 9.6782 5.24497 9.01546 5.24497H8.82807ZM6.49934 2.06705C5.69209 2.06705 5.03769 2.72144 5.03766 3.52867L5.03767 5.24497H7.96097V3.52867C7.96094 2.72144 7.30658 2.06705 6.49934 2.06705Z"
    fill="#6D6D6D"
  />
</svg>