<svg width="24" height="24" viewBox="0 0 24 24" fill="none" xmlns="http://www.w3.org/2000/svg">
<path fill-rule="evenodd" clip-rule="evenodd" d="M12.6602 9.91802L4.84272 17.7355L6.26408 19.1568L14.0815 11.3394L12.6602 9.91802ZM13.3708 7.78599C12.9783 7.3935 12.342 7.3935 11.9495 7.78599L2.7107 17.0248C2.3182 17.4173 2.3182 18.0536 2.7107 18.4461L5.5534 21.2888C5.9459 21.6813 6.58226 21.6813 6.97475 21.2888L16.2135 12.05C16.606 11.6576 16.606 11.0212 16.2135 10.6287L13.3708 7.78599Z" fill="white"/>
<path d="M11.239 11.3392L12.6604 12.7606L11.239 14.1819L9.81766 12.7606L11.239 11.3392Z" fill="white"/>
<path fill-rule="evenodd" clip-rule="evenodd" d="M19.0569 4.94322C19.4494 5.33571 19.4494 5.97208 19.0569 6.36457L17.6355 7.78592C17.243 8.17842 16.6067 8.17842 16.2142 7.78592C15.8217 7.39343 15.8217 6.75707 16.2142 6.36457L17.6355 4.94322C18.028 4.55072 18.6644 4.55072 19.0569 4.94322Z" fill="white"/>
<path fill-rule="evenodd" clip-rule="evenodd" d="M16.2247 16.3246C16.6172 15.9321 17.2536 15.9321 17.6461 16.3246L19.0674 17.746C19.4599 18.1384 19.4599 18.7748 19.0674 19.1673C18.6749 19.5598 18.0386 19.5598 17.6461 19.1673L16.2247 17.746C15.8322 17.3535 15.8322 16.7171 16.2247 16.3246Z" fill="white"/>
<path fill-rule="evenodd" clip-rule="evenodd" d="M7.67564 7.77541C8.06814 7.38291 8.06814 6.74655 7.67564 6.35406L6.25429 4.93271C5.8618 4.54021 5.22543 4.54021 4.83294 4.93271C4.44044 5.3252 4.44044 5.96156 4.83294 6.35406L6.25429 7.77541C6.64679 8.1679 7.28315 8.1679 7.67564 7.77541Z" fill="white"/>
<path fill-rule="evenodd" clip-rule="evenodd" d="M22 12C22 12.5523 21.5523 13 21 13L19 13C18.4477 13 18 12.5523 18 12C18 11.4477 18.4477 11 19 11L21 11C21.5523 11 22 11.4477 22 12Z" fill="white"/>
<path fill-rule="evenodd" clip-rule="evenodd" d="M12 2C11.4477 2 11 2.44772 11 3L11 5C11 5.55228 11.4477 6 12 6C12.5523 6 13 5.55228 13 5L13 3C13 2.44772 12.5523 2 12 2Z" fill="white"/>
</svg>
