<svg width="24" height="24" viewBox="0 0 24 24" fill="none" xmlns="http://www.w3.org/2000/svg">
<path fill-rule="evenodd" clip-rule="evenodd" d="M2.4855 3.14251C2.78671 2.96178 3.16065 2.95235 3.47059 3.11765L9 6.06667L14.5294 3.11765C14.8235 2.96078 15.1765 2.96078 15.4706 3.11765L21.4706 6.31765C21.7965 6.49144 22 6.83069 22 7.2V20C22 20.3632 21.8031 20.6978 21.4856 20.8742C21.1682 21.0505 20.78 21.0409 20.4717 20.8491L15 17.4444L9.5283 20.8491C9.20485 21.0503 8.79515 21.0503 8.4717 20.8491L2.4717 17.1157C2.17835 16.9332 2 16.6122 2 16.2667V4C2 3.64874 2.1843 3.32323 2.4855 3.14251ZM16 15.7111L20 18.2V7.8L16 5.66667V15.7111ZM14 5.66667V15.7111L10 18.2V7.8L14 5.66667ZM8 7.8L4 5.66667V15.7111L8 18.2V7.8Z" fill="white"/>
</svg>
