<svg width="24" height="24" viewBox="0 0 24 24" fill="none" xmlns="http://www.w3.org/2000/svg">
<path d="M2.15997 19.872L11.349 4.11001C11.415 3.9967 11.5096 3.90269 11.6233 3.83735C11.737 3.77201 11.8658 3.73763 11.997 3.73763C12.1281 3.73763 12.257 3.77201 12.3707 3.83735C12.4844 3.90269 12.5789 3.9967 12.645 4.11001L21.84 19.872C21.9064 19.9858 21.9416 20.115 21.9422 20.2467C21.9428 20.3784 21.9087 20.508 21.8433 20.6223C21.7779 20.7366 21.6836 20.8317 21.5697 20.8981C21.4559 20.9644 21.3267 20.9995 21.195 21H2.80497C2.67301 21 2.54337 20.9653 2.42914 20.8992C2.31492 20.8331 2.22015 20.738 2.15442 20.6236C2.08868 20.5092 2.0543 20.3794 2.05475 20.2475C2.0552 20.1155 2.09046 19.986 2.15697 19.872H2.15997Z" fill="black"/>
</svg>
