<svg width="24" height="24" viewBox="0 0 24 24" fill="none" xmlns="http://www.w3.org/2000/svg">
<path fill-rule="evenodd" clip-rule="evenodd" d="M20.8175 3.50202C20.5879 2.6245 19.7957 2 18.8768 2H5.1232C4.20428 2 3.41213 2.6245 3.18245 3.50202C2.99737 4.20914 2.82659 4.82333 2.65475 5.43907L2.6263 5.54101C2.46404 6.12235 2.29988 6.71046 2.12388 7.37521C1.8919 8.25144 2.03211 9.412 2.95798 10.1198C3.64728 10.6467 4.43021 10.951 5.25657 10.9678C6.08306 10.9846 6.8769 10.7123 7.58513 10.2137C7.61435 10.1932 7.64286 10.1721 7.67065 10.1506C8.23499 10.6764 8.99256 11 9.83025 11C10.6697 11 11.4329 10.6737 12 10.141C12.5671 10.6737 13.3303 11 14.1697 11C15.0074 11 15.765 10.6764 16.3293 10.1506C16.3571 10.1721 16.3856 10.1932 16.4149 10.2137C17.1231 10.7123 17.9169 10.9846 18.7434 10.9678C19.5698 10.951 20.3527 10.6467 21.042 10.1198C21.9679 9.412 22.1081 8.25144 21.8761 7.37521C21.7002 6.7108 21.5361 6.12296 21.3739 5.54191L21.3452 5.43907C21.1734 4.82333 21.0026 4.20914 20.8175 3.50202ZM5.1192 4.00385C5.1192 4.00385 5.1179 4.00605 5.11727 4.00844C4.92775 4.73252 4.75317 5.36026 4.58115 5.97666L4.55338 6.07614C4.39061 6.6593 4.22974 7.23566 4.05727 7.88708C4.01416 8.04992 4.01581 8.20266 4.04517 8.31825C4.0729 8.42742 4.12041 8.49097 4.17264 8.53089C4.57278 8.83679 4.95322 8.96121 5.29723 8.96821C5.64112 8.9752 6.02463 8.86641 6.43382 8.57834C6.50784 8.52624 6.61348 8.38273 6.63375 8.09863L6.66517 7.65807C6.66615 7.64021 6.66728 7.62233 6.66856 7.60442L6.92602 4H5.12323L5.12204 4.0008L5.1192 4.00385ZM9.83025 9C10.4763 9 11 8.47629 11 7.83026V4H8.9312L8.6616 7.77943C8.63236 8.44237 9.16229 9 9.83025 9ZM13 4L13 7.83026C13 8.47629 13.5237 9 14.1697 9C14.8377 9 15.3677 8.44236 15.3384 7.77939L15.0688 4H13ZM17.3348 7.65801C17.3338 7.64017 17.3327 7.62231 17.3314 7.60442L17.074 4H18.8768L18.878 4.0008L18.8808 4.00385C18.8808 4.00385 18.8821 4.00605 18.8827 4.00844C19.0722 4.73252 19.2468 5.36026 19.4188 5.97666L19.4466 6.07614C19.6094 6.6593 19.7703 7.23566 19.9427 7.88708C19.9858 8.04992 19.9842 8.20266 19.9548 8.31825C19.9271 8.42742 19.8796 8.49097 19.8274 8.53089C19.4272 8.83679 19.0468 8.96121 18.7028 8.96821C18.3589 8.9752 17.9754 8.86641 17.5662 8.57834C17.4921 8.52624 17.3865 8.38273 17.3662 8.09863L17.3348 7.65801Z" fill="white"/>
<path fill-rule="evenodd" clip-rule="evenodd" d="M21 11.3428C20.3877 11.687 19.7141 11.905 19 11.9566V16H4.99999V11.9566C4.28592 11.905 3.61233 11.687 2.99999 11.3428V20C2.99999 21.1046 3.89542 22 4.99999 22H19C20.1046 22 21 21.1046 21 20V11.3428ZM18 20C18.5523 20 19 19.5523 19 19V18H4.99999V19C4.99999 19.5523 5.44771 20 5.99999 20H18Z" fill="white"/>
</svg>
