<svg width="20" height="20" viewBox="0 0 20 20" fill="none" xmlns="http://www.w3.org/2000/svg">
<path fill-rule="evenodd" clip-rule="evenodd" d="M17 7.86173L15.22 3.41162H4.78005L3 7.86173V7.94103C3 8.28143 3.09873 8.78287 3.40702 9.21104C3.51955 9.36733 3.65774 9.51037 3.82353 9.63044V16.5881H16.1765V9.63044C16.3423 9.51037 16.4805 9.36733 16.593 9.21104C16.9013 8.78287 17 8.28143 17 7.94103V7.86173ZM15.3529 9.96681C15.2242 9.98836 15.0871 9.99986 14.9412 9.99986C14.152 9.99986 13.618 9.66351 13.2941 9.21761C12.9702 9.66351 12.4362 9.99986 11.6471 9.99986C10.8579 9.99986 10.3239 9.66351 10 9.21761C9.67612 9.66351 9.1421 9.99986 8.35294 9.99986C7.56378 9.99986 7.02976 9.66351 6.70588 9.21761C6.382 9.66351 5.84798 9.99986 5.05882 9.99986C4.91295 9.99986 4.77578 9.98836 4.64706 9.96681V13.3984H15.3529V9.96681ZM13.7059 7.94103C13.7059 8.14965 13.7719 8.47174 13.9577 8.72985C14.1284 8.96696 14.4166 9.17633 14.9412 9.17633C15.4658 9.17633 15.7539 8.96696 15.9247 8.72985C16.09 8.50026 16.1604 8.22005 16.174 8.01411L16.1448 7.94103H13.7059ZM14.6624 4.23515L15.8153 7.1175H13.6245L12.9839 4.23515H14.6624ZM12.7809 7.1175L12.1403 4.23515H10.4118V7.1175H12.7809ZM7.21924 7.1175L7.85977 4.23515H9.58824V7.1175H7.21924ZM7.01615 4.23515L6.37562 7.1175H4.18466L5.3376 4.23515H7.01615ZM3.82602 8.01411L3.85525 7.94103H6.29412C6.29412 8.14965 6.22815 8.47174 6.04231 8.72985C5.87159 8.96696 5.58344 9.17633 5.05882 9.17633C4.5342 9.17633 4.24606 8.96696 4.07534 8.72985C3.91004 8.50026 3.83957 8.22005 3.82602 8.01411ZM9.33643 8.72985C9.52226 8.47174 9.58824 8.14965 9.58824 7.94103H7.11765C7.11765 8.14965 7.18362 8.47174 7.36946 8.72985C7.54017 8.96696 7.82832 9.17633 8.35294 9.17633C8.87756 9.17633 9.16571 8.96696 9.33643 8.72985ZM12.6305 8.72985C12.8164 8.47174 12.8824 8.14965 12.8824 7.94103H10.4118C10.4118 8.14965 10.4777 8.47174 10.6636 8.72985C10.8343 8.96696 11.1224 9.17633 11.6471 9.17633C12.1717 9.17633 12.4598 8.96696 12.6305 8.72985Z" fill="white"/>
</svg>
