<svg width="20" height="20" viewBox="0 0 20 20" fill="none" xmlns="http://www.w3.org/2000/svg">
<path fill-rule="evenodd" clip-rule="evenodd" d="M17 7.86186L15.22 3.41174H4.78005L3 7.86186V7.94115C3 8.28156 3.09873 8.78299 3.40702 9.21116C3.51955 9.36746 3.65774 9.51049 3.82353 9.63056V16.5882H16.1765V9.63056C16.3423 9.51049 16.4805 9.36746 16.593 9.21116C16.9013 8.78299 17 8.28156 17 7.94115V7.86186ZM15.3529 9.96693C15.2242 9.98849 15.0871 9.99998 14.9412 9.99998C14.152 9.99998 13.618 9.66363 13.2941 9.21773C12.9702 9.66363 12.4362 9.99998 11.6471 9.99998C10.8579 9.99998 10.3239 9.66363 10 9.21773C9.67612 9.66363 9.1421 9.99998 8.35294 9.99998C7.56378 9.99998 7.02976 9.66363 6.70588 9.21773C6.382 9.66363 5.84798 9.99998 5.05882 9.99998C4.91295 9.99998 4.77578 9.98849 4.64706 9.96693V13.3985H15.3529V9.96693ZM13.7059 7.94115C13.7059 8.14977 13.7719 8.47187 13.9577 8.72997C14.1284 8.96708 14.4166 9.17645 14.9412 9.17645C15.4658 9.17645 15.7539 8.96708 15.9247 8.72997C16.09 8.50039 16.1604 8.22017 16.174 8.01423L16.1448 7.94115H13.7059ZM14.6624 4.23527L15.8153 7.11763H13.6245L12.9839 4.23527H14.6624ZM12.7809 7.11763L12.1403 4.23527H10.4118V7.11763H12.7809ZM7.21924 7.11763L7.85977 4.23527H9.58824V7.11763H7.21924ZM7.01615 4.23527L6.37562 7.11763H4.18466L5.3376 4.23527H7.01615ZM3.82602 8.01423L3.85525 7.94115H6.29412C6.29412 8.14977 6.22815 8.47187 6.04231 8.72997C5.87159 8.96708 5.58344 9.17645 5.05882 9.17645C4.5342 9.17645 4.24606 8.96708 4.07534 8.72997C3.91004 8.50039 3.83957 8.22017 3.82602 8.01423ZM9.33643 8.72997C9.52226 8.47187 9.58824 8.14977 9.58824 7.94115H7.11765C7.11765 8.14977 7.18362 8.47187 7.36946 8.72997C7.54017 8.96708 7.82832 9.17645 8.35294 9.17645C8.87756 9.17645 9.16571 8.96708 9.33643 8.72997ZM12.6305 8.72997C12.8164 8.47187 12.8824 8.14977 12.8824 7.94115H10.4118C10.4118 8.14977 10.4777 8.47187 10.6636 8.72997C10.8343 8.96708 11.1224 9.17645 11.6471 9.17645C12.1717 9.17645 12.4598 8.96708 12.6305 8.72997Z" fill="black"/>
</svg>
