<svg width="24" height="24" viewBox="0 0 24 24" fill="none" xmlns="http://www.w3.org/2000/svg">
<path fill-rule="evenodd" clip-rule="evenodd" d="M19.5 18H4.49999V16H19.5V18Z" fill="white"/>
<path d="M19 11.9566C19.7141 11.905 20.3877 11.687 21 11.3428V20C21 21.1046 20.1046 22 19 22H4.99999C3.89542 22 2.99999 21.1046 2.99999 20V11.3428C3.61233 11.687 4.28592 11.905 4.99999 11.9566V19C4.99999 19.5523 5.44771 20 5.99999 20H18C18.5523 20 19 19.5523 19 19V11.9566Z" fill="white"/>
<path fill-rule="evenodd" clip-rule="evenodd" d="M5.1192 4.00385C5.11861 4.00475 5.1179 4.00605 5.11727 4.00844C4.92775 4.73252 4.75317 5.36026 4.58115 5.97666C4.57189 6.00985 4.56263 6.04301 4.55338 6.07614C4.39061 6.6593 4.22974 7.23566 4.05727 7.88708C4.01416 8.04992 4.01581 8.20266 4.04517 8.31825C4.0729 8.42742 4.12041 8.49097 4.17264 8.53089C4.57278 8.83679 4.95322 8.96121 5.29723 8.96821C5.64112 8.9752 6.02463 8.86641 6.43382 8.57834C6.50784 8.52624 6.61348 8.38273 6.63375 8.09863L6.92612 4H5.12323C5.12297 4.00014 5.12256 4.0004 5.12204 4.0008C5.12095 4.00165 5.11995 4.00272 5.1192 4.00385ZM3.18245 3.50202C3.41213 2.6245 4.20428 2 5.1232 2H9.07387L8.62868 8.24093C8.58046 8.91689 8.29814 9.71178 7.58513 10.2137C6.8769 10.7123 6.08306 10.9846 5.25657 10.9678C4.43021 10.951 3.64728 10.6467 2.95798 10.1198C2.03211 9.412 1.8919 8.25144 2.12388 7.37521C2.29988 6.71046 2.46404 6.12235 2.6263 5.54101C2.63579 5.50701 2.64528 5.47303 2.65475 5.43907C2.82659 4.82333 2.99737 4.20914 3.18245 3.50202Z" fill="white"/>
<path fill-rule="evenodd" clip-rule="evenodd" d="M7.06887 2H13V7.83026C13 9.58086 11.5809 11 9.83025 11C7.99071 11 6.5375 9.43928 6.66856 7.60442L7.06887 2ZM8.93111 4L8.66348 7.74691C8.61511 8.42404 9.1514 9 9.83025 9C10.4763 9 11 8.47629 11 7.83026V4H8.93111Z" fill="white"/>
<path fill-rule="evenodd" clip-rule="evenodd" d="M18.8808 4.00385C18.8814 4.00475 18.8821 4.00605 18.8827 4.00844C19.0722 4.73252 19.2468 5.36026 19.4188 5.97666C19.4281 6.00985 19.4374 6.04301 19.4466 6.07614C19.6094 6.6593 19.7703 7.23566 19.9427 7.88708C19.9858 8.04992 19.9842 8.20266 19.9548 8.31825C19.9271 8.42742 19.8796 8.49097 19.8274 8.53089C19.4272 8.83679 19.0468 8.96121 18.7028 8.96821C18.3589 8.9752 17.9754 8.86641 17.5662 8.57834C17.4921 8.52624 17.3865 8.38273 17.3662 8.09863L17.0739 4H18.8768C18.877 4.00014 18.8774 4.0004 18.878 4.0008C18.879 4.00165 18.88 4.00272 18.8808 4.00385ZM20.8175 3.50202C20.5879 2.6245 19.7957 2 18.8768 2H14.9261L15.3713 8.24093C15.4195 8.91689 15.7018 9.71178 16.4149 10.2137C17.1231 10.7123 17.9169 10.9846 18.7434 10.9678C19.5698 10.951 20.3527 10.6467 21.042 10.1198C21.9679 9.412 22.1081 8.25144 21.8761 7.37521C21.7001 6.71046 21.536 6.12235 21.3737 5.54101C21.3642 5.50701 21.3547 5.47303 21.3452 5.43907C21.1734 4.82333 21.0026 4.20914 20.8175 3.50202Z" fill="white"/>
<path fill-rule="evenodd" clip-rule="evenodd" d="M16.9311 2H11L11 7.83026C11 9.58086 12.4191 11 14.1697 11C16.0093 11 17.4625 9.43928 17.3314 7.60442L16.9311 2ZM15.0689 4L15.3365 7.74691C15.3849 8.42404 14.8486 9 14.1697 9C13.5237 9 13 8.47629 13 7.83026L13 4H15.0689Z" fill="white"/>
</svg>
