<svg width="24" height="24" viewBox="0 0 24 24" fill="none" xmlns="http://www.w3.org/2000/svg">
<path fill-rule="evenodd" clip-rule="evenodd" d="M14.5 7.00001C15.0523 7.00001 15.5 7.44773 15.5 8.00001V15.4477C15.5 16 15.0523 16.4477 14.5 16.4477C13.9477 16.4477 13.5 16 13.5 15.4477V8.00001C13.5 7.44773 13.9477 7.00001 14.5 7.00001Z" fill="white"/>
<path d="M7.34315 16.9219L9.10579 20.4472C9.35278 20.9412 9.95345 21.1414 10.4474 20.8944C10.9414 20.6474 11.1416 20.0467 10.8946 19.5528L9.61824 17H8.25C7.94074 17 7.63773 16.9732 7.34315 16.9219Z" fill="white"/>
<path fill-rule="evenodd" clip-rule="evenodd" d="M18.9871 2.5987C19.7299 1.85588 21 2.38199 21 3.43247V20.0675C21 21.118 19.7299 21.6441 18.9871 20.9013L15.9675 17.8817C14.7627 16.6769 13.1285 16 11.4246 16H7.25C4.90279 16 3 14.0972 3 11.75C3 9.4028 4.90279 7.50001 7.25 7.50001H11.4246C13.1285 7.50001 14.7627 6.82313 15.9675 5.61828L18.9871 2.5987ZM19 5.41422L17.3817 7.03249C15.8018 8.61242 13.659 9.50001 11.4246 9.50001H7.25C6.00736 9.50001 5 10.5074 5 11.75C5 12.9927 6.00736 14 7.25 14H11.4246C13.659 14 15.8018 14.8876 17.3817 16.4675L19 18.0858V5.41422Z" fill="white"/>
</svg>
