<svg width="24" height="24" viewBox="0 0 24 24" fill="none" xmlns="http://www.w3.org/2000/svg">
<path fill-rule="evenodd" clip-rule="evenodd" d="M18.9871 2.5987C19.7299 1.85588 21 2.38199 21 3.43247V20.0675C21 21.118 19.7299 21.6441 18.9871 20.9013L15.9675 17.8817C14.7627 16.6769 13.1285 16 11.4246 16H7.25C4.90279 16 3 14.0972 3 11.75C3 9.4028 4.90279 7.50001 7.25 7.50001H11.4246C13.1285 7.50001 14.7627 6.82313 15.9675 5.61828L18.9871 2.5987ZM19 5.41422L17.3817 7.03249C16.8188 7.59539 16.1845 8.0704 15.5 8.44871V15.0513C16.1845 15.4296 16.8188 15.9046 17.3817 16.4675L19 18.0858V5.41422ZM13.5 9.2404C12.8272 9.41142 12.1305 9.50001 11.4246 9.50001H7.25C6.00736 9.50001 5 10.5074 5 11.75C5 12.9927 6.00736 14 7.25 14H11.4246C12.1305 14 12.8273 14.0886 13.5 14.2596V9.2404Z" fill="white"/>
<path d="M9.10579 20.4472L7.34315 16.9219C7.63773 16.9732 7.94074 17 8.25 17H9.61824L10.8946 19.5528C11.1416 20.0467 10.9414 20.6474 10.4474 20.8944C9.95345 21.1414 9.35278 20.9412 9.10579 20.4472Z" fill="white"/>
</svg>
