<svg width="24" height="24" viewBox="0 0 24 24" fill="none" xmlns="http://www.w3.org/2000/svg">
<path fill-rule="evenodd" clip-rule="evenodd" d="M20.2041 2.32067C20.4803 2.79896 20.3164 3.41055 19.8381 3.68669L14.2778 6.89686L15.5106 9.01756C15.7887 9.49929 15.6202 10.1154 15.1357 10.3886L11.6317 12.3645C11.1541 12.6338 10.5487 12.4683 10.2745 11.9934L6.75669 5.94161C6.47855 5.45988 6.64699 4.84377 7.13153 4.57054L10.6355 2.59472C11.1131 2.3254 11.7185 2.49092 11.9927 2.96577L13.2727 5.16777L18.8381 1.95463C19.3164 1.67849 19.928 1.84237 20.2041 2.32067ZM8.99385 5.81647L11.5116 10.1361L13.2734 9.1427L10.7556 4.82304L8.99385 5.81647Z" fill="white"/>
<path fill-rule="evenodd" clip-rule="evenodd" d="M3 13.5C2.44772 13.5 2 13.9477 2 14.5V18.5C2 19.0523 2.44772 19.5 3 19.5H6.02297L5.57152 20.6286C5.44829 20.9367 5.4859 21.2858 5.67193 21.5606C5.85796 21.8354 6.16818 22 6.5 22H15.5C15.8318 22 16.142 21.8354 16.3281 21.5606C16.5141 21.2858 16.5517 20.9367 16.4285 20.6286L15.977 19.5H18C18.9959 19.5 19.7945 19.1595 20.3987 18.6224C20.9823 18.1036 21.3392 17.4435 21.5613 16.8511C21.785 16.2546 21.8925 15.6723 21.9454 15.249C21.9722 15.0347 21.9858 14.8547 21.9927 14.7253C21.9962 14.6605 21.998 14.608 21.999 14.5699C21.9991 14.5651 21.9992 14.5606 21.9993 14.5562C21.9996 14.5433 21.9997 14.5323 21.9998 14.5235L22 14.5088L22 14.5037L22 14.5C22 13.9477 21.5523 13.5 21 13.5H3ZM8.32807 17.9393C8.14204 17.6646 7.83182 17.5 7.5 17.5H4V15.5H19.8763C19.8312 15.7094 19.7703 15.9312 19.6887 16.1489C19.5358 16.5565 19.3302 16.8963 19.07 17.1276C18.8305 17.3405 18.5041 17.5 18 17.5H14.5C14.1682 17.5 13.858 17.6646 13.6719 17.9393C13.4859 18.2141 13.4483 18.5633 13.5715 18.8714L14.023 20H7.97703L8.42848 18.8714C8.55171 18.5633 8.5141 18.2141 8.32807 17.9393Z" fill="white"/>
</svg>
