<svg width="24" height="24" viewBox="0 0 24 24" fill="none" xmlns="http://www.w3.org/2000/svg">
<path fill-rule="evenodd" clip-rule="evenodd" d="M20.2041 2.32067C20.4803 2.79896 20.3164 3.41055 19.8381 3.68669L14.209 6.93661C13.7307 7.21275 13.1191 7.04887 12.843 6.57057C12.5668 6.09228 12.7307 5.48069 13.209 5.20455L18.8381 1.95463C19.3164 1.67849 19.928 1.84237 20.2041 2.32067Z" fill="white"/>
<path fill-rule="evenodd" clip-rule="evenodd" d="M8.99385 5.81647L11.5116 10.1361L13.2734 9.1427L10.7556 4.82304L8.99385 5.81647ZM7.13153 4.57054C6.64699 4.84377 6.47855 5.45988 6.75669 5.94161L10.2745 11.9934C10.5487 12.4683 11.1541 12.6338 11.6317 12.3645L15.1357 10.3886C15.6202 10.1154 15.7887 9.49929 15.5106 9.01756L11.9927 2.96577C11.7185 2.49092 11.1131 2.3254 10.6355 2.59472L7.13153 4.57054Z" fill="white"/>
<path fill-rule="evenodd" clip-rule="evenodd" d="M2 14.5C2 13.9477 2.44772 13.5 3 13.5H21C21.5523 13.5 22 13.9477 22 14.5H21C22 14.5 22 14.5 22 14.5L22 14.5037L22 14.5088L21.9998 14.5235C21.9997 14.5353 21.9994 14.5508 21.999 14.5699C21.998 14.608 21.9962 14.6605 21.9927 14.7253C21.9858 14.8547 21.9722 15.0347 21.9454 15.249C21.8925 15.6723 21.785 16.2546 21.5613 16.8511C21.3392 17.4435 20.9823 18.1036 20.3987 18.6224C19.7945 19.1595 18.9959 19.5 18 19.5H15.977L16.4285 20.6286C16.5517 20.9367 16.5141 21.2858 16.3281 21.5606C16.142 21.8354 15.8318 22 15.5 22H6.5C6.16818 22 5.85796 21.8354 5.67193 21.5606C5.4859 21.2858 5.44829 20.9367 5.57152 20.6286L6.02297 19.5H3C2.44772 19.5 2 19.0523 2 18.5V14.5ZM19.8763 15.5H4V17.5H7.5C7.83182 17.5 8.14204 17.6646 8.32807 17.9393C8.5141 18.2141 8.55171 18.5633 8.42848 18.8714L7.97703 20H14.023L13.5715 18.8714C13.4483 18.5633 13.4859 18.2141 13.6719 17.9393C13.858 17.6646 14.1682 17.5 14.5 17.5H18C18.5041 17.5 18.8305 17.3405 19.07 17.1276C19.3302 16.8963 19.5358 16.5565 19.6887 16.1489C19.7703 15.9312 19.8312 15.7094 19.8763 15.5Z" fill="white"/>
</svg>
