<svg width="24" height="24" viewBox="0 0 24 24" fill="none" xmlns="http://www.w3.org/2000/svg">
<path d="M12 2C9.61386 2.00264 7.32622 2.94653 5.63896 4.6246C3.95171 6.30268 3.00265 8.57788 3 10.951V20.9961C3 21.2048 3.06604 21.4082 3.18876 21.5776C3.31148 21.747 3.48466 21.8736 3.68377 21.9396C3.88288 22.0057 4.09783 22.0077 4.29817 21.9454C4.4985 21.8831 4.67407 21.7598 4.8 21.5928L6.829 18.9075L8.105 21.4456C8.18084 21.5985 8.2949 21.7294 8.43623 21.8258C8.57756 21.9221 8.74141 21.9807 8.91208 21.996C9.08275 22.0112 9.2545 21.9827 9.41086 21.913C9.56722 21.8433 9.70294 21.7346 9.805 21.5978L12 18.6758L14.2 21.5928C14.3021 21.7297 14.4378 21.8383 14.5941 21.908C14.7505 21.9777 14.9223 22.0063 15.0929 21.991C15.2636 21.9757 15.4274 21.9172 15.5688 21.8208C15.7101 21.7244 15.8242 21.5935 15.9 21.4407L17.171 18.9075L19.2 21.5928C19.2931 21.7163 19.4139 21.8166 19.5528 21.8856C19.6916 21.9547 19.8448 21.9906 20 21.9906C20.2652 21.9906 20.5196 21.8858 20.7071 21.6993C20.8946 21.5129 21 21.2598 21 20.9961V10.951C20.9974 8.57788 20.0483 6.30268 18.361 4.6246C16.6738 2.94653 14.3861 2.00264 12 2ZM19 18.0124L17.8 16.4211C17.6988 16.2841 17.5636 16.1755 17.4076 16.1057C17.2517 16.036 17.0803 16.0076 16.91 16.0233C16.741 16.0393 16.5789 16.0978 16.439 16.1934C16.299 16.2888 16.1858 16.4182 16.11 16.5693L14.834 19.1074L12.8 16.4211C12.7069 16.2976 12.5861 16.1973 12.4472 16.1283C12.3084 16.0592 12.1552 16.0233 12 16.0233C11.8448 16.0233 11.6916 16.0592 11.5528 16.1283C11.4139 16.1973 11.2931 16.2976 11.2 16.4211L9.171 19.1114L7.9 16.5733C7.82385 16.4201 7.70932 16.289 7.56745 16.1928C7.42558 16.0964 7.26114 16.038 7.09 16.0233C6.91973 16.0074 6.74822 16.0357 6.59224 16.1054C6.43625 16.1752 6.3011 16.284 6.2 16.4211L5 18.0124V10.951C5 9.10462 5.7375 7.33383 7.05025 6.02821C8.36301 4.72261 10.1435 3.98912 12 3.98912C13.8565 3.98912 15.637 4.72261 16.9497 6.02821C18.2625 7.33383 19 9.10462 19 10.951V18.0124ZM10 9.95648V11.9456C10 12.2094 9.89464 12.4624 9.70711 12.6488C9.51957 12.8353 9.26522 12.9402 9 12.9402C8.73478 12.9402 8.48043 12.8353 8.29289 12.6488C8.10536 12.4624 8 12.2094 8 11.9456V9.95648C8 9.6927 8.10536 9.43973 8.29289 9.25321C8.48043 9.0667 8.73478 8.96192 9 8.96192C9.26522 8.96192 9.51957 9.0667 9.70711 9.25321C9.89464 9.43973 10 9.6927 10 9.95648ZM16 9.95648V11.9456C16 12.2094 15.8946 12.4624 15.7071 12.6488C15.5196 12.8353 15.2652 12.9402 15 12.9402C14.7348 12.9402 14.4804 12.8353 14.2929 12.6488C14.1054 12.4624 14 12.2094 14 11.9456V9.95648C14 9.6927 14.1054 9.43973 14.2929 9.25321C14.4804 9.0667 14.7348 8.96192 15 8.96192C15.2652 8.96192 15.5196 9.0667 15.7071 9.25321C15.8946 9.43973 16 9.6927 16 9.95648Z" fill="white"/>
</svg>
