<svg width="20" height="20" viewBox="0 0 20 20" fill="none" xmlns="http://www.w3.org/2000/svg">
<path fill-rule="evenodd" clip-rule="evenodd" d="M15.9183 14.9941V15.746C15.5733 15.9868 15.2114 16.1929 14.8376 16.3643C12.2536 17.5492 9.09651 17.0777 6.96859 14.9497C4.23492 12.2161 4.23492 7.78392 6.96859 5.05025C9.09651 2.92234 12.2536 2.45081 14.8376 3.63568C15.2114 3.80711 15.5733 4.01321 15.9183 4.25399V5.00585C15.4927 5.02641 15.0692 5.10108 14.6589 5.22987C13.915 5.46342 13.215 5.87496 12.6254 6.46447C10.6728 8.41709 10.6728 11.5829 12.6254 13.5355C13.215 14.125 13.915 14.5366 14.6589 14.7701C15.0691 14.8989 15.4927 14.9736 15.9183 14.9941ZM11.5648 14.5962C11.8936 14.925 12.249 15.2112 12.624 15.4548C10.9916 15.6648 9.28305 15.1429 8.02925 13.8891C5.88136 11.7412 5.88136 8.2588 8.02925 6.11091C9.28305 4.85711 10.9916 4.3352 12.624 4.54518C12.249 4.78876 11.8936 5.07496 11.5648 5.40381C9.02637 7.94221 9.02637 12.0578 11.5648 14.5962Z" fill="black"/>
</svg>
