<svg width="24" height="24" viewBox="0 0 24 24" fill="none" xmlns="http://www.w3.org/2000/svg">
<path d="M14.31 17.2867L13.0188 18.5876V12.9939C13.0188 12.7285 12.9134 12.474 12.7256 12.2863C12.538 12.0986 12.2834 11.9933 12.0179 11.9933C11.7524 11.9933 11.4979 12.0986 11.3101 12.2863C11.1224 12.474 11.0169 12.7285 11.0169 12.9939V18.5876L9.72574 17.2867C9.63242 17.1934 9.52163 17.1194 9.39968 17.0689C9.27774 17.0184 9.14705 16.9924 9.01507 16.9924C8.88309 16.9924 8.7524 17.0184 8.63045 17.0689C8.50852 17.1194 8.39772 17.1934 8.30439 17.2867C8.21107 17.38 8.13703 17.4908 8.08653 17.6126C8.03602 17.7346 8.01003 17.8652 8.01003 17.9972C8.01003 18.1291 8.03602 18.2598 8.08653 18.3816C8.13703 18.5036 8.21107 18.6143 8.30439 18.7076L11.3072 21.7096C11.4024 21.8007 11.5147 21.8721 11.6375 21.9197C11.7573 21.9727 11.887 22 12.0179 22C12.1489 22 12.2784 21.9727 12.3982 21.9197C12.5212 21.8721 12.6334 21.8007 12.7285 21.7096L15.7314 18.7076C15.9199 18.5192 16.0258 18.2637 16.0258 17.9972C16.0258 17.7307 15.9199 17.4751 15.7314 17.2867C15.5429 17.0983 15.2873 16.9924 15.0207 16.9924C14.7542 16.9924 14.4985 17.0983 14.31 17.2867ZM18.444 6.20946C17.8324 4.80455 16.7769 3.63886 15.4392 2.89102C14.1015 2.14318 12.5555 1.85445 11.0379 2.06906C9.52042 2.28368 8.11514 2.98981 7.03746 4.07925C5.95977 5.16868 5.26911 6.58132 5.07134 8.1007C4.11702 8.32917 3.27987 8.90006 2.71885 9.70493C2.15784 10.5098 1.91204 11.4926 2.02813 12.4668C2.14422 13.4409 2.61411 14.3385 3.34857 14.989C4.08304 15.6396 5.03093 15.9979 6.01223 15.9959C6.2777 15.9959 6.53229 15.8904 6.72 15.7028C6.90772 15.5152 7.01317 15.2606 7.01317 14.9952C7.01317 14.7298 6.90772 14.4753 6.72 14.2877C6.53229 14.0999 6.2777 13.9946 6.01223 13.9946C5.48129 13.9946 4.9721 13.7837 4.59668 13.4084C4.22125 13.033 4.01033 12.524 4.01033 11.9933C4.01033 11.4625 4.22125 10.9534 4.59668 10.5781C4.9721 10.2028 5.48129 9.99195 6.01223 9.99195C6.2777 9.99195 6.53229 9.88651 6.72 9.69885C6.90772 9.51119 7.01317 9.25667 7.01317 8.99128C7.01573 7.80778 7.43786 6.66352 8.20457 5.76176C8.97128 4.86 10.0329 4.25913 11.2009 4.06594C12.3688 3.87273 13.5675 4.09969 14.5839 4.70649C15.6003 5.31328 16.3686 6.26063 16.7524 7.38022C16.8096 7.55218 16.9124 7.70537 17.0499 7.82345C17.1875 7.94153 17.3544 8.02006 17.5331 8.05066C18.1998 8.17661 18.8042 8.52458 19.2478 9.03785C19.6913 9.55111 19.948 10.1994 19.9758 10.8771C20.0037 11.5549 19.8011 12.2221 19.4012 12.77C19.0013 13.3179 18.4274 13.7143 17.7733 13.8945C17.6459 13.9273 17.5261 13.985 17.4209 14.0641C17.3156 14.1433 17.227 14.2423 17.1601 14.3557C17.0932 14.4691 17.0492 14.5945 17.0308 14.7248C17.0124 14.8551 17.0198 14.9878 17.0526 15.1153C17.0856 15.2428 17.1432 15.3625 17.2223 15.4677C17.3015 15.5729 17.4006 15.6615 17.514 15.7284C17.6274 15.7952 17.7529 15.8392 17.8832 15.8576C18.0136 15.876 18.1464 15.8686 18.2738 15.8358C19.3272 15.5575 20.261 14.9432 20.9333 14.086C21.6057 13.229 21.9799 12.176 21.9992 11.087C22.0184 9.99785 21.6816 8.93229 21.04 8.05198C20.3984 7.17169 19.4868 6.52476 18.444 6.20946Z" fill="white"/>
</svg>
