<svg width="24" height="24" viewBox="0 0 24 24" fill="none" xmlns="http://www.w3.org/2000/svg">
<path d="M9.72586 15.7484L11.0171 14.4379L11.0171 20.0732C11.0171 20.3405 11.1225 20.597 11.3103 20.786C11.4979 20.9751 11.7525 21.0813 12.018 21.0813C12.2835 21.0813 12.538 20.9751 12.7258 20.786C12.9135 20.597 13.019 20.3405 13.019 20.0732L13.019 14.4379L14.3102 15.7484C14.4035 15.8425 14.5143 15.917 14.6362 15.9679C14.7582 16.0187 14.8889 16.0449 15.0208 16.0449C15.1528 16.0449 15.2835 16.0187 15.4055 15.9679C15.5274 15.917 15.6382 15.8425 15.7315 15.7484C15.8248 15.6545 15.8989 15.5429 15.9494 15.4201C15.9999 15.2972 16.0259 15.1656 16.0259 15.0327C16.0259 14.8998 15.9999 14.7681 15.9494 14.6453C15.8989 14.5225 15.8248 14.411 15.7315 14.3169L12.7287 11.2926C12.6335 11.2008 12.5212 11.1289 12.3984 11.0809C12.2786 11.0275 12.149 11 12.018 11C11.887 11 11.7575 11.0275 11.6377 11.0809C11.5148 11.1289 11.4025 11.2008 11.3074 11.2926L8.30451 14.3169C8.11604 14.5067 8.01014 14.7642 8.01014 15.0327C8.01014 15.3011 8.11604 15.5586 8.30451 15.7484C8.49299 15.9382 8.74863 16.0449 9.01519 16.0449C9.28174 16.0449 9.53738 15.9382 9.72586 15.7484Z" fill="white"/>
<path d="M18.444 8.24081C17.8324 6.82544 16.7769 5.65106 15.4392 4.89766C14.1015 4.14425 12.5555 3.85337 11.0379 4.06958C9.52042 4.2858 8.11514 4.99719 7.03746 6.09473C5.95977 7.19228 5.26911 8.61544 5.07134 10.1461C4.11702 10.3763 3.27987 10.9514 2.71885 11.7623C2.15784 12.5732 1.91204 13.5633 2.02813 14.5447C2.14422 15.5261 2.61411 16.4304 3.34857 17.0858C4.08304 17.7412 5.03093 18.1021 6.01223 18.1001C6.2777 18.1001 6.53229 17.9939 6.72 17.8048C6.90772 17.6158 7.01317 17.3594 7.01317 17.092C7.01317 16.8247 6.90772 16.5682 6.72 16.3792C6.53229 16.1901 6.2777 16.0839 6.01223 16.0839C5.48129 16.0839 4.9721 15.8715 4.59668 15.4934C4.22125 15.1152 4.01033 14.6024 4.01033 14.0677C4.01033 13.533 4.22125 13.0201 4.59668 12.642C4.9721 12.2639 5.48129 12.0515 6.01223 12.0515C6.2777 12.0515 6.53229 11.9453 6.72 11.7562C6.90772 11.5671 7.01317 11.3107 7.01317 11.0433C7.01573 9.85104 7.43786 8.69825 8.20457 7.78977C8.97128 6.8813 10.0329 6.27596 11.2009 6.08132C12.3688 5.88668 13.5675 6.11533 14.5839 6.72664C15.6003 7.33796 16.3686 8.29237 16.7524 9.4203C16.8096 9.59353 16.9124 9.74786 17.0499 9.86683C17.1875 9.98578 17.3544 10.0649 17.5331 10.0957C18.1998 10.2226 18.8042 10.5732 19.2478 11.0903C19.6913 11.6074 19.948 12.2605 19.9758 12.9432C20.0037 13.626 19.8011 14.2982 19.4012 14.8502C19.0013 15.4022 18.4274 15.8015 17.7733 15.9831C17.6459 16.0162 17.5261 16.0742 17.4209 16.154C17.3156 16.2337 17.227 16.3335 17.1601 16.4477C17.0932 16.5619 17.0492 16.6883 17.0308 16.8196C17.0124 16.9509 17.0198 17.0845 17.0526 17.213C17.0856 17.3414 17.1432 17.462 17.2223 17.568C17.3015 17.674 17.4006 17.7632 17.514 17.8306C17.6274 17.898 17.7529 17.9422 17.8832 17.9608C18.0136 17.9793 18.1464 17.9719 18.2738 17.9388C19.3272 17.6585 20.261 17.0396 20.9333 16.176C21.6057 15.3126 21.9799 14.2518 21.9992 13.1546C22.0184 12.0574 21.6816 10.9839 21.04 10.0971C20.3984 9.21021 19.4868 8.55847 18.444 8.24081Z" fill="white"/>
</svg>
