<svg width="24" height="24" viewBox="0 0 24 24" fill="none" xmlns="http://www.w3.org/2000/svg">
<path d="M12 3.5002C10.814 3.51019 9.57798 3.84893 8.49999 4.46848C8.02099 4.74328 7.84999 5.36383 8.12499 5.84248C8.39999 6.32113 9.02099 6.46108 9.49998 6.18628C10.279 5.73861 11.158 5.50573 12 5.49873C14.681 5.47775 17.021 7.78407 17 10.495C17 10.555 17 11.3574 17 11.5882C17 12.0539 17.296 12.4826 17.75 12.5875C19.066 12.8913 20 13.8926 20 14.9918C20 15.3475 19.922 15.7043 19.75 16.0231C19.488 16.5078 19.67 17.1032 20.156 17.365C20.642 17.6278 21.238 17.445 21.5 16.9593C21.828 16.3528 22 15.6833 22 14.9918C22 13.1791 20.808 11.6133 18.996 10.8809C18.998 10.703 19 10.522 19 10.495C19.03 6.66288 15.791 3.47122 12 3.5002ZM4.99999 5.49873C4.74399 5.49873 4.476 5.58472 4.28101 5.78058C3.89101 6.17029 3.89101 6.82675 4.28101 7.21647L5.389 8.31168C5.281 8.53652 5.23299 8.79036 5.17699 9.04918C3.273 9.87858 2 11.7121 2 13.8676C2 16.8754 4.376 19.4885 7.312 19.4885H16.562L17.281 20.207C17.672 20.5977 18.328 20.5977 18.719 20.207C19.109 19.8172 19.109 19.1608 18.719 18.7711L17.719 17.7718L5.71898 5.78058C5.52298 5.58472 5.25599 5.49873 4.99999 5.49873ZM7.02801 9.95453L14.562 17.4899H7.312C5.525 17.4899 4 15.8132 4 13.8676C4 12.3767 4.93398 11.1665 6.34398 10.7449C6.70198 10.6379 6.98001 10.3073 7.02801 9.95453Z" fill="white"/>
</svg>
