<svg width="24" height="24" viewBox="0 0 24 24" fill="none" xmlns="http://www.w3.org/2000/svg">
<path fill-rule="evenodd" clip-rule="evenodd" d="M5.0048 15.3333L4.97304 10C4.97304 6.68629 8.65687 4 11.9684 4C15.2799 4 18.9637 6.68629 18.9637 10L18.9954 15.3333L20.3945 17.2C21.8854 19.1891 20.4485 22 17.9923 22H6.00794C3.55175 22 2.11488 19.1891 3.60573 17.2L5.0048 15.3333ZM6.9717 10L7.00346 15.9765C7.00346 15.9918 6.99852 16.0066 6.98938 16.0188L5.20466 18.4C4.71057 19.0592 5.18444 20 6.00794 20H17.9923C18.8158 20 19.2897 19.0592 18.7956 18.4L17.0109 16.0188C17.0017 16.0066 16.9968 15.9918 16.9968 15.9765L16.965 10C16.965 7.79086 14.176 6 11.9684 6C9.7607 6 6.9717 7.79086 6.9717 10Z" fill="white"/>
<path d="M10.969 3C10.969 2.44772 11.4164 2 11.9684 2C12.5203 2 12.9677 2.44772 12.9677 3V4C12.9677 4.55228 12.5203 5 11.9684 5C11.4164 5 10.969 4.55228 10.969 4V3Z" fill="white"/>
<path d="M14.9981 21H8.00279V22H14.9981V21Z" fill="white"/>
<path d="M11.8656 19C12.0811 19 12.2697 18.925 12.4314 18.775C12.5931 18.625 12.6739 18.45 12.6739 18.25V17.9286C13.4438 17.8 14.1059 17.5214 14.6602 17.0929C15.2145 16.6643 15.4916 16.0286 15.4916 15.1857C15.4916 14.5857 15.3069 14.0357 14.9373 13.5357C14.5678 13.0357 13.8287 12.6 12.7201 12.2286C11.7963 11.9429 11.1573 11.6929 10.8031 11.4786C10.449 11.2643 10.2719 10.9714 10.2719 10.6C10.2719 10.2286 10.4144 9.93571 10.6992 9.72143C10.9841 9.50714 11.3959 9.4 11.9348 9.4C12.2428 9.4 12.5122 9.45 12.7432 9.55C12.9742 9.65 13.1666 9.78571 13.3206 9.95714C13.4746 10.1286 13.6478 10.2464 13.8403 10.3107C14.0327 10.375 14.2137 10.3714 14.383 10.3C14.614 10.2143 14.7718 10.0679 14.8565 9.86071C14.9412 9.65357 14.9219 9.46429 14.7988 9.29286C14.5524 8.96429 14.2483 8.68571 13.8865 8.45714C13.5246 8.22857 13.1358 8.1 12.7201 8.07143V7.75C12.7201 7.55 12.6393 7.375 12.4776 7.225C12.3159 7.075 12.1273 7 11.9118 7C11.6962 7 11.5076 7.075 11.3459 7.225C11.1842 7.375 11.1034 7.55 11.1034 7.75V8.07143C10.3335 8.22857 9.73303 8.54286 9.3019 9.01429C8.87077 9.48571 8.65521 10.0143 8.65521 10.6C8.65521 11.2714 8.86692 11.8143 9.29035 12.2286C9.71378 12.6429 10.3797 13 11.2882 13.3C12.2582 13.6286 12.9318 13.9214 13.3091 14.1786C13.6863 14.4357 13.8749 14.7714 13.8749 15.1857C13.8749 15.6571 13.694 16.0036 13.3322 16.225C12.9703 16.4464 12.5353 16.5571 12.0272 16.5571C11.6269 16.5571 11.2651 16.4679 10.9417 16.2893C10.6184 16.1107 10.3489 15.8429 10.1334 15.4857C10.0102 15.2857 9.84851 15.15 9.64834 15.0786C9.44817 15.0071 9.24801 15.0071 9.04784 15.0786C8.83228 15.15 8.67446 15.2857 8.57437 15.4857C8.47429 15.6857 8.47044 15.8786 8.56283 16.0643C8.80918 16.55 9.14023 16.9464 9.55596 17.2536C9.97168 17.5607 10.4721 17.7714 11.0572 17.8857V18.25C11.0572 18.45 11.138 18.625 11.2997 18.775C11.4614 18.925 11.65 19 11.8656 19Z" fill="white"/>
</svg>
