<svg width="24" height="24" viewBox="0 0 24 24" fill="none" xmlns="http://www.w3.org/2000/svg">
<path d="M12.4314 18.775C12.2697 18.925 12.0811 19 11.8656 19C11.65 19 11.4614 18.925 11.2997 18.775C11.138 18.625 11.0572 18.45 11.0572 18.25V17.8857C10.4721 17.7714 9.97168 17.5607 9.55596 17.2536C9.14023 16.9464 8.80918 16.55 8.56283 16.0643C8.47044 15.8786 8.47429 15.6857 8.57437 15.4857C8.67446 15.2857 8.83228 15.15 9.04784 15.0786C9.24801 15.0071 9.44817 15.0071 9.64834 15.0786C9.84851 15.15 10.0102 15.2857 10.1334 15.4857C10.3489 15.8429 10.6184 16.1107 10.9417 16.2893C11.2651 16.4679 11.6269 16.5571 12.0272 16.5571C12.5353 16.5571 12.9703 16.4464 13.3322 16.225C13.694 16.0036 13.8749 15.6571 13.8749 15.1857C13.8749 14.7714 13.6863 14.4357 13.3091 14.1786C12.9318 13.9214 12.2582 13.6286 11.2882 13.3C10.3797 13 9.71378 12.6429 9.29035 12.2286C8.86692 11.8143 8.65521 11.2714 8.65521 10.6C8.65521 10.0143 8.87077 9.48571 9.3019 9.01429C9.73303 8.54286 10.3335 8.22857 11.1034 8.07143V7.75C11.1034 7.55 11.1842 7.375 11.3459 7.225C11.5076 7.075 11.6962 7 11.9118 7C12.1273 7 12.3159 7.075 12.4776 7.225C12.6393 7.375 12.7201 7.55 12.7201 7.75V8.07143C13.1358 8.1 13.5246 8.22857 13.8865 8.45714C14.2483 8.68571 14.5524 8.96429 14.7988 9.29286C14.9219 9.46429 14.9412 9.65357 14.8565 9.86071C14.7718 10.0679 14.614 10.2143 14.383 10.3C14.2137 10.3714 14.0327 10.375 13.8403 10.3107C13.6478 10.2464 13.4746 10.1286 13.3206 9.95714C13.1666 9.78571 12.9742 9.65 12.7432 9.55C12.5122 9.45 12.2428 9.4 11.9348 9.4C11.3959 9.4 10.9841 9.50714 10.6992 9.72143C10.4144 9.93571 10.2719 10.2286 10.2719 10.6C10.2719 10.9714 10.449 11.2643 10.8031 11.4786C11.1573 11.6929 11.7963 11.9429 12.7201 12.2286C13.8287 12.6 14.5678 13.0357 14.9373 13.5357C15.3069 14.0357 15.4916 14.5857 15.4916 15.1857C15.4916 16.0286 15.2145 16.6643 14.6602 17.0929C14.1059 17.5214 13.4438 17.8 12.6739 17.9286V18.25C12.6739 18.45 12.5931 18.625 12.4314 18.775Z" fill="white"/>
<path fill-rule="evenodd" clip-rule="evenodd" d="M11.9684 2C11.4164 2 10.969 2.44772 10.969 3V4C10.969 4.02621 10.97 4.05218 10.972 4.07788C7.95972 4.54122 4.97304 7.01627 4.97304 10L5.0048 15.3333L3.60573 17.2C2.11488 19.1891 3.55175 22 6.00794 22H17.9923C20.4485 22 21.8854 19.1891 20.3945 17.2L18.9954 15.3333L18.9637 10C18.9637 7.01627 15.977 4.54122 12.9647 4.07788C12.9667 4.05218 12.9677 4.02621 12.9677 4V3C12.9677 2.44772 12.5203 2 11.9684 2ZM7.00346 15.9765L6.9717 10C6.9717 7.79086 9.7607 6 11.9684 6C14.176 6 16.965 7.79086 16.965 10L16.9968 15.9765C16.9968 15.9918 17.0017 16.0066 17.0109 16.0188L18.7956 18.4C19.2897 19.0592 18.8158 20 17.9923 20H6.00794C5.18444 20 4.71057 19.0592 5.20466 18.4L6.98938 16.0188C6.99852 16.0066 7.00346 15.9918 7.00346 15.9765Z" fill="white"/>
</svg>
