<svg width="25" height="24" viewBox="0 0 25 24" fill="none" xmlns="http://www.w3.org/2000/svg">
<path fill-rule="evenodd" clip-rule="evenodd" d="M4 5C4 3.89543 4.89543 3 6 3H9C10.1046 3 11 3.89543 11 5V19C11 20.1046 10.1046 21 9 21H6C4.89543 21 4 20.1046 4 19V5ZM9 5H6V19H9V5Z" fill="white"/>
<path fill-rule="evenodd" clip-rule="evenodd" d="M14 5C14 3.89543 14.8954 3 16 3H19C20.1046 3 21 3.89543 21 5V19C21 20.1046 20.1046 21 19 21H16C14.8954 21 14 20.1046 14 19V5ZM19 5H16V19H19V5Z" fill="white"/>
</svg>
