<svg width="24" height="24" viewBox="0 0 24 24" fill="none" xmlns="http://www.w3.org/2000/svg">
<path fill-rule="evenodd" clip-rule="evenodd" d="M3.5 5C3.5 3.89543 4.39543 3 5.5 3H8.5C9.60457 3 10.5 3.89543 10.5 5V19C10.5 20.1046 9.60457 21 8.5 21H5.5C4.39543 21 3.5 20.1046 3.5 19V5ZM8.5 5H5.5V19H8.5V5Z" fill="white"/>
<path fill-rule="evenodd" clip-rule="evenodd" d="M13.5 5C13.5 3.89543 14.3954 3 15.5 3H18.5C19.6046 3 20.5 3.89543 20.5 5V19C20.5 20.1046 19.6046 21 18.5 21H15.5C14.3954 21 13.5 20.1046 13.5 19V5ZM18.5 5H15.5V19H18.5V5Z" fill="white"/>
</svg>
