<svg width="24" height="24" viewBox="0 0 24 24" fill="none" xmlns="http://www.w3.org/2000/svg">
<path fill-rule="evenodd" clip-rule="evenodd" d="M20.1824 12.8024C21.0206 13.2535 21.6378 14.0527 21.8506 15.0129L21.8537 15.0267C21.988 15.6538 22.1383 16.8125 21.7622 18.0892C21.3621 19.4469 20.4111 20.7733 18.6447 21.6582L18.6347 21.6632L18.6247 21.668C18.1634 21.8927 17.6636 22 17.1689 22H17.1149L17.061 21.9971C16.345 21.9584 15.438 21.8331 14.0205 21.4409L14.0097 21.4379L13.9989 21.4348C8.52177 19.8532 4.15107 15.4765 2.57002 10.0001C2.1787 8.65303 2.05271 7.63407 2.01077 7.09501C1.96492 6.52133 2.06307 5.90968 2.35084 5.34758C3.23299 3.58487 4.55716 2.63561 5.91378 2.23669C7.19156 1.86094 8.35143 2.01304 8.9765 2.14699C10.3168 2.43362 11.3296 3.50594 11.5521 4.84933L11.5525 4.85151L12.1722 8.56651C12.3094 9.39013 12.0805 10.22 11.57 10.848C12.0221 11.4467 12.5529 11.9779 13.1519 12.4311C13.7707 11.9273 14.592 11.6845 15.4319 11.8256L15.4333 11.8258L20.1824 12.8024ZM9.87985 11.9266C10.494 12.7669 11.2311 13.5045 12.0712 14.1198C12.5082 14.4399 12.973 14.727 13.4629 14.9782C13.5683 15.0323 13.667 15.0818 13.7572 15.1271C13.7886 15.1429 13.819 15.1581 13.8483 15.1728C13.9334 14.7835 14.0756 14.4634 14.201 14.236C14.2679 14.1162 14.3602 14.0162 14.4685 13.9411C14.6495 13.8157 14.8751 13.7599 15.1011 13.798L18.823 14.4223L18.8239 14.4238C19.359 14.5127 19.7802 14.9142 19.898 15.4458C20.0926 16.3539 20.275 18.6046 17.7489 19.87C17.5741 19.9551 17.3757 20 17.1689 20C16.6199 19.9704 15.8567 19.8738 14.5537 19.5133C9.73716 18.1224 5.88147 14.2618 4.49108 9.44378C4.14215 8.24307 4.03725 7.35947 4.00456 6.93744C3.98479 6.6941 4.02888 6.45534 4.13455 6.2523C5.39504 3.72163 7.649 3.90793 8.55744 4.10259C9.08882 4.21589 9.49019 4.63793 9.57913 5.17706L10.1995 8.89559C10.2355 9.11173 10.1888 9.32653 10.0784 9.50194C10.0023 9.62277 9.8959 9.72491 9.76538 9.79593C9.53428 9.92139 9.21424 10.0636 8.82882 10.1526C8.86165 10.2156 8.89701 10.2852 8.93503 10.3601C8.96303 10.4152 8.99248 10.4732 9.02343 10.5335C9.27371 11.0239 9.56013 11.4891 9.87985 11.9266Z" fill="white"/>
</svg>
