<svg width="24" height="24" viewBox="0 0 24 24" fill="none" xmlns="http://www.w3.org/2000/svg">
<path d="M7 3C7 2.44772 7.44772 2 8 2H16C16.5523 2 17 2.44772 17 3C17 3.55228 16.5523 4 16 4H8C7.44772 4 7 3.55228 7 3Z" fill="white"/>
<path fill-rule="evenodd" clip-rule="evenodd" d="M9 2H15V6.58183C17.9311 7.76841 20 10.6415 20 14C20 18.4183 16.4183 22 12 22C7.58172 22 4 18.4183 4 14C4 10.6415 6.0689 7.76841 9 6.58183V2ZM11 4V8.03561L10.2852 8.24833C7.80612 8.98616 6 11.2835 6 14C6 17.3137 8.68629 20 12 20C15.3137 20 18 17.3137 18 14C18 11.2835 16.1939 8.98616 13.7148 8.24833L13 8.03561V4H11Z" fill="white"/>
<path fill-rule="evenodd" clip-rule="evenodd" d="M14.9988 17.7198C16.428 17.868 17.8544 17.4029 19.2231 15.9551C19.5923 15.5645 19.5923 14.9314 19.2231 14.5409C18.854 14.1503 18.2554 14.1503 17.8863 14.5409C16.8916 15.593 16.0138 15.8154 15.1832 15.7293C14.261 15.6337 13.3101 15.1532 12.1921 14.5459C12.1232 14.5085 12.0535 14.4705 11.983 14.432C10.9874 13.8889 9.83723 13.2615 8.66622 13.065C7.30171 12.836 5.93313 13.1855 4.65187 14.5409C4.28271 14.9314 4.28271 15.5645 4.65188 15.9551C5.02105 16.3456 5.61959 16.3456 5.98875 15.9551C6.83444 15.0604 7.59282 14.9099 8.37003 15.0403C9.23027 15.1846 10.1268 15.6719 11.2224 16.2674C11.2575 16.2865 11.2929 16.3057 11.3284 16.325C12.3964 16.9052 13.6611 17.581 14.9988 17.7198Z" fill="white"/>
<path d="M12 11C12 11.5523 11.5523 12 11 12C10.4477 12 10 11.5523 10 11C10 10.4477 10.4477 10 11 10C11.5523 10 12 10.4477 12 11Z" fill="white"/>
<path d="M16 12.5C16 13.3284 15.3284 14 14.5 14C13.6716 14 13 13.3284 13 12.5C13 11.6716 13.6716 11 14.5 11C15.3284 11 16 11.6716 16 12.5Z" fill="white"/>
</svg>
