<svg width="24" height="24" viewBox="0 0 24 24" fill="none" xmlns="http://www.w3.org/2000/svg">
<path fill-rule="evenodd" clip-rule="evenodd" d="M9.99994 14V19.0402L16.4535 12H11.7344L12.5002 5.87318L6.11487 14H9.99994ZM4.0574 16C3.22297 16 2.75555 15.0383 3.27108 14.3822L12.6997 2.38218C12.8892 2.14089 13.1791 2 13.486 2H13.8672C14.4687 2 14.934 2.52718 14.8594 3.12403L13.9999 10H18.7267C19.5968 10 20.0518 11.0343 19.4639 11.6757L10.2972 21.6757C10.1078 21.8824 9.84034 22 9.56004 22H8.99994C8.44765 22 7.99994 21.5523 7.99994 21V16H4.0574Z" fill="white"/>
</svg>
