<svg width="18" height="18" viewBox="0 0 18 18" fill="none" xmlns="http://www.w3.org/2000/svg">
<path d="M5.11045 11.7497L5.11047 11.7496C6.10918 10.9969 7.47845 10.4997 8.99985 10.4997C10.5211 10.4997 11.8907 10.9969 12.8896 11.7497L12.8896 11.7497C13.897 12.5087 14.5 13.5015 14.5 14.4999L14.5 14.5L14.5 14.5H14.5H3.50001H3.49997L3.50004 14.5L3.5 14.4999C3.5 13.5016 4.10298 12.5089 5.11045 11.7497ZM6.50073 6.0013C6.50073 4.62629 7.62704 3.5 9.00178 3.5C10.3755 3.5 11.4979 4.62523 11.4979 6.0013C11.4979 7.37662 10.3763 8.49875 9.00178 8.49875C7.62615 8.49875 6.50073 7.37547 6.50073 6.0013Z" fill="currentcolor" stroke="currentcolor"/>
</svg>
