<svg width="24" height="24" viewBox="0 0 24 24" fill="none" xmlns="http://www.w3.org/2000/svg">
<path fill-rule="evenodd" clip-rule="evenodd" d="M5.09893 20H18.9011C18.4402 17.7181 16.4238 16 14.006 16H9.994C7.57625 16 5.55978 17.7181 5.09893 20ZM3 20.994C3 17.1313 6.13132 14 9.994 14H14.006C17.8687 14 21 17.1313 21 20.994C21 21.5496 20.5496 22 19.994 22H4.006C3.45031 22 3 21.5495 3 20.994Z" fill="white"/>
<path fill-rule="evenodd" clip-rule="evenodd" d="M12 11C13.6569 11 15 9.65685 15 8C15 6.34315 13.6569 5 12 5C10.3431 5 9 6.34315 9 8C9 9.65685 10.3431 11 12 11ZM12 13C14.7614 13 17 10.7614 17 8C17 5.23858 14.7614 3 12 3C9.23858 3 7 5.23858 7 8C7 10.7614 9.23858 13 12 13Z" fill="white"/>
</svg>
