<svg width="24" height="24" viewBox="0 0 24 24" fill="none" xmlns="http://www.w3.org/2000/svg">
<path fill-rule="evenodd" clip-rule="evenodd" d="M4 4V9H9V4H4ZM3 2C2.44772 2 2 2.44772 2 3V10C2 10.5523 2.44772 11 3 11H10C10.5523 11 11 10.5523 11 10V3C11 2.44772 10.5523 2 10 2H3Z" fill="white"/>
<path fill-rule="evenodd" clip-rule="evenodd" d="M15 4V9H20V4H15ZM14 2C13.4477 2 13 2.44772 13 3V10C13 10.5523 13.4477 11 14 11H21C21.5523 11 22 10.5523 22 10V3C22 2.44772 21.5523 2 21 2H14Z" fill="white"/>
<path fill-rule="evenodd" clip-rule="evenodd" d="M4 15V20H9V15H4ZM3 13C2.44772 13 2 13.4477 2 14V21C2 21.5523 2.44772 22 3 22H10C10.5523 22 11 21.5523 11 21V14C11 13.4477 10.5523 13 10 13H3Z" fill="white"/>
<path d="M13 13.5C13 13.2239 13.2239 13 13.5 13H14.75C15.0261 13 15.25 13.2239 15.25 13.5V14.75C15.25 15.0261 15.0261 15.25 14.75 15.25H13.5C13.2239 15.25 13 15.0261 13 14.75V13.5Z" fill="white"/>
<path d="M13 18C13 17.7239 13.2239 17.5 13.5 17.5H14.75C15.0261 17.5 15.25 17.7239 15.25 18V19.25C15.25 19.5261 15.0261 19.75 14.75 19.75H13.5C13.2239 19.75 13 19.5261 13 19.25V18Z" fill="white"/>
<path d="M15.25 20.25C15.25 19.9739 15.4739 19.75 15.75 19.75H17C17.2761 19.75 17.5 19.9739 17.5 20.25V21.5C17.5 21.7761 17.2761 22 17 22H15.75C15.4739 22 15.25 21.7761 15.25 21.5V20.25Z" fill="white"/>
<path d="M17.5 18C17.5 17.7239 17.7239 17.5 18 17.5H19.25C19.5261 17.5 19.75 17.7239 19.75 18V19.25C19.75 19.5261 19.5261 19.75 19.25 19.75H18C17.7239 19.75 17.5 19.5261 17.5 19.25V18Z" fill="white"/>
<path d="M19.75 20.25C19.75 19.9739 19.9739 19.75 20.25 19.75H21.5C21.7761 19.75 22 19.9739 22 20.25V21.5C22 21.7761 21.7761 22 21.5 22H20.25C19.9739 22 19.75 21.7761 19.75 21.5V20.25Z" fill="white"/>
<path d="M15.25 15.75C15.25 15.4739 15.4739 15.25 15.75 15.25H17C17.2761 15.25 17.5 15.4739 17.5 15.75V17C17.5 17.2761 17.2761 17.5 17 17.5H15.75C15.4739 17.5 15.25 17.2761 15.25 17V15.75Z" fill="white"/>
<path d="M17.5 13.5C17.5 13.2239 17.7239 13 18 13H19.25C19.5261 13 19.75 13.2239 19.75 13.5V14.75C19.75 15.0261 19.5261 15.25 19.25 15.25H18C17.7239 15.25 17.5 15.0261 17.5 14.75V13.5Z" fill="white"/>
<path d="M19.75 15.75C19.75 15.4739 19.9739 15.25 20.25 15.25H21.5C21.7761 15.25 22 15.4739 22 15.75V17C22 17.2761 21.7761 17.5 21.5 17.5H20.25C19.9739 17.5 19.75 17.2761 19.75 17V15.75Z" fill="white"/>
</svg>
