<svg width="24" height="24" viewBox="0 0 24 24" fill="none" xmlns="http://www.w3.org/2000/svg">
<path d="M15.0791 11.992C15.3589 12.5635 15.5877 13.1168 15.7572 13.6371C16.5467 13.4101 18.1243 12.9241 18.1243 11.9892C18.1243 11.0631 16.4803 10.5816 15.7309 10.3709C15.5661 10.8879 15.3462 11.434 15.0791 11.992Z" fill="white"/>
<path d="M12.4231 15.9647C12.992 16.4954 14.2268 17.6121 15.058 17.1455C15.8929 16.6769 15.5413 15.0238 15.3596 14.3115C14.8049 14.4358 14.1933 14.5269 13.5458 14.5825C13.1777 15.0992 12.8005 15.5645 12.4231 15.9647Z" fill="white"/>
<path d="M8.66945 14.3363C8.47883 15.0779 8.09885 16.6741 8.93019 17.1389C9.7654 17.6058 11.1408 16.42 11.6239 15.9668C11.2329 15.5599 10.8448 15.0952 10.4743 14.5896C9.82527 14.5386 9.21801 14.454 8.66945 14.3363Z" fill="white"/>
<path d="M8.27636 10.3628C7.50985 10.5729 5.87567 11.0509 5.87567 11.9892C5.87567 12.9282 7.53736 13.4632 8.26824 13.6661C8.4374 13.1313 8.66038 12.5699 8.92912 12.0028C8.66382 11.4439 8.44398 10.8913 8.27636 10.3628Z" fill="white"/>
<path d="M11.6053 8.05363C11.0512 7.5401 9.75603 6.39918 8.9213 6.86765C8.08746 7.33562 8.46931 8.88425 8.67727 9.69183C9.23159 9.57004 9.83455 9.47915 10.4644 9.42254C10.8317 8.91991 11.2163 8.45872 11.6053 8.05363Z" fill="white"/>
<path d="M15.1762 10.2324C14.7918 10.1473 14.3824 10.0778 13.955 10.0255C14.2383 10.4561 14.502 10.8988 14.7475 11.3506C14.917 10.9661 15.0608 10.5911 15.1762 10.2324Z" fill="white"/>
<path d="M12.7946 9.37254C12.5346 9.03674 12.2703 8.72722 12.0064 8.45004C11.7384 8.73044 11.4718 9.0395 11.2116 9.37219C11.739 9.34826 12.2672 9.34835 12.7946 9.37254Z" fill="white"/>
<path d="M8.8318 10.2266C8.94821 10.5904 9.09075 10.9671 9.25737 11.3502C9.49871 10.8967 9.76188 10.4541 10.046 10.0245C9.62143 10.0759 9.21392 10.1437 8.8318 10.2266Z" fill="white"/>
<path d="M8.82391 13.8012C9.20592 13.8818 9.6196 13.9462 10.0582 13.9936C9.76987 13.5599 9.50268 13.1131 9.25802 12.6548C9.08785 13.0462 8.94216 13.431 8.82391 13.8012Z" fill="white"/>
<path d="M11.2164 14.6326C11.4806 14.9701 11.7511 15.2839 12.0222 15.5676C12.2843 15.2878 12.5477 14.9736 12.8085 14.6299C12.2782 14.6529 11.7468 14.6528 11.2164 14.6326Z" fill="white"/>
<path d="M15.2028 13.7772C15.0829 13.4133 14.932 13.0305 14.753 12.6349C14.5067 13.0954 14.2388 13.545 13.9534 13.9837C14.3952 13.9323 14.8144 13.8631 15.2028 13.7772Z" fill="white"/>
<path fill-rule="evenodd" clip-rule="evenodd" d="M10.7874 14.0555C11.5989 14.1065 12.4152 14.1071 13.2265 14.0509C13.6783 13.3928 14.088 12.7059 14.4445 11.9947C14.0837 11.2896 13.6768 10.6058 13.2218 9.95384C12.4097 9.8938 11.5926 9.89397 10.7805 9.95348C10.3216 10.6055 9.91411 11.291 9.56147 12.0026C9.9158 12.7156 10.3263 13.4025 10.7874 14.0555ZM12 10.8297C12.6605 10.8297 13.1959 11.3489 13.1959 11.9892C13.1959 12.6297 12.6605 13.1488 12 13.1488C11.3396 13.1488 10.8041 12.6297 10.8041 11.9892C10.8041 11.3489 11.3396 10.8297 12 10.8297Z" fill="white"/>
<path d="M15.3301 9.69759C15.5125 8.97645 15.8842 7.3181 15.0492 6.85116C14.2224 6.38879 12.9685 7.52875 12.4073 8.05334C12.7901 8.4532 13.1714 8.9152 13.5394 9.42326C14.1711 9.48076 14.7745 9.57326 15.3301 9.69759Z" fill="white"/>
<path fill-rule="evenodd" clip-rule="evenodd" d="M22 12C22 17.5228 17.5228 22 12 22C6.47719 22 2 17.5228 2 12C2 6.47719 6.47719 2 12 2C17.5228 2 22 6.47719 22 12ZM15.335 6.37061C16.4541 6.9962 16.1367 8.84142 15.8841 9.83647C16.9064 10.1216 18.6964 10.7426 18.6964 11.9892C18.6964 13.2287 16.914 13.8844 15.9131 14.1708C16.1713 15.1779 16.4623 16.9983 15.3447 17.6256C14.2306 18.2509 12.795 17.0832 12.0247 16.3626C11.2522 17.0868 9.76665 18.247 8.64432 17.6195C7.52945 16.9959 7.85562 15.2072 8.11472 14.2004C7.08221 13.9146 5.30357 13.2444 5.30357 11.9892C5.30357 10.7305 7.08407 10.1145 8.12272 9.82844C7.86457 8.82714 7.52121 7.01251 8.63466 6.38756C9.75281 5.75999 11.243 6.9484 12.0062 7.65767C12.7716 6.94126 14.2211 5.74775 15.335 6.37061Z" fill="white"/>
</svg>
