<svg width="24" height="24" viewBox="0 0 24 24" fill="none" xmlns="http://www.w3.org/2000/svg">
<path fill-rule="evenodd" clip-rule="evenodd" d="M3.13665 8.43683C4.54729 4.95675 7.96382 2.5 11.9564 2.5C15.3431 2.5 18.3157 4.26837 20 6.92764V4.56249C20 4.01021 20.4477 3.56249 21 3.56249C21.5523 3.56249 22 4.01021 22 4.56249V8.81248C22 9.36477 21.5523 9.81248 21 9.81248H16.7442C16.1919 9.81248 15.7442 9.36477 15.7442 8.81248C15.7442 8.2602 16.1919 7.81248 16.7442 7.81248H18.1892C16.8388 5.81279 14.5509 4.5 11.9564 4.5C8.80469 4.5 6.10489 6.4381 4.99017 9.18814C4.7827 9.69998 4.19958 9.94671 3.68775 9.73924C3.17592 9.53177 2.92918 8.94866 3.13665 8.43683ZM20.3123 14.2607C20.8241 14.4682 21.0709 15.0513 20.8634 15.5632C19.4527 19.0432 16.0362 21.5 12.0436 21.5C8.65696 21.5 5.68436 19.7316 4 17.0724V19.4375C4 19.9898 3.55228 20.4375 3 20.4375C2.44772 20.4375 2 19.9898 2 19.4375V15.1875C2 14.6352 2.44772 14.1875 3 14.1875H7.25584C7.80812 14.1875 8.25584 14.6352 8.25584 15.1875C8.25584 15.7398 7.80812 16.1875 7.25584 16.1875H5.81075C7.16123 18.1872 9.44914 19.5 12.0436 19.5C15.1953 19.5 17.8951 17.5619 19.0099 14.8118C19.2174 14.3 19.8005 14.0532 20.3123 14.2607Z" fill="white"/>
</svg>
