<svg width="24" height="24" viewBox="0 0 24 24" fill="none" xmlns="http://www.w3.org/2000/svg">
<path d="M2 4C2 2.89543 2.89543 2 4 2H8C8.55228 2 9 2.44772 9 3C9 3.55228 8.55228 4 8 4H4V8C4 8.55228 3.55228 9 3 9C2.44772 9 2 8.55228 2 8V4Z" fill="white"/>
<path d="M22 20C22 21.1046 21.1046 22 20 22H16C15.4477 22 15 21.5523 15 21C15 20.4477 15.4477 20 16 20H20V16C20 15.4477 20.4477 15 21 15C21.5523 15 22 15.4477 22 16V20Z" fill="white"/>
<path d="M20 2C21.1046 2 22 2.89543 22 4V8C22 8.55228 21.5523 9 21 9C20.4477 9 20 8.55228 20 8V4H16C15.4477 4 15 3.55228 15 3C15 2.44772 15.4477 2 16 2H20Z" fill="white"/>
<path d="M2 20C2 21.1046 2.89543 22 4 22H8C8.55228 22 9 21.5523 9 21C9 20.4477 8.55228 20 8 20H4V16C4 15.4477 3.55228 15 3 15C2.44772 15 2 15.4477 2 16V20Z" fill="white"/>
<path fill-rule="evenodd" clip-rule="evenodd" d="M6 7C6 6.44772 6.44772 6 7 6H10C10.5523 6 11 6.44772 11 7V10C11 10.5523 10.5523 11 10 11H7C6.44772 11 6 10.5523 6 10V7ZM7.5 7.8C7.5 7.63431 7.63431 7.5 7.8 7.5H9.2C9.36569 7.5 9.5 7.63431 9.5 7.8V9.2C9.5 9.36569 9.36569 9.5 9.2 9.5H7.8C7.63431 9.5 7.5 9.36569 7.5 9.2V7.8Z" fill="white"/>
<path fill-rule="evenodd" clip-rule="evenodd" d="M14 6C13.4477 6 13 6.44772 13 7V10C13 10.5523 13.4477 11 14 11H17C17.5523 11 18 10.5523 18 10V7C18 6.44772 17.5523 6 17 6H14ZM14.8 7.5C14.6343 7.5 14.5 7.63431 14.5 7.8V9.2C14.5 9.36569 14.6343 9.5 14.8 9.5H16.2C16.3657 9.5 16.5 9.36569 16.5 9.2V7.8C16.5 7.63431 16.3657 7.5 16.2 7.5H14.8Z" fill="white"/>
<path fill-rule="evenodd" clip-rule="evenodd" d="M6 14C6 13.4477 6.44772 13 7 13H10C10.5523 13 11 13.4477 11 14V17C11 17.5523 10.5523 18 10 18H7C6.44772 18 6 17.5523 6 17V14ZM7.5 14.8313C7.5 14.6656 7.63431 14.5312 7.8 14.5312H9.2C9.36569 14.5312 9.5 14.6656 9.5 14.8313V16.2312C9.5 16.3969 9.36569 16.5312 9.2 16.5312H7.8C7.63431 16.5312 7.5 16.3969 7.5 16.2312V14.8313Z" fill="white"/>
<path d="M13 13.5C13 13.2239 13.2239 13 13.5 13H14.5C14.7761 13 15 13.2239 15 13.5V14.5C15 14.7761 14.7761 15 14.5 15H13.5C13.2239 15 13 14.7761 13 14.5V13.5Z" fill="white"/>
<path d="M16.5 16C16.2239 16 16 16.2239 16 16.5V17.5C16 17.7761 16.2239 18 16.5 18H17.5C17.7761 18 18 17.7761 18 17.5V16.5C18 16.2239 17.7761 16 17.5 16H16.5Z" fill="white"/>
<path d="M13 16.5C13 16.2239 13.2239 16 13.5 16H14.5C14.7761 16 15 16.2239 15 16.5V17.5C15 17.7761 14.7761 18 14.5 18H13.5C13.2239 18 13 17.7761 13 17.5V16.5Z" fill="white"/>
<path d="M16.5 13C16.2239 13 16 13.2239 16 13.5V14.5C16 14.7761 16.2239 15 16.5 15H17.5C17.7761 15 18 14.7761 18 14.5V13.5C18 13.2239 17.7761 13 17.5 13H16.5Z" fill="white"/>
</svg>
