<svg width="24" height="24" viewBox="0 0 24 24" fill="none" xmlns="http://www.w3.org/2000/svg">
<path fill-rule="evenodd" clip-rule="evenodd" d="M12.3821 19.876C12.2066 19.9737 12.0732 20 12 20C11.7849 20 11.0518 19.7737 10.2533 18.1766C9.61429 16.8986 9.14295 15.094 9.02739 13H13.941C14.9011 12.2372 16.1161 11.7815 17.4376 11.7815C19.2105 11.7815 20.7919 12.6017 21.8229 13.8834C21.9392 13.2734 22 12.6438 22 12C22 6.47715 17.5228 2 12 2C6.47715 2 2 6.47715 2 12C2 17.5228 6.47715 22 12 22C12.6636 22 13.3121 21.9354 13.9395 21.812C13.2869 21.2931 12.7522 20.6322 12.3821 19.876ZM14.9726 11H9.02739C9.14295 8.90602 9.61429 7.10143 10.2533 5.82336C11.0518 4.22632 11.7849 4 12 4C12.2151 4 12.9482 4.22632 13.7467 5.82336C14.3857 7.10143 14.8571 8.90602 14.9726 11ZM19.9381 11H16.9753C16.8545 8.5663 16.2974 6.38927 15.4627 4.78617C17.861 5.93948 19.5956 8.25357 19.9381 11ZM4.06189 13C4.40437 15.7464 6.13899 18.0605 8.53731 19.2138C7.70259 17.6107 7.1455 15.4337 7.02469 13H4.06189ZM7.02469 11H4.06189C4.40437 8.25357 6.13899 5.93948 8.53731 4.78617C7.70258 6.38927 7.1455 8.5663 7.02469 11Z" fill="white"/>
<path fill-rule="evenodd" clip-rule="evenodd" d="M17.3999 15.4004C16.2953 15.4004 15.3999 16.2958 15.3999 17.4004C15.3999 18.5049 16.2953 19.4004 17.3999 19.4004C18.5045 19.4004 19.3999 18.5049 19.3999 17.4004C19.3999 16.2958 18.5045 15.4004 17.3999 15.4004ZM13.3999 17.4004C13.3999 15.1912 15.1907 13.4004 17.3999 13.4004C19.6091 13.4004 21.3999 15.1912 21.3999 17.4004C21.3999 18.1422 21.198 18.8368 20.8461 19.4324L21.707 20.2933C22.0975 20.6838 22.0975 21.317 21.707 21.7075C21.3165 22.098 20.6833 22.098 20.2928 21.7075L19.4319 20.8466C18.8364 21.1985 18.1417 21.4004 17.3999 21.4004C15.1907 21.4004 13.3999 19.6095 13.3999 17.4004Z" fill="white"/>
</svg>
