<svg width="18" height="18" viewBox="0 0 18 18" fill="none" xmlns="http://www.w3.org/2000/svg">
<path fill-rule="evenodd" clip-rule="evenodd" d="M8 6C6.89543 6 6 6.89543 6 8C6 9.10457 6.89543 10 8 10C9.10457 10 10 9.10457 10 8C10 6.89543 9.10457 6 8 6ZM4 8C4 5.79086 5.79086 4 8 4C10.2091 4 12 5.79086 12 8C12 10.2091 10.2091 12 8 12C5.79086 12 4 10.2091 4 8Z" fill="currentcolor"/>
<path fill-rule="evenodd" clip-rule="evenodd" d="M9.29289 10.2929C9.68342 9.90237 10.3166 9.90237 10.7071 10.2929L13.2071 12.7929C13.5976 13.1834 13.5976 13.8166 13.2071 14.2071C12.8166 14.5976 12.1834 14.5976 11.7929 14.2071L9.29289 11.7071C8.90237 11.3166 8.90237 10.6834 9.29289 10.2929Z" fill="currentcolor"/>
</svg>
