<svg width="20" height="20" viewBox="0 0 20 20" fill="none" xmlns="http://www.w3.org/2000/svg">
<path fill-rule="evenodd" clip-rule="evenodd" d="M13.9183 9.5C13.9183 11.7091 12.1275 13.5 9.91833 13.5C7.7092 13.5 5.91833 11.7091 5.91833 9.5C5.91833 7.29086 7.7092 5.5 9.91833 5.5C12.1275 5.5 13.9183 7.29086 13.9183 9.5ZM13.241 13.8833C12.3179 14.5841 11.1667 15 9.91833 15C6.88077 15 4.41833 12.5376 4.41833 9.5C4.41833 6.46243 6.88077 4 9.91833 4C12.9559 4 15.4183 6.46243 15.4183 9.5C15.4183 10.7484 15.0024 11.8996 14.3016 12.8226L16.9487 15.4697L15.888 16.5303L13.241 13.8833Z" fill="black"/>
</svg>
