<svg width="24" height="24" viewBox="0 0 24 24" fill="none" xmlns="http://www.w3.org/2000/svg">
<path fill-rule="evenodd" clip-rule="evenodd" d="M14.0154 14.0156C16.3054 11.7255 16.3054 8.01262 14.0154 5.72258C11.7254 3.43254 8.01252 3.43254 5.72252 5.72258C3.43252 8.01262 3.43252 11.7255 5.72252 14.0156C8.01252 16.3056 11.7254 16.3056 14.0154 14.0156ZM15.4331 15.4333C18.5061 12.3603 18.5061 7.37786 15.4331 4.3048C12.3601 1.23173 7.37777 1.23173 4.30476 4.3048C1.23175 7.37786 1.23175 12.3603 4.30476 15.4333C7.37777 18.5064 12.3601 18.5064 15.4331 15.4333Z" fill="white"/>
<path fill-rule="evenodd" clip-rule="evenodd" d="M14.2737 14.2735C14.6652 13.882 15.2999 13.882 15.6914 14.2735L21.7064 20.2886C22.0979 20.6801 22.0979 21.3149 21.7064 21.7064C21.3149 22.0979 20.6801 22.0979 20.2886 21.7064L14.2737 15.6913C13.8822 15.2998 13.8822 14.6651 14.2737 14.2735Z" fill="white"/>
</svg>
