<svg width="20" height="20" viewBox="0 0 20 20" fill="none" xmlns="http://www.w3.org/2000/svg">
<path fill-rule="evenodd" clip-rule="evenodd" d="M2.41833 6.37372V13.6263C2.41833 15.1066 3.63612 16.3066 5.13833 16.3066H15.6983C17.2005 16.3066 18.4183 15.1066 18.4183 13.6263V6.37372C18.4183 4.89343 17.2005 3.69342 15.6983 3.69342H5.13833C3.63612 3.69342 2.41833 4.89343 2.41833 6.37372ZM6.41833 6.84671C6.41833 6.41133 6.06016 6.05839 5.61833 6.05839C5.1765 6.05839 4.81833 6.41133 4.81833 6.84671C4.81833 7.28209 5.1765 7.63503 5.61833 7.63503C6.06016 7.63503 6.41833 7.28209 6.41833 6.84671ZM5.61833 12.36C6.06016 12.36 6.41833 12.7129 6.41833 13.1483C6.41833 13.5837 6.06016 13.9366 5.61833 13.9366C5.1765 13.9366 4.81833 13.5837 4.81833 13.1483C4.81833 12.7129 5.1765 12.36 5.61833 12.36ZM16.0183 10C16.0183 9.56462 15.6602 9.21168 15.2183 9.21168C14.7765 9.21168 14.4183 9.56462 14.4183 10C14.4183 10.4354 14.7765 10.7883 15.2183 10.7883C15.6602 10.7883 16.0183 10.4354 16.0183 10ZM8.81834 6.05839H15.2183C15.6602 6.05839 16.0183 6.41133 16.0183 6.84671C16.0183 7.28209 15.6602 7.63503 15.2183 7.63503H8.81834C8.37651 7.63503 8.01834 7.28209 8.01834 6.84671C8.01834 6.41133 8.37651 6.05839 8.81834 6.05839ZM15.2183 12.36H8.81834C8.37651 12.36 8.01834 12.7129 8.01834 13.1483C8.01834 13.5837 8.37651 13.9366 8.81834 13.9366H15.2183C15.6602 13.9366 16.0183 13.5837 16.0183 13.1483C16.0183 12.7129 15.6602 12.36 15.2183 12.36ZM5.61834 9.21168H12.0183C12.4602 9.21168 12.8183 9.56462 12.8183 10C12.8183 10.4354 12.4602 10.7883 12.0183 10.7883H5.61834C5.17651 10.7883 4.81834 10.4354 4.81834 10C4.81834 9.56462 5.17651 9.21168 5.61834 9.21168Z" fill="black"/>
</svg>
