<svg width="24" height="24" viewBox="0 0 24 24" fill="none" xmlns="http://www.w3.org/2000/svg">
<path fill-rule="evenodd" clip-rule="evenodd" d="M2.40002 8.01635V16.7194C2.40002 18.4958 3.86137 19.9358 5.66402 19.9358H18.336C20.1387 19.9358 21.6 18.4958 21.6 16.7194V8.01635C21.6 6.24 20.1387 4.79999 18.336 4.79999H5.66402C3.86137 4.79999 2.40002 6.24 2.40002 8.01635ZM7.20002 8.58394C7.20002 8.06148 6.77021 7.63795 6.24002 7.63795C5.70983 7.63795 5.28002 8.06148 5.28002 8.58394C5.28002 9.10639 5.70983 9.52992 6.24002 9.52992C6.77021 9.52992 7.20002 9.10639 7.20002 8.58394ZM6.24002 15.1998C6.77021 15.1998 7.20002 15.6234 7.20002 16.1458C7.20002 16.6683 6.77021 17.0918 6.24002 17.0918C5.70983 17.0918 5.28002 16.6683 5.28002 16.1458C5.28002 15.6234 5.70983 15.1998 6.24002 15.1998ZM18.72 12.3679C18.72 11.8454 18.2902 11.4219 17.76 11.4219C17.2298 11.4219 16.8 11.8454 16.8 12.3679C16.8 12.8903 17.2298 13.3139 17.76 13.3139C18.2902 13.3139 18.72 12.8903 18.72 12.3679ZM10.08 7.63795H17.76C18.2902 7.63795 18.72 8.06148 18.72 8.58394C18.72 9.10639 18.2902 9.52992 17.76 9.52992H10.08C9.54984 9.52992 9.12003 9.10639 9.12003 8.58394C9.12003 8.06148 9.54984 7.63795 10.08 7.63795ZM17.76 15.1998H10.08C9.54984 15.1998 9.12003 15.6234 9.12003 16.1458C9.12003 16.6683 9.54984 17.0918 10.08 17.0918H17.76C18.2902 17.0918 18.72 16.6683 18.72 16.1458C18.72 15.6234 18.2902 15.1998 17.76 15.1998ZM6.24003 11.4219H13.92C14.4502 11.4219 14.88 11.8454 14.88 12.3679C14.88 12.8903 14.4502 13.3139 13.92 13.3139H6.24003C5.70983 13.3139 5.28003 12.8903 5.28003 12.3679C5.28003 11.8454 5.70983 11.4219 6.24003 11.4219Z" fill="white"/>
</svg>
