<svg xmlns="http://www.w3.org/2000/svg" width="24" height="24" viewBox="0 0 24 24" fill="none">
  <path d="M19.096 11.968C19.096 11.305 18.567 10.767 17.915 10.767C17.263 10.767 16.734 11.305 16.734 11.968C16.734 12.631 17.263 13.169 17.915 13.169C18.567 13.169 19.096 12.631 19.096 11.968Z" fill="white"/>
  <path d="M7.16 7.959C7.16 7.296 6.631 6.759 5.979 6.759C5.327 6.759 4.798 7.296 4.798 7.959C4.798 8.623 5.327 9.16 5.979 9.16C6.631 9.16 7.16 8.623 7.16 7.959Z" fill="white"/>
  <path d="M7.16 16.04C7.16 15.377 6.631 14.84 5.979 14.84C5.327 14.84 4.798 15.377 4.798 16.04C4.798 16.704 5.327 17.241 5.979 17.241C6.631 17.241 7.16 16.704 7.16 16.04Z" fill="white"/>
  <path d="M19.198 15.977C19.198 15.423 18.757 14.975 18.213 14.975H9.46C8.916 14.975 8.475 15.423 8.475 15.977C8.475 16.53 8.916 16.979 9.46 16.979H18.213C18.757 16.979 19.198 16.53 19.198 15.977Z" fill="white"/>
  <path d="M15.42 11.968C15.42 11.415 14.978 10.966 14.434 10.966H5.784C5.24 10.966 4.798 11.415 4.798 11.968C4.798 12.522 5.24 12.97 5.784 12.97H14.434C14.978 12.97 15.42 12.522 15.42 11.968Z" fill="white"/>
  <path d="M19.198 7.959C19.198 7.406 18.757 6.957 18.213 6.957H9.46C8.916 6.957 8.475 7.406 8.475 7.959C8.475 8.513 8.916 8.962 9.46 8.962H18.213C18.757 8.962 19.198 8.513 19.198 7.959Z" fill="white"/>
</svg>