<svg width="24" height="24" viewBox="0 0 24 24" fill="none" xmlns="http://www.w3.org/2000/svg">
<path fill-rule="evenodd" clip-rule="evenodd" d="M9.28295 3.91752C10.1921 1.36083 13.8079 1.36083 14.717 3.91752C14.8729 4.3559 15.3737 4.56333 15.7939 4.36358C18.2447 3.19862 20.8014 5.75532 19.6364 8.20606C19.4367 8.62629 19.6441 9.12705 20.0825 9.28295C22.6392 10.1921 22.6392 13.8079 20.0825 14.717C19.6441 14.8729 19.4367 15.3737 19.6364 15.7939C20.8014 18.2447 18.2447 20.8014 15.7939 19.6364C15.3737 19.4367 14.8729 19.6441 14.717 20.0825C13.8079 22.6392 10.1921 22.6392 9.28295 20.0825C9.12705 19.6441 8.62629 19.4367 8.20606 19.6364C5.75532 20.8014 3.19862 18.2447 4.36358 15.7939C4.56333 15.3737 4.3559 14.8729 3.91752 14.717C1.36083 13.8079 1.36083 10.1921 3.91752 9.28295C4.3559 9.12705 4.56333 8.62629 4.36358 8.20606C3.19862 5.75531 5.75532 3.19862 8.20606 4.36358C8.62629 4.56333 9.12705 4.3559 9.28295 3.91752ZM12.7398 4.62065C12.4922 3.92452 11.5078 3.92452 11.2602 4.62065C10.6876 6.23071 8.84848 6.99252 7.30513 6.2589C6.63784 5.9417 5.9417 6.63784 6.2589 7.30513C6.99252 8.84848 6.23071 10.6876 4.62065 11.2602C3.92452 11.5078 3.92452 12.4922 4.62065 12.7398C6.23071 13.3124 6.99252 15.1515 6.2589 16.6949C5.9417 17.3622 6.63784 18.0583 7.30513 17.7411C8.84848 17.0075 10.6876 17.7693 11.2602 19.3793C11.5078 20.0755 12.4922 20.0755 12.7398 19.3793C13.3124 17.7693 15.1515 17.0075 16.6949 17.7411C17.3622 18.0583 18.0583 17.3622 17.7411 16.6949C17.0075 15.1515 17.7693 13.3124 19.3793 12.7398C20.0755 12.4922 20.0755 11.5078 19.3793 11.2602C17.7693 10.6876 17.0075 8.84848 17.7411 7.30513C18.0583 6.63784 17.3622 5.9417 16.6949 6.2589C15.1515 6.99252 13.3124 6.23071 12.7398 4.62065Z" fill="white"/>
<path fill-rule="evenodd" clip-rule="evenodd" d="M8 12C8 9.79082 9.79082 8 12 8C14.2092 8 16 9.79082 16 12C16 14.2092 14.2092 16 12 16C9.79082 16 8 14.2092 8 12ZM12 10C10.8954 10 10 10.8954 10 12C10 13.1046 10.8954 14 12 14C13.1046 14 14 13.1046 14 12C14 10.8954 13.1046 10 12 10Z" fill="white"/>
</svg>
