<svg width="20" height="20" viewBox="0 0 20 20" fill="none" xmlns="http://www.w3.org/2000/svg">
<path d="M4 6.23376C3.72386 6.23376 3.5 6.45762 3.5 6.73376V14.7338C3.5 15.0099 3.72386 15.2338 4 15.2338H12C12.2761 15.2338 12.5 15.0099 12.5 14.7338V10.5L14 9V14.7338C14 15.8383 13.1046 16.7338 12 16.7338H4C2.89543 16.7338 2 15.8383 2 14.7338V6.73376C2 5.6292 2.89543 4.73376 4 4.73376H9.76886L8.25252 6.23376H4Z" fill="black"/>
<path d="M11 3H16V8" stroke="black" stroke-width="1.25"/>
<path d="M16 3L8 11" stroke="black" stroke-width="1.5"/>
</svg>
