<svg width="24" height="24" viewBox="0 0 24 24" fill="none" xmlns="http://www.w3.org/2000/svg">
<path d="M7 9.5C7 8.67157 7.67157 8 8.5 8C9.32843 8 10 8.67157 10 9.5V11.5C10 12.3284 9.32843 13 8.5 13C7.67157 13 7 12.3284 7 11.5V9.5Z" fill="white"/>
<path fill-rule="evenodd" clip-rule="evenodd" d="M8.5 8C7.67157 8 7 8.67157 7 9.5V11.5C7 12.3284 7.67157 13 8.5 13C9.32843 13 10 12.3284 10 11.5V9.5C10 8.67157 9.32843 8 8.5 8Z" fill="white"/>
<path d="M11 14C11 13.4477 11.4477 13 12 13C12.5523 13 13 13.4477 13 14C13 14.5523 12.5523 15 12 15C11.4477 15 11 14.5523 11 14Z" fill="white"/>
<path d="M9 18C9 17.4477 9.44772 17 10 17C10.5523 17 11 17.4477 11 18V21C11 21.5523 10.5523 22 10 22C9.44772 22 9 21.5523 9 21V18Z" fill="white"/>
<path fill-rule="evenodd" clip-rule="evenodd" d="M11 18V21C11 21.5523 10.5523 22 10 22C9.44772 22 9 21.5523 9 21V18C9 17.4477 9.44772 17 10 17C10.5523 17 11 17.4477 11 18Z" fill="white"/>
<path d="M13 18C13 17.4477 13.4477 17 14 17C14.5523 17 15 17.4477 15 18V21C15 21.5523 14.5523 22 14 22C13.4477 22 13 21.5523 13 21V18Z" fill="white"/>
<path fill-rule="evenodd" clip-rule="evenodd" d="M15 18V21C15 21.5523 14.5523 22 14 22C13.4477 22 13 21.5523 13 21V18C13 17.4477 13.4477 17 14 17C14.5523 17 15 17.4477 15 18Z" fill="white"/>
<path d="M14 9.5C14 8.67157 14.6716 8 15.5 8C16.3284 8 17 8.67157 17 9.5V11.5C17 12.3284 16.3284 13 15.5 13C14.6716 13 14 12.3284 14 11.5V9.5Z" fill="white"/>
<path fill-rule="evenodd" clip-rule="evenodd" d="M15.5 8C14.6716 8 14 8.67157 14 9.5V11.5C14 12.3284 14.6716 13 15.5 13C16.3284 13 17 12.3284 17 11.5V9.5C17 8.67157 16.3284 8 15.5 8Z" fill="white"/>
<path fill-rule="evenodd" clip-rule="evenodd" d="M2 9.22744C2 5.23584 5.23584 2 9.22744 2H14.7726C18.7642 2 22 5.23584 22 9.22744V14.6972C22 16.2447 20.2993 17.1764 19 16.3673V18.734C19 20.5378 17.5378 22 15.734 22H8.26598C6.46223 22 5 20.5378 5 18.734V16.3673C3.70069 17.1764 2 16.2447 2 14.6972V9.22744ZM9.22744 4C6.34041 4 4 6.34041 4 9.22744V14.6327C5.29931 13.8236 7 14.7553 7 16.3028V18.734C7 19.4332 7.5668 20 8.26598 20H15.734C16.4332 20 17 19.4332 17 18.734V16.3028C17 14.7553 18.7007 13.8236 20 14.6327V9.22744C20 6.34041 17.6596 4 14.7726 4H9.22744Z" fill="white"/>
</svg>
