<svg width="24" height="24" viewBox="0 0 24 24" fill="none" xmlns="http://www.w3.org/2000/svg">
<path fill-rule="evenodd" clip-rule="evenodd" d="M12 7C12 6.44772 12.4477 6 13 6H17C17.5523 6 18 6.44772 18 7C18 7.55228 17.5523 8 17 8H13C12.4477 8 12 7.55228 12 7Z" fill="white"/>
<path fill-rule="evenodd" clip-rule="evenodd" d="M19 13L13 13C12.4477 13 12 12.5523 12 12C12 11.4477 12.4477 11 13 11L19 11C19.5523 11 20 11.4477 20 12C20 12.5523 19.5523 13 19 13Z" fill="white"/>
<path fill-rule="evenodd" clip-rule="evenodd" d="M12 17C12 16.4477 12.4477 16 13 16H21C21.5523 16 22 16.4477 22 17C22 17.5523 21.5523 18 21 18H13C12.4477 18 12 17.5523 12 17Z" fill="white"/>
<path fill-rule="evenodd" clip-rule="evenodd" d="M9.70711 12.7929C10.0976 13.1834 10.0976 13.8166 9.70711 14.2071L6 17.9142L2.29289 14.2071C1.90237 13.8166 1.90237 13.1834 2.29289 12.7929C2.68342 12.4024 3.31658 12.4024 3.70711 12.7929L5 14.0858L5 7C5 6.44772 5.44772 6 6 6C6.55229 6 7 6.44772 7 7L7 14.0858L8.29289 12.7929C8.68342 12.4024 9.31658 12.4024 9.70711 12.7929Z" fill="white"/>
</svg>
