<svg width="24" height="24" viewBox="0 0 24 24" fill="none" xmlns="http://www.w3.org/2000/svg">
<path fill-rule="evenodd" clip-rule="evenodd" d="M10.1345 3.21033C10.8424 1.59656 13.1576 1.59655 13.8655 3.21033L15.6619 7.30531L20.1568 7.72871C21.9282 7.89557 22.6436 10.0721 21.3098 11.2363L17.925 14.1906L18.9067 18.5472C19.2936 20.2641 17.4205 21.6093 15.8882 20.7151L12 18.4459L8.11176 20.7151C6.57945 21.6093 4.70644 20.2641 5.0933 18.5472L6.07496 14.1906L2.69023 11.2363C1.35636 10.0721 2.07178 7.89557 3.84318 7.72871L8.33812 7.30532L10.1345 3.21033ZM13.7964 8.10497L12 4.00999L10.2036 8.10497C9.909 8.77661 9.26825 9.23679 8.53101 9.30624L4.03606 9.72963L7.42079 12.6839C7.97594 13.1684 8.22068 13.913 8.05967 14.6276L7.07802 18.9842L10.9663 16.7151C11.604 16.3429 12.396 16.3429 13.0337 16.7151L16.922 18.9842L15.9403 14.6276C15.7793 13.913 16.0241 13.1684 16.5792 12.6839L19.9639 9.72963L15.469 9.30624C14.7317 9.23679 14.091 8.77661 13.7964 8.10497Z" fill="white"/>
</svg>
