<svg width="24" height="24" viewBox="0 0 24 24" fill="none" xmlns="http://www.w3.org/2000/svg">
<path fill-rule="evenodd" clip-rule="evenodd" d="M12 22C17.5228 22 22 17.5228 22 12C22 6.47715 17.5228 2 12 2C6.47715 2 2 6.47715 2 12C2 17.5228 6.47715 22 12 22ZM12.5881 15.856C12.2784 15.9248 11.9616 15.9564 11.6444 15.9502C10.9932 15.9633 10.3434 15.8845 9.71432 15.7162C9.25476 15.5867 8.81 15.4098 8.38731 15.188L7.625 17.3317C7.77983 17.4243 7.98624 17.5215 8.22216 17.6259C8.49816 17.7433 8.78192 17.8416 9.07146 17.9202C9.44457 18.022 9.82377 18.1003 10.2068 18.1542C10.683 18.221 11.1635 18.253 11.6444 18.2498C13.225 18.2488 14.4085 17.9403 15.1949 17.3243C15.9813 16.7084 16.3745 15.8412 16.3745 14.7231C16.3862 14.2232 16.3099 13.7253 16.1488 13.2518C16.0017 12.8541 15.7675 12.4943 15.4632 12.1983C15.1251 11.878 14.7372 11.6141 14.3147 11.4171C13.8527 11.1925 13.3095 10.965 12.6854 10.7345C12.3846 10.6314 12.1098 10.531 11.8611 10.4328C11.632 10.344 11.4118 10.2337 11.2035 10.1033C11.0299 9.9994 10.8794 9.86121 10.7612 9.69722C10.6539 9.5316 10.6013 9.33659 10.6108 9.1396C10.6008 8.97726 10.635 8.81526 10.7098 8.67073C10.7845 8.52621 10.8971 8.40454 11.0354 8.31862C11.3176 8.14011 11.7825 8.05085 12.4303 8.05085C12.9291 8.04085 13.4265 8.10784 13.9048 8.24948C14.2892 8.37127 14.663 8.52431 15.0224 8.70704L15.8024 6.58104C15.3383 6.34117 14.8507 6.14987 14.3471 6.01018C13.6639 5.82559 12.9581 5.73841 12.2504 5.75123C11.6288 5.74262 11.0095 5.82743 10.4132 6.00282C9.90844 6.14938 9.43715 6.39276 9.02574 6.71933C8.64912 7.02568 8.3467 7.41294 8.14107 7.85223C7.92788 8.32142 7.82162 8.83195 7.82996 9.34704C7.81586 9.83301 7.91691 10.3154 8.12484 10.7551C8.31218 11.1296 8.57057 11.4644 8.88568 11.7408C9.20391 12.0155 9.56053 12.2426 9.94434 12.4147C10.3375 12.5942 10.7307 12.753 11.1239 12.8913C12.0253 13.1906 12.6608 13.4676 13.0304 13.7226C13.198 13.8255 13.3367 13.9691 13.4336 14.1399C13.5306 14.3108 13.5826 14.5033 13.5848 14.6996C13.5852 14.8732 13.5532 15.0453 13.4904 15.2071C13.4269 15.3646 13.3181 15.4997 13.1779 15.5956C12.9992 15.7183 12.7992 15.8066 12.5881 15.856Z" fill="white"/>
</svg>
