<svg width="18" height="18" viewBox="0 0 18 18" fill="none" xmlns="http://www.w3.org/2000/svg">
<path d="M8.99548 5.92932C8.58533 5.92932 8.20056 6.00745 7.84119 6.1637C7.48181 6.31995 7.16345 6.53674 6.88611 6.81409C6.61267 7.08752 6.39783 7.40588 6.24158 7.76917C6.08533 8.12854 6.0072 8.51331 6.0072 8.92346C6.0072 9.33362 6.08533 9.71838 6.24158 10.0778C6.39783 10.4371 6.61267 10.7555 6.88611 11.0328C7.16345 11.3063 7.48181 11.5211 7.84119 11.6774C8.20056 11.8336 8.58533 11.9117 8.99548 11.9117C9.40173 11.9117 9.78455 11.8336 10.1439 11.6774C10.5072 11.5211 10.8256 11.3063 11.099 11.0328C11.3724 10.7555 11.5873 10.4371 11.7435 10.0778C11.8998 9.71838 11.9779 9.33362 11.9779 8.92346C11.9779 8.51331 11.8998 8.12854 11.7435 7.76917C11.5873 7.40588 11.3724 7.08752 11.099 6.81409C10.8256 6.53674 10.5072 6.31995 10.1439 6.1637C9.78455 6.00745 9.40173 5.92932 8.99548 5.92932ZM9.51111 3.07581C9.51111 2.93518 9.46033 2.81409 9.35876 2.71252C9.2572 2.61096 9.13611 2.56018 8.99548 2.56018C8.85876 2.56018 8.73962 2.61096 8.63806 2.71252C8.5365 2.81409 8.48572 2.93518 8.48572 3.07581V4.30627C8.48572 4.44299 8.5365 4.56213 8.63806 4.6637C8.73962 4.76526 8.85876 4.81604 8.99548 4.81604C9.13611 4.81604 9.2572 4.76526 9.35876 4.6637C9.46033 4.56213 9.51111 4.44299 9.51111 4.30627V3.07581ZM11.89 5.30823C11.7924 5.40588 11.7435 5.52698 11.7435 5.67151C11.7435 5.81213 11.7924 5.93127 11.89 6.02893C11.9877 6.12659 12.1068 6.17737 12.2474 6.18127C12.392 6.18127 12.515 6.13049 12.6166 6.02893L13.4896 5.15588C13.5873 5.05823 13.6361 4.93713 13.6361 4.7926C13.6361 4.64807 13.5873 4.52698 13.4896 4.42932C13.392 4.33167 13.2728 4.28284 13.1322 4.28284C12.9916 4.28284 12.8724 4.33167 12.7748 4.42932L11.89 5.30823ZM14.8256 9.43323C14.9662 9.43323 15.0873 9.38245 15.1888 9.28088C15.2904 9.17932 15.3412 9.06018 15.3412 8.92346C15.3412 8.78284 15.2904 8.6637 15.1888 8.56604C15.0873 8.46448 14.9662 8.4137 14.8256 8.4137H13.601C13.4642 8.4137 13.3451 8.46448 13.2435 8.56604C13.142 8.6637 13.0912 8.78284 13.0912 8.92346C13.0912 9.06018 13.142 9.17932 13.2435 9.28088C13.3451 9.38245 13.4642 9.43323 13.601 9.43323H14.8256ZM12.6107 11.8239C12.5131 11.7262 12.392 11.6774 12.2474 11.6774C12.1068 11.6774 11.9877 11.7262 11.89 11.8239C11.7924 11.9215 11.7435 12.0406 11.7435 12.1813C11.7435 12.3219 11.7924 12.443 11.89 12.5446L12.7748 13.4235C12.8724 13.5211 12.9916 13.568 13.1322 13.5641C13.2728 13.5641 13.392 13.5153 13.4896 13.4176C13.5873 13.3199 13.6361 13.2008 13.6361 13.0602C13.6361 12.9156 13.5873 12.7946 13.4896 12.6969L12.6107 11.8239ZM9.51111 13.5406C9.51111 13.4 9.46033 13.2789 9.35876 13.1774C9.2572 13.0758 9.13611 13.025 8.99548 13.025C8.85876 13.025 8.73962 13.0758 8.63806 13.1774C8.5365 13.2789 8.48572 13.4 8.48572 13.5406V14.7711C8.48572 14.9078 8.5365 15.027 8.63806 15.1285C8.73962 15.2301 8.85876 15.2809 8.99548 15.2809C9.13611 15.2809 9.2572 15.2301 9.35876 15.1285C9.46033 15.027 9.51111 14.9078 9.51111 14.7711V13.5406ZM4.50134 12.691C4.40369 12.7887 4.35486 12.9098 4.35486 13.0543C4.35486 13.1949 4.40173 13.3141 4.49548 13.4117C4.59314 13.5094 4.71423 13.5582 4.85876 13.5582C5.0033 13.5621 5.12439 13.5153 5.22205 13.4176L6.09509 12.5446C6.19275 12.4469 6.24158 12.3278 6.24158 12.1871C6.24548 12.0426 6.19861 11.9215 6.10095 11.8239C6.0033 11.7262 5.8822 11.6774 5.73767 11.6774C5.59314 11.6774 5.47205 11.7262 5.37439 11.8239L4.50134 12.691ZM3.16541 8.4137C3.02869 8.4137 2.90955 8.46448 2.80798 8.56604C2.70642 8.6637 2.65564 8.78284 2.65564 8.92346C2.65564 9.06018 2.70642 9.17932 2.80798 9.28088C2.90955 9.38245 3.02869 9.43323 3.16541 9.43323H4.39001C4.53064 9.43323 4.65173 9.38245 4.7533 9.28088C4.85486 9.17932 4.90564 9.06018 4.90564 8.92346C4.90564 8.78284 4.85486 8.6637 4.7533 8.56604C4.65173 8.46448 4.53064 8.4137 4.39001 8.4137H3.16541ZM5.37439 6.02893C5.47205 6.12659 5.59119 6.17542 5.73181 6.17542C5.87634 6.17542 5.99744 6.12659 6.09509 6.02893C6.19275 5.93518 6.24158 5.81604 6.24158 5.67151C6.24548 5.52307 6.19861 5.40198 6.10095 5.30823L5.22791 4.42932C5.13416 4.33557 5.01501 4.2887 4.87048 4.2887C4.72986 4.28479 4.60876 4.33167 4.5072 4.42932C4.40955 4.52698 4.36072 4.64807 4.36072 4.7926C4.36072 4.93323 4.40759 5.05237 4.50134 5.15002L5.37439 6.02893Z" fill="currentcolor"/>
</svg>
