<svg fill="none" height="20" viewBox="0 0 20 20" width="20" xmlns="http://www.w3.org/2000/svg"><path clip-rule="evenodd" d="m9.66833 3v3.0702c-.54699.10376-1.05456.3189-1.49822.62093l-2.17122-2.17121-1.06066 1.06066 2.17122 2.17122c-.30203.44366-.51716.95122-.62092 1.4982h-3.0702v1.5h3.0702c.10376.547.31889 1.0545.62092 1.4982l-2.17121 2.1712 1.06066 1.0607 2.17121-2.1712c.44366.302.95123.5171 1.49822.6209v3.0702h1.49997v-3.0702c.547-.1038 1.0546-.3189 1.4983-.6209l2.1712 2.1712 1.0606-1.0607-2.1712-2.1712c.302-.4437.5172-.9512.6209-1.4982h3.0702v-1.5h-3.0702c-.1037-.54698-.3188-1.05454-.6209-1.49819l2.1712-2.17122-1.0606-1.06066-2.1712 2.17121c-.4437-.30204-.9513-.51718-1.4983-.62094v-3.0702zm-1.75 7c0-1.38071 1.11929-2.5 2.49997-2.5 1.3807 0 2.5 1.11929 2.5 2.5 0 1.3807-1.1193 2.5-2.5 2.5-1.38068 0-2.49997-1.1193-2.49997-2.5z" fill="#000" fill-rule="evenodd"/></svg>