<svg width="24" height="24" viewBox="0 0 24 24" fill="none" xmlns="http://www.w3.org/2000/svg">
<path d="M3.00084 8.50088H18.0033L16.4019 9.70082C16.2967 9.77962 16.2082 9.87831 16.1412 9.9913C16.0743 10.1043 16.0302 10.2294 16.0117 10.3594C15.9931 10.4894 16.0003 10.6218 16.0329 10.749C16.0655 10.8762 16.1229 10.9956 16.2018 11.1007C16.2949 11.2249 16.4158 11.3257 16.5549 11.3951C16.6938 11.4645 16.8471 11.5007 17.0024 11.5007C17.219 11.5007 17.4297 11.4305 17.6029 11.3007L21.6063 8.30089C21.7287 8.20757 21.8279 8.08729 21.8962 7.94941C21.9645 7.81153 22 7.65977 22 7.50594C22 7.3521 21.9645 7.20033 21.8962 7.06246C21.8279 6.92458 21.7287 6.8043 21.6063 6.71098L17.743 3.71116C17.5334 3.54805 17.2674 3.47487 17.0037 3.50768C16.74 3.5405 16.5001 3.67664 16.3369 3.88615C16.1736 4.09565 16.1004 4.36137 16.1332 4.62484C16.166 4.88832 16.3023 5.12796 16.512 5.29106L18.0833 6.50099H3.00084C2.73539 6.50099 2.48083 6.60635 2.29313 6.79387C2.10545 6.9814 2 7.23573 2 7.50094C2 7.76614 2.10545 8.02048 2.29313 8.20801C2.48083 8.39553 2.73539 8.50088 3.00084 8.50088Z" fill="white"/>
<path d="M20.8989 15.5003H5.99673L7.59807 14.3004C7.81042 14.1413 7.95081 13.9044 7.98834 13.6418C8.02588 13.3793 7.9575 13.1126 7.79823 12.9004C7.63897 12.6882 7.40188 12.5481 7.1391 12.5106C6.87633 12.473 6.60942 12.5414 6.39706 12.7004L2.39372 15.7003C2.27132 15.7936 2.1721 15.9139 2.10382 16.0518C2.03553 16.1896 2 16.3414 2 16.4952C2 16.649 2.03553 16.8008 2.10382 16.9387C2.1721 17.0766 2.27132 17.1969 2.39372 17.2902L6.25695 20.29C6.43164 20.4255 6.64632 20.4993 6.86746 20.5C7.0203 20.4996 7.17104 20.4643 7.30809 20.3967C7.44515 20.3291 7.56489 20.231 7.65811 20.11C7.82064 19.9015 7.89398 19.6374 7.86211 19.375C7.83022 19.1127 7.69572 18.8736 7.48797 18.7101L5.91666 17.5002H20.8989C21.1643 17.5002 21.4189 17.3948 21.6066 17.2073C21.7942 17.0198 21.8997 16.7654 21.8997 16.5002C21.8997 16.235 21.7942 15.9807 21.6066 15.7932C21.4189 15.6057 21.1643 15.5003 20.8989 15.5003Z" fill="white"/>
</svg>
