<svg width="24" height="24" viewBox="0 0 24 24" fill="none" xmlns="http://www.w3.org/2000/svg">
<path fill-rule="evenodd" clip-rule="evenodd" d="M16.8806 2.57534C17.3913 2.78562 17.6349 3.37008 17.4246 3.88077L14.2001 11.7117L17.0077 14.1182C17.2823 14.3536 17.4729 14.6903 17.5175 15.0714C17.9506 18.7676 15.7909 21.32 14.2084 22.2521C13.7781 22.5055 13.2893 22.4964 12.8999 22.3324L10.5333 21.336C10.6439 21.0925 10.7332 20.8217 10.7882 20.5591L10.7918 20.5421C10.8622 20.1977 10.8731 19.8689 10.7955 19.636C10.6047 19.7202 10.3576 19.8334 10.0873 19.9572C9.64429 20.1601 9.1383 20.3919 8.7166 20.571L4.8356 18.9369C4.16742 18.6556 3.91006 18.0205 3.90534 17.5092C3.90071 17.0068 4.12771 16.4293 4.65959 16.0899C6.04939 15.2031 6.58515 13.6709 6.56827 12.6347C6.55596 11.8792 7.12916 11 8.1232 11H12.3302L15.5752 3.11927C15.7855 2.60858 16.37 2.36506 16.8806 2.57534ZM12.6405 20.0531C12.6773 19.3744 12.4886 18.5352 12.0571 17.6696C11.8051 17.1639 11.1563 17.0628 10.6861 17.376C9.95269 17.8643 9.32521 18.2038 8.77749 18.4266L6.28795 17.3784C7.60081 16.3172 8.27805 14.8584 8.49214 13.5739L15.56 16.401C15.427 18.3776 14.2987 19.7598 13.4203 20.3815L12.6405 20.0531Z" fill="white"/>
<path d="M7.43606 3.30359C7.28626 2.8988 6.71374 2.8988 6.56394 3.30359L6.02758 4.7529C5.98049 4.88015 5.88015 4.98049 5.7529 5.02758L4.30359 5.56394C3.8988 5.71374 3.8988 6.28626 4.30359 6.43606L5.7529 6.97242C5.88015 7.01951 5.98049 7.11985 6.02758 7.2471L6.56394 8.69641C6.71374 9.1012 7.28626 9.1012 7.43606 8.69641L7.97242 7.2471C8.01951 7.11985 8.11985 7.01951 8.2471 6.97242L9.69641 6.43606C10.1012 6.28626 10.1012 5.71374 9.69641 5.56394L8.2471 5.02758C8.11985 4.98049 8.01951 4.88015 7.97242 4.7529L7.43606 3.30359Z" fill="white"/>
</svg>
