<svg width="24" height="24" viewBox="0 0 24 24" fill="none" xmlns="http://www.w3.org/2000/svg">
<path d="M6.56394 3.30359C6.71374 2.8988 7.28626 2.8988 7.43606 3.30359L7.97242 4.7529C8.01951 4.88015 8.11985 4.98049 8.2471 5.02758L9.69641 5.56394C10.1012 5.71374 10.1012 6.28626 9.69641 6.43606L8.2471 6.97242C8.11985 7.01951 8.01951 7.11985 7.97242 7.2471L7.43606 8.69641C7.28626 9.1012 6.71374 9.1012 6.56394 8.69641L6.02758 7.2471C5.98049 7.11985 5.88015 7.01951 5.7529 6.97242L4.30359 6.43606C3.8988 6.28626 3.8988 5.71374 4.30359 5.56394L5.7529 5.02758C5.88015 4.98049 5.98049 4.88015 6.02758 4.7529L6.56394 3.30359Z" fill="white"/>
<path fill-rule="evenodd" clip-rule="evenodd" d="M7.57152 12.1286C7.77664 11.6158 8.35861 11.3664 8.87139 11.5715L11.7671 12.7298L12.1056 12.0528C12.3526 11.5588 12.9532 11.3586 13.4472 11.6056C13.9412 11.8526 14.1414 12.4532 13.8944 12.9472L13.6305 13.4752L16.3714 14.5715C16.8842 14.7766 17.1336 15.3586 16.9285 15.8714C16.7234 16.3842 16.1414 16.6336 15.6286 16.4285L8.12861 13.4285C7.61583 13.2234 7.36641 12.6414 7.57152 12.1286Z" fill="white"/>
<path d="M7.1875 18.7812C8.04147 18.7812 9.12333 18.4166 10.6861 17.376C11.1563 17.0628 11.8051 17.1639 12.0571 17.6696C12.8109 19.1821 12.8238 20.6137 12.1875 21.25L10.7882 20.5591C10.8618 20.2086 10.8744 19.8727 10.7955 19.636C10.6047 19.7202 10.3576 19.8334 10.0873 19.9572C9.99975 19.9973 9.90973 20.0385 9.8184 20.0803L7.1875 18.7812Z" fill="white"/>
<path fill-rule="evenodd" clip-rule="evenodd" d="M17.4246 3.88077C17.6349 3.37008 17.3913 2.78562 16.8806 2.57534C16.37 2.36506 15.7855 2.60858 15.5752 3.11927L12.3302 11H8.1232C7.12916 11 6.55596 11.8792 6.56827 12.6347C6.58515 13.6709 6.04939 15.2031 4.65959 16.0899C4.12771 16.4293 3.90071 17.0068 3.90534 17.5092C3.91006 18.0205 4.16742 18.6556 4.8356 18.9369L8.7166 20.571C9.13854 20.3918 9.64411 20.1602 10.0873 19.9572C10.3576 19.8334 10.6047 19.7202 10.7955 19.636C10.9335 20.05 10.7916 20.7674 10.5333 21.336L12.8999 22.3324C13.2893 22.4964 13.7781 22.5055 14.2084 22.2521C15.7909 21.32 17.9506 18.7676 17.5175 15.0714C17.4729 14.6903 17.2823 14.3536 17.0077 14.1182L14.2001 11.7117L17.4246 3.88077ZM8.55841 13H12.63L15.5513 15.504C15.7596 17.9607 14.4261 19.6697 13.4203 20.3815L6.28795 17.3784C7.80117 16.1552 8.46996 14.4039 8.55841 13Z" fill="white"/>
</svg>
