<svg width="24" height="24" viewBox="0 0 24 24" fill="none" xmlns="http://www.w3.org/2000/svg">
<path fill-rule="evenodd" clip-rule="evenodd" d="M3 4C3 2.89543 3.89543 2 5 2H19C20.1046 2 21 2.89543 21 4V6C21 6.55228 20.5523 7 20 7C19.4477 7 19 6.55228 19 6V4H5V6C5 6.55228 4.55228 7 4 7C3.44772 7 3 6.55228 3 6V4Z" fill="white"/>
<path fill-rule="evenodd" clip-rule="evenodd" d="M12 3C12.5523 3 13 3.44772 13 4V20H16C16.5523 20 17 20.4477 17 21C17 21.5523 16.5523 22 16 22H8C7.44772 22 7 21.5523 7 21C7 20.4477 7.44772 20 8 20H11V4C11 3.44772 11.4477 3 12 3Z" fill="white"/>
</svg>
