<svg width="24" height="24" viewBox="0 0 24 24" fill="none" xmlns="http://www.w3.org/2000/svg">
<path d="M12 16C14.2091 16 16 14.2091 16 12C16 9.79086 14.2091 8 12 8V16Z" fill="white"/>
<path fill-rule="evenodd" clip-rule="evenodd" d="M2 12C2 6.47715 6.47715 2 12 2C17.5228 2 22 6.47715 22 12C22 17.5228 17.5228 22 12 22C6.47715 22 2 17.5228 2 12ZM12.9976 4.0616C12.4497 3.99366 12 4.44785 12 5V8C9.79086 8 8 9.79086 8 12C8 14.2091 9.79086 16 12 16V19C12 19.5523 12.45 20.0066 12.998 19.9384C16.9453 19.4471 20 16.0803 20 12C20 8.13401 17.2578 4.9085 13.6123 4.16253C13.4101 4.12115 13.2051 4.0874 12.9976 4.0616Z" fill="white"/>
</svg>
