<svg width="24" height="24" viewBox="0 0 24 24" fill="none" xmlns="http://www.w3.org/2000/svg">
<path fill-rule="evenodd" clip-rule="evenodd" d="M9 5C9 4.44772 8.55228 4 8 4H5C4.44772 4 4 4.44772 4 5L4 8C4 8.55228 4.44772 9 5 9H8C8.55228 9 9 8.55228 9 8V5ZM4 2C2.89543 2 2 2.89543 2 4V9C2 10.1046 2.89543 11 4 11H9C10.1046 11 11 10.1046 11 9V4C11 2.89543 10.1046 2 9 2H4Z" fill="white"/>
<path fill-rule="evenodd" clip-rule="evenodd" d="M9 16C9 15.4477 8.55228 15 8 15H5C4.44772 15 4 15.4477 4 16L4 19C4 19.5523 4.44772 20 5 20H8C8.55228 20 9 19.5523 9 19V16ZM4 13C2.89543 13 2 13.8954 2 15V20C2 21.1046 2.89543 22 4 22H9C10.1046 22 11 21.1046 11 20V15C11 13.8954 10.1046 13 9 13H4Z" fill="white"/>
<path fill-rule="evenodd" clip-rule="evenodd" d="M20 5C20 4.44772 19.5523 4 19 4H16C15.4477 4 15 4.44772 15 5V8C15 8.55228 15.4477 9 16 9H19C19.5523 9 20 8.55228 20 8V5ZM15 2C13.8954 2 13 2.89543 13 4V9C13 10.1046 13.8954 11 15 11H20C21.1046 11 22 10.1046 22 9V4C22 2.89543 21.1046 2 20 2H15Z" fill="white"/>
<path fill-rule="evenodd" clip-rule="evenodd" d="M20 16C20 15.4477 19.5523 15 19 15H16C15.4477 15 15 15.4477 15 16V19C15 19.5523 15.4477 20 16 20H19C19.5523 20 20 19.5523 20 19V16ZM15 13C13.8954 13 13 13.8954 13 15V20C13 21.1046 13.8954 22 15 22H20C21.1046 22 22 21.1046 22 20V15C22 13.8954 21.1046 13 20 13H15Z" fill="white"/>
</svg>
