<svg width="24" height="24" viewBox="0 0 24 24" fill="none" xmlns="http://www.w3.org/2000/svg">
<path d="M18.4609 6.00888C17.4108 5.30628 16.6528 4.1826 16.4165 2.87257C16.3654 2.58939 16.3374 2.2982 16.3374 2H12.9858L12.9803 15.7801C12.924 17.3232 11.6861 18.5618 10.1684 18.5618C9.69672 18.5618 9.25243 18.4409 8.86151 18.2295C7.96479 17.7453 7.35124 16.7809 7.35124 15.6713C7.35124 14.0774 8.61512 12.7807 10.1684 12.7807C10.4584 12.7807 10.7363 12.8298 10.9997 12.9143V9.40399C10.7272 9.36593 10.4506 9.34222 10.1684 9.34222C6.76731 9.34255 4 12.1817 4 15.6713C4 17.8125 5.04287 19.7072 6.63354 20.8529C7.63539 21.5746 8.85435 22 10.1687 22C13.57 22 16.3374 19.1609 16.3374 15.6713V8.6837C17.6517 9.65177 19.2622 10.2221 21 10.2221V6.78361C20.0639 6.78361 19.1919 6.4981 18.4609 6.00888Z" fill="white"/>
</svg>
