<svg width="24" height="24" viewBox="0 0 24 24" fill="none" xmlns="http://www.w3.org/2000/svg">
<path fill-rule="evenodd" clip-rule="evenodd" d="M3 7C3 6.44772 3.44772 6 4 6H7V5C7 3.34315 8.34315 2 10 2H14C15.6569 2 17 3.34315 17 5V6H20C20.5523 6 21 6.44772 21 7C21 7.55228 20.5523 8 20 8H4C3.44772 8 3 7.55228 3 7ZM10 4C9.44772 4 9 4.44772 9 5V6H15V5C15 4.44772 14.5523 4 14 4H10Z" fill="white"/>
<path d="M10 10C10.5523 10 11 10.4477 11 11V17C11 17.5523 10.5523 18 10 18C9.44772 18 9 17.5523 9 17V11C9 10.4477 9.44772 10 10 10Z" fill="white"/>
<path d="M14 10C14.5523 10 15 10.4477 15 11V17C15 17.5523 14.5523 18 14 18C13.4477 18 13 17.5523 13 17V11C13 10.4477 13.4477 10 14 10Z" fill="white"/>
<path d="M17 22C18.1046 22 19 21.1046 19 20V9H17V20H7V9H5V20C5 21.1046 5.89543 22 7 22H17Z" fill="white"/>
</svg>
