<svg width="20" height="20" viewBox="0 0 20 20" fill="none" xmlns="http://www.w3.org/2000/svg">
<path fill-rule="evenodd" clip-rule="evenodd" d="M7.27145 3.52145C6.89461 3.89829 6.75 4.42293 6.75 5H3V6H17V5H13.25C13.25 4.42293 13.1054 3.89829 12.7286 3.52145C12.3517 3.14461 11.8271 3 11.25 3H8.75C8.17293 3 7.64829 3.14461 7.27145 3.52145ZM7.97855 4.22855C7.85539 4.35171 7.75 4.57707 7.75 5H12.25C12.25 4.57707 12.1446 4.35171 12.0214 4.22855C11.8983 4.10539 11.6729 4 11.25 4H8.75C8.32707 4 8.10171 4.10539 7.97855 4.22855Z" fill="white"/>
<path fill-rule="evenodd" clip-rule="evenodd" d="M5.5 18L4.5 7H15.5L14.5 18H5.5ZM13.0806 7.99386C13.3562 8.01062 13.5661 8.24765 13.5493 8.52328L13.0615 16.5457C13.0447 16.8213 12.8077 17.0312 12.532 17.0144C12.2564 16.9976 12.0466 16.7606 12.0633 16.485L12.5511 8.46259C12.5679 8.18695 12.8049 7.9771 13.0806 7.99386ZM6.45107 8.52328C6.43431 8.24765 6.64417 8.01062 6.9198 7.99386C7.19543 7.9771 7.43246 8.18695 7.44922 8.46259L7.93705 16.485C7.95381 16.7606 7.74395 16.9976 7.46832 17.0144C7.19269 17.0312 6.95565 16.8213 6.93889 16.5457L6.45107 8.52328ZM9.99988 7.99451C10.276 7.99451 10.4999 8.21836 10.4999 8.49451V16.5154C10.4999 16.7915 10.276 17.0154 9.99988 17.0154C9.72374 17.0154 9.49988 16.7915 9.49988 16.5154V8.49451C9.49988 8.21836 9.72374 7.99451 9.99988 7.99451Z" fill="white"/>
</svg>
