<svg width="24" height="24" viewBox="0 0 24 24" fill="none" xmlns="http://www.w3.org/2000/svg">
<path d="M12.7868 5.57823L16.0056 7.40563C16.1214 7.46979 16.1256 7.64776 16.0056 7.71193L12.1809 9.88494C12.0652 9.95116 11.9285 9.94702 11.8212 9.88494L7.99651 7.71193C7.87869 7.64984 7.87659 7.46771 7.99651 7.40563L11.2132 5.57823V2L3 6.66474V15.9943L6.14937 14.2061V10.5513C6.14727 10.4209 6.30294 10.3278 6.41866 10.3982L10.2433 12.5712C10.3591 12.6374 10.4243 12.7554 10.4243 12.8775V17.2215C10.4264 17.3519 10.2707 17.445 10.155 17.3746L6.93619 15.5471L3.78682 17.3352L12 22L20.2132 17.3352L17.0639 15.5471L13.845 17.3746C13.7314 17.4429 13.5715 17.3539 13.5758 17.2215V12.8775C13.5758 12.7471 13.6494 12.6312 13.7567 12.5712L17.5814 10.3982C17.6949 10.3299 17.8549 10.4168 17.8506 10.5513V14.2061L21 15.9943V6.66474L12.7868 2V5.57823Z" fill="white"/>
</svg>
