<svg width="24" height="24" viewBox="0 0 24 24" fill="none" xmlns="http://www.w3.org/2000/svg">
<path fill-rule="evenodd" clip-rule="evenodd" d="M6.5 8.85506C7.94574 8.42479 9 7.08551 9 5.5C9 3.567 7.433 2 5.5 2C3.567 2 2 3.567 2 5.5C2 7.08551 3.05426 8.42479 4.5 8.85506V13.6716C4.5 16.3443 7.73143 17.6828 9.62132 15.7929L10.068 15.3463L8.70472 20.4346C8.56178 20.9681 8.87836 21.5164 9.41182 21.6593C9.94528 21.8023 10.4936 21.4857 10.6366 20.9522L12.9513 12.3125C12.9622 12.2788 12.9714 12.2445 12.9788 12.2099L15.2948 3.56538C15.4377 3.03191 15.1213 2.48345 14.5879 2.3405C14.0544 2.19756 13.5058 2.51428 13.3629 3.04774L11.103 11.4827L8.20711 14.3787C7.57714 15.0086 6.5 14.5625 6.5 13.6716V8.85506ZM5.5 7C6.32843 7 7 6.32843 7 5.5C7 4.67157 6.32843 4 5.5 4C4.67157 4 4 4.67157 4 5.5C4 6.32843 4.67157 7 5.5 7Z" fill="white"/>
<path fill-rule="evenodd" clip-rule="evenodd" d="M15 18.5C15 16.9145 16.0543 15.5752 17.5 15.1449V10.3284C17.5 9.4375 16.4229 8.99133 15.7929 9.62129L15.3848 10.0294L16.1037 7.34619C17.7717 7.13271 19.5 8.37375 19.5 10.3284V15.1449C20.9457 15.5752 22 16.9145 22 18.5C22 20.433 20.433 22 18.5 22C16.567 22 15 20.433 15 18.5ZM20 18.5C20 19.3284 19.3284 20 18.5 20C17.6716 20 17 19.3284 17 18.5C17 17.6716 17.6716 17 18.5 17C19.3284 17 20 17.6716 20 18.5Z" fill="white"/>
</svg>
