<svg width="24" height="24" viewBox="0 0 24 24" fill="none" xmlns="http://www.w3.org/2000/svg">
<path fill-rule="evenodd" clip-rule="evenodd" d="M14.5879 2.3405C15.1213 2.48345 15.4377 3.03191 15.2948 3.56538L10.6366 20.9522C10.4936 21.4857 9.94528 21.8023 9.41182 21.6593C8.87836 21.5164 8.56178 20.9681 8.70472 20.4346L13.3629 3.04774C13.5058 2.51428 14.0544 2.19756 14.5879 2.3405Z" fill="white"/>
<path fill-rule="evenodd" clip-rule="evenodd" d="M12.8665 11.5028C13.1426 11.9811 12.9787 12.5926 12.5005 12.8688C12.0222 13.1449 11.4106 12.981 11.1344 12.5027C10.9984 12.2672 10.9692 11.9992 11.0317 11.755C11.0335 11.7476 11.0355 11.7403 11.0376 11.7329C11.1056 11.4902 11.2649 11.2727 11.5005 11.1367C11.9787 10.8606 12.5903 11.0245 12.8665 11.5028Z" fill="white"/>
<path fill-rule="evenodd" clip-rule="evenodd" d="M5.5 7C6.32843 7 7 6.32843 7 5.5C7 4.67157 6.32843 4 5.5 4C4.67157 4 4 4.67157 4 5.5C4 6.32843 4.67157 7 5.5 7ZM5.5 9C7.433 9 9 7.433 9 5.5C9 3.567 7.433 2 5.5 2C3.567 2 2 3.567 2 5.5C2 7.433 3.567 9 5.5 9Z" fill="white"/>
<path fill-rule="evenodd" clip-rule="evenodd" d="M18.5 20C19.3284 20 20 19.3284 20 18.5C20 17.6716 19.3284 17 18.5 17C17.6716 17 17 17.6716 17 18.5C17 19.3284 17.6716 20 18.5 20ZM18.5 22C20.433 22 22 20.433 22 18.5C22 16.567 20.433 15 18.5 15C16.567 15 15 16.567 15 18.5C15 20.433 16.567 22 18.5 22Z" fill="white"/>
<path d="M15.3848 10.0294L16.1037 7.34619C17.7717 7.13271 19.5 8.37375 19.5 10.3284V16C19.5 16.5523 19.0523 17 18.5 17C17.9477 17 17.5 16.5523 17.5 16V10.3284C17.5 9.4375 16.4229 8.99133 15.7929 9.62129L15.3848 10.0294Z" fill="white"/>
<path d="M5.5 7C6.05228 7 6.5 7.44772 6.5 8V13.6716C6.5 14.5625 7.57714 15.0086 8.20711 14.3787L11.2929 11.2929C11.6834 10.9024 12.3166 10.9024 12.7071 11.2929C13.0976 11.6834 13.0976 12.3166 12.7071 12.7071L9.62132 15.7929C7.73143 17.6828 4.5 16.3443 4.5 13.6716V8C4.5 7.44772 4.94772 7 5.5 7Z" fill="white"/>
</svg>
