<svg width="24" height="24" viewBox="0 0 24 24" fill="none" xmlns="http://www.w3.org/2000/svg">
<path fill-rule="evenodd" clip-rule="evenodd" d="M12 22C17.5228 22 22 17.5228 22 12C22 6.47719 17.5228 2 12 2C6.47719 2 2 6.47719 2 12C2 17.5228 6.47719 22 12 22ZM14.5578 17.5595C17.0031 16.4045 17.7697 14.2716 17.9422 13.4406C17.0481 14.3562 16.0589 15.2844 15.3936 14.6419C15.3936 14.6419 15.3572 11.213 15.3572 9.80703C15.3572 7.91641 17.1502 6.50734 17.1502 6.50734C16.1641 6.68297 14.98 7.03406 13.7231 8.2675C13.6097 8.38 13.5022 8.49813 13.4009 8.62172C12.8623 8.20938 12.1644 8.33297 12.1644 8.33297C12.5416 8.54016 12.918 9.14359 12.918 9.64313V14.5534C12.918 14.5534 12.0956 15.2769 11.4619 15.2769C11.3191 15.278 11.178 15.2448 11.0505 15.1803C10.923 15.1158 10.8128 15.0217 10.7292 14.9059C10.6791 14.8405 10.6375 14.7688 10.6056 14.6927V8.62609C10.4183 8.78063 9.78516 8.90797 9.78516 7.85703C9.78516 7.20406 10.2556 6.42578 11.0934 5.94844C9.94297 6.12391 8.86547 6.62094 7.98531 7.38219C7.31656 7.96 6.78172 8.67672 6.41797 9.48219C6.05422 10.2877 5.87016 11.1627 5.87875 12.0466C5.87875 12.0466 6.49141 10.1323 7.25875 9.95547C7.37047 9.92609 7.48766 9.92312 7.60078 9.94703C7.71391 9.97094 7.81984 10.0208 7.91031 10.093C8.00078 10.165 8.07297 10.2572 8.12141 10.3622C8.16984 10.4672 8.19312 10.582 8.18922 10.6975V15.1922C8.18922 15.6478 7.89547 15.7473 7.62406 15.7425C7.44016 15.7295 7.25844 15.6953 7.0825 15.6405C7.64281 16.3988 8.37094 17.0173 9.20984 17.4477C10.0487 17.878 10.9759 18.1084 11.9187 18.1211L13.5758 16.4555L14.5578 17.5595Z" fill="white"/>
</svg>
