<svg width="24" height="24" viewBox="0 0 24 24" fill="none" xmlns="http://www.w3.org/2000/svg">
<path fill-rule="evenodd" clip-rule="evenodd" d="M17.8623 13.354C17.6944 14.1543 16.9501 16.2088 14.5734 17.3207L13.6188 16.2572L12.0091 17.8608C11.0923 17.8487 10.1921 17.6263 9.3767 17.2118C8.56127 16.7973 7.85325 16.2012 7.30862 15.472C7.47958 15.525 7.65658 15.5582 7.8351 15.5703C8.09834 15.5749 8.38427 15.4796 8.38427 15.0408V10.7126C8.38729 10.6006 8.36611 10.4902 8.3177 10.3903C8.2708 10.289 8.1997 10.1997 8.11195 10.1316C8.02421 10.062 7.92133 10.0136 7.81089 9.99092C7.70045 9.96823 7.58699 9.97126 7.47806 9.99849C6.73222 10.1694 6.13767 12.0121 6.13767 12.0121C6.12859 11.1604 6.30862 10.3177 6.66112 9.54312C7.01513 8.76702 7.53404 8.07716 8.18457 7.52042C9.03934 6.78669 10.0862 6.30862 11.2058 6.13918C10.3918 6.59909 9.93495 7.34796 9.93495 7.97731C9.93495 8.98941 10.5507 8.86687 10.7322 8.71861V14.5613C10.764 14.6339 10.8033 14.7035 10.8517 14.767C10.9334 14.879 11.0408 14.9697 11.1634 15.0318C11.2874 15.0938 11.4236 15.1256 11.5628 15.1241C12.1785 15.1241 12.9773 14.4281 12.9773 14.4281V9.69894C12.9773 9.21785 12.6112 8.63691 12.2451 8.43722C12.2451 8.43722 12.9228 8.3177 13.4463 8.71558C13.5446 8.59607 13.649 8.4826 13.7595 8.37368C14.9803 7.18608 16.1316 6.8472 17.0893 6.67776C17.0893 6.67776 15.3464 8.0348 15.3464 9.85628C15.3464 11.2103 15.3812 14.5129 15.3812 14.5129C16.0272 15.1316 16.9894 14.2375 17.8578 13.3555L17.8623 13.354Z" fill="white"/>
<path fill-rule="evenodd" clip-rule="evenodd" d="M22 12C22 17.5219 17.5234 22 12 22C6.47655 22 2 17.5219 2 12C2 6.47806 6.47806 2 12 2C17.5219 2 22 6.47655 22 12ZM12 21.3101C17.1422 21.3101 21.3101 17.1422 21.3101 12C21.3101 6.85779 17.1422 2.68986 12 2.68986C6.85779 2.68986 2.68986 6.85779 2.68986 12C2.68986 17.1422 6.85779 21.3101 12 21.3101Z" fill="white"/>
</svg>
