<svg width="24" height="24" viewBox="0 0 24 24" fill="none" xmlns="http://www.w3.org/2000/svg">
<path fill-rule="evenodd" clip-rule="evenodd" d="M8.29289 12.4571C7.90237 12.0666 7.90237 11.4334 8.29289 11.0429L12 7.33579L15.7071 11.0429C16.0976 11.4334 16.0976 12.0666 15.7071 12.4571C15.3166 12.8476 14.6834 12.8476 14.2929 12.4571L13 11.1642V16.75C13 17.3023 12.5523 17.75 12 17.75C11.4477 17.75 11 17.3023 11 16.75V11.1642L9.70711 12.4571C9.31658 12.8476 8.68342 12.8476 8.29289 12.4571Z" fill="white"/>
<path fill-rule="evenodd" clip-rule="evenodd" d="M12 20.5C16.4183 20.5 20 16.9183 20 12.5C20 8.08172 16.4183 4.5 12 4.5C7.58172 4.5 4 8.08172 4 12.5C4 16.9183 7.58172 20.5 12 20.5ZM12 22.5C17.5228 22.5 22 18.0228 22 12.5C22 6.97715 17.5228 2.5 12 2.5C6.47715 2.5 2 6.97715 2 12.5C2 18.0228 6.47715 22.5 12 22.5Z" fill="white"/>
</svg>
