<svg width="24" height="24" viewBox="0 0 24 24" fill="none" xmlns="http://www.w3.org/2000/svg">
<path fill-rule="evenodd" clip-rule="evenodd" d="M8.29289 8.12132C7.90237 7.7308 7.90237 7.09763 8.29289 6.70711L12 3L15.7071 6.70711C16.0976 7.09763 16.0976 7.7308 15.7071 8.12132C15.3166 8.51184 14.6834 8.51184 14.2929 8.12132L13 6.82843V15.9142C13 16.4665 12.5523 16.9142 12 16.9142C11.4477 16.9142 11 16.4665 11 15.9142V6.82843L9.70711 8.12132C9.31658 8.51184 8.68342 8.51184 8.29289 8.12132Z" fill="white"/>
<path fill-rule="evenodd" clip-rule="evenodd" d="M3 15C3.55228 15 4 15.4477 4 16V19C4 19.5523 4.44772 20 5 20H19C19.5523 20 20 19.5523 20 19V16C20 15.4477 20.4477 15 21 15C21.5523 15 22 15.4477 22 16V19C22 20.6569 20.6569 22 19 22H5C3.34315 22 2 20.6569 2 19V16C2 15.4477 2.44772 15 3 15Z" fill="white"/>
</svg>
