<svg width="20" height="20" viewBox="0 0 20 20" fill="none" xmlns="http://www.w3.org/2000/svg">
<path fill-rule="evenodd" clip-rule="evenodd" d="M3.10266 10.1542C4.59031 12.0767 7.10968 13.3664 10 13.3664C12.8903 13.3664 15.4097 12.0767 16.8973 10.1542C15.4097 8.23164 12.8903 6.94189 10 6.94189C7.10968 6.94189 4.59031 8.23164 3.10266 10.1542ZM1.5554 9.73818C3.28414 7.14472 6.43627 5.44189 10 5.44189C13.5637 5.44189 16.7158 7.14473 18.4446 9.73818L18.7219 10.1542L18.4446 10.5702C16.7158 13.1636 13.5637 14.8664 10 14.8664C6.43627 14.8664 3.28414 13.1636 1.5554 10.5702L1.27811 10.1542L1.5554 9.73818Z" fill="black"/>
<path d="M12.3856 10.1541C12.3856 11.4716 11.3175 12.5397 10 12.5397C8.68251 12.5397 7.61446 11.4716 7.61446 10.1541C7.61446 8.83661 8.68251 7.76855 10 7.76855C11.3175 7.76855 12.3856 8.83661 12.3856 10.1541Z" fill="black"/>
</svg>
