<svg width="24" height="24" viewBox="0 0 24 24" fill="none" xmlns="http://www.w3.org/2000/svg">
<path fill-rule="evenodd" clip-rule="evenodd" d="M12.4358 4.09995C12.7808 4.26702 13 4.61664 13 5.00001V19C13 19.3834 12.7808 19.7331 12.4357 19.9001C12.0906 20.0672 11.6803 20.0222 11.3796 19.7843L7.24018 16.51L3.00026 16.5111C2.735 16.5112 2.48058 16.4059 2.29299 16.2183C2.10539 16.0308 2 15.7764 2 15.5111V8.48841C2 7.93612 2.44772 7.48841 3 7.48841H7.24019L11.3798 4.21556C11.6805 3.9778 12.0907 3.93289 12.4358 4.09995ZM11 7.06541L8.20795 9.27286C8.03137 9.41246 7.81285 9.48841 7.58775 9.48841H4V14.5108L7.58749 14.5099C7.81276 14.5098 8.03145 14.5859 8.20813 14.7256L11 16.934V7.06541ZM19.1495 7.23326C19.6168 6.93893 20.2342 7.07916 20.5286 7.54648C22.3021 10.3623 22.5389 14.0837 20.8746 17.3552C20.6242 17.8475 20.0221 18.0435 19.5299 17.7931C19.0376 17.5427 18.8416 16.9406 19.092 16.4484C20.4407 13.7972 20.2301 10.8255 18.8362 8.61235C18.5419 8.14503 18.6821 7.52759 19.1495 7.23326ZM15.6958 8.96421C16.1155 8.60518 16.7467 8.65432 17.1058 9.07398C18.7299 10.9724 18.9588 13.5517 17.4226 15.775C17.1086 16.2293 16.4858 16.3432 16.0314 16.0292C15.5771 15.7153 15.4632 15.0924 15.7772 14.638C16.7842 13.1807 16.6354 11.6008 15.586 10.3742C15.227 9.95449 15.2762 9.32324 15.6958 8.96421Z" fill="white"/>
</svg>
