<svg width="24" height="24" viewBox="0 0 24 24" fill="none" xmlns="http://www.w3.org/2000/svg">
<path d="M5 3C3.3431 3 2 4.34427 2 6.00261V17.7472C2 19.5436 3.4551 21 5.25 21H18.75C20.5449 21 22 19.5436 22 17.7472V8.00434C22 7.45156 21.5523 7.00348 21 7.00348H19V4.00087C19 3.44809 18.5523 3 18 3H5ZM5 5.00174H17V7.00348H5C4.4477 7.00348 4 6.55539 4 6.00261C4 5.44983 4.4477 5.00174 5 5.00174ZM5 9.00521H20V17.7472C20 18.4382 19.4403 18.9983 18.75 18.9983H5.25C4.5596 18.9983 4 18.4382 4 17.7472L4.0058 8.82916C4.0058 8.82916 4.3638 9.00832 5 9.00521Z" fill="white"/>
<path d="M16 14C16 13.4477 16.4477 13 17 13C17.5523 13 18 13.4477 18 14C18 14.5523 17.5523 15 17 15C16.4477 15 16 14.5523 16 14Z" fill="white"/>
</svg>
