<svg width="24" height="24" viewBox="0 0 24 24" fill="none" xmlns="http://www.w3.org/2000/svg">
<path d="M6.0968 7.93959C9.35527 4.46463 14.6447 4.46463 17.9032 7.93959L18.2955 8.36101C18.46 8.53372 18.46 8.81697 18.2955 8.98968L16.9541 10.4197C16.8719 10.5095 16.739 10.5095 16.6568 10.4197L16.119 9.84633C13.8412 7.42146 10.1588 7.42146 7.88105 9.84633L7.30528 10.4612C7.22303 10.551 7.09016 10.551 7.00791 10.4612L5.66656 9.03113C5.50206 8.85842 5.50206 8.57517 5.66656 8.40246L6.0968 7.93959ZM20.6808 10.8964L21.8766 12.1676C22.0411 12.3403 22.0411 12.6235 21.8766 12.7962L16.4922 18.5372C16.3277 18.7099 16.062 18.7099 15.9038 18.5372L12.0823 14.4612C12.0443 14.4197 11.9747 14.4197 11.9367 14.4612L8.11515 18.5372C7.95065 18.7099 7.68491 18.7099 7.52673 18.5372L2.12338 12.7962C1.95887 12.6235 1.95887 12.3403 2.12338 12.1676L3.3192 10.8964C3.48371 10.7237 3.74945 10.7237 3.90762 10.8964L7.7292 14.9724C7.76716 15.0139 7.83676 15.0139 7.87472 14.9724L11.6963 10.8964C11.8608 10.7237 12.1265 10.7237 12.2847 10.8964L16.1063 14.9724C16.1443 15.0139 16.2139 15.0139 16.2518 14.9724L20.0734 10.8964C20.2506 10.7237 20.5163 10.7237 20.6808 10.8964Z" fill="white"/>
</svg>
