<svg width="20" height="20" viewBox="0 0 20 20" fill="none" xmlns="http://www.w3.org/2000/svg">
<path fill-rule="evenodd" clip-rule="evenodd" d="M17 6.85185H5.86954C5.38931 6.85185 5 6.49261 5 6.04947C5 5.60633 5.38931 5.24709 5.86955 5.24709H14.5V4H5.49505C4.11707 4 3 5.03079 3 6.30233V6.85185V13.6977C3 14.9692 4.11707 16 5.49505 16H6H17V6.85185ZM13.5 10C12.6716 10 12 10.6716 12 11.5C12 12.3284 12.6716 13 13.5 13C14.3284 13 15 12.3284 15 11.5C15 10.6716 14.3284 10 13.5 10Z" fill="black"/>
</svg>
