<svg width="20" height="20" viewBox="0 0 20 20" fill="none" xmlns="http://www.w3.org/2000/svg">
<path d="M14.7245 6.93909C12.1152 4.35364 7.88479 4.35364 5.2755 6.93909L4.9615 7.25025C4.83104 7.37954 4.83104 7.58912 4.9615 7.7184L6.03571 8.78283C6.10096 8.84747 6.20671 8.84747 6.27196 8.78283L6.70408 8.35465C8.52438 6.55095 11.4756 6.55095 13.2959 8.35465L13.7587 8.81319C13.8239 8.87783 13.9297 8.87783 13.9949 8.81319L15.0691 7.74877C15.1996 7.61948 15.1996 7.4099 15.0691 7.28061L14.7245 6.93909ZM3.05392 9.14046L2.09783 10.0878C1.96738 10.2171 1.96738 10.4266 2.09783 10.5559L6.40879 14.8277C6.53925 14.9569 6.75079 14.9569 6.88125 14.8277L9.94092 11.7959C9.97354 11.7636 10.0264 11.7636 10.059 11.7959L13.1186 14.8277C13.2491 14.9569 13.4606 14.9569 13.5911 14.8277L17.9022 10.5559C18.0326 10.4266 18.0326 10.217 17.9022 10.0877L16.9461 9.14038C16.8156 9.01113 16.6041 9.01113 16.4736 9.14038L13.4139 12.1722C13.3813 12.2045 13.3285 12.2045 13.2958 12.1722L10.2363 9.14038C10.1058 9.01113 9.89429 9.01113 9.76383 9.14038L6.70412 12.1722C6.6715 12.2045 6.61862 12.2045 6.586 12.1722L3.52637 9.14046C3.39587 9.01117 3.18438 9.01117 3.05392 9.14046Z" fill="white"/>
</svg>
