<svg width="24" height="24" viewBox="0 0 24 24" fill="none" xmlns="http://www.w3.org/2000/svg">
<path fill-rule="evenodd" clip-rule="evenodd" d="M12 4.73935L19.6314 19H4.36861L12 4.73935ZM21.8222 18.8551C22.3358 19.8148 21.6752 21 20.6268 21H3.37325C2.32478 21 1.6642 19.8148 2.17776 18.8551L10.8045 2.73449C11.3286 1.75517 12.6714 1.75517 13.1955 2.73449L21.8222 18.8551Z" fill="white"/>
<path d="M13 17C13 17.5523 12.5523 18 12 18C11.4477 18 11 17.5523 11 17C11 16.4477 11.4477 16 12 16C12.5523 16 13 16.4477 13 17Z" fill="white"/>
<path d="M11 10C11 9.44772 11.4477 9 12 9C12.5523 9 13 9.44772 13 10V14C13 14.5523 12.5523 15 12 15C11.4477 15 11 14.5523 11 14V10Z" fill="white"/>
</svg>
