<svg width="20" height="20" viewBox="0 0 20 20" fill="none" xmlns="http://www.w3.org/2000/svg">
<path d="M17.9862 5.98856C17.7942 5.27105 17.2302 4.7072 16.5127 4.51513C15.2121 4.16666 10 4.16666 10 4.16666C10 4.16666 4.78789 4.16666 3.48864 4.51513C2.7711 4.7072 2.20722 5.27105 2.01515 5.98856C1.66667 7.28775 1.66667 10 1.66667 10C1.66667 10 1.66667 12.7122 2.01515 14.0114C2.20722 14.7289 2.7711 15.2928 3.48864 15.4848C4.78789 15.8333 10 15.8333 10 15.8333C10 15.8333 15.2121 15.8333 16.5113 15.4848C17.2289 15.2928 17.7927 14.7289 17.9848 14.0114C18.3333 12.7122 18.3333 10 18.3333 10C18.3333 10 18.3333 7.28775 17.9848 5.98856H17.9862ZM8.33306 12.4996V7.50039L12.663 10L8.33306 12.4996Z" fill="black"/>
</svg>
